%TF.GenerationSoftware,KiCad,Pcbnew,9.0.5*%
%TF.CreationDate,2025-12-04T03:06:58+01:00*%
%TF.ProjectId,DronePCB,44726f6e-6550-4434-922e-6b696361645f,rev?*%
%TF.SameCoordinates,Original*%
%TF.FileFunction,Copper,L2,Bot*%
%TF.FilePolarity,Positive*%
%FSLAX46Y46*%
G04 Gerber Fmt 4.6, Leading zero omitted, Abs format (unit mm)*
G04 Created by KiCad (PCBNEW 9.0.5) date 2025-12-04 03:06:58*
%MOMM*%
%LPD*%
G01*
G04 APERTURE LIST*
%TA.AperFunction,ComponentPad*%
%ADD10C,6.400000*%
%TD*%
%TA.AperFunction,ComponentPad*%
%ADD11R,1.700000X1.700000*%
%TD*%
%TA.AperFunction,ComponentPad*%
%ADD12C,1.700000*%
%TD*%
%TA.AperFunction,ComponentPad*%
%ADD13R,2.000000X2.000000*%
%TD*%
%TA.AperFunction,ComponentPad*%
%ADD14C,2.000000*%
%TD*%
%TA.AperFunction,ViaPad*%
%ADD15C,0.600000*%
%TD*%
%TA.AperFunction,Conductor*%
%ADD16C,0.200000*%
%TD*%
%TA.AperFunction,Conductor*%
%ADD17C,0.300000*%
%TD*%
G04 APERTURE END LIST*
D10*
%TO.P,H1,1*%
%TO.N,N/C*%
X22000000Y-104500000D03*
%TD*%
%TO.P,H2,1*%
%TO.N,N/C*%
X63500000Y-104500000D03*
%TD*%
%TO.P,H3,1*%
%TO.N,N/C*%
X22000000Y-22500000D03*
%TD*%
D11*
%TO.P,SIGNAUX,1,Pin_1*%
%TO.N,Moteur4*%
X34560000Y-20600000D03*
D12*
%TO.P,SIGNAUX,2,Pin_2*%
%TO.N,Moteur3*%
X37100000Y-20600000D03*
%TO.P,SIGNAUX,3,Pin_3*%
%TO.N,Moteur2*%
X39640000Y-20600000D03*
%TO.P,SIGNAUX,4,Pin_4*%
%TO.N,Moteur1*%
X42180000Y-20600000D03*
%TO.P,SIGNAUX,5,Pin_5*%
%TO.N,BEC_5V*%
X44720000Y-20600000D03*
%TO.P,SIGNAUX,6,Pin_6*%
%TO.N,GND*%
X47260000Y-20600000D03*
%TO.P,SIGNAUX,7,Pin_7*%
%TO.N,BAT*%
X49800000Y-20600000D03*
%TD*%
D13*
%TO.P,U1,1,3V3*%
%TO.N,3V3*%
X29800000Y-35985000D03*
D14*
%TO.P,U1,2,GND*%
%TO.N,GND*%
X29800000Y-38525000D03*
%TO.P,U1,3,D15*%
%TO.N,GPLED*%
X29800000Y-41065000D03*
%TO.P,U1,4,D2*%
%TO.N,unconnected-(U1-D2-Pad4)*%
X29800000Y-43605000D03*
%TO.P,U1,5,D4*%
%TO.N,NRF_CE*%
X29800000Y-46145000D03*
%TO.P,U1,6,RX2*%
%TO.N,unconnected-(U1-RX2-Pad6)*%
X29800000Y-48685000D03*
%TO.P,U1,7,TX2*%
%TO.N,unconnected-(U1-TX2-Pad7)*%
X29800000Y-51225000D03*
%TO.P,U1,8,D5*%
%TO.N,NRF_CSN*%
X29800000Y-53765000D03*
%TO.P,U1,9,D18*%
%TO.N,SCK*%
X29800000Y-56305000D03*
%TO.P,U1,10,D19*%
%TO.N,MISO*%
X29800000Y-58845000D03*
%TO.P,U1,11,D21*%
%TO.N,SDA_0*%
X29800000Y-61385000D03*
%TO.P,U1,12,RX0*%
%TO.N,unconnected-(U1-RX0-Pad12)*%
X29800000Y-63925000D03*
%TO.P,U1,13,TX0*%
%TO.N,unconnected-(U1-TX0-Pad13)*%
X29800000Y-66465000D03*
%TO.P,U1,14,D22*%
%TO.N,SCL_0*%
X29800000Y-69005000D03*
%TO.P,U1,15,D23*%
%TO.N,MOSI*%
X29800000Y-71545000D03*
%TO.P,U1,16,EN*%
%TO.N,unconnected-(U1-EN-Pad16)*%
X55200000Y-71545000D03*
%TO.P,U1,17,VP*%
%TO.N,unconnected-(U1-VP-Pad17)*%
X55200000Y-69005000D03*
%TO.P,U1,18,VN*%
%TO.N,unconnected-(U1-VN-Pad18)*%
X55200000Y-66465000D03*
%TO.P,U1,19,D34*%
%TO.N,BatteryCheck*%
X55200000Y-63925000D03*
%TO.P,U1,20,D35*%
%TO.N,unconnected-(U1-D35-Pad20)*%
X55200000Y-61385000D03*
%TO.P,U1,21,D32*%
%TO.N,Moteur3*%
X55200000Y-58845000D03*
%TO.P,U1,22,D33*%
%TO.N,Moteur4*%
X55200000Y-56305000D03*
%TO.P,U1,23,D25*%
%TO.N,SCL_1*%
X55200000Y-53765000D03*
%TO.P,U1,24,D26*%
%TO.N,SDA_1*%
X55200000Y-51225000D03*
%TO.P,U1,25,D27*%
%TO.N,unconnected-(U1-D27-Pad25)*%
X55200000Y-48685000D03*
%TO.P,U1,26,D14*%
%TO.N,Moteur2*%
X55200000Y-46145000D03*
%TO.P,U1,27,D12*%
%TO.N,ReadyToFlyLED*%
X55200000Y-43605000D03*
%TO.P,U1,28,D13*%
%TO.N,Moteur1*%
X55200000Y-41065000D03*
%TO.P,U1,29,GND*%
%TO.N,GND*%
X55200000Y-38525000D03*
%TO.P,U1,30,VIN*%
%TO.N,BEC_5V*%
X55200000Y-35985000D03*
%TD*%
D11*
%TO.P,GY-271,1,Pin_1*%
%TO.N,3V3*%
X61600000Y-67000000D03*
D12*
%TO.P,GY-271,2,Pin_2*%
%TO.N,GND*%
X61600000Y-69540000D03*
%TO.P,GY-271,3,Pin_3*%
%TO.N,SCL_1*%
X61600000Y-72080000D03*
%TO.P,GY-271,4,Pin_4*%
%TO.N,SDA_1*%
X61600000Y-74620000D03*
%TO.P,GY-271,5,Pin_5*%
%TO.N,unconnected-(GY-271-Pin_5-Pad5)*%
X61600000Y-77160000D03*
%TD*%
D10*
%TO.P,H4,1*%
%TO.N,N/C*%
X63500000Y-22500000D03*
%TD*%
D11*
%TO.P,MPU9265,1,Pin_1*%
%TO.N,3V3*%
X54080000Y-85500000D03*
D12*
%TO.P,MPU9265,2,Pin_2*%
%TO.N,GND*%
X51540000Y-85500000D03*
%TO.P,MPU9265,3,Pin_3*%
%TO.N,SCL_0*%
X49000000Y-85500000D03*
%TO.P,MPU9265,4,Pin_4*%
%TO.N,SDA_0*%
X46460000Y-85500000D03*
%TO.P,MPU9265,5,Pin_5*%
%TO.N,unconnected-(MPU9265-Pin_5-Pad5)*%
X43920000Y-85500000D03*
%TO.P,MPU9265,6,Pin_6*%
%TO.N,unconnected-(MPU9265-Pin_6-Pad6)*%
X41380000Y-85500000D03*
%TO.P,MPU9265,7,Pin_7*%
%TO.N,unconnected-(MPU9265-Pin_7-Pad7)*%
X38840000Y-85500000D03*
%TO.P,MPU9265,8,Pin_8*%
%TO.N,unconnected-(MPU9265-Pin_8-Pad8)*%
X36300000Y-85500000D03*
%TO.P,MPU9265,9,Pin_9*%
%TO.N,unconnected-(MPU9265-Pin_9-Pad9)*%
X33760000Y-85500000D03*
%TO.P,MPU9265,10,Pin_10*%
%TO.N,unconnected-(MPU9265-Pin_10-Pad10)*%
X31220000Y-85500000D03*
%TD*%
D11*
%TO.P,NRF24L01,1,Pin_1*%
%TO.N,unconnected-(NRF24L01-Pin_1-Pad1)*%
X38960000Y-106500000D03*
D12*
%TO.P,NRF24L01,2,Pin_2*%
%TO.N,MISO*%
X38960000Y-103960000D03*
%TO.P,NRF24L01,3,Pin_3*%
%TO.N,MOSI*%
X41500000Y-106500000D03*
%TO.P,NRF24L01,4,Pin_4*%
%TO.N,SCK*%
X41500000Y-103960000D03*
%TO.P,NRF24L01,5,Pin_5*%
%TO.N,NRF_CSN*%
X44040000Y-106500000D03*
%TO.P,NRF24L01,6,Pin_6*%
%TO.N,NRF_CE*%
X44040000Y-103960000D03*
%TO.P,NRF24L01,7,Pin_7*%
%TO.N,3V3*%
X46580000Y-106500000D03*
%TO.P,NRF24L01,8,Pin_8*%
%TO.N,GND*%
X46580000Y-103960000D03*
%TD*%
D15*
%TO.N,GND*%
X48200000Y-36600000D03*
X60900000Y-82700000D03*
X35200000Y-95100000D03*
X30900000Y-96100000D03*
X29200000Y-107200000D03*
X32200000Y-105100000D03*
X33800000Y-93000000D03*
X65000000Y-75000000D03*
X65000000Y-95000000D03*
X60500000Y-38500000D03*
X20000000Y-95000000D03*
X65000000Y-35000000D03*
X47000000Y-63500000D03*
X65000000Y-85000000D03*
X20000000Y-75000000D03*
X20000000Y-35000000D03*
X37500000Y-53000000D03*
X65500000Y-44500000D03*
X44500000Y-41000000D03*
X59500000Y-95000000D03*
X65000000Y-65000000D03*
X40000000Y-93500000D03*
X60000000Y-55000000D03*
X25000000Y-45000000D03*
X38000000Y-63500000D03*
X20000000Y-85000000D03*
X48000000Y-95000000D03*
X20000000Y-65000000D03*
X65000000Y-55000000D03*
X49000000Y-46000000D03*
X20000000Y-55000000D03*
X38000000Y-35000000D03*
X35000000Y-90000000D03*
%TO.N,MISO*%
X25900000Y-98200000D03*
%TD*%
D16*
%TO.N,GND*%
X48200000Y-36600000D02*
X44500000Y-40300000D01*
X44500000Y-40300000D02*
X44500000Y-41000000D01*
X62700000Y-82700000D02*
X65000000Y-85000000D01*
X60900000Y-82700000D02*
X62700000Y-82700000D01*
X35200000Y-95100000D02*
X34200000Y-96100000D01*
X34200000Y-96100000D02*
X30900000Y-96100000D01*
X32200000Y-105100000D02*
X31300000Y-105100000D01*
X31300000Y-105100000D02*
X29200000Y-107200000D01*
%TO.N,NRF_CE*%
X39700000Y-96600000D02*
X39700000Y-99620000D01*
X30980000Y-90900000D02*
X34000000Y-90900000D01*
X39700000Y-99620000D02*
X44040000Y-103960000D01*
X28300000Y-88220000D02*
X30980000Y-90900000D01*
X34000000Y-90900000D02*
X39700000Y-96600000D01*
%TO.N,GND*%
X48000000Y-95000000D02*
X59500000Y-95000000D01*
%TO.N,MOSI*%
X40000000Y-108000000D02*
X41500000Y-106500000D01*
X37300000Y-108000000D02*
X40000000Y-108000000D01*
X26022500Y-96722500D02*
X37300000Y-108000000D01*
X29800000Y-71545000D02*
X26022500Y-75322500D01*
X26022500Y-75322500D02*
X26022500Y-96722500D01*
%TO.N,MISO*%
X25000000Y-97300000D02*
X25900000Y-98200000D01*
X25000000Y-63645000D02*
X25000000Y-97300000D01*
X29800000Y-58845000D02*
X25000000Y-63645000D01*
D17*
%TO.N,Moteur3*%
X58500000Y-36000000D02*
X56000000Y-33500000D01*
X56000000Y-33500000D02*
X50000000Y-33500000D01*
X58500000Y-55545000D02*
X58500000Y-36000000D01*
X55200000Y-58845000D02*
X58500000Y-55545000D01*
X50000000Y-33500000D02*
X37100000Y-20600000D01*
%TO.N,Moteur4*%
X34560000Y-20600000D02*
X34560000Y-35665000D01*
X34560000Y-35665000D02*
X55200000Y-56305000D01*
D16*
%TO.N,NRF_CE*%
X28300000Y-84000000D02*
X32200000Y-80100000D01*
X32200000Y-80100000D02*
X32200000Y-48545000D01*
X32200000Y-48545000D02*
X29800000Y-46145000D01*
X28300000Y-88220000D02*
X28300000Y-84000000D01*
%TD*%
%TA.AperFunction,Conductor*%
%TO.N,GND*%
G36*
X29322433Y-72967547D02*
G01*
X29448632Y-73008553D01*
X29533578Y-73022007D01*
X29681903Y-73045500D01*
X29715708Y-73045500D01*
X29782747Y-73065185D01*
X29828502Y-73117989D01*
X29838446Y-73187147D01*
X29809421Y-73250703D01*
X29750643Y-73288477D01*
X29747835Y-73289265D01*
X29690418Y-73304649D01*
X29656112Y-73313842D01*
X29444123Y-73401650D01*
X29444109Y-73401657D01*
X29245382Y-73516392D01*
X29063338Y-73656081D01*
X28901081Y-73818338D01*
X28761392Y-74000382D01*
X28646657Y-74199109D01*
X28646650Y-74199123D01*
X28558842Y-74411112D01*
X28558842Y-74411113D01*
X28509329Y-74595902D01*
X28499453Y-74632759D01*
X28499451Y-74632770D01*
X28469500Y-74860258D01*
X28469500Y-75089741D01*
X28494446Y-75279215D01*
X28499452Y-75317238D01*
X28548365Y-75499786D01*
X28558842Y-75538887D01*
X28646650Y-75750876D01*
X28646657Y-75750890D01*
X28761392Y-75949617D01*
X28901081Y-76131661D01*
X28901089Y-76131670D01*
X29063330Y-76293911D01*
X29063338Y-76293918D01*
X29063339Y-76293919D01*
X29113962Y-76332764D01*
X29245382Y-76433607D01*
X29245385Y-76433608D01*
X29245388Y-76433611D01*
X29444112Y-76548344D01*
X29444117Y-76548346D01*
X29444123Y-76548349D01*
X29535480Y-76586190D01*
X29656113Y-76636158D01*
X29877762Y-76695548D01*
X30105266Y-76725500D01*
X30105273Y-76725500D01*
X30334727Y-76725500D01*
X30334734Y-76725500D01*
X30562238Y-76695548D01*
X30783887Y-76636158D01*
X30995888Y-76548344D01*
X31194612Y-76433611D01*
X31376661Y-76293919D01*
X31376665Y-76293914D01*
X31376670Y-76293911D01*
X31387819Y-76282762D01*
X31449142Y-76249277D01*
X31518834Y-76254261D01*
X31574767Y-76296133D01*
X31599184Y-76361597D01*
X31599500Y-76370443D01*
X31599500Y-79799902D01*
X31579815Y-79866941D01*
X31563181Y-79887583D01*
X27819481Y-83631282D01*
X27819479Y-83631285D01*
X27769361Y-83718094D01*
X27769359Y-83718096D01*
X27740425Y-83768209D01*
X27740424Y-83768210D01*
X27740423Y-83768215D01*
X27699499Y-83920943D01*
X27699499Y-83920945D01*
X27699499Y-84089046D01*
X27699500Y-84089059D01*
X27699500Y-88133330D01*
X27699499Y-88133348D01*
X27699499Y-88299054D01*
X27699498Y-88299054D01*
X27740423Y-88451785D01*
X27769358Y-88501900D01*
X27769359Y-88501904D01*
X27769360Y-88501904D01*
X27819479Y-88588714D01*
X27819481Y-88588717D01*
X27938349Y-88707585D01*
X27938355Y-88707590D01*
X30495139Y-91264374D01*
X30495149Y-91264385D01*
X30499479Y-91268715D01*
X30499480Y-91268716D01*
X30611284Y-91380520D01*
X30611286Y-91380521D01*
X30611290Y-91380524D01*
X30748209Y-91459573D01*
X30748216Y-91459577D01*
X30860019Y-91489534D01*
X30900942Y-91500500D01*
X30900943Y-91500500D01*
X33699903Y-91500500D01*
X33766942Y-91520185D01*
X33787584Y-91536819D01*
X39063181Y-96812416D01*
X39096666Y-96873739D01*
X39099500Y-96900097D01*
X39099500Y-99533330D01*
X39099499Y-99533348D01*
X39099499Y-99699054D01*
X39099498Y-99699054D01*
X39140423Y-99851785D01*
X39169358Y-99901900D01*
X39169359Y-99901904D01*
X39169360Y-99901904D01*
X39219479Y-99988714D01*
X39219481Y-99988717D01*
X39338349Y-100107585D01*
X39338355Y-100107590D01*
X41628584Y-102397819D01*
X41662069Y-102459142D01*
X41657085Y-102528834D01*
X41615213Y-102584767D01*
X41549749Y-102609184D01*
X41540903Y-102609500D01*
X41393713Y-102609500D01*
X41345042Y-102617208D01*
X41183760Y-102642753D01*
X40981585Y-102708444D01*
X40792179Y-102804951D01*
X40620213Y-102929890D01*
X40469890Y-103080213D01*
X40344949Y-103252182D01*
X40340484Y-103260946D01*
X40292509Y-103311742D01*
X40224688Y-103328536D01*
X40158553Y-103305998D01*
X40119516Y-103260946D01*
X40115050Y-103252182D01*
X39990109Y-103080213D01*
X39839786Y-102929890D01*
X39667820Y-102804951D01*
X39478414Y-102708444D01*
X39478413Y-102708443D01*
X39478412Y-102708443D01*
X39276243Y-102642754D01*
X39276241Y-102642753D01*
X39276240Y-102642753D01*
X39114957Y-102617208D01*
X39066287Y-102609500D01*
X38853713Y-102609500D01*
X38805042Y-102617208D01*
X38643760Y-102642753D01*
X38441585Y-102708444D01*
X38252179Y-102804951D01*
X38080213Y-102929890D01*
X37929890Y-103080213D01*
X37804951Y-103252179D01*
X37708444Y-103441585D01*
X37642753Y-103643760D01*
X37641291Y-103652993D01*
X37609500Y-103853713D01*
X37609500Y-104066287D01*
X37642754Y-104276243D01*
X37642949Y-104276844D01*
X37708444Y-104478414D01*
X37804951Y-104667820D01*
X37929890Y-104839786D01*
X38043430Y-104953326D01*
X38076915Y-105014649D01*
X38071931Y-105084341D01*
X38030059Y-105140274D01*
X37999083Y-105157189D01*
X37867669Y-105206203D01*
X37867664Y-105206206D01*
X37752455Y-105292452D01*
X37752452Y-105292455D01*
X37666206Y-105407664D01*
X37666202Y-105407671D01*
X37615908Y-105542517D01*
X37609501Y-105602116D01*
X37609500Y-105602135D01*
X37609500Y-107160903D01*
X37589815Y-107227942D01*
X37537011Y-107273697D01*
X37467853Y-107283641D01*
X37404297Y-107254616D01*
X37397819Y-107248584D01*
X26659319Y-96510084D01*
X26625834Y-96448761D01*
X26623000Y-96422403D01*
X26623000Y-75622596D01*
X26642685Y-75555557D01*
X26659314Y-75534920D01*
X29196437Y-72997796D01*
X29257758Y-72964313D01*
X29322433Y-72967547D01*
G37*
%TD.AperFunction*%
%TA.AperFunction,Conductor*%
G36*
X46114075Y-104152993D02*
G01*
X46179901Y-104267007D01*
X46272993Y-104360099D01*
X46387007Y-104425925D01*
X46450590Y-104442962D01*
X45818282Y-105075269D01*
X45818282Y-105075270D01*
X45872452Y-105114626D01*
X45872451Y-105114626D01*
X45881495Y-105119234D01*
X45932292Y-105167208D01*
X45949087Y-105235029D01*
X45926550Y-105301164D01*
X45881499Y-105340202D01*
X45872182Y-105344949D01*
X45700213Y-105469890D01*
X45549890Y-105620213D01*
X45424949Y-105792182D01*
X45420484Y-105800946D01*
X45372509Y-105851742D01*
X45304688Y-105868536D01*
X45238553Y-105845998D01*
X45199516Y-105800946D01*
X45195050Y-105792182D01*
X45070109Y-105620213D01*
X44919786Y-105469890D01*
X44747820Y-105344951D01*
X44747115Y-105344591D01*
X44739054Y-105340485D01*
X44688259Y-105292512D01*
X44671463Y-105224692D01*
X44693999Y-105158556D01*
X44739054Y-105119515D01*
X44747816Y-105115051D01*
X44846118Y-105043631D01*
X44919786Y-104990109D01*
X44919788Y-104990106D01*
X44919792Y-104990104D01*
X45070104Y-104839792D01*
X45070106Y-104839788D01*
X45070109Y-104839786D01*
X45155890Y-104721717D01*
X45195051Y-104667816D01*
X45199793Y-104658508D01*
X45247763Y-104607711D01*
X45315583Y-104590911D01*
X45381719Y-104613445D01*
X45420763Y-104658500D01*
X45425373Y-104667547D01*
X45464728Y-104721716D01*
X46097037Y-104089408D01*
X46114075Y-104152993D01*
G37*
%TD.AperFunction*%
%TA.AperFunction,Conductor*%
G36*
X56730193Y-35150139D02*
G01*
X57813181Y-36233127D01*
X57846666Y-36294450D01*
X57849500Y-36320808D01*
X57849500Y-55224191D01*
X57829815Y-55291230D01*
X57813181Y-55311872D01*
X56905077Y-56219975D01*
X56843754Y-56253460D01*
X56774062Y-56248476D01*
X56718129Y-56206604D01*
X56694923Y-56151692D01*
X56663553Y-55953631D01*
X56618875Y-55816128D01*
X56590568Y-55729008D01*
X56590566Y-55729005D01*
X56590566Y-55729003D01*
X56483342Y-55518566D01*
X56344517Y-55327490D01*
X56177510Y-55160483D01*
X56142872Y-55135317D01*
X56100207Y-55079989D01*
X56094228Y-55010375D01*
X56126833Y-54948580D01*
X56142873Y-54934682D01*
X56177510Y-54909517D01*
X56344517Y-54742510D01*
X56483343Y-54551433D01*
X56590568Y-54340992D01*
X56663553Y-54116368D01*
X56700500Y-53883097D01*
X56700500Y-53646902D01*
X56663553Y-53413631D01*
X56590566Y-53189003D01*
X56483342Y-52978566D01*
X56344517Y-52787490D01*
X56177510Y-52620483D01*
X56142872Y-52595317D01*
X56100207Y-52539989D01*
X56094228Y-52470375D01*
X56126833Y-52408580D01*
X56142873Y-52394682D01*
X56177510Y-52369517D01*
X56344517Y-52202510D01*
X56483343Y-52011433D01*
X56590568Y-51800992D01*
X56663553Y-51576368D01*
X56700500Y-51343097D01*
X56700500Y-51106902D01*
X56663553Y-50873631D01*
X56590566Y-50649003D01*
X56483342Y-50438566D01*
X56344517Y-50247490D01*
X56177510Y-50080483D01*
X56142872Y-50055317D01*
X56100207Y-49999989D01*
X56094228Y-49930375D01*
X56126833Y-49868580D01*
X56142873Y-49854682D01*
X56177510Y-49829517D01*
X56344517Y-49662510D01*
X56483343Y-49471433D01*
X56590568Y-49260992D01*
X56663553Y-49036368D01*
X56700500Y-48803097D01*
X56700500Y-48566902D01*
X56663553Y-48333631D01*
X56590566Y-48109003D01*
X56483342Y-47898566D01*
X56344517Y-47707490D01*
X56177510Y-47540483D01*
X56142872Y-47515317D01*
X56100207Y-47459989D01*
X56094228Y-47390375D01*
X56126833Y-47328580D01*
X56142873Y-47314682D01*
X56177510Y-47289517D01*
X56344517Y-47122510D01*
X56483343Y-46931433D01*
X56590568Y-46720992D01*
X56663553Y-46496368D01*
X56663554Y-46496362D01*
X56700500Y-46263097D01*
X56700500Y-46026902D01*
X56663553Y-45793631D01*
X56590566Y-45569003D01*
X56483342Y-45358566D01*
X56344517Y-45167490D01*
X56177510Y-45000483D01*
X56142872Y-44975317D01*
X56100207Y-44919989D01*
X56094228Y-44850375D01*
X56126833Y-44788580D01*
X56142873Y-44774682D01*
X56177510Y-44749517D01*
X56344517Y-44582510D01*
X56483343Y-44391433D01*
X56590568Y-44180992D01*
X56663553Y-43956368D01*
X56700500Y-43723097D01*
X56700500Y-43486902D01*
X56663553Y-43253631D01*
X56590566Y-43029003D01*
X56483342Y-42818566D01*
X56344517Y-42627490D01*
X56177510Y-42460483D01*
X56142872Y-42435317D01*
X56100207Y-42379989D01*
X56094228Y-42310375D01*
X56126833Y-42248580D01*
X56142873Y-42234682D01*
X56177510Y-42209517D01*
X56344517Y-42042510D01*
X56483343Y-41851433D01*
X56590568Y-41640992D01*
X56663553Y-41416368D01*
X56700500Y-41183097D01*
X56700500Y-40946902D01*
X56663553Y-40713631D01*
X56590566Y-40489003D01*
X56483342Y-40278566D01*
X56344517Y-40087490D01*
X56177510Y-39920483D01*
X56118282Y-39877451D01*
X56075617Y-39822122D01*
X56067550Y-39767404D01*
X56069104Y-39747657D01*
X55337574Y-39016128D01*
X55396853Y-39000245D01*
X55513147Y-38933102D01*
X55608102Y-38838147D01*
X55675245Y-38721853D01*
X55691128Y-38662575D01*
X56422658Y-39394105D01*
X56422658Y-39394104D01*
X56482914Y-39311169D01*
X56482918Y-39311163D01*
X56590102Y-39100802D01*
X56663065Y-38876247D01*
X56700000Y-38643052D01*
X56700000Y-38406947D01*
X56663065Y-38173752D01*
X56590102Y-37949197D01*
X56482914Y-37738828D01*
X56422658Y-37655894D01*
X56422658Y-37655893D01*
X55691128Y-38387424D01*
X55675245Y-38328147D01*
X55608102Y-38211853D01*
X55513147Y-38116898D01*
X55396853Y-38049755D01*
X55337574Y-38033871D01*
X56069105Y-37302340D01*
X56067551Y-37282594D01*
X56081915Y-37214216D01*
X56118284Y-37172547D01*
X56177510Y-37129517D01*
X56344517Y-36962510D01*
X56483343Y-36771433D01*
X56590568Y-36560992D01*
X56663553Y-36336368D01*
X56670192Y-36294450D01*
X56700500Y-36103097D01*
X56700500Y-35866902D01*
X56663553Y-35633631D01*
X56590566Y-35409003D01*
X56532027Y-35294115D01*
X56519131Y-35225446D01*
X56545407Y-35160705D01*
X56602514Y-35120448D01*
X56672319Y-35117456D01*
X56730193Y-35150139D01*
G37*
%TD.AperFunction*%
%TA.AperFunction,Conductor*%
G36*
X36078418Y-21495417D02*
G01*
X36106673Y-21516569D01*
X36220213Y-21630109D01*
X36392179Y-21755048D01*
X36392181Y-21755049D01*
X36392184Y-21755051D01*
X36581588Y-21851557D01*
X36783757Y-21917246D01*
X36993713Y-21950500D01*
X36993714Y-21950500D01*
X37206286Y-21950500D01*
X37206287Y-21950500D01*
X37316111Y-21933105D01*
X37421055Y-21916484D01*
X37421315Y-21918128D01*
X37483852Y-21921250D01*
X37530711Y-21950657D01*
X49585325Y-34005272D01*
X49585326Y-34005273D01*
X49585329Y-34005275D01*
X49585331Y-34005277D01*
X49691873Y-34076465D01*
X49810256Y-34125501D01*
X49810260Y-34125501D01*
X49810261Y-34125502D01*
X49935928Y-34150500D01*
X49935931Y-34150500D01*
X55679192Y-34150500D01*
X55746231Y-34170185D01*
X55766873Y-34186819D01*
X56034860Y-34454806D01*
X56068345Y-34516129D01*
X56063361Y-34585821D01*
X56021489Y-34641754D01*
X55956025Y-34666171D01*
X55890884Y-34652972D01*
X55775996Y-34594433D01*
X55551368Y-34521446D01*
X55318097Y-34484500D01*
X55318092Y-34484500D01*
X55081908Y-34484500D01*
X55081903Y-34484500D01*
X54848631Y-34521446D01*
X54624003Y-34594433D01*
X54413566Y-34701657D01*
X54357119Y-34742669D01*
X54222490Y-34840483D01*
X54222488Y-34840485D01*
X54222487Y-34840485D01*
X54055485Y-35007487D01*
X54055485Y-35007488D01*
X54055483Y-35007490D01*
X53995862Y-35089550D01*
X53916657Y-35198566D01*
X53809433Y-35409003D01*
X53736446Y-35633631D01*
X53699500Y-35866902D01*
X53699500Y-36103097D01*
X53736446Y-36336368D01*
X53809433Y-36560996D01*
X53916657Y-36771433D01*
X54055483Y-36962510D01*
X54222490Y-37129517D01*
X54281716Y-37172547D01*
X54324381Y-37227875D01*
X54332448Y-37282593D01*
X54330893Y-37302340D01*
X55062425Y-38033871D01*
X55003147Y-38049755D01*
X54886853Y-38116898D01*
X54791898Y-38211853D01*
X54724755Y-38328147D01*
X54708871Y-38387425D01*
X53977340Y-37655894D01*
X53917084Y-37738830D01*
X53809897Y-37949197D01*
X53736934Y-38173752D01*
X53700000Y-38406947D01*
X53700000Y-38643052D01*
X53736934Y-38876247D01*
X53809897Y-39100802D01*
X53917087Y-39311174D01*
X53977338Y-39394104D01*
X53977340Y-39394105D01*
X54708871Y-38662574D01*
X54724755Y-38721853D01*
X54791898Y-38838147D01*
X54886853Y-38933102D01*
X55003147Y-39000245D01*
X55062425Y-39016128D01*
X54330893Y-39747658D01*
X54332448Y-39767405D01*
X54318084Y-39835783D01*
X54281717Y-39877451D01*
X54222490Y-39920482D01*
X54055485Y-40087487D01*
X54055485Y-40087488D01*
X54055483Y-40087490D01*
X53995862Y-40169550D01*
X53916657Y-40278566D01*
X53809433Y-40489003D01*
X53736446Y-40713631D01*
X53699500Y-40946902D01*
X53699500Y-41183097D01*
X53736446Y-41416368D01*
X53809433Y-41640996D01*
X53916657Y-41851433D01*
X54055483Y-42042510D01*
X54222490Y-42209517D01*
X54257127Y-42234683D01*
X54299792Y-42290013D01*
X54305771Y-42359626D01*
X54273165Y-42421421D01*
X54257130Y-42435315D01*
X54239365Y-42448222D01*
X54222488Y-42460484D01*
X54055485Y-42627487D01*
X54055485Y-42627488D01*
X54055483Y-42627490D01*
X53995862Y-42709550D01*
X53916657Y-42818566D01*
X53809433Y-43029003D01*
X53736446Y-43253631D01*
X53699500Y-43486902D01*
X53699500Y-43723097D01*
X53736446Y-43956368D01*
X53809433Y-44180996D01*
X53916657Y-44391433D01*
X54055483Y-44582510D01*
X54222490Y-44749517D01*
X54257127Y-44774683D01*
X54299792Y-44830013D01*
X54305771Y-44899626D01*
X54273165Y-44961421D01*
X54257130Y-44975315D01*
X54239365Y-44988222D01*
X54222488Y-45000484D01*
X54055485Y-45167487D01*
X54055485Y-45167488D01*
X54055483Y-45167490D01*
X53995862Y-45249550D01*
X53916657Y-45358566D01*
X53809433Y-45569003D01*
X53736446Y-45793631D01*
X53699500Y-46026902D01*
X53699500Y-46263097D01*
X53736446Y-46496368D01*
X53809433Y-46720996D01*
X53916657Y-46931433D01*
X54055483Y-47122510D01*
X54222490Y-47289517D01*
X54257127Y-47314683D01*
X54299792Y-47370013D01*
X54305771Y-47439626D01*
X54273165Y-47501421D01*
X54257130Y-47515315D01*
X54239365Y-47528222D01*
X54222488Y-47540484D01*
X54055485Y-47707487D01*
X54055485Y-47707488D01*
X54055483Y-47707490D01*
X53995862Y-47789550D01*
X53916657Y-47898566D01*
X53809433Y-48109003D01*
X53736446Y-48333631D01*
X53699500Y-48566902D01*
X53699500Y-48803097D01*
X53736446Y-49036368D01*
X53809433Y-49260996D01*
X53916657Y-49471433D01*
X54055483Y-49662510D01*
X54222490Y-49829517D01*
X54257127Y-49854683D01*
X54299792Y-49910013D01*
X54305771Y-49979626D01*
X54273165Y-50041421D01*
X54257130Y-50055315D01*
X54239365Y-50068222D01*
X54222488Y-50080484D01*
X54055485Y-50247487D01*
X54055485Y-50247488D01*
X54055483Y-50247490D01*
X53995862Y-50329550D01*
X53916657Y-50438566D01*
X53809433Y-50649003D01*
X53736446Y-50873631D01*
X53699500Y-51106902D01*
X53699500Y-51343097D01*
X53736446Y-51576368D01*
X53809433Y-51800996D01*
X53916657Y-52011433D01*
X54055483Y-52202510D01*
X54222490Y-52369517D01*
X54257127Y-52394683D01*
X54299792Y-52450013D01*
X54305771Y-52519626D01*
X54273165Y-52581421D01*
X54257130Y-52595315D01*
X54239365Y-52608222D01*
X54222488Y-52620484D01*
X54055485Y-52787487D01*
X54055485Y-52787488D01*
X54055483Y-52787490D01*
X53995862Y-52869550D01*
X53916657Y-52978566D01*
X53809433Y-53189003D01*
X53736447Y-53413630D01*
X53705076Y-53611694D01*
X53675146Y-53674828D01*
X53615835Y-53711759D01*
X53545972Y-53710761D01*
X53494922Y-53679976D01*
X35246819Y-35431873D01*
X35213334Y-35370550D01*
X35210500Y-35344192D01*
X35210500Y-22074499D01*
X35230185Y-22007460D01*
X35282989Y-21961705D01*
X35334500Y-21950499D01*
X35457871Y-21950499D01*
X35457872Y-21950499D01*
X35517483Y-21944091D01*
X35652331Y-21893796D01*
X35767546Y-21807546D01*
X35853796Y-21692331D01*
X35902810Y-21560916D01*
X35944681Y-21504984D01*
X36010145Y-21480566D01*
X36078418Y-21495417D01*
G37*
%TD.AperFunction*%
%TA.AperFunction,Conductor*%
G36*
X68842539Y-17520185D02*
G01*
X68888294Y-17572989D01*
X68899500Y-17624500D01*
X68899500Y-109675500D01*
X68879815Y-109742539D01*
X68827011Y-109788294D01*
X68775500Y-109799500D01*
X16924500Y-109799500D01*
X16857461Y-109779815D01*
X16811706Y-109727011D01*
X16800500Y-109675500D01*
X16800500Y-104318209D01*
X18299500Y-104318209D01*
X18299500Y-104681790D01*
X18335137Y-105043630D01*
X18406064Y-105400212D01*
X18406067Y-105400223D01*
X18511614Y-105748165D01*
X18650754Y-106084078D01*
X18650756Y-106084083D01*
X18822140Y-106404720D01*
X18822151Y-106404738D01*
X19024140Y-106707035D01*
X19024150Y-106707049D01*
X19254807Y-106988106D01*
X19511893Y-107245192D01*
X19511898Y-107245196D01*
X19511899Y-107245197D01*
X19792956Y-107475854D01*
X20095268Y-107677853D01*
X20095277Y-107677858D01*
X20095279Y-107677859D01*
X20415916Y-107849243D01*
X20415918Y-107849243D01*
X20415924Y-107849247D01*
X20751836Y-107988386D01*
X21099767Y-108093930D01*
X21099773Y-108093931D01*
X21099776Y-108093932D01*
X21099787Y-108093935D01*
X21456369Y-108164862D01*
X21818206Y-108200500D01*
X21818209Y-108200500D01*
X22181791Y-108200500D01*
X22181794Y-108200500D01*
X22543631Y-108164862D01*
X22613045Y-108151054D01*
X22900212Y-108093935D01*
X22900223Y-108093932D01*
X22900223Y-108093931D01*
X22900233Y-108093930D01*
X23248164Y-107988386D01*
X23584076Y-107849247D01*
X23904732Y-107677853D01*
X24207044Y-107475854D01*
X24488101Y-107245197D01*
X24745197Y-106988101D01*
X24975854Y-106707044D01*
X25177853Y-106404732D01*
X25349247Y-106084076D01*
X25488386Y-105748164D01*
X25593930Y-105400233D01*
X25593932Y-105400223D01*
X25593935Y-105400212D01*
X25664862Y-105043630D01*
X25670134Y-104990104D01*
X25700500Y-104681794D01*
X25700500Y-104318206D01*
X25664862Y-103956369D01*
X25627196Y-103767007D01*
X25593935Y-103599787D01*
X25593932Y-103599776D01*
X25593931Y-103599773D01*
X25593930Y-103599767D01*
X25488386Y-103251836D01*
X25349247Y-102915924D01*
X25311191Y-102844727D01*
X25177859Y-102595279D01*
X25177858Y-102595277D01*
X25177853Y-102595268D01*
X24975854Y-102292956D01*
X24745197Y-102011899D01*
X24745196Y-102011898D01*
X24745192Y-102011893D01*
X24488106Y-101754807D01*
X24207049Y-101524150D01*
X24207048Y-101524149D01*
X24207044Y-101524146D01*
X23904732Y-101322147D01*
X23904727Y-101322144D01*
X23904720Y-101322140D01*
X23584083Y-101150756D01*
X23584078Y-101150754D01*
X23248165Y-101011614D01*
X22900223Y-100906067D01*
X22900212Y-100906064D01*
X22543630Y-100835137D01*
X22271111Y-100808296D01*
X22181794Y-100799500D01*
X21818206Y-100799500D01*
X21735679Y-100807628D01*
X21456369Y-100835137D01*
X21099787Y-100906064D01*
X21099776Y-100906067D01*
X20751834Y-101011614D01*
X20415921Y-101150754D01*
X20415916Y-101150756D01*
X20095279Y-101322140D01*
X20095261Y-101322151D01*
X19792964Y-101524140D01*
X19792950Y-101524150D01*
X19511893Y-101754807D01*
X19254807Y-102011893D01*
X19024150Y-102292950D01*
X19024140Y-102292964D01*
X18822151Y-102595261D01*
X18822140Y-102595279D01*
X18650756Y-102915916D01*
X18650754Y-102915921D01*
X18511614Y-103251834D01*
X18406067Y-103599776D01*
X18406064Y-103599787D01*
X18335137Y-103956369D01*
X18315772Y-104152993D01*
X18303634Y-104276239D01*
X18299500Y-104318209D01*
X16800500Y-104318209D01*
X16800500Y-97379054D01*
X24399498Y-97379054D01*
X24399499Y-97379057D01*
X24440423Y-97531785D01*
X24450651Y-97549500D01*
X24519477Y-97668712D01*
X24519481Y-97668717D01*
X24638349Y-97787585D01*
X24638355Y-97787590D01*
X25065425Y-98214660D01*
X25098910Y-98275983D01*
X25099361Y-98278149D01*
X25130261Y-98433491D01*
X25130264Y-98433501D01*
X25190602Y-98579172D01*
X25190609Y-98579185D01*
X25278210Y-98710288D01*
X25278213Y-98710292D01*
X25389707Y-98821786D01*
X25389711Y-98821789D01*
X25520814Y-98909390D01*
X25520827Y-98909397D01*
X25666498Y-98969735D01*
X25666503Y-98969737D01*
X25821153Y-99000499D01*
X25821156Y-99000500D01*
X25821158Y-99000500D01*
X25978844Y-99000500D01*
X25978845Y-99000499D01*
X26133497Y-98969737D01*
X26279179Y-98909394D01*
X26410289Y-98821789D01*
X26521789Y-98710289D01*
X26609394Y-98579179D01*
X26661552Y-98453258D01*
X26705392Y-98398854D01*
X26771687Y-98376789D01*
X26839386Y-98394068D01*
X26863794Y-98413029D01*
X36815139Y-108364374D01*
X36815149Y-108364385D01*
X36819479Y-108368715D01*
X36819480Y-108368716D01*
X36931284Y-108480520D01*
X36931286Y-108480521D01*
X36931290Y-108480524D01*
X37068209Y-108559573D01*
X37068216Y-108559577D01*
X37180019Y-108589534D01*
X37220942Y-108600500D01*
X37220943Y-108600500D01*
X39913331Y-108600500D01*
X39913347Y-108600501D01*
X39920943Y-108600501D01*
X40079054Y-108600501D01*
X40079057Y-108600501D01*
X40231785Y-108559577D01*
X40281904Y-108530639D01*
X40368716Y-108480520D01*
X40480520Y-108368716D01*
X40480520Y-108368714D01*
X40490728Y-108358507D01*
X40490730Y-108358504D01*
X41015478Y-107833755D01*
X41076799Y-107800272D01*
X41141473Y-107803506D01*
X41183757Y-107817246D01*
X41393713Y-107850500D01*
X41393714Y-107850500D01*
X41606286Y-107850500D01*
X41606287Y-107850500D01*
X41816243Y-107817246D01*
X42018412Y-107751557D01*
X42207816Y-107655051D01*
X42229789Y-107639086D01*
X42379786Y-107530109D01*
X42379788Y-107530106D01*
X42379792Y-107530104D01*
X42530104Y-107379792D01*
X42530106Y-107379788D01*
X42530109Y-107379786D01*
X42655048Y-107207820D01*
X42655047Y-107207820D01*
X42655051Y-107207816D01*
X42659514Y-107199054D01*
X42707488Y-107148259D01*
X42775308Y-107131463D01*
X42841444Y-107153999D01*
X42880486Y-107199056D01*
X42884951Y-107207820D01*
X43009890Y-107379786D01*
X43160213Y-107530109D01*
X43332179Y-107655048D01*
X43332181Y-107655049D01*
X43332184Y-107655051D01*
X43521588Y-107751557D01*
X43723757Y-107817246D01*
X43933713Y-107850500D01*
X43933714Y-107850500D01*
X44146286Y-107850500D01*
X44146287Y-107850500D01*
X44356243Y-107817246D01*
X44558412Y-107751557D01*
X44747816Y-107655051D01*
X44769789Y-107639086D01*
X44919786Y-107530109D01*
X44919788Y-107530106D01*
X44919792Y-107530104D01*
X45070104Y-107379792D01*
X45070106Y-107379788D01*
X45070109Y-107379786D01*
X45195048Y-107207820D01*
X45195047Y-107207820D01*
X45195051Y-107207816D01*
X45199514Y-107199054D01*
X45247488Y-107148259D01*
X45315308Y-107131463D01*
X45381444Y-107153999D01*
X45420486Y-107199056D01*
X45424951Y-107207820D01*
X45549890Y-107379786D01*
X45700213Y-107530109D01*
X45872179Y-107655048D01*
X45872181Y-107655049D01*
X45872184Y-107655051D01*
X46061588Y-107751557D01*
X46263757Y-107817246D01*
X46473713Y-107850500D01*
X46473714Y-107850500D01*
X46686286Y-107850500D01*
X46686287Y-107850500D01*
X46896243Y-107817246D01*
X47098412Y-107751557D01*
X47287816Y-107655051D01*
X47309789Y-107639086D01*
X47459786Y-107530109D01*
X47459788Y-107530106D01*
X47459792Y-107530104D01*
X47610104Y-107379792D01*
X47610106Y-107379788D01*
X47610109Y-107379786D01*
X47735048Y-107207820D01*
X47735047Y-107207820D01*
X47735051Y-107207816D01*
X47831557Y-107018412D01*
X47897246Y-106816243D01*
X47930500Y-106606287D01*
X47930500Y-106393713D01*
X47897246Y-106183757D01*
X47831557Y-105981588D01*
X47735051Y-105792184D01*
X47735049Y-105792181D01*
X47735048Y-105792179D01*
X47610109Y-105620213D01*
X47459786Y-105469890D01*
X47287817Y-105344949D01*
X47278504Y-105340204D01*
X47227707Y-105292230D01*
X47210912Y-105224409D01*
X47233449Y-105158274D01*
X47278507Y-105119232D01*
X47287555Y-105114622D01*
X47341716Y-105075270D01*
X47341717Y-105075270D01*
X46709408Y-104442962D01*
X46772993Y-104425925D01*
X46887007Y-104360099D01*
X46980099Y-104267007D01*
X47045925Y-104152993D01*
X47062962Y-104089408D01*
X47695270Y-104721717D01*
X47695270Y-104721716D01*
X47734622Y-104667554D01*
X47831095Y-104478217D01*
X47883085Y-104318209D01*
X59799500Y-104318209D01*
X59799500Y-104681790D01*
X59835137Y-105043630D01*
X59906064Y-105400212D01*
X59906067Y-105400223D01*
X60011614Y-105748165D01*
X60150754Y-106084078D01*
X60150756Y-106084083D01*
X60322140Y-106404720D01*
X60322151Y-106404738D01*
X60524140Y-106707035D01*
X60524150Y-106707049D01*
X60754807Y-106988106D01*
X61011893Y-107245192D01*
X61011898Y-107245196D01*
X61011899Y-107245197D01*
X61292956Y-107475854D01*
X61595268Y-107677853D01*
X61595277Y-107677858D01*
X61595279Y-107677859D01*
X61915916Y-107849243D01*
X61915918Y-107849243D01*
X61915924Y-107849247D01*
X62251836Y-107988386D01*
X62599767Y-108093930D01*
X62599773Y-108093931D01*
X62599776Y-108093932D01*
X62599787Y-108093935D01*
X62956369Y-108164862D01*
X63318206Y-108200500D01*
X63318209Y-108200500D01*
X63681791Y-108200500D01*
X63681794Y-108200500D01*
X64043631Y-108164862D01*
X64113045Y-108151054D01*
X64400212Y-108093935D01*
X64400223Y-108093932D01*
X64400223Y-108093931D01*
X64400233Y-108093930D01*
X64748164Y-107988386D01*
X65084076Y-107849247D01*
X65404732Y-107677853D01*
X65707044Y-107475854D01*
X65988101Y-107245197D01*
X66245197Y-106988101D01*
X66475854Y-106707044D01*
X66677853Y-106404732D01*
X66849247Y-106084076D01*
X66988386Y-105748164D01*
X67093930Y-105400233D01*
X67093932Y-105400223D01*
X67093935Y-105400212D01*
X67164862Y-105043630D01*
X67170134Y-104990104D01*
X67200500Y-104681794D01*
X67200500Y-104318206D01*
X67164862Y-103956369D01*
X67127196Y-103767007D01*
X67093935Y-103599787D01*
X67093932Y-103599776D01*
X67093931Y-103599773D01*
X67093930Y-103599767D01*
X66988386Y-103251836D01*
X66849247Y-102915924D01*
X66811191Y-102844727D01*
X66677859Y-102595279D01*
X66677858Y-102595277D01*
X66677853Y-102595268D01*
X66475854Y-102292956D01*
X66245197Y-102011899D01*
X66245196Y-102011898D01*
X66245192Y-102011893D01*
X65988106Y-101754807D01*
X65707049Y-101524150D01*
X65707048Y-101524149D01*
X65707044Y-101524146D01*
X65404732Y-101322147D01*
X65404727Y-101322144D01*
X65404720Y-101322140D01*
X65084083Y-101150756D01*
X65084078Y-101150754D01*
X64748165Y-101011614D01*
X64400223Y-100906067D01*
X64400212Y-100906064D01*
X64043630Y-100835137D01*
X63771111Y-100808296D01*
X63681794Y-100799500D01*
X63318206Y-100799500D01*
X63235679Y-100807628D01*
X62956369Y-100835137D01*
X62599787Y-100906064D01*
X62599776Y-100906067D01*
X62251834Y-101011614D01*
X61915921Y-101150754D01*
X61915916Y-101150756D01*
X61595279Y-101322140D01*
X61595261Y-101322151D01*
X61292964Y-101524140D01*
X61292950Y-101524150D01*
X61011893Y-101754807D01*
X60754807Y-102011893D01*
X60524150Y-102292950D01*
X60524140Y-102292964D01*
X60322151Y-102595261D01*
X60322140Y-102595279D01*
X60150756Y-102915916D01*
X60150754Y-102915921D01*
X60011614Y-103251834D01*
X59906067Y-103599776D01*
X59906064Y-103599787D01*
X59835137Y-103956369D01*
X59815772Y-104152993D01*
X59803634Y-104276239D01*
X59799500Y-104318209D01*
X47883085Y-104318209D01*
X47896525Y-104276844D01*
X47896525Y-104276843D01*
X47896527Y-104276837D01*
X47896758Y-104276125D01*
X47930000Y-104066246D01*
X47930000Y-103853753D01*
X47896757Y-103643872D01*
X47896757Y-103643869D01*
X47831095Y-103441782D01*
X47734624Y-103252449D01*
X47695270Y-103198282D01*
X47695269Y-103198282D01*
X47062962Y-103830590D01*
X47045925Y-103767007D01*
X46980099Y-103652993D01*
X46887007Y-103559901D01*
X46772993Y-103494075D01*
X46709409Y-103477037D01*
X47341716Y-102844728D01*
X47287550Y-102805375D01*
X47098217Y-102708904D01*
X46896129Y-102643242D01*
X46686246Y-102610000D01*
X46473754Y-102610000D01*
X46263872Y-102643242D01*
X46263869Y-102643242D01*
X46061782Y-102708904D01*
X45872439Y-102805380D01*
X45818282Y-102844727D01*
X45818282Y-102844728D01*
X46450591Y-103477037D01*
X46387007Y-103494075D01*
X46272993Y-103559901D01*
X46179901Y-103652993D01*
X46114075Y-103767007D01*
X46097037Y-103830591D01*
X45464728Y-103198282D01*
X45464727Y-103198282D01*
X45425380Y-103252440D01*
X45425376Y-103252446D01*
X45420760Y-103261505D01*
X45372781Y-103312297D01*
X45304959Y-103329087D01*
X45238826Y-103306543D01*
X45199794Y-103261493D01*
X45195051Y-103252184D01*
X45195049Y-103252181D01*
X45195048Y-103252179D01*
X45070109Y-103080213D01*
X44919786Y-102929890D01*
X44747820Y-102804951D01*
X44558414Y-102708444D01*
X44558413Y-102708443D01*
X44558412Y-102708443D01*
X44356243Y-102642754D01*
X44356241Y-102642753D01*
X44356240Y-102642753D01*
X44194957Y-102617208D01*
X44146287Y-102609500D01*
X43933713Y-102609500D01*
X43905006Y-102614046D01*
X43723757Y-102642753D01*
X43681473Y-102656492D01*
X43611632Y-102658486D01*
X43555476Y-102626241D01*
X40336819Y-99407584D01*
X40303334Y-99346261D01*
X40300500Y-99319903D01*
X40300500Y-96520944D01*
X40300499Y-96520938D01*
X40292401Y-96490715D01*
X40259577Y-96368215D01*
X40230639Y-96318095D01*
X40180520Y-96231284D01*
X40068716Y-96119480D01*
X40068715Y-96119479D01*
X40064385Y-96115149D01*
X40064374Y-96115139D01*
X34487590Y-90538355D01*
X34487588Y-90538352D01*
X34368717Y-90419481D01*
X34368716Y-90419480D01*
X34281904Y-90369360D01*
X34281904Y-90369359D01*
X34281900Y-90369358D01*
X34231785Y-90340423D01*
X34079057Y-90299499D01*
X33920943Y-90299499D01*
X33913347Y-90299499D01*
X33913331Y-90299500D01*
X31280097Y-90299500D01*
X31213058Y-90279815D01*
X31192416Y-90263181D01*
X28936819Y-88007584D01*
X28903334Y-87946261D01*
X28900500Y-87919903D01*
X28900500Y-85393713D01*
X29869500Y-85393713D01*
X29869500Y-85606286D01*
X29902753Y-85816239D01*
X29968444Y-86018414D01*
X30064951Y-86207820D01*
X30189890Y-86379786D01*
X30340213Y-86530109D01*
X30512179Y-86655048D01*
X30512181Y-86655049D01*
X30512184Y-86655051D01*
X30701588Y-86751557D01*
X30903757Y-86817246D01*
X31113713Y-86850500D01*
X31113714Y-86850500D01*
X31326286Y-86850500D01*
X31326287Y-86850500D01*
X31536243Y-86817246D01*
X31738412Y-86751557D01*
X31927816Y-86655051D01*
X32014138Y-86592335D01*
X32099786Y-86530109D01*
X32099788Y-86530106D01*
X32099792Y-86530104D01*
X32250104Y-86379792D01*
X32250106Y-86379788D01*
X32250109Y-86379786D01*
X32375048Y-86207820D01*
X32375047Y-86207820D01*
X32375051Y-86207816D01*
X32379514Y-86199054D01*
X32427488Y-86148259D01*
X32495308Y-86131463D01*
X32561444Y-86153999D01*
X32600486Y-86199056D01*
X32604951Y-86207820D01*
X32729890Y-86379786D01*
X32880213Y-86530109D01*
X33052179Y-86655048D01*
X33052181Y-86655049D01*
X33052184Y-86655051D01*
X33241588Y-86751557D01*
X33443757Y-86817246D01*
X33653713Y-86850500D01*
X33653714Y-86850500D01*
X33866286Y-86850500D01*
X33866287Y-86850500D01*
X34076243Y-86817246D01*
X34278412Y-86751557D01*
X34467816Y-86655051D01*
X34554138Y-86592335D01*
X34639786Y-86530109D01*
X34639788Y-86530106D01*
X34639792Y-86530104D01*
X34790104Y-86379792D01*
X34790106Y-86379788D01*
X34790109Y-86379786D01*
X34915048Y-86207820D01*
X34915047Y-86207820D01*
X34915051Y-86207816D01*
X34919514Y-86199054D01*
X34967488Y-86148259D01*
X35035308Y-86131463D01*
X35101444Y-86153999D01*
X35140486Y-86199056D01*
X35144951Y-86207820D01*
X35269890Y-86379786D01*
X35420213Y-86530109D01*
X35592179Y-86655048D01*
X35592181Y-86655049D01*
X35592184Y-86655051D01*
X35781588Y-86751557D01*
X35983757Y-86817246D01*
X36193713Y-86850500D01*
X36193714Y-86850500D01*
X36406286Y-86850500D01*
X36406287Y-86850500D01*
X36616243Y-86817246D01*
X36818412Y-86751557D01*
X37007816Y-86655051D01*
X37094138Y-86592335D01*
X37179786Y-86530109D01*
X37179788Y-86530106D01*
X37179792Y-86530104D01*
X37330104Y-86379792D01*
X37330106Y-86379788D01*
X37330109Y-86379786D01*
X37455048Y-86207820D01*
X37455047Y-86207820D01*
X37455051Y-86207816D01*
X37459514Y-86199054D01*
X37507488Y-86148259D01*
X37575308Y-86131463D01*
X37641444Y-86153999D01*
X37680486Y-86199056D01*
X37684951Y-86207820D01*
X37809890Y-86379786D01*
X37960213Y-86530109D01*
X38132179Y-86655048D01*
X38132181Y-86655049D01*
X38132184Y-86655051D01*
X38321588Y-86751557D01*
X38523757Y-86817246D01*
X38733713Y-86850500D01*
X38733714Y-86850500D01*
X38946286Y-86850500D01*
X38946287Y-86850500D01*
X39156243Y-86817246D01*
X39358412Y-86751557D01*
X39547816Y-86655051D01*
X39634138Y-86592335D01*
X39719786Y-86530109D01*
X39719788Y-86530106D01*
X39719792Y-86530104D01*
X39870104Y-86379792D01*
X39870106Y-86379788D01*
X39870109Y-86379786D01*
X39995048Y-86207820D01*
X39995047Y-86207820D01*
X39995051Y-86207816D01*
X39999514Y-86199054D01*
X40047488Y-86148259D01*
X40115308Y-86131463D01*
X40181444Y-86153999D01*
X40220486Y-86199056D01*
X40224951Y-86207820D01*
X40349890Y-86379786D01*
X40500213Y-86530109D01*
X40672179Y-86655048D01*
X40672181Y-86655049D01*
X40672184Y-86655051D01*
X40861588Y-86751557D01*
X41063757Y-86817246D01*
X41273713Y-86850500D01*
X41273714Y-86850500D01*
X41486286Y-86850500D01*
X41486287Y-86850500D01*
X41696243Y-86817246D01*
X41898412Y-86751557D01*
X42087816Y-86655051D01*
X42174138Y-86592335D01*
X42259786Y-86530109D01*
X42259788Y-86530106D01*
X42259792Y-86530104D01*
X42410104Y-86379792D01*
X42410106Y-86379788D01*
X42410109Y-86379786D01*
X42535048Y-86207820D01*
X42535047Y-86207820D01*
X42535051Y-86207816D01*
X42539514Y-86199054D01*
X42587488Y-86148259D01*
X42655308Y-86131463D01*
X42721444Y-86153999D01*
X42760486Y-86199056D01*
X42764951Y-86207820D01*
X42889890Y-86379786D01*
X43040213Y-86530109D01*
X43212179Y-86655048D01*
X43212181Y-86655049D01*
X43212184Y-86655051D01*
X43401588Y-86751557D01*
X43603757Y-86817246D01*
X43813713Y-86850500D01*
X43813714Y-86850500D01*
X44026286Y-86850500D01*
X44026287Y-86850500D01*
X44236243Y-86817246D01*
X44438412Y-86751557D01*
X44627816Y-86655051D01*
X44714138Y-86592335D01*
X44799786Y-86530109D01*
X44799788Y-86530106D01*
X44799792Y-86530104D01*
X44950104Y-86379792D01*
X44950106Y-86379788D01*
X44950109Y-86379786D01*
X45075048Y-86207820D01*
X45075047Y-86207820D01*
X45075051Y-86207816D01*
X45079514Y-86199054D01*
X45127488Y-86148259D01*
X45195308Y-86131463D01*
X45261444Y-86153999D01*
X45300486Y-86199056D01*
X45304951Y-86207820D01*
X45429890Y-86379786D01*
X45580213Y-86530109D01*
X45752179Y-86655048D01*
X45752181Y-86655049D01*
X45752184Y-86655051D01*
X45941588Y-86751557D01*
X46143757Y-86817246D01*
X46353713Y-86850500D01*
X46353714Y-86850500D01*
X46566286Y-86850500D01*
X46566287Y-86850500D01*
X46776243Y-86817246D01*
X46978412Y-86751557D01*
X47167816Y-86655051D01*
X47254138Y-86592335D01*
X47339786Y-86530109D01*
X47339788Y-86530106D01*
X47339792Y-86530104D01*
X47490104Y-86379792D01*
X47490106Y-86379788D01*
X47490109Y-86379786D01*
X47615048Y-86207820D01*
X47615047Y-86207820D01*
X47615051Y-86207816D01*
X47619514Y-86199054D01*
X47667488Y-86148259D01*
X47735308Y-86131463D01*
X47801444Y-86153999D01*
X47840486Y-86199056D01*
X47844951Y-86207820D01*
X47969890Y-86379786D01*
X48120213Y-86530109D01*
X48292179Y-86655048D01*
X48292181Y-86655049D01*
X48292184Y-86655051D01*
X48481588Y-86751557D01*
X48683757Y-86817246D01*
X48893713Y-86850500D01*
X48893714Y-86850500D01*
X49106286Y-86850500D01*
X49106287Y-86850500D01*
X49316243Y-86817246D01*
X49518412Y-86751557D01*
X49707816Y-86655051D01*
X49794138Y-86592335D01*
X49879786Y-86530109D01*
X49879788Y-86530106D01*
X49879792Y-86530104D01*
X50030104Y-86379792D01*
X50030106Y-86379788D01*
X50030109Y-86379786D01*
X50097515Y-86287007D01*
X50155051Y-86207816D01*
X50159793Y-86198508D01*
X50207763Y-86147711D01*
X50275583Y-86130911D01*
X50341719Y-86153445D01*
X50380763Y-86198500D01*
X50385373Y-86207547D01*
X50424728Y-86261716D01*
X51057037Y-85629408D01*
X51074075Y-85692993D01*
X51139901Y-85807007D01*
X51232993Y-85900099D01*
X51347007Y-85965925D01*
X51410590Y-85982962D01*
X50778282Y-86615269D01*
X50778282Y-86615270D01*
X50832449Y-86654624D01*
X51021782Y-86751095D01*
X51223870Y-86816757D01*
X51433754Y-86850000D01*
X51646246Y-86850000D01*
X51856127Y-86816757D01*
X51856130Y-86816757D01*
X52058217Y-86751095D01*
X52247554Y-86654622D01*
X52301716Y-86615270D01*
X52301717Y-86615270D01*
X51669408Y-85982962D01*
X51732993Y-85965925D01*
X51847007Y-85900099D01*
X51940099Y-85807007D01*
X52005925Y-85692993D01*
X52022962Y-85629408D01*
X52693181Y-86299628D01*
X52726666Y-86360951D01*
X52729500Y-86387300D01*
X52729500Y-86397865D01*
X52729501Y-86397876D01*
X52735908Y-86457483D01*
X52786202Y-86592328D01*
X52786206Y-86592335D01*
X52872452Y-86707544D01*
X52872455Y-86707547D01*
X52987664Y-86793793D01*
X52987671Y-86793797D01*
X53122517Y-86844091D01*
X53122516Y-86844091D01*
X53129444Y-86844835D01*
X53182127Y-86850500D01*
X54977872Y-86850499D01*
X55037483Y-86844091D01*
X55172331Y-86793796D01*
X55287546Y-86707546D01*
X55373796Y-86592331D01*
X55424091Y-86457483D01*
X55430500Y-86397873D01*
X55430499Y-84602128D01*
X55424091Y-84542517D01*
X55373796Y-84407669D01*
X55373795Y-84407668D01*
X55373793Y-84407664D01*
X55287547Y-84292455D01*
X55287544Y-84292452D01*
X55172335Y-84206206D01*
X55172328Y-84206202D01*
X55037482Y-84155908D01*
X55037483Y-84155908D01*
X54977883Y-84149501D01*
X54977881Y-84149500D01*
X54977873Y-84149500D01*
X54977864Y-84149500D01*
X53182129Y-84149500D01*
X53182123Y-84149501D01*
X53122516Y-84155908D01*
X52987671Y-84206202D01*
X52987664Y-84206206D01*
X52872455Y-84292452D01*
X52872452Y-84292455D01*
X52786206Y-84407664D01*
X52786202Y-84407671D01*
X52735908Y-84542517D01*
X52729501Y-84602116D01*
X52729501Y-84602123D01*
X52729500Y-84602135D01*
X52729500Y-84612690D01*
X52709815Y-84679729D01*
X52693181Y-84700371D01*
X52022962Y-85370590D01*
X52005925Y-85307007D01*
X51940099Y-85192993D01*
X51847007Y-85099901D01*
X51732993Y-85034075D01*
X51669409Y-85017037D01*
X52301716Y-84384728D01*
X52247550Y-84345375D01*
X52058217Y-84248904D01*
X51856129Y-84183242D01*
X51646246Y-84150000D01*
X51433754Y-84150000D01*
X51223872Y-84183242D01*
X51223869Y-84183242D01*
X51021782Y-84248904D01*
X50832439Y-84345380D01*
X50778282Y-84384727D01*
X50778282Y-84384728D01*
X51410591Y-85017037D01*
X51347007Y-85034075D01*
X51232993Y-85099901D01*
X51139901Y-85192993D01*
X51074075Y-85307007D01*
X51057037Y-85370591D01*
X50424728Y-84738282D01*
X50424727Y-84738282D01*
X50385380Y-84792440D01*
X50385376Y-84792446D01*
X50380760Y-84801505D01*
X50332781Y-84852297D01*
X50264959Y-84869087D01*
X50198826Y-84846543D01*
X50159794Y-84801493D01*
X50155051Y-84792184D01*
X50155049Y-84792181D01*
X50155048Y-84792179D01*
X50030109Y-84620213D01*
X49879786Y-84469890D01*
X49707820Y-84344951D01*
X49518414Y-84248444D01*
X49518413Y-84248443D01*
X49518412Y-84248443D01*
X49316243Y-84182754D01*
X49316241Y-84182753D01*
X49316240Y-84182753D01*
X49154957Y-84157208D01*
X49106287Y-84149500D01*
X48893713Y-84149500D01*
X48845042Y-84157208D01*
X48683760Y-84182753D01*
X48481585Y-84248444D01*
X48292179Y-84344951D01*
X48120213Y-84469890D01*
X47969890Y-84620213D01*
X47844949Y-84792182D01*
X47840484Y-84800946D01*
X47792509Y-84851742D01*
X47724688Y-84868536D01*
X47658553Y-84845998D01*
X47619516Y-84800946D01*
X47615050Y-84792182D01*
X47490109Y-84620213D01*
X47339786Y-84469890D01*
X47167820Y-84344951D01*
X46978414Y-84248444D01*
X46978413Y-84248443D01*
X46978412Y-84248443D01*
X46776243Y-84182754D01*
X46776241Y-84182753D01*
X46776240Y-84182753D01*
X46614957Y-84157208D01*
X46566287Y-84149500D01*
X46353713Y-84149500D01*
X46305042Y-84157208D01*
X46143760Y-84182753D01*
X45941585Y-84248444D01*
X45752179Y-84344951D01*
X45580213Y-84469890D01*
X45429890Y-84620213D01*
X45304949Y-84792182D01*
X45300484Y-84800946D01*
X45252509Y-84851742D01*
X45184688Y-84868536D01*
X45118553Y-84845998D01*
X45079516Y-84800946D01*
X45075050Y-84792182D01*
X44950109Y-84620213D01*
X44799786Y-84469890D01*
X44627820Y-84344951D01*
X44438414Y-84248444D01*
X44438413Y-84248443D01*
X44438412Y-84248443D01*
X44236243Y-84182754D01*
X44236241Y-84182753D01*
X44236240Y-84182753D01*
X44074957Y-84157208D01*
X44026287Y-84149500D01*
X43813713Y-84149500D01*
X43765042Y-84157208D01*
X43603760Y-84182753D01*
X43401585Y-84248444D01*
X43212179Y-84344951D01*
X43040213Y-84469890D01*
X42889890Y-84620213D01*
X42764949Y-84792182D01*
X42760484Y-84800946D01*
X42712509Y-84851742D01*
X42644688Y-84868536D01*
X42578553Y-84845998D01*
X42539516Y-84800946D01*
X42535050Y-84792182D01*
X42410109Y-84620213D01*
X42259786Y-84469890D01*
X42087820Y-84344951D01*
X41898414Y-84248444D01*
X41898413Y-84248443D01*
X41898412Y-84248443D01*
X41696243Y-84182754D01*
X41696241Y-84182753D01*
X41696240Y-84182753D01*
X41534957Y-84157208D01*
X41486287Y-84149500D01*
X41273713Y-84149500D01*
X41225042Y-84157208D01*
X41063760Y-84182753D01*
X40861585Y-84248444D01*
X40672179Y-84344951D01*
X40500213Y-84469890D01*
X40349890Y-84620213D01*
X40224949Y-84792182D01*
X40220484Y-84800946D01*
X40172509Y-84851742D01*
X40104688Y-84868536D01*
X40038553Y-84845998D01*
X39999516Y-84800946D01*
X39995050Y-84792182D01*
X39870109Y-84620213D01*
X39719786Y-84469890D01*
X39547820Y-84344951D01*
X39358414Y-84248444D01*
X39358413Y-84248443D01*
X39358412Y-84248443D01*
X39156243Y-84182754D01*
X39156241Y-84182753D01*
X39156240Y-84182753D01*
X38994957Y-84157208D01*
X38946287Y-84149500D01*
X38733713Y-84149500D01*
X38685042Y-84157208D01*
X38523760Y-84182753D01*
X38321585Y-84248444D01*
X38132179Y-84344951D01*
X37960213Y-84469890D01*
X37809890Y-84620213D01*
X37684949Y-84792182D01*
X37680484Y-84800946D01*
X37632509Y-84851742D01*
X37564688Y-84868536D01*
X37498553Y-84845998D01*
X37459516Y-84800946D01*
X37455050Y-84792182D01*
X37330109Y-84620213D01*
X37179786Y-84469890D01*
X37007820Y-84344951D01*
X36818414Y-84248444D01*
X36818413Y-84248443D01*
X36818412Y-84248443D01*
X36616243Y-84182754D01*
X36616241Y-84182753D01*
X36616240Y-84182753D01*
X36454957Y-84157208D01*
X36406287Y-84149500D01*
X36193713Y-84149500D01*
X36145042Y-84157208D01*
X35983760Y-84182753D01*
X35781585Y-84248444D01*
X35592179Y-84344951D01*
X35420213Y-84469890D01*
X35269890Y-84620213D01*
X35144949Y-84792182D01*
X35140484Y-84800946D01*
X35092509Y-84851742D01*
X35024688Y-84868536D01*
X34958553Y-84845998D01*
X34919516Y-84800946D01*
X34915050Y-84792182D01*
X34790109Y-84620213D01*
X34639786Y-84469890D01*
X34467820Y-84344951D01*
X34278414Y-84248444D01*
X34278413Y-84248443D01*
X34278412Y-84248443D01*
X34076243Y-84182754D01*
X34076241Y-84182753D01*
X34076240Y-84182753D01*
X33914957Y-84157208D01*
X33866287Y-84149500D01*
X33653713Y-84149500D01*
X33605042Y-84157208D01*
X33443760Y-84182753D01*
X33241585Y-84248444D01*
X33052179Y-84344951D01*
X32880213Y-84469890D01*
X32729890Y-84620213D01*
X32604949Y-84792182D01*
X32600484Y-84800946D01*
X32552509Y-84851742D01*
X32484688Y-84868536D01*
X32418553Y-84845998D01*
X32379516Y-84800946D01*
X32375050Y-84792182D01*
X32250109Y-84620213D01*
X32099786Y-84469890D01*
X31927820Y-84344951D01*
X31738414Y-84248444D01*
X31738413Y-84248443D01*
X31738412Y-84248443D01*
X31536243Y-84182754D01*
X31536241Y-84182753D01*
X31536240Y-84182753D01*
X31374957Y-84157208D01*
X31326287Y-84149500D01*
X31113713Y-84149500D01*
X31065042Y-84157208D01*
X30903760Y-84182753D01*
X30701585Y-84248444D01*
X30512179Y-84344951D01*
X30340213Y-84469890D01*
X30189890Y-84620213D01*
X30064951Y-84792179D01*
X29968444Y-84981585D01*
X29902753Y-85183760D01*
X29869500Y-85393713D01*
X28900500Y-85393713D01*
X28900500Y-84300096D01*
X28920185Y-84233057D01*
X28936814Y-84212420D01*
X32568713Y-80580521D01*
X32568716Y-80580520D01*
X32680520Y-80468716D01*
X32730639Y-80381904D01*
X32759577Y-80331785D01*
X32800501Y-80179057D01*
X32800501Y-80020943D01*
X32800501Y-80013348D01*
X32800500Y-80013330D01*
X32800500Y-76975000D01*
X33590000Y-76975000D01*
X51280000Y-76975000D01*
X51280000Y-70485000D01*
X33590000Y-70485000D01*
X33590000Y-76975000D01*
X32800500Y-76975000D01*
X32800500Y-48634060D01*
X32800501Y-48634047D01*
X32800501Y-48465944D01*
X32800501Y-48465943D01*
X32759577Y-48313216D01*
X32759573Y-48313209D01*
X32680524Y-48176290D01*
X32680518Y-48176282D01*
X32005657Y-47501421D01*
X31252797Y-46748562D01*
X31219313Y-46687240D01*
X31222547Y-46622566D01*
X31263553Y-46496368D01*
X31283705Y-46369126D01*
X31300500Y-46263097D01*
X31300500Y-46026902D01*
X31263553Y-45793631D01*
X31190566Y-45569003D01*
X31083342Y-45358566D01*
X30944517Y-45167490D01*
X30777510Y-45000483D01*
X30742872Y-44975317D01*
X30700207Y-44919989D01*
X30694228Y-44850375D01*
X30726833Y-44788580D01*
X30742873Y-44774682D01*
X30777510Y-44749517D01*
X30944517Y-44582510D01*
X31083343Y-44391433D01*
X31190568Y-44180992D01*
X31263553Y-43956368D01*
X31300500Y-43723097D01*
X31300500Y-43486902D01*
X31263553Y-43253631D01*
X31190566Y-43029003D01*
X31083342Y-42818566D01*
X30944517Y-42627490D01*
X30777510Y-42460483D01*
X30742872Y-42435317D01*
X30700207Y-42379989D01*
X30694228Y-42310375D01*
X30726833Y-42248580D01*
X30742873Y-42234682D01*
X30777510Y-42209517D01*
X30944517Y-42042510D01*
X31083343Y-41851433D01*
X31190568Y-41640992D01*
X31263553Y-41416368D01*
X31300500Y-41183097D01*
X31300500Y-40946902D01*
X31263553Y-40713631D01*
X31190566Y-40489003D01*
X31083342Y-40278566D01*
X30944517Y-40087490D01*
X30777510Y-39920483D01*
X30718282Y-39877451D01*
X30675617Y-39822122D01*
X30667550Y-39767404D01*
X30669104Y-39747657D01*
X29937574Y-39016128D01*
X29996853Y-39000245D01*
X30113147Y-38933102D01*
X30208102Y-38838147D01*
X30275245Y-38721853D01*
X30291128Y-38662575D01*
X31022658Y-39394105D01*
X31022658Y-39394104D01*
X31082914Y-39311169D01*
X31082918Y-39311163D01*
X31190102Y-39100802D01*
X31263065Y-38876247D01*
X31300000Y-38643052D01*
X31300000Y-38406947D01*
X31263065Y-38173752D01*
X31190102Y-37949197D01*
X31082914Y-37738828D01*
X30992964Y-37615023D01*
X30969484Y-37549216D01*
X30985309Y-37481162D01*
X31034640Y-37433220D01*
X31034546Y-37433047D01*
X31035169Y-37432706D01*
X31035415Y-37432468D01*
X31036480Y-37431990D01*
X31042326Y-37428797D01*
X31042331Y-37428796D01*
X31157546Y-37342546D01*
X31243796Y-37227331D01*
X31294091Y-37092483D01*
X31300500Y-37032873D01*
X31300499Y-34937128D01*
X31294091Y-34877517D01*
X31280278Y-34840483D01*
X31243797Y-34742671D01*
X31243793Y-34742664D01*
X31157547Y-34627455D01*
X31157544Y-34627452D01*
X31042335Y-34541206D01*
X31042328Y-34541202D01*
X30907482Y-34490908D01*
X30907483Y-34490908D01*
X30847883Y-34484501D01*
X30847881Y-34484500D01*
X30847873Y-34484500D01*
X30847864Y-34484500D01*
X28752129Y-34484500D01*
X28752123Y-34484501D01*
X28692516Y-34490908D01*
X28557671Y-34541202D01*
X28557664Y-34541206D01*
X28442455Y-34627452D01*
X28442452Y-34627455D01*
X28356206Y-34742664D01*
X28356202Y-34742671D01*
X28305908Y-34877517D01*
X28299501Y-34937116D01*
X28299501Y-34937123D01*
X28299500Y-34937135D01*
X28299500Y-37032870D01*
X28299501Y-37032876D01*
X28305908Y-37092483D01*
X28356202Y-37227328D01*
X28356206Y-37227335D01*
X28442452Y-37342544D01*
X28442455Y-37342547D01*
X28557664Y-37428793D01*
X28565454Y-37433047D01*
X28563725Y-37436211D01*
X28605915Y-37467734D01*
X28630393Y-37533175D01*
X28615604Y-37601462D01*
X28607036Y-37615021D01*
X28517084Y-37738829D01*
X28409897Y-37949197D01*
X28336934Y-38173752D01*
X28300000Y-38406947D01*
X28300000Y-38643052D01*
X28336934Y-38876247D01*
X28409897Y-39100802D01*
X28517087Y-39311174D01*
X28577338Y-39394104D01*
X28577340Y-39394105D01*
X29308871Y-38662574D01*
X29324755Y-38721853D01*
X29391898Y-38838147D01*
X29486853Y-38933102D01*
X29603147Y-39000245D01*
X29662425Y-39016128D01*
X28930893Y-39747658D01*
X28932448Y-39767405D01*
X28918084Y-39835783D01*
X28881717Y-39877451D01*
X28822490Y-39920482D01*
X28655485Y-40087487D01*
X28655485Y-40087488D01*
X28655483Y-40087490D01*
X28595862Y-40169550D01*
X28516657Y-40278566D01*
X28409433Y-40489003D01*
X28336446Y-40713631D01*
X28299500Y-40946902D01*
X28299500Y-41183097D01*
X28336446Y-41416368D01*
X28409433Y-41640996D01*
X28516657Y-41851433D01*
X28655483Y-42042510D01*
X28822490Y-42209517D01*
X28857127Y-42234683D01*
X28899792Y-42290013D01*
X28905771Y-42359626D01*
X28873165Y-42421421D01*
X28857130Y-42435315D01*
X28839365Y-42448222D01*
X28822488Y-42460484D01*
X28655485Y-42627487D01*
X28655485Y-42627488D01*
X28655483Y-42627490D01*
X28595862Y-42709550D01*
X28516657Y-42818566D01*
X28409433Y-43029003D01*
X28336446Y-43253631D01*
X28299500Y-43486902D01*
X28299500Y-43723097D01*
X28336446Y-43956368D01*
X28409433Y-44180996D01*
X28516657Y-44391433D01*
X28655483Y-44582510D01*
X28822490Y-44749517D01*
X28857127Y-44774683D01*
X28899792Y-44830013D01*
X28905771Y-44899626D01*
X28873165Y-44961421D01*
X28857130Y-44975315D01*
X28839365Y-44988222D01*
X28822488Y-45000484D01*
X28655485Y-45167487D01*
X28655485Y-45167488D01*
X28655483Y-45167490D01*
X28595862Y-45249550D01*
X28516657Y-45358566D01*
X28409433Y-45569003D01*
X28336446Y-45793631D01*
X28299500Y-46026902D01*
X28299500Y-46263097D01*
X28336446Y-46496368D01*
X28409433Y-46720996D01*
X28516657Y-46931433D01*
X28655483Y-47122510D01*
X28822490Y-47289517D01*
X28857127Y-47314683D01*
X28899792Y-47370013D01*
X28905771Y-47439626D01*
X28873165Y-47501421D01*
X28857130Y-47515315D01*
X28839365Y-47528222D01*
X28822488Y-47540484D01*
X28655485Y-47707487D01*
X28655485Y-47707488D01*
X28655483Y-47707490D01*
X28595862Y-47789550D01*
X28516657Y-47898566D01*
X28409433Y-48109003D01*
X28336446Y-48333631D01*
X28299500Y-48566902D01*
X28299500Y-48803097D01*
X28336446Y-49036368D01*
X28409433Y-49260996D01*
X28516657Y-49471433D01*
X28655483Y-49662510D01*
X28822490Y-49829517D01*
X28857127Y-49854683D01*
X28899792Y-49910013D01*
X28905771Y-49979626D01*
X28873165Y-50041421D01*
X28857130Y-50055315D01*
X28839365Y-50068222D01*
X28822488Y-50080484D01*
X28655485Y-50247487D01*
X28655485Y-50247488D01*
X28655483Y-50247490D01*
X28595862Y-50329550D01*
X28516657Y-50438566D01*
X28409433Y-50649003D01*
X28336446Y-50873631D01*
X28299500Y-51106902D01*
X28299500Y-51343097D01*
X28336446Y-51576368D01*
X28409433Y-51800996D01*
X28516657Y-52011433D01*
X28655483Y-52202510D01*
X28822490Y-52369517D01*
X28857127Y-52394683D01*
X28899792Y-52450013D01*
X28905771Y-52519626D01*
X28873165Y-52581421D01*
X28857130Y-52595315D01*
X28839365Y-52608222D01*
X28822488Y-52620484D01*
X28655485Y-52787487D01*
X28655485Y-52787488D01*
X28655483Y-52787490D01*
X28595862Y-52869550D01*
X28516657Y-52978566D01*
X28409433Y-53189003D01*
X28336446Y-53413631D01*
X28299500Y-53646902D01*
X28299500Y-53883097D01*
X28336446Y-54116368D01*
X28409433Y-54340996D01*
X28516657Y-54551433D01*
X28655483Y-54742510D01*
X28822490Y-54909517D01*
X28857127Y-54934683D01*
X28899792Y-54990013D01*
X28905771Y-55059626D01*
X28873165Y-55121421D01*
X28857130Y-55135315D01*
X28839365Y-55148222D01*
X28822488Y-55160484D01*
X28655485Y-55327487D01*
X28655485Y-55327488D01*
X28655483Y-55327490D01*
X28595862Y-55409550D01*
X28516657Y-55518566D01*
X28409433Y-55729003D01*
X28336446Y-55953631D01*
X28299500Y-56186902D01*
X28299500Y-56423097D01*
X28336446Y-56656368D01*
X28409433Y-56880996D01*
X28516657Y-57091433D01*
X28655483Y-57282510D01*
X28822490Y-57449517D01*
X28857127Y-57474683D01*
X28899792Y-57530013D01*
X28905771Y-57599626D01*
X28873165Y-57661421D01*
X28857130Y-57675315D01*
X28839365Y-57688222D01*
X28822488Y-57700484D01*
X28655485Y-57867487D01*
X28655485Y-57867488D01*
X28655483Y-57867490D01*
X28595862Y-57949550D01*
X28516657Y-58058566D01*
X28409433Y-58269003D01*
X28336446Y-58493631D01*
X28299500Y-58726902D01*
X28299500Y-58963097D01*
X28336447Y-59196369D01*
X28336447Y-59196372D01*
X28377450Y-59322564D01*
X28379445Y-59392405D01*
X28347200Y-59448563D01*
X24631286Y-63164478D01*
X24519481Y-63276282D01*
X24519480Y-63276284D01*
X24477493Y-63349008D01*
X24440423Y-63413215D01*
X24399499Y-63565943D01*
X24399499Y-63724057D01*
X24399499Y-63724059D01*
X24399500Y-63734053D01*
X24399500Y-97213330D01*
X24399499Y-97213348D01*
X24399499Y-97379054D01*
X24399498Y-97379054D01*
X16800500Y-97379054D01*
X16800500Y-27910258D01*
X28469500Y-27910258D01*
X28469500Y-28139741D01*
X28494446Y-28329215D01*
X28499452Y-28367238D01*
X28499453Y-28367240D01*
X28558842Y-28588887D01*
X28646650Y-28800876D01*
X28646657Y-28800890D01*
X28761392Y-28999617D01*
X28901081Y-29181661D01*
X28901089Y-29181670D01*
X29063330Y-29343911D01*
X29063338Y-29343918D01*
X29245382Y-29483607D01*
X29245385Y-29483608D01*
X29245388Y-29483611D01*
X29444112Y-29598344D01*
X29444117Y-29598346D01*
X29444123Y-29598349D01*
X29535480Y-29636190D01*
X29656113Y-29686158D01*
X29877762Y-29745548D01*
X30105266Y-29775500D01*
X30105273Y-29775500D01*
X30334727Y-29775500D01*
X30334734Y-29775500D01*
X30562238Y-29745548D01*
X30783887Y-29686158D01*
X30995888Y-29598344D01*
X31194612Y-29483611D01*
X31376661Y-29343919D01*
X31376665Y-29343914D01*
X31376670Y-29343911D01*
X31538911Y-29181670D01*
X31538914Y-29181665D01*
X31538919Y-29181661D01*
X31678611Y-28999612D01*
X31793344Y-28800888D01*
X31881158Y-28588887D01*
X31940548Y-28367238D01*
X31970500Y-28139734D01*
X31970500Y-27910266D01*
X31940548Y-27682762D01*
X31881158Y-27461113D01*
X31793344Y-27249112D01*
X31678611Y-27050388D01*
X31678608Y-27050385D01*
X31678607Y-27050382D01*
X31538918Y-26868338D01*
X31538911Y-26868330D01*
X31376670Y-26706089D01*
X31376661Y-26706081D01*
X31194617Y-26566392D01*
X30995890Y-26451657D01*
X30995876Y-26451650D01*
X30783887Y-26363842D01*
X30562238Y-26304452D01*
X30524215Y-26299446D01*
X30334741Y-26274500D01*
X30334734Y-26274500D01*
X30105266Y-26274500D01*
X30105258Y-26274500D01*
X29888715Y-26303009D01*
X29877762Y-26304452D01*
X29784076Y-26329554D01*
X29656112Y-26363842D01*
X29444123Y-26451650D01*
X29444109Y-26451657D01*
X29245382Y-26566392D01*
X29063338Y-26706081D01*
X28901081Y-26868338D01*
X28761392Y-27050382D01*
X28646657Y-27249109D01*
X28646650Y-27249123D01*
X28558842Y-27461112D01*
X28499453Y-27682759D01*
X28499451Y-27682770D01*
X28469500Y-27910258D01*
X16800500Y-27910258D01*
X16800500Y-22318209D01*
X18299500Y-22318209D01*
X18299500Y-22681790D01*
X18335137Y-23043630D01*
X18406064Y-23400212D01*
X18406067Y-23400223D01*
X18511614Y-23748165D01*
X18650754Y-24084078D01*
X18650756Y-24084083D01*
X18822140Y-24404720D01*
X18822151Y-24404738D01*
X19024140Y-24707035D01*
X19024150Y-24707049D01*
X19254807Y-24988106D01*
X19511893Y-25245192D01*
X19511898Y-25245196D01*
X19511899Y-25245197D01*
X19792956Y-25475854D01*
X20095268Y-25677853D01*
X20095277Y-25677858D01*
X20095279Y-25677859D01*
X20415916Y-25849243D01*
X20415918Y-25849243D01*
X20415924Y-25849247D01*
X20751836Y-25988386D01*
X21099767Y-26093930D01*
X21099773Y-26093931D01*
X21099776Y-26093932D01*
X21099787Y-26093935D01*
X21456369Y-26164862D01*
X21818206Y-26200500D01*
X21818209Y-26200500D01*
X22181791Y-26200500D01*
X22181794Y-26200500D01*
X22543631Y-26164862D01*
X22613045Y-26151054D01*
X22900212Y-26093935D01*
X22900223Y-26093932D01*
X22900223Y-26093931D01*
X22900233Y-26093930D01*
X23248164Y-25988386D01*
X23584076Y-25849247D01*
X23904732Y-25677853D01*
X24207044Y-25475854D01*
X24488101Y-25245197D01*
X24745197Y-24988101D01*
X24975854Y-24707044D01*
X25177853Y-24404732D01*
X25349247Y-24084076D01*
X25488386Y-23748164D01*
X25593930Y-23400233D01*
X25593932Y-23400223D01*
X25593935Y-23400212D01*
X25664862Y-23043630D01*
X25700500Y-22681790D01*
X25700500Y-22318209D01*
X25664862Y-21956369D01*
X25593935Y-21599787D01*
X25593932Y-21599776D01*
X25593931Y-21599773D01*
X25593930Y-21599767D01*
X25488386Y-21251836D01*
X25349247Y-20915924D01*
X25177853Y-20595268D01*
X24975854Y-20292956D01*
X24745197Y-20011899D01*
X24745196Y-20011898D01*
X24745192Y-20011893D01*
X24488106Y-19754807D01*
X24423925Y-19702135D01*
X33209500Y-19702135D01*
X33209500Y-21497870D01*
X33209501Y-21497876D01*
X33215908Y-21557483D01*
X33266202Y-21692328D01*
X33266206Y-21692335D01*
X33352452Y-21807544D01*
X33352455Y-21807547D01*
X33467664Y-21893793D01*
X33467671Y-21893797D01*
X33477243Y-21897367D01*
X33602517Y-21944091D01*
X33662127Y-21950500D01*
X33785500Y-21950499D01*
X33852539Y-21970183D01*
X33898294Y-22022987D01*
X33909500Y-22074499D01*
X33909500Y-35729069D01*
X33925650Y-35810256D01*
X33934499Y-35854744D01*
X33934500Y-35854746D01*
X33983534Y-35973125D01*
X34054726Y-36079673D01*
X34054727Y-36079674D01*
X53729859Y-55754805D01*
X53763344Y-55816128D01*
X53760109Y-55880803D01*
X53736447Y-55953628D01*
X53699500Y-56186902D01*
X53699500Y-56423097D01*
X53736446Y-56656368D01*
X53809433Y-56880996D01*
X53916657Y-57091433D01*
X54055483Y-57282510D01*
X54222490Y-57449517D01*
X54257127Y-57474683D01*
X54299792Y-57530013D01*
X54305771Y-57599626D01*
X54273165Y-57661421D01*
X54257130Y-57675315D01*
X54239365Y-57688222D01*
X54222488Y-57700484D01*
X54055485Y-57867487D01*
X54055485Y-57867488D01*
X54055483Y-57867490D01*
X53995862Y-57949550D01*
X53916657Y-58058566D01*
X53809433Y-58269003D01*
X53736446Y-58493631D01*
X53699500Y-58726902D01*
X53699500Y-58963097D01*
X53736446Y-59196368D01*
X53809433Y-59420996D01*
X53916657Y-59631433D01*
X54055483Y-59822510D01*
X54222490Y-59989517D01*
X54257127Y-60014683D01*
X54299792Y-60070013D01*
X54305771Y-60139626D01*
X54273165Y-60201421D01*
X54257130Y-60215315D01*
X54239365Y-60228222D01*
X54222488Y-60240484D01*
X54055485Y-60407487D01*
X54055485Y-60407488D01*
X54055483Y-60407490D01*
X53995862Y-60489550D01*
X53916657Y-60598566D01*
X53809433Y-60809003D01*
X53736446Y-61033631D01*
X53699500Y-61266902D01*
X53699500Y-61503097D01*
X53736446Y-61736368D01*
X53809433Y-61960996D01*
X53916657Y-62171433D01*
X54055483Y-62362510D01*
X54222490Y-62529517D01*
X54257127Y-62554683D01*
X54299792Y-62610013D01*
X54305771Y-62679626D01*
X54273165Y-62741421D01*
X54257130Y-62755315D01*
X54239365Y-62768222D01*
X54222488Y-62780484D01*
X54055485Y-62947487D01*
X54055485Y-62947488D01*
X54055483Y-62947490D01*
X53995862Y-63029550D01*
X53916657Y-63138566D01*
X53809433Y-63349003D01*
X53736446Y-63573631D01*
X53699500Y-63806902D01*
X53699500Y-64043097D01*
X53736446Y-64276368D01*
X53809433Y-64500996D01*
X53916657Y-64711433D01*
X54055483Y-64902510D01*
X54222490Y-65069517D01*
X54257127Y-65094683D01*
X54299792Y-65150013D01*
X54305771Y-65219626D01*
X54273165Y-65281421D01*
X54257130Y-65295315D01*
X54239365Y-65308222D01*
X54222488Y-65320484D01*
X54055485Y-65487487D01*
X54055485Y-65487488D01*
X54055483Y-65487490D01*
X53995862Y-65569550D01*
X53916657Y-65678566D01*
X53809433Y-65889003D01*
X53736446Y-66113631D01*
X53699500Y-66346902D01*
X53699500Y-66583097D01*
X53736446Y-66816368D01*
X53809433Y-67040996D01*
X53916657Y-67251433D01*
X54055483Y-67442510D01*
X54222490Y-67609517D01*
X54257127Y-67634683D01*
X54299792Y-67690013D01*
X54305771Y-67759626D01*
X54273165Y-67821421D01*
X54257130Y-67835315D01*
X54239365Y-67848222D01*
X54222488Y-67860484D01*
X54055485Y-68027487D01*
X54055485Y-68027488D01*
X54055483Y-68027490D01*
X54008375Y-68092328D01*
X53916657Y-68218566D01*
X53809433Y-68429003D01*
X53736446Y-68653631D01*
X53699500Y-68886902D01*
X53699500Y-69123097D01*
X53736446Y-69356368D01*
X53809433Y-69580996D01*
X53886880Y-69732993D01*
X53916657Y-69791433D01*
X54055483Y-69982510D01*
X54222490Y-70149517D01*
X54257127Y-70174683D01*
X54299792Y-70230013D01*
X54305771Y-70299626D01*
X54273165Y-70361421D01*
X54257130Y-70375315D01*
X54239365Y-70388222D01*
X54222488Y-70400484D01*
X54055485Y-70567487D01*
X54055485Y-70567488D01*
X54055483Y-70567490D01*
X53995862Y-70649550D01*
X53916657Y-70758566D01*
X53809433Y-70969003D01*
X53736446Y-71193631D01*
X53699500Y-71426902D01*
X53699500Y-71663097D01*
X53736446Y-71896368D01*
X53809433Y-72120996D01*
X53842701Y-72186287D01*
X53916657Y-72331433D01*
X54055483Y-72522510D01*
X54222490Y-72689517D01*
X54413567Y-72828343D01*
X54512991Y-72879002D01*
X54624003Y-72935566D01*
X54624005Y-72935566D01*
X54624008Y-72935568D01*
X54768662Y-72982569D01*
X54826337Y-73022007D01*
X54853535Y-73086366D01*
X54841620Y-73155212D01*
X54794376Y-73206688D01*
X54730343Y-73224500D01*
X54615258Y-73224500D01*
X54399474Y-73252910D01*
X54387762Y-73254452D01*
X54297804Y-73278556D01*
X54166112Y-73313842D01*
X53954123Y-73401650D01*
X53954109Y-73401657D01*
X53755382Y-73516392D01*
X53573338Y-73656081D01*
X53411081Y-73818338D01*
X53271392Y-74000382D01*
X53156657Y-74199109D01*
X53156650Y-74199123D01*
X53068842Y-74411112D01*
X53068842Y-74411113D01*
X53019329Y-74595902D01*
X53009453Y-74632759D01*
X53009451Y-74632770D01*
X52979500Y-74860258D01*
X52979500Y-75089741D01*
X53004446Y-75279215D01*
X53009452Y-75317238D01*
X53058365Y-75499786D01*
X53068842Y-75538887D01*
X53156650Y-75750876D01*
X53156657Y-75750890D01*
X53271392Y-75949617D01*
X53411081Y-76131661D01*
X53411089Y-76131670D01*
X53573330Y-76293911D01*
X53573338Y-76293918D01*
X53573339Y-76293919D01*
X53623962Y-76332764D01*
X53755382Y-76433607D01*
X53755385Y-76433608D01*
X53755388Y-76433611D01*
X53954112Y-76548344D01*
X53954117Y-76548346D01*
X53954123Y-76548349D01*
X54045480Y-76586190D01*
X54166113Y-76636158D01*
X54387762Y-76695548D01*
X54615266Y-76725500D01*
X54615273Y-76725500D01*
X54844727Y-76725500D01*
X54844734Y-76725500D01*
X55072238Y-76695548D01*
X55293887Y-76636158D01*
X55505888Y-76548344D01*
X55704612Y-76433611D01*
X55886661Y-76293919D01*
X55886665Y-76293914D01*
X55886670Y-76293911D01*
X56048911Y-76131670D01*
X56048914Y-76131665D01*
X56048919Y-76131661D01*
X56188611Y-75949612D01*
X56303344Y-75750888D01*
X56391158Y-75538887D01*
X56450548Y-75317238D01*
X56480500Y-75089734D01*
X56480500Y-74860266D01*
X56450548Y-74632762D01*
X56391158Y-74411113D01*
X56303344Y-74199112D01*
X56188611Y-74000388D01*
X56188608Y-74000385D01*
X56188607Y-74000382D01*
X56048918Y-73818338D01*
X56048911Y-73818330D01*
X55886670Y-73656089D01*
X55886661Y-73656081D01*
X55704617Y-73516392D01*
X55505890Y-73401657D01*
X55505876Y-73401650D01*
X55293887Y-73313842D01*
X55202197Y-73289274D01*
X55142538Y-73252910D01*
X55112009Y-73190063D01*
X55120304Y-73120688D01*
X55164789Y-73066810D01*
X55231341Y-73045535D01*
X55234292Y-73045500D01*
X55318097Y-73045500D01*
X55551368Y-73008553D01*
X55631338Y-72982569D01*
X55775992Y-72935568D01*
X55986433Y-72828343D01*
X56177510Y-72689517D01*
X56344517Y-72522510D01*
X56483343Y-72331433D01*
X56590568Y-72120992D01*
X56663553Y-71896368D01*
X56684556Y-71763757D01*
X56700500Y-71663097D01*
X56700500Y-71426902D01*
X56663553Y-71193631D01*
X56590566Y-70969003D01*
X56534002Y-70857991D01*
X56483343Y-70758567D01*
X56344517Y-70567490D01*
X56177510Y-70400483D01*
X56142872Y-70375317D01*
X56100207Y-70319989D01*
X56094228Y-70250375D01*
X56126833Y-70188580D01*
X56142873Y-70174682D01*
X56177510Y-70149517D01*
X56344517Y-69982510D01*
X56483343Y-69791433D01*
X56590568Y-69580992D01*
X56663553Y-69356368D01*
X56697838Y-69139901D01*
X56700500Y-69123097D01*
X56700500Y-68886902D01*
X56663553Y-68653631D01*
X56590566Y-68429003D01*
X56534002Y-68317991D01*
X56483343Y-68218567D01*
X56344517Y-68027490D01*
X56177510Y-67860483D01*
X56142872Y-67835317D01*
X56100207Y-67779989D01*
X56094228Y-67710375D01*
X56126833Y-67648580D01*
X56142873Y-67634682D01*
X56177510Y-67609517D01*
X56344517Y-67442510D01*
X56483343Y-67251433D01*
X56590568Y-67040992D01*
X56663553Y-66816368D01*
X56700500Y-66583097D01*
X56700500Y-66346902D01*
X56664277Y-66118204D01*
X56664277Y-66118203D01*
X56664276Y-66118200D01*
X56663552Y-66113631D01*
X56659817Y-66102135D01*
X60249500Y-66102135D01*
X60249500Y-67897870D01*
X60249501Y-67897876D01*
X60255908Y-67957483D01*
X60306202Y-68092328D01*
X60306206Y-68092335D01*
X60392452Y-68207544D01*
X60392455Y-68207547D01*
X60507664Y-68293793D01*
X60507671Y-68293797D01*
X60552618Y-68310561D01*
X60642517Y-68344091D01*
X60702127Y-68350500D01*
X60712685Y-68350499D01*
X60779723Y-68370179D01*
X60800372Y-68386818D01*
X61470591Y-69057037D01*
X61407007Y-69074075D01*
X61292993Y-69139901D01*
X61199901Y-69232993D01*
X61134075Y-69347007D01*
X61117037Y-69410591D01*
X60484728Y-68778282D01*
X60484727Y-68778282D01*
X60445380Y-68832439D01*
X60348904Y-69021782D01*
X60283242Y-69223869D01*
X60283242Y-69223872D01*
X60250000Y-69433753D01*
X60250000Y-69646246D01*
X60283242Y-69856127D01*
X60283242Y-69856130D01*
X60348904Y-70058217D01*
X60445375Y-70247550D01*
X60484728Y-70301716D01*
X61117037Y-69669408D01*
X61134075Y-69732993D01*
X61199901Y-69847007D01*
X61292993Y-69940099D01*
X61407007Y-70005925D01*
X61470590Y-70022962D01*
X60838282Y-70655269D01*
X60838282Y-70655270D01*
X60892452Y-70694626D01*
X60892451Y-70694626D01*
X60901495Y-70699234D01*
X60952292Y-70747208D01*
X60969087Y-70815029D01*
X60946550Y-70881164D01*
X60901499Y-70920202D01*
X60892182Y-70924949D01*
X60720213Y-71049890D01*
X60569890Y-71200213D01*
X60444951Y-71372179D01*
X60348444Y-71561585D01*
X60282753Y-71763760D01*
X60261750Y-71896368D01*
X60249500Y-71973713D01*
X60249500Y-72186287D01*
X60282754Y-72396243D01*
X60323781Y-72522512D01*
X60348444Y-72598414D01*
X60444951Y-72787820D01*
X60569890Y-72959786D01*
X60720213Y-73110109D01*
X60892182Y-73235050D01*
X60900946Y-73239516D01*
X60951742Y-73287491D01*
X60968536Y-73355312D01*
X60945998Y-73421447D01*
X60900946Y-73460484D01*
X60892182Y-73464949D01*
X60720213Y-73589890D01*
X60569890Y-73740213D01*
X60444951Y-73912179D01*
X60348444Y-74101585D01*
X60282753Y-74303760D01*
X60249500Y-74513713D01*
X60249500Y-74726286D01*
X60276263Y-74895264D01*
X60282754Y-74936243D01*
X60332626Y-75089734D01*
X60348444Y-75138414D01*
X60444951Y-75327820D01*
X60569890Y-75499786D01*
X60720213Y-75650109D01*
X60892182Y-75775050D01*
X60900946Y-75779516D01*
X60951742Y-75827491D01*
X60968536Y-75895312D01*
X60945998Y-75961447D01*
X60900946Y-76000484D01*
X60892182Y-76004949D01*
X60720213Y-76129890D01*
X60569890Y-76280213D01*
X60444951Y-76452179D01*
X60348444Y-76641585D01*
X60282753Y-76843760D01*
X60249500Y-77053713D01*
X60249500Y-77266286D01*
X60282753Y-77476239D01*
X60348444Y-77678414D01*
X60444951Y-77867820D01*
X60569890Y-78039786D01*
X60720213Y-78190109D01*
X60892179Y-78315048D01*
X60892181Y-78315049D01*
X60892184Y-78315051D01*
X61081588Y-78411557D01*
X61283757Y-78477246D01*
X61493713Y-78510500D01*
X61493714Y-78510500D01*
X61706286Y-78510500D01*
X61706287Y-78510500D01*
X61916243Y-78477246D01*
X62118412Y-78411557D01*
X62307816Y-78315051D01*
X62329789Y-78299086D01*
X62479786Y-78190109D01*
X62479788Y-78190106D01*
X62479792Y-78190104D01*
X62630104Y-78039792D01*
X62630106Y-78039788D01*
X62630109Y-78039786D01*
X62755048Y-77867820D01*
X62755047Y-77867820D01*
X62755051Y-77867816D01*
X62851557Y-77678412D01*
X62917246Y-77476243D01*
X62950500Y-77266287D01*
X62950500Y-77053713D01*
X62917246Y-76843757D01*
X62851557Y-76641588D01*
X62755051Y-76452184D01*
X62755049Y-76452181D01*
X62755048Y-76452179D01*
X62630109Y-76280213D01*
X62479786Y-76129890D01*
X62307820Y-76004951D01*
X62307115Y-76004591D01*
X62299054Y-76000485D01*
X62248259Y-75952512D01*
X62231463Y-75884692D01*
X62253999Y-75818556D01*
X62299054Y-75779515D01*
X62307816Y-75775051D01*
X62341090Y-75750876D01*
X62479786Y-75650109D01*
X62479788Y-75650106D01*
X62479792Y-75650104D01*
X62630104Y-75499792D01*
X62630106Y-75499788D01*
X62630109Y-75499786D01*
X62755048Y-75327820D01*
X62755047Y-75327820D01*
X62755051Y-75327816D01*
X62851557Y-75138412D01*
X62917246Y-74936243D01*
X62950500Y-74726287D01*
X62950500Y-74513713D01*
X62917246Y-74303757D01*
X62851557Y-74101588D01*
X62755051Y-73912184D01*
X62755049Y-73912181D01*
X62755048Y-73912179D01*
X62630109Y-73740213D01*
X62479786Y-73589890D01*
X62307820Y-73464951D01*
X62307115Y-73464591D01*
X62299054Y-73460485D01*
X62248259Y-73412512D01*
X62231463Y-73344692D01*
X62253999Y-73278556D01*
X62299054Y-73239515D01*
X62307816Y-73235051D01*
X62422112Y-73152011D01*
X62479786Y-73110109D01*
X62479788Y-73110106D01*
X62479792Y-73110104D01*
X62630104Y-72959792D01*
X62630106Y-72959788D01*
X62630109Y-72959786D01*
X62755048Y-72787820D01*
X62755047Y-72787820D01*
X62755051Y-72787816D01*
X62851557Y-72598412D01*
X62917246Y-72396243D01*
X62950500Y-72186287D01*
X62950500Y-71973713D01*
X62917246Y-71763757D01*
X62851557Y-71561588D01*
X62755051Y-71372184D01*
X62755049Y-71372181D01*
X62755048Y-71372179D01*
X62630109Y-71200213D01*
X62479786Y-71049890D01*
X62307817Y-70924949D01*
X62298504Y-70920204D01*
X62247707Y-70872230D01*
X62230912Y-70804409D01*
X62253449Y-70738274D01*
X62298507Y-70699232D01*
X62307555Y-70694622D01*
X62361716Y-70655270D01*
X62361717Y-70655270D01*
X61729408Y-70022962D01*
X61792993Y-70005925D01*
X61907007Y-69940099D01*
X62000099Y-69847007D01*
X62065925Y-69732993D01*
X62082962Y-69669408D01*
X62715270Y-70301717D01*
X62715270Y-70301716D01*
X62754622Y-70247554D01*
X62851095Y-70058217D01*
X62916757Y-69856130D01*
X62916757Y-69856127D01*
X62950000Y-69646246D01*
X62950000Y-69433753D01*
X62916757Y-69223872D01*
X62916757Y-69223869D01*
X62851095Y-69021782D01*
X62754624Y-68832449D01*
X62715270Y-68778282D01*
X62715269Y-68778282D01*
X62082962Y-69410590D01*
X62065925Y-69347007D01*
X62000099Y-69232993D01*
X61907007Y-69139901D01*
X61792993Y-69074075D01*
X61729409Y-69057037D01*
X62399627Y-68386818D01*
X62460950Y-68353333D01*
X62487307Y-68350499D01*
X62497872Y-68350499D01*
X62557483Y-68344091D01*
X62692331Y-68293796D01*
X62807546Y-68207546D01*
X62893796Y-68092331D01*
X62944091Y-67957483D01*
X62950500Y-67897873D01*
X62950499Y-66102128D01*
X62944091Y-66042517D01*
X62893796Y-65907669D01*
X62893795Y-65907668D01*
X62893793Y-65907664D01*
X62807547Y-65792455D01*
X62807544Y-65792452D01*
X62692335Y-65706206D01*
X62692328Y-65706202D01*
X62557482Y-65655908D01*
X62557483Y-65655908D01*
X62497883Y-65649501D01*
X62497881Y-65649500D01*
X62497873Y-65649500D01*
X62497864Y-65649500D01*
X60702129Y-65649500D01*
X60702123Y-65649501D01*
X60642516Y-65655908D01*
X60507671Y-65706202D01*
X60507664Y-65706206D01*
X60392455Y-65792452D01*
X60392452Y-65792455D01*
X60306206Y-65907664D01*
X60306202Y-65907671D01*
X60255908Y-66042517D01*
X60249501Y-66102116D01*
X60249501Y-66102123D01*
X60249500Y-66102135D01*
X56659817Y-66102135D01*
X56596631Y-65907669D01*
X56590568Y-65889008D01*
X56590566Y-65889005D01*
X56590566Y-65889003D01*
X56534002Y-65777991D01*
X56483343Y-65678567D01*
X56344517Y-65487490D01*
X56177510Y-65320483D01*
X56142872Y-65295317D01*
X56100207Y-65239989D01*
X56094228Y-65170375D01*
X56126833Y-65108580D01*
X56142873Y-65094682D01*
X56177510Y-65069517D01*
X56344517Y-64902510D01*
X56483343Y-64711433D01*
X56590568Y-64500992D01*
X56663553Y-64276368D01*
X56700500Y-64043097D01*
X56700500Y-63806902D01*
X56663553Y-63573631D01*
X56611430Y-63413215D01*
X56590568Y-63349008D01*
X56590566Y-63349005D01*
X56590566Y-63349003D01*
X56483342Y-63138566D01*
X56344517Y-62947490D01*
X56177510Y-62780483D01*
X56142872Y-62755317D01*
X56100207Y-62699989D01*
X56094228Y-62630375D01*
X56126833Y-62568580D01*
X56142873Y-62554682D01*
X56177510Y-62529517D01*
X56344517Y-62362510D01*
X56483343Y-62171433D01*
X56590568Y-61960992D01*
X56663553Y-61736368D01*
X56700500Y-61503097D01*
X56700500Y-61266902D01*
X56663553Y-61033631D01*
X56590566Y-60809003D01*
X56483342Y-60598566D01*
X56344517Y-60407490D01*
X56177510Y-60240483D01*
X56142872Y-60215317D01*
X56100207Y-60159989D01*
X56094228Y-60090375D01*
X56126833Y-60028580D01*
X56142873Y-60014682D01*
X56177510Y-59989517D01*
X56344517Y-59822510D01*
X56483343Y-59631433D01*
X56590568Y-59420992D01*
X56663553Y-59196368D01*
X56700500Y-58963097D01*
X56700500Y-58726902D01*
X56680347Y-58599666D01*
X56663553Y-58493632D01*
X56639888Y-58420802D01*
X56637894Y-58350963D01*
X56670137Y-58294807D01*
X59005277Y-55959669D01*
X59076465Y-55853127D01*
X59125501Y-55734743D01*
X59150500Y-55609069D01*
X59150500Y-55480931D01*
X59150500Y-35935931D01*
X59150500Y-35935928D01*
X59125502Y-35810261D01*
X59125501Y-35810258D01*
X59125501Y-35810256D01*
X59076465Y-35691873D01*
X59015700Y-35600931D01*
X59005277Y-35585331D01*
X57874752Y-34454806D01*
X56414674Y-32994727D01*
X56414673Y-32994726D01*
X56414669Y-32994723D01*
X56308127Y-32923535D01*
X56189744Y-32874499D01*
X56189738Y-32874497D01*
X56064071Y-32849500D01*
X56064069Y-32849500D01*
X50320808Y-32849500D01*
X50253769Y-32829815D01*
X50233127Y-32813181D01*
X45330204Y-27910258D01*
X52979500Y-27910258D01*
X52979500Y-28139741D01*
X53004446Y-28329215D01*
X53009452Y-28367238D01*
X53009453Y-28367240D01*
X53068842Y-28588887D01*
X53156650Y-28800876D01*
X53156657Y-28800890D01*
X53271392Y-28999617D01*
X53411081Y-29181661D01*
X53411089Y-29181670D01*
X53573330Y-29343911D01*
X53573338Y-29343918D01*
X53755382Y-29483607D01*
X53755385Y-29483608D01*
X53755388Y-29483611D01*
X53954112Y-29598344D01*
X53954117Y-29598346D01*
X53954123Y-29598349D01*
X54045480Y-29636190D01*
X54166113Y-29686158D01*
X54387762Y-29745548D01*
X54615266Y-29775500D01*
X54615273Y-29775500D01*
X54844727Y-29775500D01*
X54844734Y-29775500D01*
X55072238Y-29745548D01*
X55293887Y-29686158D01*
X55505888Y-29598344D01*
X55704612Y-29483611D01*
X55886661Y-29343919D01*
X55886665Y-29343914D01*
X55886670Y-29343911D01*
X56048911Y-29181670D01*
X56048914Y-29181665D01*
X56048919Y-29181661D01*
X56188611Y-28999612D01*
X56303344Y-28800888D01*
X56391158Y-28588887D01*
X56450548Y-28367238D01*
X56480500Y-28139734D01*
X56480500Y-27910266D01*
X56450548Y-27682762D01*
X56391158Y-27461113D01*
X56303344Y-27249112D01*
X56188611Y-27050388D01*
X56188608Y-27050385D01*
X56188607Y-27050382D01*
X56048918Y-26868338D01*
X56048911Y-26868330D01*
X55886670Y-26706089D01*
X55886661Y-26706081D01*
X55704617Y-26566392D01*
X55505890Y-26451657D01*
X55505876Y-26451650D01*
X55293887Y-26363842D01*
X55072238Y-26304452D01*
X55034215Y-26299446D01*
X54844741Y-26274500D01*
X54844734Y-26274500D01*
X54615266Y-26274500D01*
X54615258Y-26274500D01*
X54398715Y-26303009D01*
X54387762Y-26304452D01*
X54294076Y-26329554D01*
X54166112Y-26363842D01*
X53954123Y-26451650D01*
X53954109Y-26451657D01*
X53755382Y-26566392D01*
X53573338Y-26706081D01*
X53411081Y-26868338D01*
X53271392Y-27050382D01*
X53156657Y-27249109D01*
X53156650Y-27249123D01*
X53068842Y-27461112D01*
X53009453Y-27682759D01*
X53009451Y-27682770D01*
X52979500Y-27910258D01*
X45330204Y-27910258D01*
X39738155Y-22318209D01*
X59799500Y-22318209D01*
X59799500Y-22681790D01*
X59835137Y-23043630D01*
X59906064Y-23400212D01*
X59906067Y-23400223D01*
X60011614Y-23748165D01*
X60150754Y-24084078D01*
X60150756Y-24084083D01*
X60322140Y-24404720D01*
X60322151Y-24404738D01*
X60524140Y-24707035D01*
X60524150Y-24707049D01*
X60754807Y-24988106D01*
X61011893Y-25245192D01*
X61011898Y-25245196D01*
X61011899Y-25245197D01*
X61292956Y-25475854D01*
X61595268Y-25677853D01*
X61595277Y-25677858D01*
X61595279Y-25677859D01*
X61915916Y-25849243D01*
X61915918Y-25849243D01*
X61915924Y-25849247D01*
X62251836Y-25988386D01*
X62599767Y-26093930D01*
X62599773Y-26093931D01*
X62599776Y-26093932D01*
X62599787Y-26093935D01*
X62956369Y-26164862D01*
X63318206Y-26200500D01*
X63318209Y-26200500D01*
X63681791Y-26200500D01*
X63681794Y-26200500D01*
X64043631Y-26164862D01*
X64113045Y-26151054D01*
X64400212Y-26093935D01*
X64400223Y-26093932D01*
X64400223Y-26093931D01*
X64400233Y-26093930D01*
X64748164Y-25988386D01*
X65084076Y-25849247D01*
X65404732Y-25677853D01*
X65707044Y-25475854D01*
X65988101Y-25245197D01*
X66245197Y-24988101D01*
X66475854Y-24707044D01*
X66677853Y-24404732D01*
X66849247Y-24084076D01*
X66988386Y-23748164D01*
X67093930Y-23400233D01*
X67093932Y-23400223D01*
X67093935Y-23400212D01*
X67164862Y-23043630D01*
X67200500Y-22681790D01*
X67200500Y-22318209D01*
X67164862Y-21956369D01*
X67093935Y-21599787D01*
X67093932Y-21599776D01*
X67093931Y-21599773D01*
X67093930Y-21599767D01*
X66988386Y-21251836D01*
X66849247Y-20915924D01*
X66677853Y-20595268D01*
X66475854Y-20292956D01*
X66245197Y-20011899D01*
X66245196Y-20011898D01*
X66245192Y-20011893D01*
X65988106Y-19754807D01*
X65707049Y-19524150D01*
X65707048Y-19524149D01*
X65707044Y-19524146D01*
X65404732Y-19322147D01*
X65404727Y-19322144D01*
X65404720Y-19322140D01*
X65084083Y-19150756D01*
X65084078Y-19150754D01*
X64748165Y-19011614D01*
X64400223Y-18906067D01*
X64400212Y-18906064D01*
X64043630Y-18835137D01*
X63771111Y-18808296D01*
X63681794Y-18799500D01*
X63318206Y-18799500D01*
X63235679Y-18807628D01*
X62956369Y-18835137D01*
X62599787Y-18906064D01*
X62599776Y-18906067D01*
X62251834Y-19011614D01*
X61915921Y-19150754D01*
X61915916Y-19150756D01*
X61595279Y-19322140D01*
X61595261Y-19322151D01*
X61292964Y-19524140D01*
X61292950Y-19524150D01*
X61011893Y-19754807D01*
X60754807Y-20011893D01*
X60524150Y-20292950D01*
X60524140Y-20292964D01*
X60322151Y-20595261D01*
X60322140Y-20595279D01*
X60150756Y-20915916D01*
X60150754Y-20915921D01*
X60011614Y-21251834D01*
X59906067Y-21599776D01*
X59906064Y-21599787D01*
X59835137Y-21956369D01*
X59799500Y-22318209D01*
X39738155Y-22318209D01*
X39582127Y-22162181D01*
X39548642Y-22100858D01*
X39553626Y-22031166D01*
X39595498Y-21975233D01*
X39660962Y-21950816D01*
X39669808Y-21950500D01*
X39746286Y-21950500D01*
X39746287Y-21950500D01*
X39956243Y-21917246D01*
X40158412Y-21851557D01*
X40347816Y-21755051D01*
X40434138Y-21692335D01*
X40519786Y-21630109D01*
X40519788Y-21630106D01*
X40519792Y-21630104D01*
X40670104Y-21479792D01*
X40670106Y-21479788D01*
X40670109Y-21479786D01*
X40795048Y-21307820D01*
X40795047Y-21307820D01*
X40795051Y-21307816D01*
X40799514Y-21299054D01*
X40847488Y-21248259D01*
X40915308Y-21231463D01*
X40981444Y-21253999D01*
X41020486Y-21299056D01*
X41024951Y-21307820D01*
X41149890Y-21479786D01*
X41300213Y-21630109D01*
X41472179Y-21755048D01*
X41472181Y-21755049D01*
X41472184Y-21755051D01*
X41661588Y-21851557D01*
X41863757Y-21917246D01*
X42073713Y-21950500D01*
X42073714Y-21950500D01*
X42286286Y-21950500D01*
X42286287Y-21950500D01*
X42496243Y-21917246D01*
X42698412Y-21851557D01*
X42887816Y-21755051D01*
X42974138Y-21692335D01*
X43059786Y-21630109D01*
X43059788Y-21630106D01*
X43059792Y-21630104D01*
X43210104Y-21479792D01*
X43210106Y-21479788D01*
X43210109Y-21479786D01*
X43335048Y-21307820D01*
X43335047Y-21307820D01*
X43335051Y-21307816D01*
X43339514Y-21299054D01*
X43387488Y-21248259D01*
X43455308Y-21231463D01*
X43521444Y-21253999D01*
X43560486Y-21299056D01*
X43564951Y-21307820D01*
X43689890Y-21479786D01*
X43840213Y-21630109D01*
X44012179Y-21755048D01*
X44012181Y-21755049D01*
X44012184Y-21755051D01*
X44201588Y-21851557D01*
X44403757Y-21917246D01*
X44613713Y-21950500D01*
X44613714Y-21950500D01*
X44826286Y-21950500D01*
X44826287Y-21950500D01*
X45036243Y-21917246D01*
X45238412Y-21851557D01*
X45427816Y-21755051D01*
X45514138Y-21692335D01*
X45599786Y-21630109D01*
X45599788Y-21630106D01*
X45599792Y-21630104D01*
X45750104Y-21479792D01*
X45750106Y-21479788D01*
X45750109Y-21479786D01*
X45835890Y-21361717D01*
X45875051Y-21307816D01*
X45879793Y-21298508D01*
X45927763Y-21247711D01*
X45995583Y-21230911D01*
X46061719Y-21253445D01*
X46100763Y-21298500D01*
X46105373Y-21307547D01*
X46144728Y-21361716D01*
X46777037Y-20729408D01*
X46794075Y-20792993D01*
X46859901Y-20907007D01*
X46952993Y-21000099D01*
X47067007Y-21065925D01*
X47130590Y-21082962D01*
X46498282Y-21715269D01*
X46498282Y-21715270D01*
X46552449Y-21754624D01*
X46741782Y-21851095D01*
X46943870Y-21916757D01*
X47153754Y-21950000D01*
X47366246Y-21950000D01*
X47576127Y-21916757D01*
X47576130Y-21916757D01*
X47778217Y-21851095D01*
X47967554Y-21754622D01*
X48021716Y-21715270D01*
X48021717Y-21715270D01*
X47389408Y-21082962D01*
X47452993Y-21065925D01*
X47567007Y-21000099D01*
X47660099Y-20907007D01*
X47725925Y-20792993D01*
X47742962Y-20729408D01*
X48375270Y-21361717D01*
X48375270Y-21361716D01*
X48414622Y-21307555D01*
X48419232Y-21298507D01*
X48467205Y-21247709D01*
X48535025Y-21230912D01*
X48601161Y-21253447D01*
X48640204Y-21298504D01*
X48644949Y-21307817D01*
X48769890Y-21479786D01*
X48920213Y-21630109D01*
X49092179Y-21755048D01*
X49092181Y-21755049D01*
X49092184Y-21755051D01*
X49281588Y-21851557D01*
X49483757Y-21917246D01*
X49693713Y-21950500D01*
X49693714Y-21950500D01*
X49906286Y-21950500D01*
X49906287Y-21950500D01*
X50116243Y-21917246D01*
X50318412Y-21851557D01*
X50507816Y-21755051D01*
X50594138Y-21692335D01*
X50679786Y-21630109D01*
X50679788Y-21630106D01*
X50679792Y-21630104D01*
X50830104Y-21479792D01*
X50830106Y-21479788D01*
X50830109Y-21479786D01*
X50955048Y-21307820D01*
X50955047Y-21307820D01*
X50955051Y-21307816D01*
X51051557Y-21118412D01*
X51117246Y-20916243D01*
X51150500Y-20706287D01*
X51150500Y-20493713D01*
X51117246Y-20283757D01*
X51051557Y-20081588D01*
X50955051Y-19892184D01*
X50955049Y-19892181D01*
X50955048Y-19892179D01*
X50830109Y-19720213D01*
X50679786Y-19569890D01*
X50507820Y-19444951D01*
X50318414Y-19348444D01*
X50318413Y-19348443D01*
X50318412Y-19348443D01*
X50116243Y-19282754D01*
X50116241Y-19282753D01*
X50116240Y-19282753D01*
X49954957Y-19257208D01*
X49906287Y-19249500D01*
X49693713Y-19249500D01*
X49645042Y-19257208D01*
X49483760Y-19282753D01*
X49281585Y-19348444D01*
X49092179Y-19444951D01*
X48920213Y-19569890D01*
X48769890Y-19720213D01*
X48644949Y-19892182D01*
X48640202Y-19901499D01*
X48592227Y-19952293D01*
X48524405Y-19969087D01*
X48458271Y-19946548D01*
X48419234Y-19901495D01*
X48414626Y-19892452D01*
X48375270Y-19838282D01*
X48375269Y-19838282D01*
X47742962Y-20470590D01*
X47725925Y-20407007D01*
X47660099Y-20292993D01*
X47567007Y-20199901D01*
X47452993Y-20134075D01*
X47389409Y-20117037D01*
X48021716Y-19484728D01*
X47967550Y-19445375D01*
X47778217Y-19348904D01*
X47576129Y-19283242D01*
X47366246Y-19250000D01*
X47153754Y-19250000D01*
X46943872Y-19283242D01*
X46943869Y-19283242D01*
X46741782Y-19348904D01*
X46552439Y-19445380D01*
X46498282Y-19484727D01*
X46498282Y-19484728D01*
X47130591Y-20117037D01*
X47067007Y-20134075D01*
X46952993Y-20199901D01*
X46859901Y-20292993D01*
X46794075Y-20407007D01*
X46777037Y-20470591D01*
X46144728Y-19838282D01*
X46144727Y-19838282D01*
X46105380Y-19892440D01*
X46105376Y-19892446D01*
X46100760Y-19901505D01*
X46052781Y-19952297D01*
X45984959Y-19969087D01*
X45918826Y-19946543D01*
X45879794Y-19901493D01*
X45875051Y-19892184D01*
X45875049Y-19892181D01*
X45875048Y-19892179D01*
X45750109Y-19720213D01*
X45599786Y-19569890D01*
X45427820Y-19444951D01*
X45238414Y-19348444D01*
X45238413Y-19348443D01*
X45238412Y-19348443D01*
X45036243Y-19282754D01*
X45036241Y-19282753D01*
X45036240Y-19282753D01*
X44874957Y-19257208D01*
X44826287Y-19249500D01*
X44613713Y-19249500D01*
X44565042Y-19257208D01*
X44403760Y-19282753D01*
X44201585Y-19348444D01*
X44012179Y-19444951D01*
X43840213Y-19569890D01*
X43689890Y-19720213D01*
X43564949Y-19892182D01*
X43560484Y-19900946D01*
X43512509Y-19951742D01*
X43444688Y-19968536D01*
X43378553Y-19945998D01*
X43339516Y-19900946D01*
X43335050Y-19892182D01*
X43210109Y-19720213D01*
X43059786Y-19569890D01*
X42887820Y-19444951D01*
X42698414Y-19348444D01*
X42698413Y-19348443D01*
X42698412Y-19348443D01*
X42496243Y-19282754D01*
X42496241Y-19282753D01*
X42496240Y-19282753D01*
X42334957Y-19257208D01*
X42286287Y-19249500D01*
X42073713Y-19249500D01*
X42025042Y-19257208D01*
X41863760Y-19282753D01*
X41661585Y-19348444D01*
X41472179Y-19444951D01*
X41300213Y-19569890D01*
X41149890Y-19720213D01*
X41024949Y-19892182D01*
X41020484Y-19900946D01*
X40972509Y-19951742D01*
X40904688Y-19968536D01*
X40838553Y-19945998D01*
X40799516Y-19900946D01*
X40795050Y-19892182D01*
X40670109Y-19720213D01*
X40519786Y-19569890D01*
X40347820Y-19444951D01*
X40158414Y-19348444D01*
X40158413Y-19348443D01*
X40158412Y-19348443D01*
X39956243Y-19282754D01*
X39956241Y-19282753D01*
X39956240Y-19282753D01*
X39794957Y-19257208D01*
X39746287Y-19249500D01*
X39533713Y-19249500D01*
X39485042Y-19257208D01*
X39323760Y-19282753D01*
X39121585Y-19348444D01*
X38932179Y-19444951D01*
X38760213Y-19569890D01*
X38609890Y-19720213D01*
X38484949Y-19892182D01*
X38480484Y-19900946D01*
X38432509Y-19951742D01*
X38364688Y-19968536D01*
X38298553Y-19945998D01*
X38259516Y-19900946D01*
X38255050Y-19892182D01*
X38130109Y-19720213D01*
X37979786Y-19569890D01*
X37807820Y-19444951D01*
X37618414Y-19348444D01*
X37618413Y-19348443D01*
X37618412Y-19348443D01*
X37416243Y-19282754D01*
X37416241Y-19282753D01*
X37416240Y-19282753D01*
X37254957Y-19257208D01*
X37206287Y-19249500D01*
X36993713Y-19249500D01*
X36945042Y-19257208D01*
X36783760Y-19282753D01*
X36581585Y-19348444D01*
X36392179Y-19444951D01*
X36220215Y-19569889D01*
X36106673Y-19683431D01*
X36045350Y-19716915D01*
X35975658Y-19711931D01*
X35919725Y-19670059D01*
X35902810Y-19639082D01*
X35853797Y-19507671D01*
X35853793Y-19507664D01*
X35767547Y-19392455D01*
X35767544Y-19392452D01*
X35652335Y-19306206D01*
X35652328Y-19306202D01*
X35517482Y-19255908D01*
X35517483Y-19255908D01*
X35457883Y-19249501D01*
X35457881Y-19249500D01*
X35457873Y-19249500D01*
X35457864Y-19249500D01*
X33662129Y-19249500D01*
X33662123Y-19249501D01*
X33602516Y-19255908D01*
X33467671Y-19306202D01*
X33467664Y-19306206D01*
X33352455Y-19392452D01*
X33352452Y-19392455D01*
X33266206Y-19507664D01*
X33266202Y-19507671D01*
X33215908Y-19642517D01*
X33209501Y-19702116D01*
X33209500Y-19702135D01*
X24423925Y-19702135D01*
X24207049Y-19524150D01*
X24207048Y-19524149D01*
X24207044Y-19524146D01*
X23904732Y-19322147D01*
X23904727Y-19322144D01*
X23904720Y-19322140D01*
X23584083Y-19150756D01*
X23584078Y-19150754D01*
X23248165Y-19011614D01*
X22900223Y-18906067D01*
X22900212Y-18906064D01*
X22543630Y-18835137D01*
X22271111Y-18808296D01*
X22181794Y-18799500D01*
X21818206Y-18799500D01*
X21735679Y-18807628D01*
X21456369Y-18835137D01*
X21099787Y-18906064D01*
X21099776Y-18906067D01*
X20751834Y-19011614D01*
X20415921Y-19150754D01*
X20415916Y-19150756D01*
X20095279Y-19322140D01*
X20095261Y-19322151D01*
X19792964Y-19524140D01*
X19792950Y-19524150D01*
X19511893Y-19754807D01*
X19254807Y-20011893D01*
X19024150Y-20292950D01*
X19024140Y-20292964D01*
X18822151Y-20595261D01*
X18822140Y-20595279D01*
X18650756Y-20915916D01*
X18650754Y-20915921D01*
X18511614Y-21251834D01*
X18406067Y-21599776D01*
X18406064Y-21599787D01*
X18335137Y-21956369D01*
X18299500Y-22318209D01*
X16800500Y-22318209D01*
X16800500Y-17624500D01*
X16820185Y-17557461D01*
X16872989Y-17511706D01*
X16924500Y-17500500D01*
X68775500Y-17500500D01*
X68842539Y-17520185D01*
G37*
%TD.AperFunction*%
%TD*%
M02*
