%TF.GenerationSoftware,KiCad,Pcbnew,9.0.5*%
%TF.CreationDate,2025-12-04T03:06:58+01:00*%
%TF.ProjectId,DronePCB,44726f6e-6550-4434-922e-6b696361645f,rev?*%
%TF.SameCoordinates,Original*%
%TF.FileFunction,Copper,L1,Top*%
%TF.FilePolarity,Positive*%
%FSLAX46Y46*%
G04 Gerber Fmt 4.6, Leading zero omitted, Abs format (unit mm)*
G04 Created by KiCad (PCBNEW 9.0.5) date 2025-12-04 03:06:58*
%MOMM*%
%LPD*%
G01*
G04 APERTURE LIST*
G04 Aperture macros list*
%AMRoundRect*
0 Rectangle with rounded corners*
0 $1 Rounding radius*
0 $2 $3 $4 $5 $6 $7 $8 $9 X,Y pos of 4 corners*
0 Add a 4 corners polygon primitive as box body*
4,1,4,$2,$3,$4,$5,$6,$7,$8,$9,$2,$3,0*
0 Add four circle primitives for the rounded corners*
1,1,$1+$1,$2,$3*
1,1,$1+$1,$4,$5*
1,1,$1+$1,$6,$7*
1,1,$1+$1,$8,$9*
0 Add four rect primitives between the rounded corners*
20,1,$1+$1,$2,$3,$4,$5,0*
20,1,$1+$1,$4,$5,$6,$7,0*
20,1,$1+$1,$6,$7,$8,$9,0*
20,1,$1+$1,$8,$9,$2,$3,0*%
G04 Aperture macros list end*
%TA.AperFunction,SMDPad,CuDef*%
%ADD10RoundRect,0.237500X-0.287500X-0.237500X0.287500X-0.237500X0.287500X0.237500X-0.287500X0.237500X0*%
%TD*%
%TA.AperFunction,SMDPad,CuDef*%
%ADD11RoundRect,0.237500X0.237500X-0.250000X0.237500X0.250000X-0.237500X0.250000X-0.237500X-0.250000X0*%
%TD*%
%TA.AperFunction,SMDPad,CuDef*%
%ADD12RoundRect,0.237500X-0.250000X-0.237500X0.250000X-0.237500X0.250000X0.237500X-0.250000X0.237500X0*%
%TD*%
%TA.AperFunction,ComponentPad*%
%ADD13C,6.400000*%
%TD*%
%TA.AperFunction,SMDPad,CuDef*%
%ADD14RoundRect,0.237500X0.237500X-0.287500X0.237500X0.287500X-0.237500X0.287500X-0.237500X-0.287500X0*%
%TD*%
%TA.AperFunction,ComponentPad*%
%ADD15R,1.700000X1.700000*%
%TD*%
%TA.AperFunction,ComponentPad*%
%ADD16C,1.700000*%
%TD*%
%TA.AperFunction,SMDPad,CuDef*%
%ADD17RoundRect,0.237500X0.250000X0.237500X-0.250000X0.237500X-0.250000X-0.237500X0.250000X-0.237500X0*%
%TD*%
%TA.AperFunction,ComponentPad*%
%ADD18R,2.000000X2.000000*%
%TD*%
%TA.AperFunction,ComponentPad*%
%ADD19C,2.000000*%
%TD*%
%TA.AperFunction,ViaPad*%
%ADD20C,0.600000*%
%TD*%
%TA.AperFunction,Conductor*%
%ADD21C,0.200000*%
%TD*%
%TA.AperFunction,Conductor*%
%ADD22C,0.300000*%
%TD*%
%TA.AperFunction,Conductor*%
%ADD23C,0.400000*%
%TD*%
G04 APERTURE END LIST*
D10*
%TO.P,D2,2,A*%
%TO.N,Net-(D2-A)*%
X61275000Y-46000000D03*
%TO.P,D2,1,K*%
%TO.N,GND*%
X59525000Y-46000000D03*
%TD*%
D11*
%TO.P,R3,2*%
%TO.N,BAT*%
X59000000Y-31087500D03*
%TO.P,R3,1*%
%TO.N,BatteryCheck*%
X59000000Y-32912500D03*
%TD*%
%TO.P,R4,2*%
%TO.N,BatteryCheck*%
X61000000Y-34587500D03*
%TO.P,R4,1*%
%TO.N,GND*%
X61000000Y-36412500D03*
%TD*%
D12*
%TO.P,R2,2*%
%TO.N,Net-(D2-A)*%
X61300000Y-43600000D03*
%TO.P,R2,1*%
%TO.N,ReadyToFlyLED*%
X59475000Y-43600000D03*
%TD*%
D13*
%TO.P,H1,1*%
%TO.N,N/C*%
X22000000Y-104500000D03*
%TD*%
%TO.P,H2,1*%
%TO.N,N/C*%
X63500000Y-104500000D03*
%TD*%
D14*
%TO.P,D1,1,K*%
%TO.N,GND*%
X21900000Y-45550000D03*
%TO.P,D1,2,A*%
%TO.N,Net-(D1-A)*%
X21900000Y-43800000D03*
%TD*%
D13*
%TO.P,H3,1*%
%TO.N,N/C*%
X22000000Y-22500000D03*
%TD*%
D15*
%TO.P,SIGNAUX,1,Pin_1*%
%TO.N,Moteur4*%
X34560000Y-20600000D03*
D16*
%TO.P,SIGNAUX,2,Pin_2*%
%TO.N,Moteur3*%
X37100000Y-20600000D03*
%TO.P,SIGNAUX,3,Pin_3*%
%TO.N,Moteur2*%
X39640000Y-20600000D03*
%TO.P,SIGNAUX,4,Pin_4*%
%TO.N,Moteur1*%
X42180000Y-20600000D03*
%TO.P,SIGNAUX,5,Pin_5*%
%TO.N,BEC_5V*%
X44720000Y-20600000D03*
%TO.P,SIGNAUX,6,Pin_6*%
%TO.N,GND*%
X47260000Y-20600000D03*
%TO.P,SIGNAUX,7,Pin_7*%
%TO.N,BAT*%
X49800000Y-20600000D03*
%TD*%
D17*
%TO.P,R1,1*%
%TO.N,GPLED*%
X23700000Y-41100000D03*
%TO.P,R1,2*%
%TO.N,Net-(D1-A)*%
X21875000Y-41100000D03*
%TD*%
D18*
%TO.P,U1,1,3V3*%
%TO.N,3V3*%
X29800000Y-35985000D03*
D19*
%TO.P,U1,2,GND*%
%TO.N,GND*%
X29800000Y-38525000D03*
%TO.P,U1,3,D15*%
%TO.N,GPLED*%
X29800000Y-41065000D03*
%TO.P,U1,4,D2*%
%TO.N,unconnected-(U1-D2-Pad4)*%
X29800000Y-43605000D03*
%TO.P,U1,5,D4*%
%TO.N,NRF_CE*%
X29800000Y-46145000D03*
%TO.P,U1,6,RX2*%
%TO.N,unconnected-(U1-RX2-Pad6)*%
X29800000Y-48685000D03*
%TO.P,U1,7,TX2*%
%TO.N,unconnected-(U1-TX2-Pad7)*%
X29800000Y-51225000D03*
%TO.P,U1,8,D5*%
%TO.N,NRF_CSN*%
X29800000Y-53765000D03*
%TO.P,U1,9,D18*%
%TO.N,SCK*%
X29800000Y-56305000D03*
%TO.P,U1,10,D19*%
%TO.N,MISO*%
X29800000Y-58845000D03*
%TO.P,U1,11,D21*%
%TO.N,SDA_0*%
X29800000Y-61385000D03*
%TO.P,U1,12,RX0*%
%TO.N,unconnected-(U1-RX0-Pad12)*%
X29800000Y-63925000D03*
%TO.P,U1,13,TX0*%
%TO.N,unconnected-(U1-TX0-Pad13)*%
X29800000Y-66465000D03*
%TO.P,U1,14,D22*%
%TO.N,SCL_0*%
X29800000Y-69005000D03*
%TO.P,U1,15,D23*%
%TO.N,MOSI*%
X29800000Y-71545000D03*
%TO.P,U1,16,EN*%
%TO.N,unconnected-(U1-EN-Pad16)*%
X55200000Y-71545000D03*
%TO.P,U1,17,VP*%
%TO.N,unconnected-(U1-VP-Pad17)*%
X55200000Y-69005000D03*
%TO.P,U1,18,VN*%
%TO.N,unconnected-(U1-VN-Pad18)*%
X55200000Y-66465000D03*
%TO.P,U1,19,D34*%
%TO.N,BatteryCheck*%
X55200000Y-63925000D03*
%TO.P,U1,20,D35*%
%TO.N,unconnected-(U1-D35-Pad20)*%
X55200000Y-61385000D03*
%TO.P,U1,21,D32*%
%TO.N,Moteur3*%
X55200000Y-58845000D03*
%TO.P,U1,22,D33*%
%TO.N,Moteur4*%
X55200000Y-56305000D03*
%TO.P,U1,23,D25*%
%TO.N,SCL_1*%
X55200000Y-53765000D03*
%TO.P,U1,24,D26*%
%TO.N,SDA_1*%
X55200000Y-51225000D03*
%TO.P,U1,25,D27*%
%TO.N,unconnected-(U1-D27-Pad25)*%
X55200000Y-48685000D03*
%TO.P,U1,26,D14*%
%TO.N,Moteur2*%
X55200000Y-46145000D03*
%TO.P,U1,27,D12*%
%TO.N,ReadyToFlyLED*%
X55200000Y-43605000D03*
%TO.P,U1,28,D13*%
%TO.N,Moteur1*%
X55200000Y-41065000D03*
%TO.P,U1,29,GND*%
%TO.N,GND*%
X55200000Y-38525000D03*
%TO.P,U1,30,VIN*%
%TO.N,BEC_5V*%
X55200000Y-35985000D03*
%TD*%
D15*
%TO.P,GY-271,1,Pin_1*%
%TO.N,3V3*%
X61600000Y-67000000D03*
D16*
%TO.P,GY-271,2,Pin_2*%
%TO.N,GND*%
X61600000Y-69540000D03*
%TO.P,GY-271,3,Pin_3*%
%TO.N,SCL_1*%
X61600000Y-72080000D03*
%TO.P,GY-271,4,Pin_4*%
%TO.N,SDA_1*%
X61600000Y-74620000D03*
%TO.P,GY-271,5,Pin_5*%
%TO.N,unconnected-(GY-271-Pin_5-Pad5)*%
X61600000Y-77160000D03*
%TD*%
D13*
%TO.P,H4,1*%
%TO.N,N/C*%
X63500000Y-22500000D03*
%TD*%
D15*
%TO.P,MPU9265,1,Pin_1*%
%TO.N,3V3*%
X54080000Y-85500000D03*
D16*
%TO.P,MPU9265,2,Pin_2*%
%TO.N,GND*%
X51540000Y-85500000D03*
%TO.P,MPU9265,3,Pin_3*%
%TO.N,SCL_0*%
X49000000Y-85500000D03*
%TO.P,MPU9265,4,Pin_4*%
%TO.N,SDA_0*%
X46460000Y-85500000D03*
%TO.P,MPU9265,5,Pin_5*%
%TO.N,unconnected-(MPU9265-Pin_5-Pad5)*%
X43920000Y-85500000D03*
%TO.P,MPU9265,6,Pin_6*%
%TO.N,unconnected-(MPU9265-Pin_6-Pad6)*%
X41380000Y-85500000D03*
%TO.P,MPU9265,7,Pin_7*%
%TO.N,unconnected-(MPU9265-Pin_7-Pad7)*%
X38840000Y-85500000D03*
%TO.P,MPU9265,8,Pin_8*%
%TO.N,unconnected-(MPU9265-Pin_8-Pad8)*%
X36300000Y-85500000D03*
%TO.P,MPU9265,9,Pin_9*%
%TO.N,unconnected-(MPU9265-Pin_9-Pad9)*%
X33760000Y-85500000D03*
%TO.P,MPU9265,10,Pin_10*%
%TO.N,unconnected-(MPU9265-Pin_10-Pad10)*%
X31220000Y-85500000D03*
%TD*%
D15*
%TO.P,NRF24L01,1,Pin_1*%
%TO.N,unconnected-(NRF24L01-Pin_1-Pad1)*%
X38960000Y-106500000D03*
D16*
%TO.P,NRF24L01,2,Pin_2*%
%TO.N,MISO*%
X38960000Y-103960000D03*
%TO.P,NRF24L01,3,Pin_3*%
%TO.N,MOSI*%
X41500000Y-106500000D03*
%TO.P,NRF24L01,4,Pin_4*%
%TO.N,SCK*%
X41500000Y-103960000D03*
%TO.P,NRF24L01,5,Pin_5*%
%TO.N,NRF_CSN*%
X44040000Y-106500000D03*
%TO.P,NRF24L01,6,Pin_6*%
%TO.N,NRF_CE*%
X44040000Y-103960000D03*
%TO.P,NRF24L01,7,Pin_7*%
%TO.N,3V3*%
X46580000Y-106500000D03*
%TO.P,NRF24L01,8,Pin_8*%
%TO.N,GND*%
X46580000Y-103960000D03*
%TD*%
D20*
%TO.N,GND*%
X48200000Y-36600000D03*
X60900000Y-82700000D03*
X35200000Y-95100000D03*
X30900000Y-96100000D03*
X29200000Y-107200000D03*
X32200000Y-105100000D03*
X33800000Y-93000000D03*
X65000000Y-75000000D03*
X65000000Y-95000000D03*
X60500000Y-38500000D03*
X20000000Y-95000000D03*
X65000000Y-35000000D03*
X47000000Y-63500000D03*
X65000000Y-85000000D03*
X20000000Y-75000000D03*
X20000000Y-35000000D03*
X37500000Y-53000000D03*
X65500000Y-44500000D03*
X44500000Y-41000000D03*
X59500000Y-95000000D03*
X65000000Y-65000000D03*
X40000000Y-93500000D03*
X60000000Y-55000000D03*
X25000000Y-45000000D03*
X38000000Y-63500000D03*
X20000000Y-85000000D03*
X48000000Y-95000000D03*
X20000000Y-65000000D03*
X65000000Y-55000000D03*
X49000000Y-46000000D03*
X20000000Y-55000000D03*
X38000000Y-35000000D03*
X35000000Y-90000000D03*
%TO.N,MISO*%
X25900000Y-98200000D03*
%TD*%
D21*
%TO.N,GND*%
X33800000Y-91200000D02*
X35000000Y-90000000D01*
X33800000Y-93000000D02*
X33800000Y-91200000D01*
%TO.N,Net-(D1-A)*%
X21875000Y-43775000D02*
X21900000Y-43800000D01*
X21875000Y-41100000D02*
X21875000Y-43775000D01*
%TO.N,Net-(D2-A)*%
X61300000Y-43600000D02*
X61300000Y-45975000D01*
X61300000Y-45975000D02*
X61275000Y-46000000D01*
%TO.N,SDA_0*%
X39860000Y-78900000D02*
X46460000Y-85500000D01*
X29800000Y-61385000D02*
X27700000Y-63485000D01*
X29600000Y-78900000D02*
X39860000Y-78900000D01*
X27700000Y-63485000D02*
X27700000Y-77000000D01*
X27700000Y-77000000D02*
X29600000Y-78900000D01*
%TO.N,3V3*%
X51381000Y-57566000D02*
X51381000Y-82801000D01*
X61400000Y-85500000D02*
X54080000Y-85500000D01*
X63600000Y-69000000D02*
X63600000Y-83300000D01*
X61600000Y-67000000D02*
X63600000Y-69000000D01*
X29800000Y-35985000D02*
X51381000Y-57566000D01*
X54080000Y-99920000D02*
X47500000Y-106500000D01*
X47500000Y-106500000D02*
X46580000Y-106500000D01*
X63600000Y-83300000D02*
X61400000Y-85500000D01*
X51381000Y-82801000D02*
X54080000Y-85500000D01*
X54080000Y-85500000D02*
X54080000Y-99920000D01*
%TO.N,SCL_0*%
X41900000Y-78400000D02*
X33400000Y-78400000D01*
X32300000Y-77300000D02*
X32300000Y-71505000D01*
X33400000Y-78400000D02*
X32300000Y-77300000D01*
X32300000Y-71505000D02*
X29800000Y-69005000D01*
X49000000Y-85500000D02*
X41900000Y-78400000D01*
%TO.N,SCL_1*%
X55200000Y-53765000D02*
X52879000Y-56086000D01*
X52879000Y-56086000D02*
X52879000Y-77879000D01*
X53500000Y-78500000D02*
X55180000Y-78500000D01*
X52879000Y-77879000D02*
X53500000Y-78500000D01*
X55180000Y-78500000D02*
X61600000Y-72080000D01*
%TO.N,SDA_1*%
X52200000Y-54225000D02*
X52200000Y-78400000D01*
X52200000Y-78400000D02*
X53000000Y-79200000D01*
X55200000Y-51225000D02*
X52200000Y-54225000D01*
X53000000Y-79200000D02*
X57020000Y-79200000D01*
X57020000Y-79200000D02*
X61600000Y-74620000D01*
%TO.N,MISO*%
X33200000Y-98200000D02*
X38960000Y-103960000D01*
X25900000Y-98200000D02*
X33200000Y-98200000D01*
%TO.N,SCK*%
X26800000Y-59305000D02*
X26800000Y-89260000D01*
X26800000Y-89260000D02*
X41500000Y-103960000D01*
X29800000Y-56305000D02*
X26800000Y-59305000D01*
%TO.N,NRF_CSN*%
X24200000Y-98700000D02*
X34000000Y-108500000D01*
X34000000Y-108500000D02*
X42040000Y-108500000D01*
X29800000Y-53765000D02*
X24200000Y-59365000D01*
X24200000Y-59365000D02*
X24200000Y-98700000D01*
X42040000Y-108500000D02*
X44040000Y-106500000D01*
D22*
%TO.N,Moteur2*%
X39640000Y-30585000D02*
X55200000Y-46145000D01*
X39640000Y-20600000D02*
X39640000Y-30585000D01*
%TO.N,Moteur1*%
X42180000Y-20600000D02*
X42180000Y-28045000D01*
X42180000Y-28045000D02*
X55200000Y-41065000D01*
D23*
%TO.N,BEC_5V*%
X49120000Y-29905000D02*
X55200000Y-35985000D01*
X44720000Y-20600000D02*
X49120000Y-25000000D01*
X49120000Y-25000000D02*
X49120000Y-29905000D01*
D21*
%TO.N,BatteryCheck*%
X63000000Y-55000000D02*
X62101000Y-55899000D01*
X63000000Y-35175000D02*
X63000000Y-55000000D01*
X62101000Y-55899000D02*
X62101000Y-57024000D01*
X60675000Y-34587500D02*
X59000000Y-32912500D01*
X62412500Y-34587500D02*
X61000000Y-34587500D01*
X55200000Y-63925000D02*
X62101000Y-57024000D01*
X61000000Y-34587500D02*
X60675000Y-34587500D01*
X63000000Y-35175000D02*
X62412500Y-34587500D01*
%TO.N,GPLED*%
X23735000Y-41065000D02*
X23700000Y-41100000D01*
X29800000Y-41065000D02*
X23735000Y-41065000D01*
%TO.N,ReadyToFlyLED*%
X55200000Y-43605000D02*
X59470000Y-43605000D01*
X59470000Y-43605000D02*
X59475000Y-43600000D01*
D22*
%TO.N,BAT*%
X49800000Y-28800000D02*
X49800000Y-20600000D01*
X59000000Y-31087500D02*
X52087500Y-31087500D01*
X52087500Y-31087500D02*
X49800000Y-28800000D01*
%TD*%
%TA.AperFunction,Conductor*%
%TO.N,GND*%
G36*
X32966942Y-98820185D02*
G01*
X32987584Y-98836819D01*
X37626241Y-103475476D01*
X37659726Y-103536799D01*
X37656492Y-103601473D01*
X37642753Y-103643757D01*
X37609500Y-103853713D01*
X37609500Y-104066286D01*
X37642753Y-104276239D01*
X37708444Y-104478414D01*
X37804951Y-104667820D01*
X37929890Y-104839786D01*
X38043430Y-104953326D01*
X38076915Y-105014649D01*
X38071931Y-105084341D01*
X38030059Y-105140274D01*
X37999083Y-105157189D01*
X37867669Y-105206203D01*
X37867664Y-105206206D01*
X37752455Y-105292452D01*
X37752452Y-105292455D01*
X37666206Y-105407664D01*
X37666202Y-105407671D01*
X37615908Y-105542517D01*
X37609501Y-105602116D01*
X37609500Y-105602135D01*
X37609500Y-107397870D01*
X37609501Y-107397876D01*
X37615908Y-107457483D01*
X37666202Y-107592328D01*
X37666206Y-107592335D01*
X37747695Y-107701189D01*
X37772113Y-107766653D01*
X37757262Y-107834926D01*
X37707857Y-107884332D01*
X37648429Y-107899500D01*
X34300097Y-107899500D01*
X34233058Y-107879815D01*
X34212416Y-107863181D01*
X25514033Y-99164798D01*
X25480548Y-99103475D01*
X25485532Y-99033783D01*
X25527404Y-98977850D01*
X25592868Y-98953433D01*
X25649166Y-98962555D01*
X25666503Y-98969737D01*
X25821153Y-99000499D01*
X25821156Y-99000500D01*
X25821158Y-99000500D01*
X25978844Y-99000500D01*
X25978845Y-99000499D01*
X26133497Y-98969737D01*
X26279179Y-98909394D01*
X26279185Y-98909390D01*
X26410875Y-98821398D01*
X26477553Y-98800520D01*
X26479766Y-98800500D01*
X32899903Y-98800500D01*
X32966942Y-98820185D01*
G37*
%TD.AperFunction*%
%TA.AperFunction,Conductor*%
G36*
X46114075Y-104152993D02*
G01*
X46179901Y-104267007D01*
X46272993Y-104360099D01*
X46387007Y-104425925D01*
X46450590Y-104442962D01*
X45818282Y-105075269D01*
X45818282Y-105075270D01*
X45872452Y-105114626D01*
X45872451Y-105114626D01*
X45881495Y-105119234D01*
X45932292Y-105167208D01*
X45949087Y-105235029D01*
X45926550Y-105301164D01*
X45881499Y-105340202D01*
X45872182Y-105344949D01*
X45700213Y-105469890D01*
X45549890Y-105620213D01*
X45424949Y-105792182D01*
X45420484Y-105800946D01*
X45372509Y-105851742D01*
X45304688Y-105868536D01*
X45238553Y-105845998D01*
X45199516Y-105800946D01*
X45195050Y-105792182D01*
X45070109Y-105620213D01*
X44919786Y-105469890D01*
X44747820Y-105344951D01*
X44747115Y-105344591D01*
X44739054Y-105340485D01*
X44688259Y-105292512D01*
X44671463Y-105224692D01*
X44693999Y-105158556D01*
X44739054Y-105119515D01*
X44747816Y-105115051D01*
X44846118Y-105043631D01*
X44919786Y-104990109D01*
X44919788Y-104990106D01*
X44919792Y-104990104D01*
X45070104Y-104839792D01*
X45070106Y-104839788D01*
X45070109Y-104839786D01*
X45155890Y-104721717D01*
X45195051Y-104667816D01*
X45199793Y-104658508D01*
X45247763Y-104607711D01*
X45315583Y-104590911D01*
X45381719Y-104613445D01*
X45420763Y-104658500D01*
X45425373Y-104667547D01*
X45464728Y-104721716D01*
X46097037Y-104089408D01*
X46114075Y-104152993D01*
G37*
%TD.AperFunction*%
%TA.AperFunction,Conductor*%
G36*
X27605703Y-77755384D02*
G01*
X27612179Y-77761414D01*
X29231284Y-79380520D01*
X29231286Y-79380521D01*
X29231290Y-79380524D01*
X29368209Y-79459573D01*
X29368216Y-79459577D01*
X29520943Y-79500501D01*
X29520945Y-79500501D01*
X29686654Y-79500501D01*
X29686670Y-79500500D01*
X39559903Y-79500500D01*
X39626942Y-79520185D01*
X39647584Y-79536819D01*
X44048583Y-83937819D01*
X44082068Y-83999142D01*
X44077084Y-84068834D01*
X44035212Y-84124767D01*
X43969748Y-84149184D01*
X43960902Y-84149500D01*
X43813713Y-84149500D01*
X43765042Y-84157208D01*
X43603760Y-84182753D01*
X43401585Y-84248444D01*
X43212179Y-84344951D01*
X43040213Y-84469890D01*
X42889890Y-84620213D01*
X42764949Y-84792182D01*
X42760484Y-84800946D01*
X42712509Y-84851742D01*
X42644688Y-84868536D01*
X42578553Y-84845998D01*
X42539516Y-84800946D01*
X42535050Y-84792182D01*
X42410109Y-84620213D01*
X42259786Y-84469890D01*
X42087820Y-84344951D01*
X41898414Y-84248444D01*
X41898413Y-84248443D01*
X41898412Y-84248443D01*
X41696243Y-84182754D01*
X41696241Y-84182753D01*
X41696240Y-84182753D01*
X41534957Y-84157208D01*
X41486287Y-84149500D01*
X41273713Y-84149500D01*
X41225042Y-84157208D01*
X41063760Y-84182753D01*
X40861585Y-84248444D01*
X40672179Y-84344951D01*
X40500213Y-84469890D01*
X40349890Y-84620213D01*
X40224949Y-84792182D01*
X40220484Y-84800946D01*
X40172509Y-84851742D01*
X40104688Y-84868536D01*
X40038553Y-84845998D01*
X39999516Y-84800946D01*
X39995050Y-84792182D01*
X39870109Y-84620213D01*
X39719786Y-84469890D01*
X39547820Y-84344951D01*
X39358414Y-84248444D01*
X39358413Y-84248443D01*
X39358412Y-84248443D01*
X39156243Y-84182754D01*
X39156241Y-84182753D01*
X39156240Y-84182753D01*
X38994957Y-84157208D01*
X38946287Y-84149500D01*
X38733713Y-84149500D01*
X38685042Y-84157208D01*
X38523760Y-84182753D01*
X38321585Y-84248444D01*
X38132179Y-84344951D01*
X37960213Y-84469890D01*
X37809890Y-84620213D01*
X37684949Y-84792182D01*
X37680484Y-84800946D01*
X37632509Y-84851742D01*
X37564688Y-84868536D01*
X37498553Y-84845998D01*
X37459516Y-84800946D01*
X37455050Y-84792182D01*
X37330109Y-84620213D01*
X37179786Y-84469890D01*
X37007820Y-84344951D01*
X36818414Y-84248444D01*
X36818413Y-84248443D01*
X36818412Y-84248443D01*
X36616243Y-84182754D01*
X36616241Y-84182753D01*
X36616240Y-84182753D01*
X36454957Y-84157208D01*
X36406287Y-84149500D01*
X36193713Y-84149500D01*
X36145042Y-84157208D01*
X35983760Y-84182753D01*
X35781585Y-84248444D01*
X35592179Y-84344951D01*
X35420213Y-84469890D01*
X35269890Y-84620213D01*
X35144949Y-84792182D01*
X35140484Y-84800946D01*
X35092509Y-84851742D01*
X35024688Y-84868536D01*
X34958553Y-84845998D01*
X34919516Y-84800946D01*
X34915050Y-84792182D01*
X34790109Y-84620213D01*
X34639786Y-84469890D01*
X34467820Y-84344951D01*
X34278414Y-84248444D01*
X34278413Y-84248443D01*
X34278412Y-84248443D01*
X34076243Y-84182754D01*
X34076241Y-84182753D01*
X34076240Y-84182753D01*
X33914957Y-84157208D01*
X33866287Y-84149500D01*
X33653713Y-84149500D01*
X33605042Y-84157208D01*
X33443760Y-84182753D01*
X33241585Y-84248444D01*
X33052179Y-84344951D01*
X32880213Y-84469890D01*
X32729890Y-84620213D01*
X32604949Y-84792182D01*
X32600484Y-84800946D01*
X32552509Y-84851742D01*
X32484688Y-84868536D01*
X32418553Y-84845998D01*
X32379516Y-84800946D01*
X32375050Y-84792182D01*
X32250109Y-84620213D01*
X32099786Y-84469890D01*
X31927820Y-84344951D01*
X31738414Y-84248444D01*
X31738413Y-84248443D01*
X31738412Y-84248443D01*
X31536243Y-84182754D01*
X31536241Y-84182753D01*
X31536240Y-84182753D01*
X31374957Y-84157208D01*
X31326287Y-84149500D01*
X31113713Y-84149500D01*
X31065042Y-84157208D01*
X30903760Y-84182753D01*
X30701585Y-84248444D01*
X30512179Y-84344951D01*
X30340213Y-84469890D01*
X30189890Y-84620213D01*
X30064951Y-84792179D01*
X29968444Y-84981585D01*
X29902753Y-85183760D01*
X29869500Y-85393713D01*
X29869500Y-85606287D01*
X29902754Y-85816243D01*
X29916486Y-85858507D01*
X29968444Y-86018414D01*
X30064951Y-86207820D01*
X30189890Y-86379786D01*
X30340213Y-86530109D01*
X30512179Y-86655048D01*
X30512181Y-86655049D01*
X30512184Y-86655051D01*
X30701588Y-86751557D01*
X30903757Y-86817246D01*
X31113713Y-86850500D01*
X31113714Y-86850500D01*
X31326286Y-86850500D01*
X31326287Y-86850500D01*
X31536243Y-86817246D01*
X31738412Y-86751557D01*
X31927816Y-86655051D01*
X32014138Y-86592335D01*
X32099786Y-86530109D01*
X32099788Y-86530106D01*
X32099792Y-86530104D01*
X32250104Y-86379792D01*
X32250106Y-86379788D01*
X32250109Y-86379786D01*
X32375048Y-86207820D01*
X32375047Y-86207820D01*
X32375051Y-86207816D01*
X32379514Y-86199054D01*
X32427488Y-86148259D01*
X32495308Y-86131463D01*
X32561444Y-86153999D01*
X32600486Y-86199056D01*
X32604951Y-86207820D01*
X32729890Y-86379786D01*
X32880213Y-86530109D01*
X33052179Y-86655048D01*
X33052181Y-86655049D01*
X33052184Y-86655051D01*
X33241588Y-86751557D01*
X33443757Y-86817246D01*
X33653713Y-86850500D01*
X33653714Y-86850500D01*
X33866286Y-86850500D01*
X33866287Y-86850500D01*
X34076243Y-86817246D01*
X34278412Y-86751557D01*
X34467816Y-86655051D01*
X34554138Y-86592335D01*
X34639786Y-86530109D01*
X34639788Y-86530106D01*
X34639792Y-86530104D01*
X34790104Y-86379792D01*
X34790106Y-86379788D01*
X34790109Y-86379786D01*
X34915048Y-86207820D01*
X34915047Y-86207820D01*
X34915051Y-86207816D01*
X34919514Y-86199054D01*
X34967488Y-86148259D01*
X35035308Y-86131463D01*
X35101444Y-86153999D01*
X35140486Y-86199056D01*
X35144951Y-86207820D01*
X35269890Y-86379786D01*
X35420213Y-86530109D01*
X35592179Y-86655048D01*
X35592181Y-86655049D01*
X35592184Y-86655051D01*
X35781588Y-86751557D01*
X35983757Y-86817246D01*
X36193713Y-86850500D01*
X36193714Y-86850500D01*
X36406286Y-86850500D01*
X36406287Y-86850500D01*
X36616243Y-86817246D01*
X36818412Y-86751557D01*
X37007816Y-86655051D01*
X37094138Y-86592335D01*
X37179786Y-86530109D01*
X37179788Y-86530106D01*
X37179792Y-86530104D01*
X37330104Y-86379792D01*
X37330106Y-86379788D01*
X37330109Y-86379786D01*
X37455048Y-86207820D01*
X37455047Y-86207820D01*
X37455051Y-86207816D01*
X37459514Y-86199054D01*
X37507488Y-86148259D01*
X37575308Y-86131463D01*
X37641444Y-86153999D01*
X37680486Y-86199056D01*
X37684951Y-86207820D01*
X37809890Y-86379786D01*
X37960213Y-86530109D01*
X38132179Y-86655048D01*
X38132181Y-86655049D01*
X38132184Y-86655051D01*
X38321588Y-86751557D01*
X38523757Y-86817246D01*
X38733713Y-86850500D01*
X38733714Y-86850500D01*
X38946286Y-86850500D01*
X38946287Y-86850500D01*
X39156243Y-86817246D01*
X39358412Y-86751557D01*
X39547816Y-86655051D01*
X39634138Y-86592335D01*
X39719786Y-86530109D01*
X39719788Y-86530106D01*
X39719792Y-86530104D01*
X39870104Y-86379792D01*
X39870106Y-86379788D01*
X39870109Y-86379786D01*
X39995048Y-86207820D01*
X39995047Y-86207820D01*
X39995051Y-86207816D01*
X39999514Y-86199054D01*
X40047488Y-86148259D01*
X40115308Y-86131463D01*
X40181444Y-86153999D01*
X40220486Y-86199056D01*
X40224951Y-86207820D01*
X40349890Y-86379786D01*
X40500213Y-86530109D01*
X40672179Y-86655048D01*
X40672181Y-86655049D01*
X40672184Y-86655051D01*
X40861588Y-86751557D01*
X41063757Y-86817246D01*
X41273713Y-86850500D01*
X41273714Y-86850500D01*
X41486286Y-86850500D01*
X41486287Y-86850500D01*
X41696243Y-86817246D01*
X41898412Y-86751557D01*
X42087816Y-86655051D01*
X42174138Y-86592335D01*
X42259786Y-86530109D01*
X42259788Y-86530106D01*
X42259792Y-86530104D01*
X42410104Y-86379792D01*
X42410106Y-86379788D01*
X42410109Y-86379786D01*
X42535048Y-86207820D01*
X42535047Y-86207820D01*
X42535051Y-86207816D01*
X42539514Y-86199054D01*
X42587488Y-86148259D01*
X42655308Y-86131463D01*
X42721444Y-86153999D01*
X42760486Y-86199056D01*
X42764951Y-86207820D01*
X42889890Y-86379786D01*
X43040213Y-86530109D01*
X43212179Y-86655048D01*
X43212181Y-86655049D01*
X43212184Y-86655051D01*
X43401588Y-86751557D01*
X43603757Y-86817246D01*
X43813713Y-86850500D01*
X43813714Y-86850500D01*
X44026286Y-86850500D01*
X44026287Y-86850500D01*
X44236243Y-86817246D01*
X44438412Y-86751557D01*
X44627816Y-86655051D01*
X44714138Y-86592335D01*
X44799786Y-86530109D01*
X44799788Y-86530106D01*
X44799792Y-86530104D01*
X44950104Y-86379792D01*
X44950106Y-86379788D01*
X44950109Y-86379786D01*
X45075048Y-86207820D01*
X45075047Y-86207820D01*
X45075051Y-86207816D01*
X45079514Y-86199054D01*
X45127488Y-86148259D01*
X45195308Y-86131463D01*
X45261444Y-86153999D01*
X45300486Y-86199056D01*
X45304951Y-86207820D01*
X45429890Y-86379786D01*
X45580213Y-86530109D01*
X45752179Y-86655048D01*
X45752181Y-86655049D01*
X45752184Y-86655051D01*
X45941588Y-86751557D01*
X46143757Y-86817246D01*
X46353713Y-86850500D01*
X46353714Y-86850500D01*
X46566286Y-86850500D01*
X46566287Y-86850500D01*
X46776243Y-86817246D01*
X46978412Y-86751557D01*
X47167816Y-86655051D01*
X47254138Y-86592335D01*
X47339786Y-86530109D01*
X47339788Y-86530106D01*
X47339792Y-86530104D01*
X47490104Y-86379792D01*
X47490106Y-86379788D01*
X47490109Y-86379786D01*
X47615048Y-86207820D01*
X47615047Y-86207820D01*
X47615051Y-86207816D01*
X47619514Y-86199054D01*
X47667488Y-86148259D01*
X47735308Y-86131463D01*
X47801444Y-86153999D01*
X47840486Y-86199056D01*
X47844951Y-86207820D01*
X47969890Y-86379786D01*
X48120213Y-86530109D01*
X48292179Y-86655048D01*
X48292181Y-86655049D01*
X48292184Y-86655051D01*
X48481588Y-86751557D01*
X48683757Y-86817246D01*
X48893713Y-86850500D01*
X48893714Y-86850500D01*
X49106286Y-86850500D01*
X49106287Y-86850500D01*
X49316243Y-86817246D01*
X49518412Y-86751557D01*
X49707816Y-86655051D01*
X49794138Y-86592335D01*
X49879786Y-86530109D01*
X49879788Y-86530106D01*
X49879792Y-86530104D01*
X50030104Y-86379792D01*
X50030106Y-86379788D01*
X50030109Y-86379786D01*
X50097515Y-86287007D01*
X50155051Y-86207816D01*
X50159793Y-86198508D01*
X50207763Y-86147711D01*
X50275583Y-86130911D01*
X50341719Y-86153445D01*
X50380763Y-86198500D01*
X50385373Y-86207547D01*
X50424728Y-86261716D01*
X51057037Y-85629408D01*
X51074075Y-85692993D01*
X51139901Y-85807007D01*
X51232993Y-85900099D01*
X51347007Y-85965925D01*
X51410590Y-85982962D01*
X50778282Y-86615269D01*
X50778282Y-86615270D01*
X50832449Y-86654624D01*
X51021782Y-86751095D01*
X51223870Y-86816757D01*
X51433754Y-86850000D01*
X51646246Y-86850000D01*
X51856127Y-86816757D01*
X51856130Y-86816757D01*
X52058217Y-86751095D01*
X52247554Y-86654622D01*
X52301716Y-86615270D01*
X52301717Y-86615270D01*
X51669408Y-85982962D01*
X51732993Y-85965925D01*
X51847007Y-85900099D01*
X51940099Y-85807007D01*
X52005925Y-85692993D01*
X52022962Y-85629408D01*
X52693181Y-86299628D01*
X52726666Y-86360951D01*
X52729500Y-86387300D01*
X52729500Y-86397865D01*
X52729501Y-86397876D01*
X52735908Y-86457483D01*
X52786202Y-86592328D01*
X52786206Y-86592335D01*
X52872452Y-86707544D01*
X52872455Y-86707547D01*
X52987664Y-86793793D01*
X52987671Y-86793797D01*
X53032618Y-86810561D01*
X53122517Y-86844091D01*
X53182127Y-86850500D01*
X53355500Y-86850499D01*
X53422539Y-86870183D01*
X53468294Y-86922987D01*
X53479500Y-86974499D01*
X53479500Y-99619902D01*
X53459815Y-99686941D01*
X53443181Y-99707583D01*
X47658011Y-105492753D01*
X47596688Y-105526238D01*
X47526996Y-105521254D01*
X47482649Y-105492753D01*
X47459786Y-105469890D01*
X47287817Y-105344949D01*
X47278504Y-105340204D01*
X47227707Y-105292230D01*
X47210912Y-105224409D01*
X47233449Y-105158274D01*
X47278507Y-105119232D01*
X47287555Y-105114622D01*
X47341716Y-105075270D01*
X47341717Y-105075270D01*
X46709408Y-104442962D01*
X46772993Y-104425925D01*
X46887007Y-104360099D01*
X46980099Y-104267007D01*
X47045925Y-104152993D01*
X47062962Y-104089408D01*
X47695270Y-104721717D01*
X47695270Y-104721716D01*
X47734622Y-104667554D01*
X47831095Y-104478217D01*
X47896757Y-104276130D01*
X47896757Y-104276127D01*
X47930000Y-104066246D01*
X47930000Y-103853753D01*
X47896757Y-103643872D01*
X47896757Y-103643869D01*
X47831095Y-103441782D01*
X47734624Y-103252449D01*
X47695270Y-103198282D01*
X47695269Y-103198282D01*
X47062962Y-103830590D01*
X47045925Y-103767007D01*
X46980099Y-103652993D01*
X46887007Y-103559901D01*
X46772993Y-103494075D01*
X46709409Y-103477037D01*
X47341716Y-102844728D01*
X47287550Y-102805375D01*
X47098217Y-102708904D01*
X46896129Y-102643242D01*
X46686246Y-102610000D01*
X46473754Y-102610000D01*
X46263872Y-102643242D01*
X46263869Y-102643242D01*
X46061782Y-102708904D01*
X45872439Y-102805380D01*
X45818282Y-102844727D01*
X45818282Y-102844728D01*
X46450591Y-103477037D01*
X46387007Y-103494075D01*
X46272993Y-103559901D01*
X46179901Y-103652993D01*
X46114075Y-103767007D01*
X46097037Y-103830591D01*
X45464728Y-103198282D01*
X45464727Y-103198282D01*
X45425380Y-103252440D01*
X45425376Y-103252446D01*
X45420760Y-103261505D01*
X45372781Y-103312297D01*
X45304959Y-103329087D01*
X45238826Y-103306543D01*
X45199794Y-103261493D01*
X45195051Y-103252184D01*
X45195049Y-103252181D01*
X45195048Y-103252179D01*
X45070109Y-103080213D01*
X44919786Y-102929890D01*
X44747820Y-102804951D01*
X44558414Y-102708444D01*
X44558413Y-102708443D01*
X44558412Y-102708443D01*
X44356243Y-102642754D01*
X44356241Y-102642753D01*
X44356240Y-102642753D01*
X44194957Y-102617208D01*
X44146287Y-102609500D01*
X43933713Y-102609500D01*
X43885042Y-102617208D01*
X43723760Y-102642753D01*
X43521585Y-102708444D01*
X43332179Y-102804951D01*
X43160213Y-102929890D01*
X43009890Y-103080213D01*
X42884949Y-103252182D01*
X42880484Y-103260946D01*
X42832509Y-103311742D01*
X42764688Y-103328536D01*
X42698553Y-103305998D01*
X42659516Y-103260946D01*
X42655050Y-103252182D01*
X42530109Y-103080213D01*
X42379786Y-102929890D01*
X42207820Y-102804951D01*
X42018414Y-102708444D01*
X42018413Y-102708443D01*
X42018412Y-102708443D01*
X41816243Y-102642754D01*
X41816241Y-102642753D01*
X41816240Y-102642753D01*
X41654957Y-102617208D01*
X41606287Y-102609500D01*
X41393713Y-102609500D01*
X41365006Y-102614046D01*
X41183757Y-102642753D01*
X41141473Y-102656492D01*
X41071632Y-102658486D01*
X41015476Y-102626241D01*
X27436819Y-89047584D01*
X27403334Y-88986261D01*
X27400500Y-88959903D01*
X27400500Y-77849097D01*
X27420185Y-77782058D01*
X27472989Y-77736303D01*
X27542147Y-77726359D01*
X27605703Y-77755384D01*
G37*
%TD.AperFunction*%
%TA.AperFunction,Conductor*%
G36*
X28218834Y-56297914D02*
G01*
X28274767Y-56339786D01*
X28299184Y-56405250D01*
X28299500Y-56414096D01*
X28299500Y-56423097D01*
X28336447Y-56656369D01*
X28336447Y-56656372D01*
X28377450Y-56782564D01*
X28379445Y-56852405D01*
X28347200Y-56908563D01*
X26431286Y-58824478D01*
X26319481Y-58936282D01*
X26319479Y-58936285D01*
X26294420Y-58979689D01*
X26284841Y-58996282D01*
X26269361Y-59023094D01*
X26269359Y-59023096D01*
X26240425Y-59073209D01*
X26240424Y-59073210D01*
X26237909Y-59082598D01*
X26199499Y-59225943D01*
X26199499Y-59225945D01*
X26199499Y-59394046D01*
X26199500Y-59394059D01*
X26199500Y-89173330D01*
X26199499Y-89173348D01*
X26199499Y-89339054D01*
X26199498Y-89339054D01*
X26240423Y-89491785D01*
X26269358Y-89541900D01*
X26269359Y-89541904D01*
X26269360Y-89541904D01*
X26319479Y-89628714D01*
X26319481Y-89628717D01*
X26438349Y-89747585D01*
X26438355Y-89747590D01*
X39088584Y-102397819D01*
X39122069Y-102459142D01*
X39117085Y-102528834D01*
X39075213Y-102584767D01*
X39009749Y-102609184D01*
X39000903Y-102609500D01*
X38853713Y-102609500D01*
X38825006Y-102614046D01*
X38643757Y-102642753D01*
X38601473Y-102656492D01*
X38531632Y-102658486D01*
X38475476Y-102626241D01*
X33687590Y-97838355D01*
X33687588Y-97838352D01*
X33568717Y-97719481D01*
X33568716Y-97719480D01*
X33481904Y-97669360D01*
X33481904Y-97669359D01*
X33481900Y-97669358D01*
X33431785Y-97640423D01*
X33279057Y-97599499D01*
X33120943Y-97599499D01*
X33113347Y-97599499D01*
X33113331Y-97599500D01*
X26479766Y-97599500D01*
X26412727Y-97579815D01*
X26410875Y-97578602D01*
X26279185Y-97490609D01*
X26279172Y-97490602D01*
X26133501Y-97430264D01*
X26133489Y-97430261D01*
X25978845Y-97399500D01*
X25978842Y-97399500D01*
X25821158Y-97399500D01*
X25821155Y-97399500D01*
X25666510Y-97430261D01*
X25666498Y-97430264D01*
X25520827Y-97490602D01*
X25520814Y-97490609D01*
X25389711Y-97578210D01*
X25389707Y-97578213D01*
X25278213Y-97689707D01*
X25278210Y-97689711D01*
X25190609Y-97820814D01*
X25190602Y-97820827D01*
X25130264Y-97966498D01*
X25130261Y-97966510D01*
X25099500Y-98121153D01*
X25099500Y-98278846D01*
X25130261Y-98433489D01*
X25130264Y-98433501D01*
X25137444Y-98450835D01*
X25144911Y-98520304D01*
X25113635Y-98582783D01*
X25053545Y-98618434D01*
X24983720Y-98615939D01*
X24935201Y-98585966D01*
X24836819Y-98487584D01*
X24803334Y-98426261D01*
X24800500Y-98399903D01*
X24800500Y-59665096D01*
X24820185Y-59598057D01*
X24836814Y-59577420D01*
X28087819Y-56326414D01*
X28149142Y-56292930D01*
X28218834Y-56297914D01*
G37*
%TD.AperFunction*%
%TA.AperFunction,Conductor*%
G36*
X31505203Y-38539884D02*
G01*
X31511681Y-38545916D01*
X50744181Y-57778416D01*
X50777666Y-57839739D01*
X50780500Y-57866097D01*
X50780500Y-70361000D01*
X50760815Y-70428039D01*
X50708011Y-70473794D01*
X50656500Y-70485000D01*
X33590000Y-70485000D01*
X33590000Y-76975000D01*
X50656500Y-76975000D01*
X50723539Y-76994685D01*
X50769294Y-77047489D01*
X50780500Y-77099000D01*
X50780500Y-82714330D01*
X50780499Y-82714348D01*
X50780499Y-82880054D01*
X50780498Y-82880054D01*
X50821422Y-83032783D01*
X50841878Y-83068213D01*
X50841880Y-83068216D01*
X50900479Y-83169714D01*
X50900481Y-83169717D01*
X51019349Y-83288585D01*
X51019355Y-83288590D01*
X51669084Y-83938319D01*
X51702569Y-83999642D01*
X51697585Y-84069334D01*
X51655713Y-84125267D01*
X51590249Y-84149684D01*
X51581403Y-84150000D01*
X51433754Y-84150000D01*
X51223872Y-84183242D01*
X51223869Y-84183242D01*
X51021782Y-84248904D01*
X50832439Y-84345380D01*
X50778282Y-84384727D01*
X50778282Y-84384728D01*
X51410591Y-85017037D01*
X51347007Y-85034075D01*
X51232993Y-85099901D01*
X51139901Y-85192993D01*
X51074075Y-85307007D01*
X51057037Y-85370591D01*
X50424728Y-84738282D01*
X50424727Y-84738282D01*
X50385380Y-84792440D01*
X50385376Y-84792446D01*
X50380760Y-84801505D01*
X50332781Y-84852297D01*
X50264959Y-84869087D01*
X50198826Y-84846543D01*
X50159794Y-84801493D01*
X50155051Y-84792184D01*
X50155049Y-84792181D01*
X50155048Y-84792179D01*
X50030109Y-84620213D01*
X49879786Y-84469890D01*
X49707820Y-84344951D01*
X49518414Y-84248444D01*
X49518413Y-84248443D01*
X49518412Y-84248443D01*
X49316243Y-84182754D01*
X49316241Y-84182753D01*
X49316240Y-84182753D01*
X49154957Y-84157208D01*
X49106287Y-84149500D01*
X48893713Y-84149500D01*
X48865006Y-84154046D01*
X48683757Y-84182753D01*
X48641473Y-84196492D01*
X48571632Y-84198486D01*
X48515476Y-84166241D01*
X42387590Y-78038355D01*
X42387588Y-78038352D01*
X42268717Y-77919481D01*
X42268716Y-77919480D01*
X42164960Y-77859577D01*
X42164959Y-77859576D01*
X42131783Y-77840422D01*
X42075881Y-77825443D01*
X41979057Y-77799499D01*
X41820943Y-77799499D01*
X41813347Y-77799499D01*
X41813331Y-77799500D01*
X33700097Y-77799500D01*
X33633058Y-77779815D01*
X33612416Y-77763181D01*
X32936819Y-77087584D01*
X32903334Y-77026261D01*
X32900500Y-76999903D01*
X32900500Y-71594059D01*
X32900501Y-71594046D01*
X32900501Y-71425945D01*
X32900501Y-71425943D01*
X32859577Y-71273215D01*
X32817426Y-71200208D01*
X32780520Y-71136284D01*
X32668716Y-71024480D01*
X32664385Y-71020149D01*
X32664374Y-71020139D01*
X31252798Y-69608563D01*
X31219313Y-69547240D01*
X31222547Y-69482566D01*
X31263553Y-69356368D01*
X31297838Y-69139901D01*
X31300500Y-69123097D01*
X31300500Y-68886902D01*
X31263553Y-68653631D01*
X31219964Y-68519480D01*
X31190568Y-68429008D01*
X31190566Y-68429005D01*
X31190566Y-68429003D01*
X31134002Y-68317991D01*
X31083343Y-68218567D01*
X30944517Y-68027490D01*
X30777510Y-67860483D01*
X30742872Y-67835317D01*
X30700207Y-67779989D01*
X30694228Y-67710375D01*
X30726833Y-67648580D01*
X30742873Y-67634682D01*
X30777510Y-67609517D01*
X30944517Y-67442510D01*
X31083343Y-67251433D01*
X31190568Y-67040992D01*
X31263553Y-66816368D01*
X31300500Y-66583097D01*
X31300500Y-66346902D01*
X31263553Y-66113631D01*
X31196631Y-65907669D01*
X31190568Y-65889008D01*
X31190566Y-65889005D01*
X31190566Y-65889003D01*
X31099358Y-65709999D01*
X31083343Y-65678567D01*
X30944517Y-65487490D01*
X30777510Y-65320483D01*
X30742872Y-65295317D01*
X30700207Y-65239989D01*
X30694228Y-65170375D01*
X30726833Y-65108580D01*
X30742873Y-65094682D01*
X30777510Y-65069517D01*
X30944517Y-64902510D01*
X31083343Y-64711433D01*
X31190568Y-64500992D01*
X31263553Y-64276368D01*
X31300500Y-64043097D01*
X31300500Y-63806902D01*
X31263553Y-63573631D01*
X31199856Y-63377593D01*
X31190568Y-63349008D01*
X31190566Y-63349005D01*
X31190566Y-63349003D01*
X31083342Y-63138566D01*
X30944517Y-62947490D01*
X30777510Y-62780483D01*
X30742872Y-62755317D01*
X30700207Y-62699989D01*
X30694228Y-62630375D01*
X30726833Y-62568580D01*
X30742873Y-62554682D01*
X30777510Y-62529517D01*
X30944517Y-62362510D01*
X31083343Y-62171433D01*
X31190568Y-61960992D01*
X31263553Y-61736368D01*
X31300500Y-61503097D01*
X31300500Y-61266902D01*
X31263553Y-61033631D01*
X31190566Y-60809003D01*
X31083342Y-60598566D01*
X30944517Y-60407490D01*
X30777510Y-60240483D01*
X30742872Y-60215317D01*
X30700207Y-60159989D01*
X30694228Y-60090375D01*
X30726833Y-60028580D01*
X30742873Y-60014682D01*
X30777510Y-59989517D01*
X30944517Y-59822510D01*
X31083343Y-59631433D01*
X31190568Y-59420992D01*
X31263553Y-59196368D01*
X31300500Y-58963097D01*
X31300500Y-58726902D01*
X31263553Y-58493631D01*
X31190566Y-58269003D01*
X31083342Y-58058566D01*
X30944517Y-57867490D01*
X30777510Y-57700483D01*
X30742872Y-57675317D01*
X30700207Y-57619989D01*
X30694228Y-57550375D01*
X30726833Y-57488580D01*
X30742873Y-57474682D01*
X30777510Y-57449517D01*
X30944517Y-57282510D01*
X31083343Y-57091433D01*
X31190568Y-56880992D01*
X31263553Y-56656368D01*
X31266794Y-56635903D01*
X31300500Y-56423097D01*
X31300500Y-56186902D01*
X31263553Y-55953631D01*
X31190566Y-55729003D01*
X31104239Y-55559578D01*
X31083343Y-55518567D01*
X30944517Y-55327490D01*
X30777510Y-55160483D01*
X30742872Y-55135317D01*
X30700207Y-55079989D01*
X30694228Y-55010375D01*
X30726833Y-54948580D01*
X30742873Y-54934682D01*
X30777510Y-54909517D01*
X30944517Y-54742510D01*
X31083343Y-54551433D01*
X31190568Y-54340992D01*
X31263553Y-54116368D01*
X31300500Y-53883097D01*
X31300500Y-53646902D01*
X31263553Y-53413631D01*
X31190566Y-53189003D01*
X31083342Y-52978566D01*
X30944517Y-52787490D01*
X30777510Y-52620483D01*
X30742872Y-52595317D01*
X30700207Y-52539989D01*
X30694228Y-52470375D01*
X30726833Y-52408580D01*
X30742873Y-52394682D01*
X30777510Y-52369517D01*
X30944517Y-52202510D01*
X31083343Y-52011433D01*
X31190568Y-51800992D01*
X31263553Y-51576368D01*
X31300500Y-51343097D01*
X31300500Y-51106902D01*
X31263553Y-50873631D01*
X31190566Y-50649003D01*
X31083342Y-50438566D01*
X30944517Y-50247490D01*
X30777510Y-50080483D01*
X30742872Y-50055317D01*
X30700207Y-49999989D01*
X30694228Y-49930375D01*
X30726833Y-49868580D01*
X30742873Y-49854682D01*
X30777510Y-49829517D01*
X30944517Y-49662510D01*
X31083343Y-49471433D01*
X31190568Y-49260992D01*
X31263553Y-49036368D01*
X31300500Y-48803097D01*
X31300500Y-48566902D01*
X31263553Y-48333631D01*
X31190566Y-48109003D01*
X31083342Y-47898566D01*
X30944517Y-47707490D01*
X30777510Y-47540483D01*
X30742872Y-47515317D01*
X30700207Y-47459989D01*
X30694228Y-47390375D01*
X30726833Y-47328580D01*
X30742873Y-47314682D01*
X30777510Y-47289517D01*
X30944517Y-47122510D01*
X31083343Y-46931433D01*
X31190568Y-46720992D01*
X31263553Y-46496368D01*
X31275657Y-46419947D01*
X31300500Y-46263097D01*
X31300500Y-46026902D01*
X31263553Y-45793631D01*
X31218875Y-45656128D01*
X31190568Y-45569008D01*
X31190566Y-45569005D01*
X31190566Y-45569003D01*
X31134002Y-45457991D01*
X31083343Y-45358567D01*
X30944517Y-45167490D01*
X30777510Y-45000483D01*
X30742872Y-44975317D01*
X30700207Y-44919989D01*
X30694228Y-44850375D01*
X30726833Y-44788580D01*
X30742873Y-44774682D01*
X30777510Y-44749517D01*
X30944517Y-44582510D01*
X31083343Y-44391433D01*
X31190568Y-44180992D01*
X31263553Y-43956368D01*
X31274591Y-43886677D01*
X31300500Y-43723097D01*
X31300500Y-43486902D01*
X31263553Y-43253631D01*
X31190566Y-43029003D01*
X31117052Y-42884725D01*
X31083343Y-42818567D01*
X30944517Y-42627490D01*
X30777510Y-42460483D01*
X30742872Y-42435317D01*
X30700207Y-42379989D01*
X30694228Y-42310375D01*
X30726833Y-42248580D01*
X30742873Y-42234682D01*
X30777510Y-42209517D01*
X30944517Y-42042510D01*
X31083343Y-41851433D01*
X31190568Y-41640992D01*
X31263553Y-41416368D01*
X31268257Y-41386669D01*
X31300500Y-41183097D01*
X31300500Y-40946902D01*
X31263553Y-40713631D01*
X31218875Y-40576128D01*
X31190568Y-40489008D01*
X31190566Y-40489005D01*
X31190566Y-40489003D01*
X31083900Y-40279661D01*
X31083343Y-40278567D01*
X30944517Y-40087490D01*
X30777510Y-39920483D01*
X30718282Y-39877451D01*
X30675617Y-39822122D01*
X30667550Y-39767404D01*
X30669104Y-39747657D01*
X29937574Y-39016128D01*
X29996853Y-39000245D01*
X30113147Y-38933102D01*
X30208102Y-38838147D01*
X30275245Y-38721853D01*
X30291128Y-38662575D01*
X31022658Y-39394105D01*
X31022658Y-39394104D01*
X31082914Y-39311169D01*
X31082918Y-39311163D01*
X31190102Y-39100802D01*
X31263065Y-38876247D01*
X31300000Y-38643052D01*
X31300000Y-38633597D01*
X31319685Y-38566558D01*
X31372489Y-38520803D01*
X31441647Y-38510859D01*
X31505203Y-38539884D01*
G37*
%TD.AperFunction*%
%TA.AperFunction,Conductor*%
G36*
X60155398Y-77001953D02*
G01*
X60168834Y-77002914D01*
X60186560Y-77016184D01*
X60206703Y-77025383D01*
X60213985Y-77036714D01*
X60224767Y-77044786D01*
X60232504Y-77065531D01*
X60244477Y-77084161D01*
X60247628Y-77106079D01*
X60249184Y-77110250D01*
X60249500Y-77119096D01*
X60249500Y-77266287D01*
X60282754Y-77476243D01*
X60345290Y-77668709D01*
X60348444Y-77678414D01*
X60444951Y-77867820D01*
X60569890Y-78039786D01*
X60720213Y-78190109D01*
X60892179Y-78315048D01*
X60892181Y-78315049D01*
X60892184Y-78315051D01*
X61081588Y-78411557D01*
X61283757Y-78477246D01*
X61493713Y-78510500D01*
X61493714Y-78510500D01*
X61706286Y-78510500D01*
X61706287Y-78510500D01*
X61916243Y-78477246D01*
X62118412Y-78411557D01*
X62307816Y-78315051D01*
X62363263Y-78274767D01*
X62479786Y-78190109D01*
X62479788Y-78190106D01*
X62479792Y-78190104D01*
X62630104Y-78039792D01*
X62630106Y-78039788D01*
X62630109Y-78039786D01*
X62755050Y-77867817D01*
X62757413Y-77863181D01*
X62765015Y-77848261D01*
X62812989Y-77797464D01*
X62880810Y-77780669D01*
X62946945Y-77803206D01*
X62990397Y-77857921D01*
X62999500Y-77904555D01*
X62999500Y-82999903D01*
X62979815Y-83066942D01*
X62963181Y-83087584D01*
X61187584Y-84863181D01*
X61126261Y-84896666D01*
X61099903Y-84899500D01*
X55554499Y-84899500D01*
X55487460Y-84879815D01*
X55441705Y-84827011D01*
X55430499Y-84775500D01*
X55430499Y-84602129D01*
X55430498Y-84602123D01*
X55424091Y-84542516D01*
X55373797Y-84407671D01*
X55373793Y-84407664D01*
X55287547Y-84292455D01*
X55287544Y-84292452D01*
X55172335Y-84206206D01*
X55172328Y-84206202D01*
X55037482Y-84155908D01*
X55037483Y-84155908D01*
X54977883Y-84149501D01*
X54977881Y-84149500D01*
X54977873Y-84149500D01*
X54977865Y-84149500D01*
X53630097Y-84149500D01*
X53563058Y-84129815D01*
X53542416Y-84113181D01*
X52017819Y-82588584D01*
X51984334Y-82527261D01*
X51981500Y-82500903D01*
X51981500Y-79330097D01*
X52001185Y-79263058D01*
X52053989Y-79217303D01*
X52123147Y-79207359D01*
X52186703Y-79236384D01*
X52193181Y-79242416D01*
X52515139Y-79564374D01*
X52515149Y-79564385D01*
X52519479Y-79568715D01*
X52519480Y-79568716D01*
X52631284Y-79680520D01*
X52718095Y-79730639D01*
X52718097Y-79730641D01*
X52756151Y-79752611D01*
X52768215Y-79759577D01*
X52920943Y-79800501D01*
X52920946Y-79800501D01*
X53086653Y-79800501D01*
X53086669Y-79800500D01*
X56933331Y-79800500D01*
X56933347Y-79800501D01*
X56940943Y-79800501D01*
X57099054Y-79800501D01*
X57099057Y-79800501D01*
X57251785Y-79759577D01*
X57301904Y-79730639D01*
X57388716Y-79680520D01*
X57500520Y-79568716D01*
X57500520Y-79568714D01*
X57510728Y-79558507D01*
X57510730Y-79558504D01*
X60037819Y-77031415D01*
X60057255Y-77020802D01*
X60073989Y-77006302D01*
X60087320Y-77004385D01*
X60099142Y-76997930D01*
X60121228Y-76999509D01*
X60143147Y-76996358D01*
X60155398Y-77001953D01*
G37*
%TD.AperFunction*%
%TA.AperFunction,Conductor*%
G36*
X62715270Y-70301717D02*
G01*
X62715270Y-70301716D01*
X62754624Y-70247552D01*
X62765015Y-70227159D01*
X62812989Y-70176362D01*
X62880810Y-70159567D01*
X62946945Y-70182104D01*
X62990397Y-70236819D01*
X62999500Y-70283453D01*
X62999500Y-71335444D01*
X62979815Y-71402483D01*
X62927011Y-71448238D01*
X62857853Y-71458182D01*
X62794297Y-71429157D01*
X62765016Y-71391740D01*
X62755050Y-71372182D01*
X62630109Y-71200213D01*
X62479786Y-71049890D01*
X62307817Y-70924949D01*
X62298504Y-70920204D01*
X62247707Y-70872230D01*
X62230912Y-70804409D01*
X62253449Y-70738274D01*
X62298507Y-70699232D01*
X62307555Y-70694622D01*
X62361716Y-70655270D01*
X62361717Y-70655270D01*
X61729408Y-70022962D01*
X61792993Y-70005925D01*
X61907007Y-69940099D01*
X62000099Y-69847007D01*
X62065925Y-69732993D01*
X62082962Y-69669408D01*
X62715270Y-70301717D01*
G37*
%TD.AperFunction*%
%TA.AperFunction,Conductor*%
G36*
X58525473Y-44208374D02*
G01*
X58535600Y-44207110D01*
X58558432Y-44218052D01*
X58582722Y-44225185D01*
X58591080Y-44233700D01*
X58598607Y-44237307D01*
X58621222Y-44264404D01*
X58631680Y-44281360D01*
X58642160Y-44298350D01*
X58764150Y-44420340D01*
X58910984Y-44510908D01*
X59074747Y-44565174D01*
X59175823Y-44575500D01*
X59774176Y-44575499D01*
X59774184Y-44575498D01*
X59774187Y-44575498D01*
X59829530Y-44569844D01*
X59875253Y-44565174D01*
X60039016Y-44510908D01*
X60185850Y-44420340D01*
X60299819Y-44306371D01*
X60303938Y-44304121D01*
X60306484Y-44300178D01*
X60334316Y-44287533D01*
X60361142Y-44272886D01*
X60365822Y-44273220D01*
X60370097Y-44271279D01*
X60400346Y-44275689D01*
X60430834Y-44277870D01*
X60435879Y-44280870D01*
X60439235Y-44281360D01*
X60454130Y-44291724D01*
X60468889Y-44300501D01*
X60472134Y-44303324D01*
X60589150Y-44420340D01*
X60649236Y-44457401D01*
X60656889Y-44464059D01*
X60670467Y-44485280D01*
X60687321Y-44504017D01*
X60690000Y-44515807D01*
X60694546Y-44522912D01*
X60694520Y-44535698D01*
X60699500Y-44557610D01*
X60699500Y-45003838D01*
X60679815Y-45070877D01*
X60640597Y-45109376D01*
X60526653Y-45179657D01*
X60526649Y-45179660D01*
X60487326Y-45218983D01*
X60426003Y-45252468D01*
X60356311Y-45247482D01*
X60311965Y-45218982D01*
X60273038Y-45180055D01*
X60273034Y-45180052D01*
X60126311Y-45089551D01*
X60126300Y-45089546D01*
X59962652Y-45035319D01*
X59861654Y-45025000D01*
X59775000Y-45025000D01*
X59775000Y-46974999D01*
X59861640Y-46974999D01*
X59861654Y-46974998D01*
X59962652Y-46964680D01*
X60126300Y-46910453D01*
X60126311Y-46910448D01*
X60273034Y-46819947D01*
X60273037Y-46819945D01*
X60311964Y-46781018D01*
X60373287Y-46747532D01*
X60442978Y-46752516D01*
X60487327Y-46781017D01*
X60526650Y-46820340D01*
X60673484Y-46910908D01*
X60837247Y-46965174D01*
X60938323Y-46975500D01*
X61611676Y-46975499D01*
X61611684Y-46975498D01*
X61611687Y-46975498D01*
X61667030Y-46969844D01*
X61712753Y-46965174D01*
X61876516Y-46910908D01*
X62023350Y-46820340D01*
X62145340Y-46698350D01*
X62169962Y-46658430D01*
X62221909Y-46611708D01*
X62290872Y-46600485D01*
X62354954Y-46628329D01*
X62393810Y-46686397D01*
X62399500Y-46723529D01*
X62399500Y-54699902D01*
X62379815Y-54766941D01*
X62363181Y-54787583D01*
X61620481Y-55530282D01*
X61620477Y-55530287D01*
X61603569Y-55559575D01*
X61603568Y-55559577D01*
X61541423Y-55667215D01*
X61500499Y-55819943D01*
X61500499Y-55819945D01*
X61500499Y-55988046D01*
X61500500Y-55988059D01*
X61500500Y-56723901D01*
X61480815Y-56790940D01*
X61464181Y-56811582D01*
X56912181Y-61363582D01*
X56850858Y-61397067D01*
X56781166Y-61392083D01*
X56725233Y-61350211D01*
X56700816Y-61284747D01*
X56700500Y-61275901D01*
X56700500Y-61266902D01*
X56663553Y-61033631D01*
X56590566Y-60809003D01*
X56483342Y-60598566D01*
X56344517Y-60407490D01*
X56177510Y-60240483D01*
X56142872Y-60215317D01*
X56100207Y-60159989D01*
X56094228Y-60090375D01*
X56126833Y-60028580D01*
X56142873Y-60014682D01*
X56177510Y-59989517D01*
X56344517Y-59822510D01*
X56483343Y-59631433D01*
X56590568Y-59420992D01*
X56663553Y-59196368D01*
X56700500Y-58963097D01*
X56700500Y-58726902D01*
X56663553Y-58493631D01*
X56590566Y-58269003D01*
X56483342Y-58058566D01*
X56344517Y-57867490D01*
X56177510Y-57700483D01*
X56142872Y-57675317D01*
X56100207Y-57619989D01*
X56094228Y-57550375D01*
X56126833Y-57488580D01*
X56142873Y-57474682D01*
X56177510Y-57449517D01*
X56344517Y-57282510D01*
X56483343Y-57091433D01*
X56590568Y-56880992D01*
X56663553Y-56656368D01*
X56666794Y-56635903D01*
X56700500Y-56423097D01*
X56700500Y-56186902D01*
X56663553Y-55953631D01*
X56590566Y-55729003D01*
X56504239Y-55559578D01*
X56483343Y-55518567D01*
X56344517Y-55327490D01*
X56177510Y-55160483D01*
X56142872Y-55135317D01*
X56100207Y-55079989D01*
X56094228Y-55010375D01*
X56126833Y-54948580D01*
X56142873Y-54934682D01*
X56177510Y-54909517D01*
X56344517Y-54742510D01*
X56483343Y-54551433D01*
X56590568Y-54340992D01*
X56663553Y-54116368D01*
X56700500Y-53883097D01*
X56700500Y-53646902D01*
X56663553Y-53413631D01*
X56590566Y-53189003D01*
X56483342Y-52978566D01*
X56344517Y-52787490D01*
X56177510Y-52620483D01*
X56142872Y-52595317D01*
X56100207Y-52539989D01*
X56094228Y-52470375D01*
X56126833Y-52408580D01*
X56142873Y-52394682D01*
X56177510Y-52369517D01*
X56344517Y-52202510D01*
X56483343Y-52011433D01*
X56590568Y-51800992D01*
X56663553Y-51576368D01*
X56700500Y-51343097D01*
X56700500Y-51106902D01*
X56663553Y-50873631D01*
X56590566Y-50649003D01*
X56483342Y-50438566D01*
X56344517Y-50247490D01*
X56177510Y-50080483D01*
X56142872Y-50055317D01*
X56100207Y-49999989D01*
X56094228Y-49930375D01*
X56126833Y-49868580D01*
X56142873Y-49854682D01*
X56177510Y-49829517D01*
X56344517Y-49662510D01*
X56483343Y-49471433D01*
X56590568Y-49260992D01*
X56663553Y-49036368D01*
X56700500Y-48803097D01*
X56700500Y-48566902D01*
X56663553Y-48333631D01*
X56590566Y-48109003D01*
X56483342Y-47898566D01*
X56344517Y-47707490D01*
X56177510Y-47540483D01*
X56142872Y-47515317D01*
X56100207Y-47459989D01*
X56094228Y-47390375D01*
X56126833Y-47328580D01*
X56142873Y-47314682D01*
X56177510Y-47289517D01*
X56344517Y-47122510D01*
X56483343Y-46931433D01*
X56590568Y-46720992D01*
X56663553Y-46496368D01*
X56675657Y-46419947D01*
X56696769Y-46286654D01*
X58500001Y-46286654D01*
X58510319Y-46387652D01*
X58564546Y-46551300D01*
X58564551Y-46551311D01*
X58655052Y-46698034D01*
X58655055Y-46698038D01*
X58776961Y-46819944D01*
X58776965Y-46819947D01*
X58923688Y-46910448D01*
X58923699Y-46910453D01*
X59087347Y-46964680D01*
X59188351Y-46974999D01*
X59275000Y-46974998D01*
X59275000Y-46250000D01*
X58500001Y-46250000D01*
X58500001Y-46286654D01*
X56696769Y-46286654D01*
X56700500Y-46263097D01*
X56700500Y-46026902D01*
X56678284Y-45886641D01*
X56663553Y-45793632D01*
X56663552Y-45793628D01*
X56663552Y-45793627D01*
X56648894Y-45748514D01*
X56637467Y-45713345D01*
X58500000Y-45713345D01*
X58500000Y-45750000D01*
X59275000Y-45750000D01*
X59275000Y-45025000D01*
X59274999Y-45024999D01*
X59188360Y-45025000D01*
X59188343Y-45025001D01*
X59087347Y-45035319D01*
X58923699Y-45089546D01*
X58923688Y-45089551D01*
X58776965Y-45180052D01*
X58776961Y-45180055D01*
X58655055Y-45301961D01*
X58655052Y-45301965D01*
X58564551Y-45448688D01*
X58564546Y-45448699D01*
X58510319Y-45612347D01*
X58500000Y-45713345D01*
X56637467Y-45713345D01*
X56590566Y-45569003D01*
X56534002Y-45457991D01*
X56483343Y-45358567D01*
X56344517Y-45167490D01*
X56177510Y-45000483D01*
X56142872Y-44975317D01*
X56100207Y-44919989D01*
X56094228Y-44850375D01*
X56126833Y-44788580D01*
X56142873Y-44774682D01*
X56177510Y-44749517D01*
X56344517Y-44582510D01*
X56483343Y-44391433D01*
X56543583Y-44273204D01*
X56591558Y-44222409D01*
X56654068Y-44205500D01*
X58515683Y-44205500D01*
X58525473Y-44208374D01*
G37*
%TD.AperFunction*%
%TA.AperFunction,Conductor*%
G36*
X40981444Y-21253999D02*
G01*
X41020486Y-21299056D01*
X41024951Y-21307820D01*
X41149890Y-21479786D01*
X41149896Y-21479792D01*
X41300208Y-21630104D01*
X41472184Y-21755051D01*
X41472188Y-21755053D01*
X41476126Y-21757914D01*
X41475146Y-21759262D01*
X41517160Y-21805690D01*
X41529500Y-21859617D01*
X41529500Y-28109069D01*
X41529500Y-28109071D01*
X41529499Y-28109071D01*
X41552268Y-28223532D01*
X41554498Y-28234741D01*
X41554499Y-28234745D01*
X41603533Y-28353125D01*
X41674726Y-28459673D01*
X41674727Y-28459674D01*
X53729859Y-40514805D01*
X53763344Y-40576128D01*
X53760109Y-40640803D01*
X53736447Y-40713628D01*
X53699500Y-40946902D01*
X53699500Y-41183097D01*
X53736446Y-41416368D01*
X53809433Y-41640996D01*
X53889608Y-41798346D01*
X53916657Y-41851433D01*
X54055483Y-42042510D01*
X54222490Y-42209517D01*
X54257127Y-42234683D01*
X54299792Y-42290013D01*
X54305771Y-42359626D01*
X54273165Y-42421421D01*
X54257130Y-42435315D01*
X54239365Y-42448222D01*
X54222488Y-42460484D01*
X54055485Y-42627487D01*
X54055485Y-42627488D01*
X54055483Y-42627490D01*
X54010726Y-42689093D01*
X53916657Y-42818566D01*
X53809433Y-43029003D01*
X53736447Y-43253630D01*
X53705076Y-43451694D01*
X53675146Y-43514828D01*
X53615835Y-43551759D01*
X53545972Y-43550761D01*
X53494922Y-43519976D01*
X40326819Y-30351873D01*
X40293334Y-30290550D01*
X40290500Y-30264192D01*
X40290500Y-21859617D01*
X40310185Y-21792578D01*
X40344592Y-21758902D01*
X40343874Y-21757914D01*
X40347811Y-21755053D01*
X40347816Y-21755051D01*
X40519792Y-21630104D01*
X40670104Y-21479792D01*
X40670106Y-21479788D01*
X40670109Y-21479786D01*
X40795048Y-21307820D01*
X40795050Y-21307817D01*
X40795051Y-21307816D01*
X40799514Y-21299054D01*
X40847488Y-21248259D01*
X40915308Y-21231463D01*
X40981444Y-21253999D01*
G37*
%TD.AperFunction*%
%TA.AperFunction,Conductor*%
G36*
X58140268Y-31757685D02*
G01*
X58162604Y-31776046D01*
X58171801Y-31785609D01*
X58179660Y-31798350D01*
X58294493Y-31913183D01*
X58295323Y-31914046D01*
X58310933Y-31944009D01*
X58327114Y-31973642D01*
X58327024Y-31974895D01*
X58327605Y-31976010D01*
X58324539Y-32009648D01*
X58322130Y-32043334D01*
X58321359Y-32044532D01*
X58321263Y-32045591D01*
X58317938Y-32049856D01*
X58293629Y-32087681D01*
X58179661Y-32201648D01*
X58089093Y-32348481D01*
X58089092Y-32348484D01*
X58034826Y-32512247D01*
X58034826Y-32512248D01*
X58034825Y-32512248D01*
X58024500Y-32613315D01*
X58024500Y-33211669D01*
X58024501Y-33211687D01*
X58034825Y-33312752D01*
X58071109Y-33422249D01*
X58089092Y-33476516D01*
X58179660Y-33623350D01*
X58301650Y-33745340D01*
X58448484Y-33835908D01*
X58612247Y-33890174D01*
X58713323Y-33900500D01*
X59087401Y-33900499D01*
X59154440Y-33920183D01*
X59175082Y-33936818D01*
X59988181Y-34749917D01*
X60021666Y-34811240D01*
X60024500Y-34837596D01*
X60024500Y-34886667D01*
X60024501Y-34886687D01*
X60034825Y-34987752D01*
X60089092Y-35151515D01*
X60089093Y-35151518D01*
X60179661Y-35298351D01*
X60293982Y-35412672D01*
X60327467Y-35473995D01*
X60322483Y-35543687D01*
X60293983Y-35588034D01*
X60180052Y-35701965D01*
X60089551Y-35848688D01*
X60089546Y-35848699D01*
X60035319Y-36012347D01*
X60025000Y-36113345D01*
X60025000Y-36162500D01*
X61974999Y-36162500D01*
X61974999Y-36113360D01*
X61974998Y-36113345D01*
X61964680Y-36012347D01*
X61910453Y-35848699D01*
X61910448Y-35848688D01*
X61819947Y-35701965D01*
X61819944Y-35701961D01*
X61706017Y-35588034D01*
X61703763Y-35583907D01*
X61699812Y-35581356D01*
X61687175Y-35553528D01*
X61672532Y-35526711D01*
X61672867Y-35522020D01*
X61670923Y-35517738D01*
X61675335Y-35487503D01*
X61677516Y-35457019D01*
X61680523Y-35451962D01*
X61681014Y-35448601D01*
X61691399Y-35433677D01*
X61700158Y-35418951D01*
X61702968Y-35415721D01*
X61820340Y-35298350D01*
X61857404Y-35238258D01*
X61864071Y-35230598D01*
X61885291Y-35217024D01*
X61904020Y-35200179D01*
X61915818Y-35197497D01*
X61922930Y-35192949D01*
X61935714Y-35192976D01*
X61957611Y-35188000D01*
X62112403Y-35188000D01*
X62179442Y-35207685D01*
X62200084Y-35224319D01*
X62363181Y-35387416D01*
X62396666Y-35448739D01*
X62399500Y-35475097D01*
X62399500Y-42896736D01*
X62379815Y-42963775D01*
X62327011Y-43009530D01*
X62257853Y-43019474D01*
X62194297Y-42990449D01*
X62169962Y-42961833D01*
X62132842Y-42901653D01*
X62132839Y-42901649D01*
X62010851Y-42779661D01*
X62010850Y-42779660D01*
X61864016Y-42689092D01*
X61700253Y-42634826D01*
X61700251Y-42634825D01*
X61599178Y-42624500D01*
X61000830Y-42624500D01*
X61000812Y-42624501D01*
X60899747Y-42634825D01*
X60735984Y-42689092D01*
X60735981Y-42689093D01*
X60589148Y-42779661D01*
X60475181Y-42893629D01*
X60413858Y-42927114D01*
X60344166Y-42922130D01*
X60299819Y-42893629D01*
X60185851Y-42779661D01*
X60185850Y-42779660D01*
X60039016Y-42689092D01*
X59875253Y-42634826D01*
X59875251Y-42634825D01*
X59774178Y-42624500D01*
X59175830Y-42624500D01*
X59175812Y-42624501D01*
X59074747Y-42634825D01*
X58910984Y-42689092D01*
X58910981Y-42689093D01*
X58764148Y-42779661D01*
X58642159Y-42901650D01*
X58615054Y-42945596D01*
X58563106Y-42992321D01*
X58509515Y-43004500D01*
X56654068Y-43004500D01*
X56587029Y-42984815D01*
X56543583Y-42936795D01*
X56539947Y-42929659D01*
X56483343Y-42818567D01*
X56344517Y-42627490D01*
X56177510Y-42460483D01*
X56142872Y-42435317D01*
X56100207Y-42379989D01*
X56094228Y-42310375D01*
X56126833Y-42248580D01*
X56142873Y-42234682D01*
X56177510Y-42209517D01*
X56344517Y-42042510D01*
X56483343Y-41851433D01*
X56590568Y-41640992D01*
X56663553Y-41416368D01*
X56668257Y-41386669D01*
X56700500Y-41183097D01*
X56700500Y-40946902D01*
X56663553Y-40713631D01*
X56618875Y-40576128D01*
X56590568Y-40489008D01*
X56590566Y-40489005D01*
X56590566Y-40489003D01*
X56483900Y-40279661D01*
X56483343Y-40278567D01*
X56344517Y-40087490D01*
X56177510Y-39920483D01*
X56118282Y-39877451D01*
X56075617Y-39822122D01*
X56067550Y-39767404D01*
X56069104Y-39747657D01*
X55337574Y-39016128D01*
X55396853Y-39000245D01*
X55513147Y-38933102D01*
X55608102Y-38838147D01*
X55675245Y-38721853D01*
X55691128Y-38662575D01*
X56422658Y-39394105D01*
X56422658Y-39394104D01*
X56482914Y-39311169D01*
X56482918Y-39311163D01*
X56590102Y-39100802D01*
X56663065Y-38876247D01*
X56700000Y-38643052D01*
X56700000Y-38406947D01*
X56663065Y-38173752D01*
X56590102Y-37949197D01*
X56482914Y-37738828D01*
X56422658Y-37655894D01*
X56422658Y-37655893D01*
X55691128Y-38387424D01*
X55675245Y-38328147D01*
X55608102Y-38211853D01*
X55513147Y-38116898D01*
X55396853Y-38049755D01*
X55337574Y-38033871D01*
X56069105Y-37302340D01*
X56067551Y-37282594D01*
X56081915Y-37214216D01*
X56118284Y-37172547D01*
X56177510Y-37129517D01*
X56344517Y-36962510D01*
X56483343Y-36771433D01*
X56513802Y-36711654D01*
X60025001Y-36711654D01*
X60035319Y-36812652D01*
X60089546Y-36976300D01*
X60089551Y-36976311D01*
X60180052Y-37123034D01*
X60180055Y-37123038D01*
X60301961Y-37244944D01*
X60301965Y-37244947D01*
X60448688Y-37335448D01*
X60448699Y-37335453D01*
X60612347Y-37389680D01*
X60713352Y-37399999D01*
X60750000Y-37399999D01*
X61250000Y-37399999D01*
X61286640Y-37399999D01*
X61286654Y-37399998D01*
X61387652Y-37389680D01*
X61551300Y-37335453D01*
X61551311Y-37335448D01*
X61698034Y-37244947D01*
X61698038Y-37244944D01*
X61819944Y-37123038D01*
X61819947Y-37123034D01*
X61910448Y-36976311D01*
X61910453Y-36976300D01*
X61964680Y-36812652D01*
X61974999Y-36711654D01*
X61975000Y-36711641D01*
X61975000Y-36662500D01*
X61250000Y-36662500D01*
X61250000Y-37399999D01*
X60750000Y-37399999D01*
X60750000Y-36662500D01*
X60025001Y-36662500D01*
X60025001Y-36711654D01*
X56513802Y-36711654D01*
X56590568Y-36560992D01*
X56663553Y-36336368D01*
X56698874Y-36113360D01*
X56700500Y-36103097D01*
X56700500Y-35866902D01*
X56663553Y-35633631D01*
X56612042Y-35475097D01*
X56590568Y-35409008D01*
X56590566Y-35409005D01*
X56590566Y-35409003D01*
X56534002Y-35297991D01*
X56483343Y-35198567D01*
X56344517Y-35007490D01*
X56177510Y-34840483D01*
X55986433Y-34701657D01*
X55972347Y-34694480D01*
X55775996Y-34594433D01*
X55551368Y-34521446D01*
X55318097Y-34484500D01*
X55318092Y-34484500D01*
X55081908Y-34484500D01*
X55081903Y-34484500D01*
X54848629Y-34521447D01*
X54829167Y-34527770D01*
X54759326Y-34529762D01*
X54703174Y-34497518D01*
X52155337Y-31949681D01*
X52121852Y-31888358D01*
X52126836Y-31818666D01*
X52168708Y-31762733D01*
X52234172Y-31738316D01*
X52243018Y-31738000D01*
X58073229Y-31738000D01*
X58140268Y-31757685D01*
G37*
%TD.AperFunction*%
%TA.AperFunction,Conductor*%
G36*
X43521444Y-21253999D02*
G01*
X43560486Y-21299056D01*
X43564951Y-21307820D01*
X43689890Y-21479786D01*
X43840213Y-21630109D01*
X44012179Y-21755048D01*
X44012181Y-21755049D01*
X44012184Y-21755051D01*
X44201588Y-21851557D01*
X44403757Y-21917246D01*
X44613713Y-21950500D01*
X44613714Y-21950500D01*
X44826286Y-21950500D01*
X44826287Y-21950500D01*
X44982771Y-21925715D01*
X45052064Y-21934670D01*
X45089850Y-21960507D01*
X48383181Y-25253838D01*
X48416666Y-25315161D01*
X48419500Y-25341519D01*
X48419500Y-29836006D01*
X48419500Y-29973994D01*
X48419500Y-29973996D01*
X48419499Y-29973996D01*
X48446418Y-30109322D01*
X48446421Y-30109332D01*
X48499222Y-30236807D01*
X48575887Y-30351545D01*
X48575888Y-30351546D01*
X53712518Y-35488175D01*
X53746003Y-35549498D01*
X53742769Y-35614170D01*
X53736447Y-35633627D01*
X53736447Y-35633628D01*
X53699500Y-35866902D01*
X53699500Y-36103097D01*
X53736446Y-36336368D01*
X53809433Y-36560996D01*
X53866290Y-36672583D01*
X53916657Y-36771433D01*
X54055483Y-36962510D01*
X54222490Y-37129517D01*
X54281716Y-37172547D01*
X54324381Y-37227875D01*
X54332448Y-37282593D01*
X54330893Y-37302340D01*
X55062425Y-38033871D01*
X55003147Y-38049755D01*
X54886853Y-38116898D01*
X54791898Y-38211853D01*
X54724755Y-38328147D01*
X54708871Y-38387425D01*
X53977340Y-37655894D01*
X53917084Y-37738830D01*
X53809897Y-37949197D01*
X53736934Y-38173752D01*
X53705514Y-38372131D01*
X53675585Y-38435266D01*
X53616273Y-38472197D01*
X53546411Y-38471199D01*
X53495360Y-38440414D01*
X42866819Y-27811873D01*
X42833334Y-27750550D01*
X42830500Y-27724192D01*
X42830500Y-21859617D01*
X42850185Y-21792578D01*
X42884592Y-21758902D01*
X42883874Y-21757914D01*
X42887811Y-21755053D01*
X42887816Y-21755051D01*
X43059792Y-21630104D01*
X43210104Y-21479792D01*
X43210106Y-21479788D01*
X43210109Y-21479786D01*
X43335048Y-21307820D01*
X43335050Y-21307817D01*
X43335051Y-21307816D01*
X43339514Y-21299054D01*
X43387488Y-21248259D01*
X43455308Y-21231463D01*
X43521444Y-21253999D01*
G37*
%TD.AperFunction*%
%TA.AperFunction,Conductor*%
G36*
X48375270Y-21361717D02*
G01*
X48375270Y-21361716D01*
X48414622Y-21307555D01*
X48419232Y-21298507D01*
X48467205Y-21247709D01*
X48535025Y-21230912D01*
X48601161Y-21253447D01*
X48640204Y-21298504D01*
X48644949Y-21307817D01*
X48769890Y-21479786D01*
X48769896Y-21479792D01*
X48920208Y-21630104D01*
X49092184Y-21755051D01*
X49092188Y-21755053D01*
X49096126Y-21757914D01*
X49095146Y-21759262D01*
X49137160Y-21805690D01*
X49149500Y-21859617D01*
X49149500Y-23739481D01*
X49129815Y-23806520D01*
X49077011Y-23852275D01*
X49007853Y-23862219D01*
X48944297Y-23833194D01*
X48937819Y-23827162D01*
X47272338Y-22161681D01*
X47238853Y-22100358D01*
X47243837Y-22030666D01*
X47285709Y-21974733D01*
X47351173Y-21950316D01*
X47360019Y-21950000D01*
X47366246Y-21950000D01*
X47576127Y-21916757D01*
X47576130Y-21916757D01*
X47778217Y-21851095D01*
X47967554Y-21754622D01*
X48021716Y-21715270D01*
X48021717Y-21715270D01*
X47389408Y-21082962D01*
X47452993Y-21065925D01*
X47567007Y-21000099D01*
X47660099Y-20907007D01*
X47725925Y-20792993D01*
X47742962Y-20729408D01*
X48375270Y-21361717D01*
G37*
%TD.AperFunction*%
%TA.AperFunction,Conductor*%
G36*
X68842539Y-17520185D02*
G01*
X68888294Y-17572989D01*
X68899500Y-17624500D01*
X68899500Y-109675500D01*
X68879815Y-109742539D01*
X68827011Y-109788294D01*
X68775500Y-109799500D01*
X16924500Y-109799500D01*
X16857461Y-109779815D01*
X16811706Y-109727011D01*
X16800500Y-109675500D01*
X16800500Y-104318209D01*
X18299500Y-104318209D01*
X18299500Y-104681790D01*
X18335137Y-105043630D01*
X18406064Y-105400212D01*
X18406067Y-105400223D01*
X18511614Y-105748165D01*
X18650754Y-106084078D01*
X18650756Y-106084083D01*
X18822140Y-106404720D01*
X18822151Y-106404738D01*
X19024140Y-106707035D01*
X19024150Y-106707049D01*
X19254807Y-106988106D01*
X19511893Y-107245192D01*
X19511898Y-107245196D01*
X19511899Y-107245197D01*
X19792956Y-107475854D01*
X20095268Y-107677853D01*
X20095277Y-107677858D01*
X20095279Y-107677859D01*
X20415916Y-107849243D01*
X20415918Y-107849243D01*
X20415924Y-107849247D01*
X20751836Y-107988386D01*
X21099767Y-108093930D01*
X21099773Y-108093931D01*
X21099776Y-108093932D01*
X21099787Y-108093935D01*
X21456369Y-108164862D01*
X21818206Y-108200500D01*
X21818209Y-108200500D01*
X22181791Y-108200500D01*
X22181794Y-108200500D01*
X22543631Y-108164862D01*
X22613045Y-108151054D01*
X22900212Y-108093935D01*
X22900223Y-108093932D01*
X22900223Y-108093931D01*
X22900233Y-108093930D01*
X23248164Y-107988386D01*
X23584076Y-107849247D01*
X23904732Y-107677853D01*
X24207044Y-107475854D01*
X24488101Y-107245197D01*
X24745197Y-106988101D01*
X24975854Y-106707044D01*
X25177853Y-106404732D01*
X25349247Y-106084076D01*
X25488386Y-105748164D01*
X25593930Y-105400233D01*
X25593932Y-105400223D01*
X25593935Y-105400212D01*
X25664862Y-105043630D01*
X25670134Y-104990104D01*
X25700500Y-104681794D01*
X25700500Y-104318206D01*
X25664862Y-103956369D01*
X25627196Y-103767007D01*
X25593935Y-103599787D01*
X25593932Y-103599776D01*
X25593931Y-103599773D01*
X25593930Y-103599767D01*
X25488386Y-103251836D01*
X25349247Y-102915924D01*
X25311191Y-102844727D01*
X25177859Y-102595279D01*
X25177858Y-102595277D01*
X25177853Y-102595268D01*
X24975854Y-102292956D01*
X24745197Y-102011899D01*
X24745196Y-102011898D01*
X24745192Y-102011893D01*
X24488106Y-101754807D01*
X24207049Y-101524150D01*
X24207048Y-101524149D01*
X24207044Y-101524146D01*
X23904732Y-101322147D01*
X23904727Y-101322144D01*
X23904720Y-101322140D01*
X23584083Y-101150756D01*
X23584078Y-101150754D01*
X23248165Y-101011614D01*
X22900223Y-100906067D01*
X22900212Y-100906064D01*
X22543630Y-100835137D01*
X22271111Y-100808296D01*
X22181794Y-100799500D01*
X21818206Y-100799500D01*
X21735679Y-100807628D01*
X21456369Y-100835137D01*
X21099787Y-100906064D01*
X21099776Y-100906067D01*
X20751834Y-101011614D01*
X20415921Y-101150754D01*
X20415916Y-101150756D01*
X20095279Y-101322140D01*
X20095261Y-101322151D01*
X19792964Y-101524140D01*
X19792950Y-101524150D01*
X19511893Y-101754807D01*
X19254807Y-102011893D01*
X19024150Y-102292950D01*
X19024140Y-102292964D01*
X18822151Y-102595261D01*
X18822140Y-102595279D01*
X18650756Y-102915916D01*
X18650754Y-102915921D01*
X18511614Y-103251834D01*
X18406067Y-103599776D01*
X18406064Y-103599787D01*
X18335137Y-103956369D01*
X18315772Y-104152993D01*
X18303634Y-104276239D01*
X18299500Y-104318209D01*
X16800500Y-104318209D01*
X16800500Y-45886654D01*
X20925001Y-45886654D01*
X20935319Y-45987652D01*
X20989546Y-46151300D01*
X20989551Y-46151311D01*
X21080052Y-46298034D01*
X21080055Y-46298038D01*
X21201961Y-46419944D01*
X21201965Y-46419947D01*
X21348688Y-46510448D01*
X21348699Y-46510453D01*
X21512347Y-46564680D01*
X21613352Y-46574999D01*
X21650000Y-46574999D01*
X22150000Y-46574999D01*
X22186640Y-46574999D01*
X22186654Y-46574998D01*
X22287652Y-46564680D01*
X22451300Y-46510453D01*
X22451311Y-46510448D01*
X22598034Y-46419947D01*
X22598038Y-46419944D01*
X22719944Y-46298038D01*
X22719947Y-46298034D01*
X22810448Y-46151311D01*
X22810453Y-46151300D01*
X22864680Y-45987652D01*
X22874999Y-45886654D01*
X22875000Y-45886641D01*
X22875000Y-45800000D01*
X22150000Y-45800000D01*
X22150000Y-46574999D01*
X21650000Y-46574999D01*
X21650000Y-45800000D01*
X20925001Y-45800000D01*
X20925001Y-45886654D01*
X16800500Y-45886654D01*
X16800500Y-40813315D01*
X20887000Y-40813315D01*
X20887000Y-41386669D01*
X20887001Y-41386687D01*
X20897325Y-41487752D01*
X20951592Y-41651515D01*
X20951593Y-41651518D01*
X20967729Y-41677678D01*
X21042160Y-41798350D01*
X21164150Y-41920340D01*
X21215597Y-41952072D01*
X21262321Y-42004017D01*
X21274500Y-42057610D01*
X21274500Y-42815518D01*
X21254815Y-42882557D01*
X21215600Y-42921055D01*
X21201650Y-42929660D01*
X21201649Y-42929660D01*
X21079661Y-43051648D01*
X20989093Y-43198481D01*
X20989092Y-43198484D01*
X20934826Y-43362247D01*
X20934826Y-43362248D01*
X20934825Y-43362248D01*
X20924500Y-43463315D01*
X20924500Y-44136669D01*
X20924501Y-44136687D01*
X20934825Y-44237752D01*
X20989092Y-44401515D01*
X20989093Y-44401518D01*
X21000703Y-44420340D01*
X21071856Y-44535698D01*
X21079661Y-44548351D01*
X21118982Y-44587672D01*
X21152467Y-44648995D01*
X21147483Y-44718687D01*
X21118983Y-44763033D01*
X21080055Y-44801961D01*
X21080052Y-44801965D01*
X20989551Y-44948688D01*
X20989546Y-44948699D01*
X20935319Y-45112347D01*
X20925000Y-45213345D01*
X20925000Y-45300000D01*
X22874999Y-45300000D01*
X22874999Y-45213360D01*
X22874998Y-45213345D01*
X22864680Y-45112347D01*
X22810453Y-44948699D01*
X22810448Y-44948688D01*
X22719947Y-44801965D01*
X22719944Y-44801961D01*
X22681017Y-44763034D01*
X22647532Y-44701711D01*
X22652516Y-44632019D01*
X22681016Y-44587673D01*
X22720340Y-44548350D01*
X22810908Y-44401516D01*
X22865174Y-44237753D01*
X22875500Y-44136677D01*
X22875499Y-43463324D01*
X22865174Y-43362247D01*
X22810908Y-43198484D01*
X22720340Y-43051650D01*
X22598350Y-42929660D01*
X22598349Y-42929659D01*
X22534402Y-42890216D01*
X22487678Y-42838268D01*
X22475500Y-42784678D01*
X22475500Y-42057610D01*
X22495185Y-41990571D01*
X22518111Y-41964059D01*
X22525763Y-41957401D01*
X22585850Y-41920340D01*
X22702865Y-41803324D01*
X22706111Y-41800501D01*
X22734110Y-41787646D01*
X22761142Y-41772886D01*
X22765571Y-41773202D01*
X22769609Y-41771349D01*
X22800107Y-41775672D01*
X22830834Y-41777870D01*
X22835143Y-41780639D01*
X22838787Y-41781156D01*
X22847071Y-41788305D01*
X22875181Y-41806371D01*
X22989150Y-41920340D01*
X23135984Y-42010908D01*
X23299747Y-42065174D01*
X23400823Y-42075500D01*
X23999176Y-42075499D01*
X23999184Y-42075498D01*
X23999187Y-42075498D01*
X24054530Y-42069844D01*
X24100253Y-42065174D01*
X24264016Y-42010908D01*
X24410850Y-41920340D01*
X24532840Y-41798350D01*
X24549494Y-41771349D01*
X24578452Y-41724403D01*
X24630400Y-41677678D01*
X24683990Y-41665500D01*
X28345932Y-41665500D01*
X28412971Y-41685185D01*
X28456416Y-41733203D01*
X28516657Y-41851433D01*
X28655483Y-42042510D01*
X28822490Y-42209517D01*
X28857127Y-42234683D01*
X28899792Y-42290013D01*
X28905771Y-42359626D01*
X28873165Y-42421421D01*
X28857130Y-42435315D01*
X28839365Y-42448222D01*
X28822488Y-42460484D01*
X28655485Y-42627487D01*
X28655485Y-42627488D01*
X28655483Y-42627490D01*
X28610726Y-42689093D01*
X28516657Y-42818566D01*
X28409433Y-43029003D01*
X28336446Y-43253631D01*
X28299500Y-43486902D01*
X28299500Y-43723097D01*
X28336446Y-43956368D01*
X28409433Y-44180996D01*
X28516657Y-44391433D01*
X28655483Y-44582510D01*
X28822490Y-44749517D01*
X28857127Y-44774683D01*
X28899792Y-44830013D01*
X28905771Y-44899626D01*
X28873165Y-44961421D01*
X28857130Y-44975315D01*
X28839365Y-44988222D01*
X28822488Y-45000484D01*
X28655485Y-45167487D01*
X28655485Y-45167488D01*
X28655483Y-45167490D01*
X28618072Y-45218982D01*
X28516657Y-45358566D01*
X28409433Y-45569003D01*
X28336446Y-45793631D01*
X28299500Y-46026902D01*
X28299500Y-46263097D01*
X28336446Y-46496368D01*
X28409433Y-46720996D01*
X28459851Y-46819945D01*
X28516657Y-46931433D01*
X28655483Y-47122510D01*
X28822490Y-47289517D01*
X28857127Y-47314683D01*
X28899792Y-47370013D01*
X28905771Y-47439626D01*
X28873165Y-47501421D01*
X28857130Y-47515315D01*
X28839365Y-47528222D01*
X28822488Y-47540484D01*
X28655485Y-47707487D01*
X28655485Y-47707488D01*
X28655483Y-47707490D01*
X28595862Y-47789550D01*
X28516657Y-47898566D01*
X28409433Y-48109003D01*
X28336446Y-48333631D01*
X28299500Y-48566902D01*
X28299500Y-48803097D01*
X28336446Y-49036368D01*
X28409433Y-49260996D01*
X28516657Y-49471433D01*
X28655483Y-49662510D01*
X28822490Y-49829517D01*
X28857127Y-49854683D01*
X28899792Y-49910013D01*
X28905771Y-49979626D01*
X28873165Y-50041421D01*
X28857130Y-50055315D01*
X28839365Y-50068222D01*
X28822488Y-50080484D01*
X28655485Y-50247487D01*
X28655485Y-50247488D01*
X28655483Y-50247490D01*
X28595862Y-50329550D01*
X28516657Y-50438566D01*
X28409433Y-50649003D01*
X28336446Y-50873631D01*
X28299500Y-51106902D01*
X28299500Y-51343097D01*
X28336446Y-51576368D01*
X28409433Y-51800996D01*
X28516657Y-52011433D01*
X28655483Y-52202510D01*
X28822490Y-52369517D01*
X28857127Y-52394683D01*
X28899792Y-52450013D01*
X28905771Y-52519626D01*
X28873165Y-52581421D01*
X28857130Y-52595315D01*
X28839365Y-52608222D01*
X28822488Y-52620484D01*
X28655485Y-52787487D01*
X28655485Y-52787488D01*
X28655483Y-52787490D01*
X28595862Y-52869550D01*
X28516657Y-52978566D01*
X28409433Y-53189003D01*
X28336446Y-53413631D01*
X28299500Y-53646902D01*
X28299500Y-53883097D01*
X28336447Y-54116369D01*
X28336447Y-54116372D01*
X28377450Y-54242564D01*
X28379445Y-54312405D01*
X28347200Y-54368563D01*
X23831286Y-58884478D01*
X23719481Y-58996282D01*
X23719475Y-58996290D01*
X23675064Y-59073214D01*
X23675064Y-59073215D01*
X23640423Y-59133215D01*
X23599499Y-59285943D01*
X23599499Y-59285945D01*
X23599499Y-59454046D01*
X23599500Y-59454059D01*
X23599500Y-98613330D01*
X23599499Y-98613348D01*
X23599499Y-98779054D01*
X23599498Y-98779054D01*
X23614976Y-98836819D01*
X23640423Y-98931785D01*
X23662335Y-98969737D01*
X23680096Y-99000500D01*
X23719479Y-99068714D01*
X23719481Y-99068717D01*
X23838349Y-99187585D01*
X23838355Y-99187590D01*
X33515139Y-108864374D01*
X33515149Y-108864385D01*
X33519479Y-108868715D01*
X33519480Y-108868716D01*
X33631284Y-108980520D01*
X33718095Y-109030639D01*
X33718097Y-109030641D01*
X33756151Y-109052611D01*
X33768215Y-109059577D01*
X33920943Y-109100501D01*
X33920946Y-109100501D01*
X34086653Y-109100501D01*
X34086669Y-109100500D01*
X41953331Y-109100500D01*
X41953347Y-109100501D01*
X41960943Y-109100501D01*
X42119054Y-109100501D01*
X42119057Y-109100501D01*
X42271785Y-109059577D01*
X42321904Y-109030639D01*
X42408716Y-108980520D01*
X42520520Y-108868716D01*
X42520520Y-108868714D01*
X42530728Y-108858507D01*
X42530730Y-108858504D01*
X43555478Y-107833755D01*
X43616799Y-107800272D01*
X43681473Y-107803506D01*
X43723757Y-107817246D01*
X43933713Y-107850500D01*
X43933714Y-107850500D01*
X44146286Y-107850500D01*
X44146287Y-107850500D01*
X44356243Y-107817246D01*
X44558412Y-107751557D01*
X44747816Y-107655051D01*
X44834138Y-107592335D01*
X44919786Y-107530109D01*
X44919788Y-107530106D01*
X44919792Y-107530104D01*
X45070104Y-107379792D01*
X45070106Y-107379788D01*
X45070109Y-107379786D01*
X45195048Y-107207820D01*
X45195050Y-107207817D01*
X45195051Y-107207816D01*
X45199514Y-107199054D01*
X45247488Y-107148259D01*
X45315308Y-107131463D01*
X45381444Y-107153999D01*
X45420486Y-107199056D01*
X45424951Y-107207820D01*
X45549890Y-107379786D01*
X45700213Y-107530109D01*
X45872179Y-107655048D01*
X45872181Y-107655049D01*
X45872184Y-107655051D01*
X46061588Y-107751557D01*
X46263757Y-107817246D01*
X46473713Y-107850500D01*
X46473714Y-107850500D01*
X46686286Y-107850500D01*
X46686287Y-107850500D01*
X46896243Y-107817246D01*
X47098412Y-107751557D01*
X47287816Y-107655051D01*
X47374138Y-107592335D01*
X47459786Y-107530109D01*
X47459788Y-107530106D01*
X47459792Y-107530104D01*
X47610104Y-107379792D01*
X47610106Y-107379788D01*
X47610109Y-107379786D01*
X47735050Y-107207817D01*
X47739514Y-107199056D01*
X47826750Y-107027845D01*
X47850568Y-106995458D01*
X47861723Y-106984556D01*
X47868716Y-106980520D01*
X47980520Y-106868716D01*
X47980521Y-106868713D01*
X50531025Y-104318209D01*
X59799500Y-104318209D01*
X59799500Y-104681790D01*
X59835137Y-105043630D01*
X59906064Y-105400212D01*
X59906067Y-105400223D01*
X60011614Y-105748165D01*
X60150754Y-106084078D01*
X60150756Y-106084083D01*
X60322140Y-106404720D01*
X60322151Y-106404738D01*
X60524140Y-106707035D01*
X60524150Y-106707049D01*
X60754807Y-106988106D01*
X61011893Y-107245192D01*
X61011898Y-107245196D01*
X61011899Y-107245197D01*
X61292956Y-107475854D01*
X61595268Y-107677853D01*
X61595277Y-107677858D01*
X61595279Y-107677859D01*
X61915916Y-107849243D01*
X61915918Y-107849243D01*
X61915924Y-107849247D01*
X62251836Y-107988386D01*
X62599767Y-108093930D01*
X62599773Y-108093931D01*
X62599776Y-108093932D01*
X62599787Y-108093935D01*
X62956369Y-108164862D01*
X63318206Y-108200500D01*
X63318209Y-108200500D01*
X63681791Y-108200500D01*
X63681794Y-108200500D01*
X64043631Y-108164862D01*
X64113045Y-108151054D01*
X64400212Y-108093935D01*
X64400223Y-108093932D01*
X64400223Y-108093931D01*
X64400233Y-108093930D01*
X64748164Y-107988386D01*
X65084076Y-107849247D01*
X65404732Y-107677853D01*
X65707044Y-107475854D01*
X65988101Y-107245197D01*
X66245197Y-106988101D01*
X66475854Y-106707044D01*
X66677853Y-106404732D01*
X66849247Y-106084076D01*
X66988386Y-105748164D01*
X67093930Y-105400233D01*
X67093932Y-105400223D01*
X67093935Y-105400212D01*
X67164862Y-105043630D01*
X67170134Y-104990104D01*
X67200500Y-104681794D01*
X67200500Y-104318206D01*
X67164862Y-103956369D01*
X67127196Y-103767007D01*
X67093935Y-103599787D01*
X67093932Y-103599776D01*
X67093931Y-103599773D01*
X67093930Y-103599767D01*
X66988386Y-103251836D01*
X66849247Y-102915924D01*
X66811191Y-102844727D01*
X66677859Y-102595279D01*
X66677858Y-102595277D01*
X66677853Y-102595268D01*
X66475854Y-102292956D01*
X66245197Y-102011899D01*
X66245196Y-102011898D01*
X66245192Y-102011893D01*
X65988106Y-101754807D01*
X65707049Y-101524150D01*
X65707048Y-101524149D01*
X65707044Y-101524146D01*
X65404732Y-101322147D01*
X65404727Y-101322144D01*
X65404720Y-101322140D01*
X65084083Y-101150756D01*
X65084078Y-101150754D01*
X64748165Y-101011614D01*
X64400223Y-100906067D01*
X64400212Y-100906064D01*
X64043630Y-100835137D01*
X63771111Y-100808296D01*
X63681794Y-100799500D01*
X63318206Y-100799500D01*
X63235679Y-100807628D01*
X62956369Y-100835137D01*
X62599787Y-100906064D01*
X62599776Y-100906067D01*
X62251834Y-101011614D01*
X61915921Y-101150754D01*
X61915916Y-101150756D01*
X61595279Y-101322140D01*
X61595261Y-101322151D01*
X61292964Y-101524140D01*
X61292950Y-101524150D01*
X61011893Y-101754807D01*
X60754807Y-102011893D01*
X60524150Y-102292950D01*
X60524140Y-102292964D01*
X60322151Y-102595261D01*
X60322140Y-102595279D01*
X60150756Y-102915916D01*
X60150754Y-102915921D01*
X60011614Y-103251834D01*
X59906067Y-103599776D01*
X59906064Y-103599787D01*
X59835137Y-103956369D01*
X59815772Y-104152993D01*
X59803634Y-104276239D01*
X59799500Y-104318209D01*
X50531025Y-104318209D01*
X54448713Y-100400521D01*
X54448716Y-100400520D01*
X54560520Y-100288716D01*
X54610639Y-100201904D01*
X54639577Y-100151785D01*
X54680500Y-99999058D01*
X54680500Y-99840943D01*
X54680500Y-86974499D01*
X54700185Y-86907460D01*
X54752989Y-86861705D01*
X54804500Y-86850499D01*
X54977871Y-86850499D01*
X54977872Y-86850499D01*
X55037483Y-86844091D01*
X55172331Y-86793796D01*
X55287546Y-86707546D01*
X55373796Y-86592331D01*
X55424091Y-86457483D01*
X55430500Y-86397873D01*
X55430500Y-86224500D01*
X55450185Y-86157461D01*
X55502989Y-86111706D01*
X55554500Y-86100500D01*
X61313331Y-86100500D01*
X61313347Y-86100501D01*
X61320943Y-86100501D01*
X61479054Y-86100501D01*
X61479057Y-86100501D01*
X61631785Y-86059577D01*
X61681904Y-86030639D01*
X61768716Y-85980520D01*
X61880520Y-85868716D01*
X61880520Y-85868714D01*
X61890728Y-85858507D01*
X61890730Y-85858504D01*
X63968713Y-83780521D01*
X63968716Y-83780520D01*
X64080520Y-83668716D01*
X64130639Y-83581904D01*
X64159577Y-83531785D01*
X64200501Y-83379057D01*
X64200501Y-83220943D01*
X64200501Y-83213348D01*
X64200500Y-83213330D01*
X64200500Y-68920944D01*
X64200499Y-68920940D01*
X64191380Y-68886908D01*
X64159577Y-68768215D01*
X64126109Y-68710248D01*
X64080520Y-68631284D01*
X63968716Y-68519480D01*
X63968715Y-68519479D01*
X63964385Y-68515149D01*
X63964374Y-68515139D01*
X62986818Y-67537583D01*
X62953333Y-67476260D01*
X62950499Y-67449902D01*
X62950499Y-66102129D01*
X62950498Y-66102123D01*
X62950497Y-66102116D01*
X62944091Y-66042517D01*
X62893796Y-65907669D01*
X62893795Y-65907668D01*
X62893793Y-65907664D01*
X62807547Y-65792455D01*
X62807544Y-65792452D01*
X62692335Y-65706206D01*
X62692328Y-65706202D01*
X62557482Y-65655908D01*
X62557483Y-65655908D01*
X62497883Y-65649501D01*
X62497881Y-65649500D01*
X62497873Y-65649500D01*
X62497864Y-65649500D01*
X60702129Y-65649500D01*
X60702123Y-65649501D01*
X60642516Y-65655908D01*
X60507671Y-65706202D01*
X60507664Y-65706206D01*
X60392455Y-65792452D01*
X60392452Y-65792455D01*
X60306206Y-65907664D01*
X60306202Y-65907671D01*
X60255908Y-66042517D01*
X60249501Y-66102116D01*
X60249501Y-66102123D01*
X60249500Y-66102135D01*
X60249500Y-67897870D01*
X60249501Y-67897876D01*
X60255908Y-67957483D01*
X60306202Y-68092328D01*
X60306206Y-68092335D01*
X60392452Y-68207544D01*
X60392455Y-68207547D01*
X60507664Y-68293793D01*
X60507671Y-68293797D01*
X60552618Y-68310561D01*
X60642517Y-68344091D01*
X60702127Y-68350500D01*
X60712685Y-68350499D01*
X60779723Y-68370179D01*
X60800372Y-68386818D01*
X61470591Y-69057037D01*
X61407007Y-69074075D01*
X61292993Y-69139901D01*
X61199901Y-69232993D01*
X61134075Y-69347007D01*
X61117037Y-69410591D01*
X60484728Y-68778282D01*
X60484727Y-68778282D01*
X60445380Y-68832439D01*
X60348904Y-69021782D01*
X60283242Y-69223869D01*
X60283242Y-69223872D01*
X60250000Y-69433753D01*
X60250000Y-69646246D01*
X60283242Y-69856127D01*
X60283242Y-69856130D01*
X60348904Y-70058217D01*
X60445375Y-70247550D01*
X60484728Y-70301716D01*
X61117037Y-69669408D01*
X61134075Y-69732993D01*
X61199901Y-69847007D01*
X61292993Y-69940099D01*
X61407007Y-70005925D01*
X61470590Y-70022962D01*
X60838282Y-70655269D01*
X60838282Y-70655270D01*
X60892452Y-70694626D01*
X60892451Y-70694626D01*
X60901495Y-70699234D01*
X60952292Y-70747208D01*
X60969087Y-70815029D01*
X60946550Y-70881164D01*
X60901499Y-70920202D01*
X60892182Y-70924949D01*
X60720213Y-71049890D01*
X60720209Y-71049894D01*
X60569897Y-71200207D01*
X60569890Y-71200213D01*
X60444951Y-71372179D01*
X60348444Y-71561585D01*
X60282753Y-71763760D01*
X60249500Y-71973713D01*
X60249500Y-72186286D01*
X60282754Y-72396244D01*
X60282754Y-72396247D01*
X60296491Y-72438523D01*
X60298486Y-72508364D01*
X60266241Y-72564522D01*
X54967584Y-77863181D01*
X54906261Y-77896666D01*
X54879903Y-77899500D01*
X53800098Y-77899500D01*
X53733059Y-77879815D01*
X53712417Y-77863181D01*
X53515819Y-77666583D01*
X53482334Y-77605260D01*
X53479500Y-77578902D01*
X53479500Y-76473361D01*
X53499185Y-76406322D01*
X53551989Y-76360567D01*
X53621147Y-76350623D01*
X53678987Y-76374986D01*
X53755382Y-76433607D01*
X53755385Y-76433608D01*
X53755388Y-76433611D01*
X53954112Y-76548344D01*
X53954117Y-76548346D01*
X53954123Y-76548349D01*
X54045480Y-76586190D01*
X54166113Y-76636158D01*
X54387762Y-76695548D01*
X54615266Y-76725500D01*
X54615273Y-76725500D01*
X54844727Y-76725500D01*
X54844734Y-76725500D01*
X55072238Y-76695548D01*
X55293887Y-76636158D01*
X55505888Y-76548344D01*
X55704612Y-76433611D01*
X55886661Y-76293919D01*
X55886665Y-76293914D01*
X55886670Y-76293911D01*
X56048911Y-76131670D01*
X56048914Y-76131665D01*
X56048919Y-76131661D01*
X56188611Y-75949612D01*
X56303344Y-75750888D01*
X56391158Y-75538887D01*
X56450548Y-75317238D01*
X56480500Y-75089734D01*
X56480500Y-74860266D01*
X56450548Y-74632762D01*
X56391158Y-74411113D01*
X56303344Y-74199112D01*
X56188611Y-74000388D01*
X56188608Y-74000385D01*
X56188607Y-74000382D01*
X56048918Y-73818338D01*
X56048911Y-73818330D01*
X55886670Y-73656089D01*
X55886661Y-73656081D01*
X55704617Y-73516392D01*
X55505890Y-73401657D01*
X55505876Y-73401650D01*
X55293887Y-73313842D01*
X55202197Y-73289274D01*
X55142538Y-73252910D01*
X55112009Y-73190063D01*
X55120304Y-73120688D01*
X55164789Y-73066810D01*
X55231341Y-73045535D01*
X55234292Y-73045500D01*
X55318097Y-73045500D01*
X55551368Y-73008553D01*
X55631338Y-72982569D01*
X55775992Y-72935568D01*
X55986433Y-72828343D01*
X56177510Y-72689517D01*
X56344517Y-72522510D01*
X56483343Y-72331433D01*
X56590568Y-72120992D01*
X56663553Y-71896368D01*
X56700500Y-71663097D01*
X56700500Y-71426902D01*
X56663553Y-71193631D01*
X56616850Y-71049896D01*
X56590568Y-70969008D01*
X56590566Y-70969005D01*
X56590566Y-70969003D01*
X56534002Y-70857991D01*
X56483343Y-70758567D01*
X56344517Y-70567490D01*
X56177510Y-70400483D01*
X56142872Y-70375317D01*
X56100207Y-70319989D01*
X56094228Y-70250375D01*
X56126833Y-70188580D01*
X56142873Y-70174682D01*
X56177510Y-70149517D01*
X56344517Y-69982510D01*
X56483343Y-69791433D01*
X56590568Y-69580992D01*
X56663553Y-69356368D01*
X56697838Y-69139901D01*
X56700500Y-69123097D01*
X56700500Y-68886902D01*
X56663553Y-68653631D01*
X56619964Y-68519480D01*
X56590568Y-68429008D01*
X56590566Y-68429005D01*
X56590566Y-68429003D01*
X56534002Y-68317991D01*
X56483343Y-68218567D01*
X56344517Y-68027490D01*
X56177510Y-67860483D01*
X56142872Y-67835317D01*
X56100207Y-67779989D01*
X56094228Y-67710375D01*
X56126833Y-67648580D01*
X56142873Y-67634682D01*
X56177510Y-67609517D01*
X56344517Y-67442510D01*
X56483343Y-67251433D01*
X56590568Y-67040992D01*
X56663553Y-66816368D01*
X56700500Y-66583097D01*
X56700500Y-66346902D01*
X56663553Y-66113631D01*
X56596631Y-65907669D01*
X56590568Y-65889008D01*
X56590566Y-65889005D01*
X56590566Y-65889003D01*
X56499358Y-65709999D01*
X56483343Y-65678567D01*
X56344517Y-65487490D01*
X56177510Y-65320483D01*
X56142872Y-65295317D01*
X56100207Y-65239989D01*
X56094228Y-65170375D01*
X56126833Y-65108580D01*
X56142873Y-65094682D01*
X56177510Y-65069517D01*
X56344517Y-64902510D01*
X56483343Y-64711433D01*
X56590568Y-64500992D01*
X56663553Y-64276368D01*
X56700500Y-64043097D01*
X56700500Y-63806902D01*
X56675868Y-63651390D01*
X56663553Y-63573632D01*
X56622547Y-63447433D01*
X56620553Y-63377593D01*
X56652796Y-63321437D01*
X62581520Y-57392716D01*
X62660577Y-57255785D01*
X62701501Y-57103057D01*
X62701501Y-56944942D01*
X62701501Y-56937347D01*
X62701500Y-56937329D01*
X62701500Y-56199096D01*
X62721185Y-56132057D01*
X62737815Y-56111419D01*
X63358506Y-55490727D01*
X63358511Y-55490724D01*
X63368714Y-55480520D01*
X63368716Y-55480520D01*
X63480520Y-55368716D01*
X63504323Y-55327488D01*
X63540102Y-55265517D01*
X63540105Y-55265508D01*
X63540111Y-55265500D01*
X63559577Y-55231785D01*
X63600501Y-55079057D01*
X63600501Y-54920943D01*
X63600501Y-54913348D01*
X63600500Y-54913330D01*
X63600500Y-35095942D01*
X63598774Y-35089501D01*
X63598774Y-35089500D01*
X63589535Y-35055021D01*
X63589534Y-35055019D01*
X63559577Y-34943216D01*
X63556055Y-34937116D01*
X63480524Y-34806290D01*
X63480521Y-34806286D01*
X63480520Y-34806284D01*
X63368716Y-34694480D01*
X63368715Y-34694479D01*
X63364385Y-34690149D01*
X63364374Y-34690139D01*
X62900090Y-34225855D01*
X62900088Y-34225852D01*
X62781217Y-34106981D01*
X62781216Y-34106980D01*
X62694404Y-34056860D01*
X62694404Y-34056859D01*
X62694400Y-34056858D01*
X62644285Y-34027923D01*
X62491557Y-33986999D01*
X62333443Y-33986999D01*
X62325847Y-33986999D01*
X62325831Y-33987000D01*
X61957611Y-33987000D01*
X61890572Y-33967315D01*
X61852072Y-33928096D01*
X61820340Y-33876650D01*
X61698351Y-33754661D01*
X61698350Y-33754660D01*
X61551516Y-33664092D01*
X61387753Y-33609826D01*
X61387751Y-33609825D01*
X61286678Y-33599500D01*
X60713330Y-33599500D01*
X60713312Y-33599501D01*
X60611267Y-33609926D01*
X60542574Y-33597156D01*
X60510985Y-33574249D01*
X60011818Y-33075082D01*
X59978333Y-33013759D01*
X59975499Y-32987401D01*
X59975499Y-32613330D01*
X59975498Y-32613313D01*
X59965174Y-32512247D01*
X59910908Y-32348484D01*
X59820340Y-32201650D01*
X59706371Y-32087681D01*
X59672886Y-32026358D01*
X59677870Y-31956666D01*
X59706371Y-31912319D01*
X59730332Y-31888358D01*
X59820340Y-31798350D01*
X59910908Y-31651516D01*
X59965174Y-31487753D01*
X59975500Y-31386677D01*
X59975499Y-30788324D01*
X59965174Y-30687247D01*
X59910908Y-30523484D01*
X59820340Y-30376650D01*
X59698350Y-30254660D01*
X59551516Y-30164092D01*
X59387753Y-30109826D01*
X59387751Y-30109825D01*
X59286678Y-30099500D01*
X58713330Y-30099500D01*
X58713312Y-30099501D01*
X58612247Y-30109825D01*
X58448484Y-30164092D01*
X58448481Y-30164093D01*
X58301648Y-30254661D01*
X58179661Y-30376648D01*
X58179660Y-30376650D01*
X58178766Y-30378098D01*
X58177895Y-30378882D01*
X58175179Y-30382317D01*
X58174592Y-30381852D01*
X58126820Y-30424821D01*
X58073229Y-30437000D01*
X52408308Y-30437000D01*
X52341269Y-30417315D01*
X52320627Y-30400681D01*
X50486819Y-28566873D01*
X50453334Y-28505550D01*
X50450500Y-28479192D01*
X50450500Y-27910258D01*
X52979500Y-27910258D01*
X52979500Y-28139741D01*
X53004446Y-28329215D01*
X53009452Y-28367238D01*
X53009453Y-28367240D01*
X53068842Y-28588887D01*
X53156650Y-28800876D01*
X53156657Y-28800890D01*
X53271392Y-28999617D01*
X53411081Y-29181661D01*
X53411089Y-29181670D01*
X53573330Y-29343911D01*
X53573338Y-29343918D01*
X53755382Y-29483607D01*
X53755385Y-29483608D01*
X53755388Y-29483611D01*
X53954112Y-29598344D01*
X53954117Y-29598346D01*
X53954123Y-29598349D01*
X54045480Y-29636190D01*
X54166113Y-29686158D01*
X54387762Y-29745548D01*
X54615266Y-29775500D01*
X54615273Y-29775500D01*
X54844727Y-29775500D01*
X54844734Y-29775500D01*
X55072238Y-29745548D01*
X55293887Y-29686158D01*
X55505888Y-29598344D01*
X55704612Y-29483611D01*
X55886661Y-29343919D01*
X55886665Y-29343914D01*
X55886670Y-29343911D01*
X56048911Y-29181670D01*
X56048914Y-29181665D01*
X56048919Y-29181661D01*
X56188611Y-28999612D01*
X56303344Y-28800888D01*
X56391158Y-28588887D01*
X56450548Y-28367238D01*
X56480500Y-28139734D01*
X56480500Y-27910266D01*
X56450548Y-27682762D01*
X56391158Y-27461113D01*
X56303344Y-27249112D01*
X56188611Y-27050388D01*
X56188608Y-27050385D01*
X56188607Y-27050382D01*
X56048918Y-26868338D01*
X56048911Y-26868330D01*
X55886670Y-26706089D01*
X55886661Y-26706081D01*
X55704617Y-26566392D01*
X55505890Y-26451657D01*
X55505876Y-26451650D01*
X55293887Y-26363842D01*
X55072238Y-26304452D01*
X55034215Y-26299446D01*
X54844741Y-26274500D01*
X54844734Y-26274500D01*
X54615266Y-26274500D01*
X54615258Y-26274500D01*
X54398715Y-26303009D01*
X54387762Y-26304452D01*
X54294076Y-26329554D01*
X54166112Y-26363842D01*
X53954123Y-26451650D01*
X53954109Y-26451657D01*
X53755382Y-26566392D01*
X53573338Y-26706081D01*
X53411081Y-26868338D01*
X53271392Y-27050382D01*
X53156657Y-27249109D01*
X53156650Y-27249123D01*
X53068842Y-27461112D01*
X53009453Y-27682759D01*
X53009451Y-27682770D01*
X52979500Y-27910258D01*
X50450500Y-27910258D01*
X50450500Y-22318209D01*
X59799500Y-22318209D01*
X59799500Y-22681790D01*
X59835137Y-23043630D01*
X59906064Y-23400212D01*
X59906067Y-23400223D01*
X60011614Y-23748165D01*
X60150754Y-24084078D01*
X60150756Y-24084083D01*
X60322140Y-24404720D01*
X60322151Y-24404738D01*
X60524140Y-24707035D01*
X60524150Y-24707049D01*
X60754807Y-24988106D01*
X61011893Y-25245192D01*
X61011898Y-25245196D01*
X61011899Y-25245197D01*
X61292956Y-25475854D01*
X61595268Y-25677853D01*
X61595277Y-25677858D01*
X61595279Y-25677859D01*
X61915916Y-25849243D01*
X61915918Y-25849243D01*
X61915924Y-25849247D01*
X62251836Y-25988386D01*
X62599767Y-26093930D01*
X62599773Y-26093931D01*
X62599776Y-26093932D01*
X62599787Y-26093935D01*
X62956369Y-26164862D01*
X63318206Y-26200500D01*
X63318209Y-26200500D01*
X63681791Y-26200500D01*
X63681794Y-26200500D01*
X64043631Y-26164862D01*
X64113045Y-26151054D01*
X64400212Y-26093935D01*
X64400223Y-26093932D01*
X64400223Y-26093931D01*
X64400233Y-26093930D01*
X64748164Y-25988386D01*
X65084076Y-25849247D01*
X65404732Y-25677853D01*
X65707044Y-25475854D01*
X65988101Y-25245197D01*
X66245197Y-24988101D01*
X66475854Y-24707044D01*
X66677853Y-24404732D01*
X66849247Y-24084076D01*
X66988386Y-23748164D01*
X67093930Y-23400233D01*
X67093932Y-23400223D01*
X67093935Y-23400212D01*
X67164862Y-23043630D01*
X67200500Y-22681790D01*
X67200500Y-22318209D01*
X67185083Y-22161681D01*
X67164862Y-21956369D01*
X67144014Y-21851557D01*
X67093935Y-21599787D01*
X67093932Y-21599776D01*
X67093931Y-21599773D01*
X67093930Y-21599767D01*
X66988386Y-21251836D01*
X66849247Y-20915924D01*
X66774871Y-20776777D01*
X66677859Y-20595279D01*
X66677858Y-20595277D01*
X66677853Y-20595268D01*
X66475854Y-20292956D01*
X66245197Y-20011899D01*
X66245196Y-20011898D01*
X66245192Y-20011893D01*
X65988106Y-19754807D01*
X65707049Y-19524150D01*
X65707048Y-19524149D01*
X65707044Y-19524146D01*
X65404732Y-19322147D01*
X65404727Y-19322144D01*
X65404720Y-19322140D01*
X65084083Y-19150756D01*
X65084078Y-19150754D01*
X64748165Y-19011614D01*
X64400223Y-18906067D01*
X64400212Y-18906064D01*
X64043630Y-18835137D01*
X63771111Y-18808296D01*
X63681794Y-18799500D01*
X63318206Y-18799500D01*
X63235679Y-18807628D01*
X62956369Y-18835137D01*
X62599787Y-18906064D01*
X62599776Y-18906067D01*
X62251834Y-19011614D01*
X61915921Y-19150754D01*
X61915916Y-19150756D01*
X61595279Y-19322140D01*
X61595261Y-19322151D01*
X61292964Y-19524140D01*
X61292950Y-19524150D01*
X61011893Y-19754807D01*
X60754807Y-20011893D01*
X60524150Y-20292950D01*
X60524140Y-20292964D01*
X60322151Y-20595261D01*
X60322140Y-20595279D01*
X60150756Y-20915916D01*
X60150754Y-20915921D01*
X60011614Y-21251834D01*
X59906067Y-21599776D01*
X59906064Y-21599787D01*
X59835137Y-21956369D01*
X59799500Y-22318209D01*
X50450500Y-22318209D01*
X50450500Y-21859617D01*
X50470185Y-21792578D01*
X50504592Y-21758902D01*
X50503874Y-21757914D01*
X50507811Y-21755053D01*
X50507816Y-21755051D01*
X50679792Y-21630104D01*
X50830104Y-21479792D01*
X50830106Y-21479788D01*
X50830109Y-21479786D01*
X50955048Y-21307820D01*
X50955050Y-21307817D01*
X50955051Y-21307816D01*
X51051557Y-21118412D01*
X51117246Y-20916243D01*
X51150500Y-20706287D01*
X51150500Y-20493713D01*
X51117246Y-20283757D01*
X51051557Y-20081588D01*
X50955051Y-19892184D01*
X50955049Y-19892181D01*
X50955048Y-19892179D01*
X50830109Y-19720213D01*
X50679786Y-19569890D01*
X50507820Y-19444951D01*
X50318414Y-19348444D01*
X50318413Y-19348443D01*
X50318412Y-19348443D01*
X50116243Y-19282754D01*
X50116241Y-19282753D01*
X50116240Y-19282753D01*
X49954957Y-19257208D01*
X49906287Y-19249500D01*
X49693713Y-19249500D01*
X49645042Y-19257208D01*
X49483760Y-19282753D01*
X49281585Y-19348444D01*
X49092179Y-19444951D01*
X48920213Y-19569890D01*
X48769890Y-19720213D01*
X48644949Y-19892182D01*
X48640202Y-19901499D01*
X48592227Y-19952293D01*
X48524405Y-19969087D01*
X48458271Y-19946548D01*
X48419234Y-19901495D01*
X48414626Y-19892452D01*
X48375270Y-19838282D01*
X48375269Y-19838282D01*
X47742962Y-20470590D01*
X47725925Y-20407007D01*
X47660099Y-20292993D01*
X47567007Y-20199901D01*
X47452993Y-20134075D01*
X47389409Y-20117037D01*
X48021716Y-19484728D01*
X47967550Y-19445375D01*
X47778217Y-19348904D01*
X47576129Y-19283242D01*
X47366246Y-19250000D01*
X47153754Y-19250000D01*
X46943872Y-19283242D01*
X46943869Y-19283242D01*
X46741782Y-19348904D01*
X46552439Y-19445380D01*
X46498282Y-19484727D01*
X46498282Y-19484728D01*
X47130591Y-20117037D01*
X47067007Y-20134075D01*
X46952993Y-20199901D01*
X46859901Y-20292993D01*
X46794075Y-20407007D01*
X46777037Y-20470591D01*
X46144728Y-19838282D01*
X46144727Y-19838282D01*
X46105380Y-19892440D01*
X46105376Y-19892446D01*
X46100760Y-19901505D01*
X46052781Y-19952297D01*
X45984959Y-19969087D01*
X45918826Y-19946543D01*
X45879794Y-19901493D01*
X45875051Y-19892184D01*
X45875049Y-19892181D01*
X45875048Y-19892179D01*
X45750109Y-19720213D01*
X45599786Y-19569890D01*
X45427820Y-19444951D01*
X45238414Y-19348444D01*
X45238413Y-19348443D01*
X45238412Y-19348443D01*
X45036243Y-19282754D01*
X45036241Y-19282753D01*
X45036240Y-19282753D01*
X44874957Y-19257208D01*
X44826287Y-19249500D01*
X44613713Y-19249500D01*
X44565042Y-19257208D01*
X44403760Y-19282753D01*
X44201585Y-19348444D01*
X44012179Y-19444951D01*
X43840213Y-19569890D01*
X43689890Y-19720213D01*
X43564949Y-19892182D01*
X43560484Y-19900946D01*
X43512509Y-19951742D01*
X43444688Y-19968536D01*
X43378553Y-19945998D01*
X43339516Y-19900946D01*
X43335050Y-19892182D01*
X43210109Y-19720213D01*
X43059786Y-19569890D01*
X42887820Y-19444951D01*
X42698414Y-19348444D01*
X42698413Y-19348443D01*
X42698412Y-19348443D01*
X42496243Y-19282754D01*
X42496241Y-19282753D01*
X42496240Y-19282753D01*
X42334957Y-19257208D01*
X42286287Y-19249500D01*
X42073713Y-19249500D01*
X42025042Y-19257208D01*
X41863760Y-19282753D01*
X41661585Y-19348444D01*
X41472179Y-19444951D01*
X41300213Y-19569890D01*
X41149890Y-19720213D01*
X41024949Y-19892182D01*
X41020484Y-19900946D01*
X40972509Y-19951742D01*
X40904688Y-19968536D01*
X40838553Y-19945998D01*
X40799516Y-19900946D01*
X40795050Y-19892182D01*
X40670109Y-19720213D01*
X40519786Y-19569890D01*
X40347820Y-19444951D01*
X40158414Y-19348444D01*
X40158413Y-19348443D01*
X40158412Y-19348443D01*
X39956243Y-19282754D01*
X39956241Y-19282753D01*
X39956240Y-19282753D01*
X39794957Y-19257208D01*
X39746287Y-19249500D01*
X39533713Y-19249500D01*
X39485042Y-19257208D01*
X39323760Y-19282753D01*
X39121585Y-19348444D01*
X38932179Y-19444951D01*
X38760213Y-19569890D01*
X38609890Y-19720213D01*
X38484949Y-19892182D01*
X38480484Y-19900946D01*
X38432509Y-19951742D01*
X38364688Y-19968536D01*
X38298553Y-19945998D01*
X38259516Y-19900946D01*
X38255050Y-19892182D01*
X38130109Y-19720213D01*
X37979786Y-19569890D01*
X37807820Y-19444951D01*
X37618414Y-19348444D01*
X37618413Y-19348443D01*
X37618412Y-19348443D01*
X37416243Y-19282754D01*
X37416241Y-19282753D01*
X37416240Y-19282753D01*
X37254957Y-19257208D01*
X37206287Y-19249500D01*
X36993713Y-19249500D01*
X36945042Y-19257208D01*
X36783760Y-19282753D01*
X36581585Y-19348444D01*
X36392179Y-19444951D01*
X36220215Y-19569889D01*
X36106673Y-19683431D01*
X36045350Y-19716915D01*
X35975658Y-19711931D01*
X35919725Y-19670059D01*
X35902810Y-19639082D01*
X35853797Y-19507671D01*
X35853793Y-19507664D01*
X35767547Y-19392455D01*
X35767544Y-19392452D01*
X35652335Y-19306206D01*
X35652328Y-19306202D01*
X35517482Y-19255908D01*
X35517483Y-19255908D01*
X35457883Y-19249501D01*
X35457881Y-19249500D01*
X35457873Y-19249500D01*
X35457864Y-19249500D01*
X33662129Y-19249500D01*
X33662123Y-19249501D01*
X33602516Y-19255908D01*
X33467671Y-19306202D01*
X33467664Y-19306206D01*
X33352455Y-19392452D01*
X33352452Y-19392455D01*
X33266206Y-19507664D01*
X33266202Y-19507671D01*
X33215908Y-19642517D01*
X33209501Y-19702116D01*
X33209500Y-19702135D01*
X33209500Y-21497870D01*
X33209501Y-21497876D01*
X33215908Y-21557483D01*
X33266202Y-21692328D01*
X33266206Y-21692335D01*
X33352452Y-21807544D01*
X33352455Y-21807547D01*
X33467664Y-21893793D01*
X33467671Y-21893797D01*
X33602517Y-21944091D01*
X33602516Y-21944091D01*
X33609444Y-21944835D01*
X33662127Y-21950500D01*
X35457872Y-21950499D01*
X35517483Y-21944091D01*
X35652331Y-21893796D01*
X35767546Y-21807546D01*
X35853796Y-21692331D01*
X35902810Y-21560916D01*
X35944681Y-21504984D01*
X36010145Y-21480566D01*
X36078418Y-21495417D01*
X36106673Y-21516569D01*
X36220213Y-21630109D01*
X36392179Y-21755048D01*
X36392181Y-21755049D01*
X36392184Y-21755051D01*
X36581588Y-21851557D01*
X36783757Y-21917246D01*
X36993713Y-21950500D01*
X36993714Y-21950500D01*
X37206286Y-21950500D01*
X37206287Y-21950500D01*
X37416243Y-21917246D01*
X37618412Y-21851557D01*
X37807816Y-21755051D01*
X37894138Y-21692335D01*
X37979786Y-21630109D01*
X37979788Y-21630106D01*
X37979792Y-21630104D01*
X38130104Y-21479792D01*
X38130106Y-21479788D01*
X38130109Y-21479786D01*
X38255048Y-21307820D01*
X38255050Y-21307817D01*
X38255051Y-21307816D01*
X38259514Y-21299054D01*
X38307488Y-21248259D01*
X38375308Y-21231463D01*
X38441444Y-21253999D01*
X38480486Y-21299056D01*
X38484951Y-21307820D01*
X38609890Y-21479786D01*
X38609896Y-21479792D01*
X38760208Y-21630104D01*
X38932184Y-21755051D01*
X38932188Y-21755053D01*
X38936126Y-21757914D01*
X38935146Y-21759262D01*
X38977160Y-21805690D01*
X38989500Y-21859617D01*
X38989500Y-30649069D01*
X38989500Y-30649071D01*
X38989499Y-30649071D01*
X39014497Y-30774738D01*
X39014499Y-30774744D01*
X39063534Y-30893125D01*
X39134726Y-30999673D01*
X39134727Y-30999674D01*
X53729859Y-45594805D01*
X53763344Y-45656128D01*
X53760109Y-45720803D01*
X53736447Y-45793628D01*
X53699500Y-46026902D01*
X53699500Y-46263097D01*
X53736446Y-46496368D01*
X53809433Y-46720996D01*
X53859851Y-46819945D01*
X53916657Y-46931433D01*
X54055483Y-47122510D01*
X54222490Y-47289517D01*
X54257127Y-47314683D01*
X54299792Y-47370013D01*
X54305771Y-47439626D01*
X54273165Y-47501421D01*
X54257130Y-47515315D01*
X54239365Y-47528222D01*
X54222488Y-47540484D01*
X54055485Y-47707487D01*
X54055485Y-47707488D01*
X54055483Y-47707490D01*
X53995862Y-47789550D01*
X53916657Y-47898566D01*
X53809433Y-48109003D01*
X53736446Y-48333631D01*
X53699500Y-48566902D01*
X53699500Y-48803097D01*
X53736446Y-49036368D01*
X53809433Y-49260996D01*
X53916657Y-49471433D01*
X54055483Y-49662510D01*
X54222490Y-49829517D01*
X54257127Y-49854683D01*
X54299792Y-49910013D01*
X54305771Y-49979626D01*
X54273165Y-50041421D01*
X54257130Y-50055315D01*
X54239365Y-50068222D01*
X54222488Y-50080484D01*
X54055485Y-50247487D01*
X54055485Y-50247488D01*
X54055483Y-50247490D01*
X53995862Y-50329550D01*
X53916657Y-50438566D01*
X53809433Y-50649003D01*
X53736446Y-50873631D01*
X53699500Y-51106902D01*
X53699500Y-51343097D01*
X53736447Y-51576369D01*
X53736447Y-51576372D01*
X53777450Y-51702564D01*
X53779445Y-51772405D01*
X53747200Y-51828563D01*
X51832764Y-53742999D01*
X51832749Y-53743014D01*
X51831286Y-53744478D01*
X51831284Y-53744480D01*
X51719480Y-53856284D01*
X51714722Y-53864526D01*
X51640423Y-53993215D01*
X51599499Y-54145943D01*
X51599499Y-54145945D01*
X51599499Y-54314046D01*
X51599500Y-54314059D01*
X51599500Y-56635903D01*
X51579815Y-56702942D01*
X51527011Y-56748697D01*
X51457853Y-56758641D01*
X51394297Y-56729616D01*
X51387819Y-56723584D01*
X31336818Y-36672583D01*
X31303333Y-36611260D01*
X31300499Y-36584902D01*
X31300499Y-34937129D01*
X31300498Y-34937123D01*
X31300497Y-34937116D01*
X31294091Y-34877517D01*
X31280278Y-34840483D01*
X31243797Y-34742671D01*
X31243793Y-34742664D01*
X31157547Y-34627455D01*
X31157544Y-34627452D01*
X31042335Y-34541206D01*
X31042328Y-34541202D01*
X30907482Y-34490908D01*
X30907483Y-34490908D01*
X30847883Y-34484501D01*
X30847881Y-34484500D01*
X30847873Y-34484500D01*
X30847864Y-34484500D01*
X28752129Y-34484500D01*
X28752123Y-34484501D01*
X28692516Y-34490908D01*
X28557671Y-34541202D01*
X28557664Y-34541206D01*
X28442455Y-34627452D01*
X28442452Y-34627455D01*
X28356206Y-34742664D01*
X28356202Y-34742671D01*
X28305908Y-34877517D01*
X28299501Y-34937116D01*
X28299501Y-34937123D01*
X28299500Y-34937135D01*
X28299500Y-37032870D01*
X28299501Y-37032876D01*
X28305908Y-37092483D01*
X28356202Y-37227328D01*
X28356206Y-37227335D01*
X28442452Y-37342544D01*
X28442455Y-37342547D01*
X28557664Y-37428793D01*
X28565454Y-37433047D01*
X28563725Y-37436211D01*
X28605915Y-37467734D01*
X28630393Y-37533175D01*
X28615604Y-37601462D01*
X28607036Y-37615021D01*
X28517084Y-37738829D01*
X28409897Y-37949197D01*
X28336934Y-38173752D01*
X28300000Y-38406947D01*
X28300000Y-38643052D01*
X28336934Y-38876247D01*
X28409897Y-39100802D01*
X28517087Y-39311174D01*
X28577338Y-39394104D01*
X28577340Y-39394105D01*
X29308871Y-38662574D01*
X29324755Y-38721853D01*
X29391898Y-38838147D01*
X29486853Y-38933102D01*
X29603147Y-39000245D01*
X29662425Y-39016128D01*
X28930893Y-39747658D01*
X28932448Y-39767405D01*
X28918084Y-39835783D01*
X28881717Y-39877451D01*
X28822490Y-39920482D01*
X28655485Y-40087487D01*
X28655485Y-40087488D01*
X28655483Y-40087490D01*
X28595862Y-40169550D01*
X28516657Y-40278566D01*
X28456417Y-40396795D01*
X28408442Y-40447591D01*
X28345932Y-40464500D01*
X24640813Y-40464500D01*
X24573774Y-40444815D01*
X24535275Y-40405598D01*
X24532840Y-40401650D01*
X24410850Y-40279660D01*
X24264016Y-40189092D01*
X24100253Y-40134826D01*
X24100251Y-40134825D01*
X23999178Y-40124500D01*
X23400830Y-40124500D01*
X23400812Y-40124501D01*
X23299747Y-40134825D01*
X23135984Y-40189092D01*
X23135981Y-40189093D01*
X22989148Y-40279661D01*
X22875181Y-40393629D01*
X22813858Y-40427114D01*
X22744166Y-40422130D01*
X22699819Y-40393629D01*
X22585851Y-40279661D01*
X22585850Y-40279660D01*
X22439016Y-40189092D01*
X22275253Y-40134826D01*
X22275251Y-40134825D01*
X22174178Y-40124500D01*
X21575830Y-40124500D01*
X21575812Y-40124501D01*
X21474747Y-40134825D01*
X21310984Y-40189092D01*
X21310981Y-40189093D01*
X21164148Y-40279661D01*
X21042161Y-40401648D01*
X20951593Y-40548481D01*
X20951591Y-40548486D01*
X20924219Y-40631088D01*
X20897326Y-40712247D01*
X20897326Y-40712248D01*
X20897325Y-40712248D01*
X20887000Y-40813315D01*
X16800500Y-40813315D01*
X16800500Y-27910258D01*
X28469500Y-27910258D01*
X28469500Y-28139741D01*
X28494446Y-28329215D01*
X28499452Y-28367238D01*
X28499453Y-28367240D01*
X28558842Y-28588887D01*
X28646650Y-28800876D01*
X28646657Y-28800890D01*
X28761392Y-28999617D01*
X28901081Y-29181661D01*
X28901089Y-29181670D01*
X29063330Y-29343911D01*
X29063338Y-29343918D01*
X29245382Y-29483607D01*
X29245385Y-29483608D01*
X29245388Y-29483611D01*
X29444112Y-29598344D01*
X29444117Y-29598346D01*
X29444123Y-29598349D01*
X29535480Y-29636190D01*
X29656113Y-29686158D01*
X29877762Y-29745548D01*
X30105266Y-29775500D01*
X30105273Y-29775500D01*
X30334727Y-29775500D01*
X30334734Y-29775500D01*
X30562238Y-29745548D01*
X30783887Y-29686158D01*
X30995888Y-29598344D01*
X31194612Y-29483611D01*
X31376661Y-29343919D01*
X31376665Y-29343914D01*
X31376670Y-29343911D01*
X31538911Y-29181670D01*
X31538914Y-29181665D01*
X31538919Y-29181661D01*
X31678611Y-28999612D01*
X31793344Y-28800888D01*
X31881158Y-28588887D01*
X31940548Y-28367238D01*
X31970500Y-28139734D01*
X31970500Y-27910266D01*
X31940548Y-27682762D01*
X31881158Y-27461113D01*
X31793344Y-27249112D01*
X31678611Y-27050388D01*
X31678608Y-27050385D01*
X31678607Y-27050382D01*
X31538918Y-26868338D01*
X31538911Y-26868330D01*
X31376670Y-26706089D01*
X31376661Y-26706081D01*
X31194617Y-26566392D01*
X30995890Y-26451657D01*
X30995876Y-26451650D01*
X30783887Y-26363842D01*
X30562238Y-26304452D01*
X30524215Y-26299446D01*
X30334741Y-26274500D01*
X30334734Y-26274500D01*
X30105266Y-26274500D01*
X30105258Y-26274500D01*
X29888715Y-26303009D01*
X29877762Y-26304452D01*
X29784076Y-26329554D01*
X29656112Y-26363842D01*
X29444123Y-26451650D01*
X29444109Y-26451657D01*
X29245382Y-26566392D01*
X29063338Y-26706081D01*
X28901081Y-26868338D01*
X28761392Y-27050382D01*
X28646657Y-27249109D01*
X28646650Y-27249123D01*
X28558842Y-27461112D01*
X28499453Y-27682759D01*
X28499451Y-27682770D01*
X28469500Y-27910258D01*
X16800500Y-27910258D01*
X16800500Y-22318209D01*
X18299500Y-22318209D01*
X18299500Y-22681790D01*
X18335137Y-23043630D01*
X18406064Y-23400212D01*
X18406067Y-23400223D01*
X18511614Y-23748165D01*
X18650754Y-24084078D01*
X18650756Y-24084083D01*
X18822140Y-24404720D01*
X18822151Y-24404738D01*
X19024140Y-24707035D01*
X19024150Y-24707049D01*
X19254807Y-24988106D01*
X19511893Y-25245192D01*
X19511898Y-25245196D01*
X19511899Y-25245197D01*
X19792956Y-25475854D01*
X20095268Y-25677853D01*
X20095277Y-25677858D01*
X20095279Y-25677859D01*
X20415916Y-25849243D01*
X20415918Y-25849243D01*
X20415924Y-25849247D01*
X20751836Y-25988386D01*
X21099767Y-26093930D01*
X21099773Y-26093931D01*
X21099776Y-26093932D01*
X21099787Y-26093935D01*
X21456369Y-26164862D01*
X21818206Y-26200500D01*
X21818209Y-26200500D01*
X22181791Y-26200500D01*
X22181794Y-26200500D01*
X22543631Y-26164862D01*
X22613045Y-26151054D01*
X22900212Y-26093935D01*
X22900223Y-26093932D01*
X22900223Y-26093931D01*
X22900233Y-26093930D01*
X23248164Y-25988386D01*
X23584076Y-25849247D01*
X23904732Y-25677853D01*
X24207044Y-25475854D01*
X24488101Y-25245197D01*
X24745197Y-24988101D01*
X24975854Y-24707044D01*
X25177853Y-24404732D01*
X25349247Y-24084076D01*
X25488386Y-23748164D01*
X25593930Y-23400233D01*
X25593932Y-23400223D01*
X25593935Y-23400212D01*
X25664862Y-23043630D01*
X25700500Y-22681790D01*
X25700500Y-22318209D01*
X25685083Y-22161681D01*
X25664862Y-21956369D01*
X25644014Y-21851557D01*
X25593935Y-21599787D01*
X25593932Y-21599776D01*
X25593931Y-21599773D01*
X25593930Y-21599767D01*
X25488386Y-21251836D01*
X25349247Y-20915924D01*
X25274871Y-20776777D01*
X25177859Y-20595279D01*
X25177858Y-20595277D01*
X25177853Y-20595268D01*
X24975854Y-20292956D01*
X24745197Y-20011899D01*
X24745196Y-20011898D01*
X24745192Y-20011893D01*
X24488106Y-19754807D01*
X24207049Y-19524150D01*
X24207048Y-19524149D01*
X24207044Y-19524146D01*
X23904732Y-19322147D01*
X23904727Y-19322144D01*
X23904720Y-19322140D01*
X23584083Y-19150756D01*
X23584078Y-19150754D01*
X23248165Y-19011614D01*
X22900223Y-18906067D01*
X22900212Y-18906064D01*
X22543630Y-18835137D01*
X22271111Y-18808296D01*
X22181794Y-18799500D01*
X21818206Y-18799500D01*
X21735679Y-18807628D01*
X21456369Y-18835137D01*
X21099787Y-18906064D01*
X21099776Y-18906067D01*
X20751834Y-19011614D01*
X20415921Y-19150754D01*
X20415916Y-19150756D01*
X20095279Y-19322140D01*
X20095261Y-19322151D01*
X19792964Y-19524140D01*
X19792950Y-19524150D01*
X19511893Y-19754807D01*
X19254807Y-20011893D01*
X19024150Y-20292950D01*
X19024140Y-20292964D01*
X18822151Y-20595261D01*
X18822140Y-20595279D01*
X18650756Y-20915916D01*
X18650754Y-20915921D01*
X18511614Y-21251834D01*
X18406067Y-21599776D01*
X18406064Y-21599787D01*
X18335137Y-21956369D01*
X18299500Y-22318209D01*
X16800500Y-22318209D01*
X16800500Y-17624500D01*
X16820185Y-17557461D01*
X16872989Y-17511706D01*
X16924500Y-17500500D01*
X68775500Y-17500500D01*
X68842539Y-17520185D01*
G37*
%TD.AperFunction*%
%TD*%
M02*
