M48
; DRILL file {KiCad 9.0.5} date 2026-02-25T00:46:51+0100
; FORMAT={-:-/ absolute / metric / decimal}
; #@! TF.CreationDate,2026-02-25T00:46:51+01:00
; #@! TF.GenerationSoftware,Kicad,Pcbnew,9.0.5
; #@! TF.FileFunction,Plated,1,2,PTH
FMAT,2
METRIC
; #@! TA.AperFunction,Plated,PTH,ViaDrill
T1C0.300
; #@! TA.AperFunction,Plated,PTH,ComponentDrill
T2C0.740
; #@! TA.AperFunction,Plated,PTH,ComponentDrill
T3C1.000
; #@! TA.AperFunction,Plated,PTH,ComponentDrill
T4C1.020
; #@! TA.AperFunction,Plated,PTH,ComponentDrill
T5C3.200
%
G90
G05
T1
X20.0Y-46.8
X20.0Y-66.8
X20.0Y-76.8
X20.0Y-86.8
X20.0Y-95.0
X20.0Y-96.8
X24.397Y-63.25
X25.572Y-76.15
X25.872Y-82.35
X28.95Y-107.05
X34.972Y-105.05
X35.273Y-26.85
X35.523Y-33.6
X36.722Y-30.85
X37.072Y-33.6
X37.472Y-68.05
X37.872Y-26.2
X37.972Y-50.05
X37.972Y-78.55
X46.273Y-50.0
X46.972Y-78.55
X48.972Y-61.05
X59.472Y-98.25
X59.972Y-70.05
X60.472Y-53.55
X61.1Y-95.5
X65.0Y-46.8
X65.0Y-66.8
X65.0Y-76.8
X65.0Y-86.8
X65.0Y-95.0
X65.0Y-96.8
X65.5Y-56.3
T2
X33.252Y-29.23
X33.252Y-37.17
X35.792Y-29.23
X35.792Y-37.17
X38.332Y-29.23
X38.332Y-37.17
X40.872Y-29.23
X40.872Y-37.17
X43.413Y-29.23
X43.413Y-37.17
X45.953Y-29.23
X45.953Y-37.17
X48.492Y-29.23
X48.492Y-37.17
T3
X31.08Y-96.9
X33.62Y-96.9
X36.16Y-96.9
X38.7Y-96.9
X41.24Y-96.9
X43.78Y-96.9
X46.32Y-96.9
X48.86Y-96.9
X51.4Y-96.9
X53.94Y-96.9
X61.572Y-82.05
X61.572Y-84.59
X61.572Y-87.13
X61.572Y-89.67
X61.572Y-92.21
T4
X29.772Y-51.035
X29.772Y-53.575
X29.772Y-56.115
X29.772Y-58.655
X29.772Y-61.195
X29.772Y-63.735
X29.772Y-66.275
X29.772Y-68.815
X29.772Y-71.355
X29.772Y-73.895
X29.772Y-76.435
X29.772Y-78.975
X29.772Y-81.515
X29.772Y-84.055
X29.772Y-86.595
X55.172Y-51.035
X55.172Y-53.575
X55.172Y-56.115
X55.172Y-58.655
X55.172Y-61.195
X55.172Y-63.735
X55.172Y-66.275
X55.172Y-68.815
X55.172Y-71.355
X55.172Y-73.895
X55.172Y-76.435
X55.172Y-78.975
X55.172Y-81.515
X55.172Y-84.055
X55.172Y-86.595
T5
X22.0Y-22.5
X22.0Y-104.5
X63.5Y-22.5
X63.5Y-104.5
M30
