%TF.GenerationSoftware,KiCad,Pcbnew,9.0.5*%
%TF.CreationDate,2026-02-25T00:45:25+01:00*%
%TF.ProjectId,DronePCB,44726f6e-6550-4434-922e-6b696361645f,rev?*%
%TF.SameCoordinates,Original*%
%TF.FileFunction,Soldermask,Bot*%
%TF.FilePolarity,Negative*%
%FSLAX46Y46*%
G04 Gerber Fmt 4.6, Leading zero omitted, Abs format (unit mm)*
G04 Created by KiCad (PCBNEW 9.0.5) date 2026-02-25 00:45:25*
%MOMM*%
%LPD*%
G01*
G04 APERTURE LIST*
G04 Aperture macros list*
%AMRoundRect*
0 Rectangle with rounded corners*
0 $1 Rounding radius*
0 $2 $3 $4 $5 $6 $7 $8 $9 X,Y pos of 4 corners*
0 Add a 4 corners polygon primitive as box body*
4,1,4,$2,$3,$4,$5,$6,$7,$8,$9,$2,$3,0*
0 Add four circle primitives for the rounded corners*
1,1,$1+$1,$2,$3*
1,1,$1+$1,$4,$5*
1,1,$1+$1,$6,$7*
1,1,$1+$1,$8,$9*
0 Add four rect primitives between the rounded corners*
20,1,$1+$1,$2,$3,$4,$5,0*
20,1,$1+$1,$4,$5,$6,$7,0*
20,1,$1+$1,$6,$7,$8,$9,0*
20,1,$1+$1,$8,$9,$2,$3,0*%
G04 Aperture macros list end*
%ADD10C,1.700000*%
%ADD11R,1.700000X1.700000*%
%ADD12C,1.344000*%
%ADD13RoundRect,0.102000X0.570000X-0.570000X0.570000X0.570000X-0.570000X0.570000X-0.570000X-0.570000X0*%
%ADD14C,3.000000*%
%ADD15RoundRect,0.102000X-1.000000X-1.000000X1.000000X-1.000000X1.000000X1.000000X-1.000000X1.000000X0*%
%ADD16C,2.204000*%
%ADD17C,6.400000*%
G04 APERTURE END LIST*
D10*
%TO.C,MPU9265*%
X31080000Y-96900000D03*
X33620000Y-96900000D03*
X36160000Y-96900000D03*
X38700000Y-96900000D03*
X41240000Y-96900000D03*
X43780000Y-96900000D03*
X46320000Y-96900000D03*
X48860000Y-96900000D03*
X51400000Y-96900000D03*
D11*
X53940000Y-96900000D03*
%TD*%
D12*
%TO.C,U2*%
X33252500Y-29230000D03*
X35792500Y-29230000D03*
X38332500Y-29230000D03*
X40872500Y-29230000D03*
X43412500Y-29230000D03*
X45952500Y-29230000D03*
X48492500Y-29230000D03*
X48492500Y-37170000D03*
X45952500Y-37170000D03*
X43412500Y-37170000D03*
X40872500Y-37170000D03*
X38332500Y-37170000D03*
X35792500Y-37170000D03*
D13*
X33252500Y-37170000D03*
%TD*%
D14*
%TO.C,U1*%
X30192500Y-43075000D03*
X30192500Y-90025000D03*
X54702500Y-43075000D03*
X54702500Y-90025000D03*
D15*
X29772500Y-51035000D03*
D16*
X29772500Y-53575000D03*
X29772500Y-56115000D03*
X29772500Y-58655000D03*
X29772500Y-61195000D03*
X29772500Y-63735000D03*
X29772500Y-66275000D03*
X29772500Y-68815000D03*
X29772500Y-71355000D03*
X29772500Y-73895000D03*
X29772500Y-76435000D03*
X29772500Y-78975000D03*
X29772500Y-81515000D03*
X29772500Y-84055000D03*
X29772500Y-86595000D03*
X55172500Y-86595000D03*
X55172500Y-84055000D03*
X55172500Y-81515000D03*
X55172500Y-78975000D03*
X55172500Y-76435000D03*
X55172500Y-73895000D03*
X55172500Y-71355000D03*
X55172500Y-68815000D03*
X55172500Y-66275000D03*
X55172500Y-63735000D03*
X55172500Y-61195000D03*
X55172500Y-58655000D03*
X55172500Y-56115000D03*
X55172500Y-53575000D03*
X55172500Y-51035000D03*
%TD*%
D11*
%TO.C,GY-271*%
X61572500Y-82050000D03*
D10*
X61572500Y-84590000D03*
X61572500Y-87130000D03*
X61572500Y-89670000D03*
X61572500Y-92210000D03*
%TD*%
D17*
%TO.C,H1*%
X22000000Y-104500000D03*
%TD*%
%TO.C,H2*%
X63500000Y-104500000D03*
%TD*%
%TO.C,H3*%
X22000000Y-22500000D03*
%TD*%
%TO.C,H4*%
X63500000Y-22500000D03*
%TD*%
M02*
