M48
; DRILL file {KiCad 9.0.5} date 2025-12-06T00:57:32+0100
; FORMAT={-:-/ absolute / metric / decimal}
; #@! TF.CreationDate,2025-12-06T00:57:32+01:00
; #@! TF.GenerationSoftware,Kicad,Pcbnew,9.0.5
; #@! TF.FileFunction,Plated,1,2,PTH
FMAT,2
METRIC
; #@! TA.AperFunction,Plated,PTH,ViaDrill
T1C0.300
; #@! TA.AperFunction,Plated,PTH,ComponentDrill
T2C1.000
; #@! TA.AperFunction,Plated,PTH,ComponentDrill
T3C1.020
; #@! TA.AperFunction,Plated,PTH,ComponentDrill
T4C3.200
%
G90
G05
T1
X20.0Y-35.0
X20.0Y-55.0
X20.0Y-65.0
X20.0Y-75.0
X20.0Y-85.0
X20.0Y-95.0
X25.0Y-45.0
X25.6Y-61.1
X25.9Y-67.3
X25.9Y-98.2
X29.2Y-107.2
X30.9Y-96.1
X32.2Y-105.1
X33.8Y-93.0
X35.0Y-90.0
X35.2Y-95.1
X37.5Y-53.0
X38.0Y-35.0
X38.0Y-63.5
X40.0Y-93.5
X47.0Y-63.5
X48.0Y-95.0
X49.0Y-46.0
X59.5Y-95.0
X60.0Y-55.0
X60.5Y-38.5
X60.9Y-82.7
X65.0Y-35.0
X65.0Y-55.0
X65.0Y-65.0
X65.0Y-75.0
X65.0Y-85.0
X65.0Y-95.0
X65.5Y-44.5
T2
X31.22Y-85.5
X33.76Y-85.5
X34.56Y-20.6
X36.3Y-85.5
X37.1Y-20.6
X38.84Y-85.5
X38.96Y-103.96
X38.96Y-106.5
X39.64Y-20.6
X41.38Y-85.5
X41.5Y-103.96
X41.5Y-106.5
X42.18Y-20.6
X43.92Y-85.5
X44.04Y-103.96
X44.04Y-106.5
X44.72Y-20.6
X46.46Y-85.5
X46.58Y-103.96
X46.58Y-106.5
X47.26Y-20.6
X49.0Y-85.5
X49.8Y-20.6
X51.54Y-85.5
X54.08Y-85.5
X61.6Y-67.0
X61.6Y-69.54
X61.6Y-72.08
X61.6Y-74.62
X61.6Y-77.16
T3
X29.8Y-35.985
X29.8Y-38.525
X29.8Y-41.065
X29.8Y-43.605
X29.8Y-46.145
X29.8Y-48.685
X29.8Y-51.225
X29.8Y-53.765
X29.8Y-56.305
X29.8Y-58.845
X29.8Y-61.385
X29.8Y-63.925
X29.8Y-66.465
X29.8Y-69.005
X29.8Y-71.545
X55.2Y-35.985
X55.2Y-38.525
X55.2Y-41.065
X55.2Y-43.605
X55.2Y-46.145
X55.2Y-48.685
X55.2Y-51.225
X55.2Y-53.765
X55.2Y-56.305
X55.2Y-58.845
X55.2Y-61.385
X55.2Y-63.925
X55.2Y-66.465
X55.2Y-69.005
X55.2Y-71.545
T4
X22.0Y-22.5
X22.0Y-104.5
X63.5Y-22.5
X63.5Y-104.5
M30
