%TF.GenerationSoftware,KiCad,Pcbnew,9.0.5*%
%TF.CreationDate,2026-02-25T00:45:25+01:00*%
%TF.ProjectId,DronePCB,44726f6e-6550-4434-922e-6b696361645f,rev?*%
%TF.SameCoordinates,Original*%
%TF.FileFunction,Legend,Top*%
%TF.FilePolarity,Positive*%
%FSLAX46Y46*%
G04 Gerber Fmt 4.6, Leading zero omitted, Abs format (unit mm)*
G04 Created by KiCad (PCBNEW 9.0.5) date 2026-02-25 00:45:25*
%MOMM*%
%LPD*%
G01*
G04 APERTURE LIST*
%ADD10C,0.300000*%
%ADD11C,0.150000*%
%ADD12C,0.120000*%
%ADD13C,0.200000*%
%ADD14C,0.127000*%
G04 APERTURE END LIST*
D10*
X30606891Y-94775304D02*
X30606891Y-93475304D01*
X30606891Y-93475304D02*
X31040225Y-94403876D01*
X31040225Y-94403876D02*
X31473558Y-93475304D01*
X31473558Y-93475304D02*
X31473558Y-94775304D01*
X32092605Y-94775304D02*
X32092605Y-93475304D01*
X32092605Y-93475304D02*
X32587843Y-93475304D01*
X32587843Y-93475304D02*
X32711653Y-93537209D01*
X32711653Y-93537209D02*
X32773558Y-93599114D01*
X32773558Y-93599114D02*
X32835462Y-93722923D01*
X32835462Y-93722923D02*
X32835462Y-93908638D01*
X32835462Y-93908638D02*
X32773558Y-94032447D01*
X32773558Y-94032447D02*
X32711653Y-94094352D01*
X32711653Y-94094352D02*
X32587843Y-94156257D01*
X32587843Y-94156257D02*
X32092605Y-94156257D01*
X33392605Y-93475304D02*
X33392605Y-94527685D01*
X33392605Y-94527685D02*
X33454510Y-94651495D01*
X33454510Y-94651495D02*
X33516415Y-94713400D01*
X33516415Y-94713400D02*
X33640224Y-94775304D01*
X33640224Y-94775304D02*
X33887843Y-94775304D01*
X33887843Y-94775304D02*
X34011653Y-94713400D01*
X34011653Y-94713400D02*
X34073558Y-94651495D01*
X34073558Y-94651495D02*
X34135462Y-94527685D01*
X34135462Y-94527685D02*
X34135462Y-93475304D01*
X34816415Y-94775304D02*
X35064034Y-94775304D01*
X35064034Y-94775304D02*
X35187844Y-94713400D01*
X35187844Y-94713400D02*
X35249748Y-94651495D01*
X35249748Y-94651495D02*
X35373558Y-94465780D01*
X35373558Y-94465780D02*
X35435463Y-94218161D01*
X35435463Y-94218161D02*
X35435463Y-93722923D01*
X35435463Y-93722923D02*
X35373558Y-93599114D01*
X35373558Y-93599114D02*
X35311653Y-93537209D01*
X35311653Y-93537209D02*
X35187844Y-93475304D01*
X35187844Y-93475304D02*
X34940225Y-93475304D01*
X34940225Y-93475304D02*
X34816415Y-93537209D01*
X34816415Y-93537209D02*
X34754510Y-93599114D01*
X34754510Y-93599114D02*
X34692606Y-93722923D01*
X34692606Y-93722923D02*
X34692606Y-94032447D01*
X34692606Y-94032447D02*
X34754510Y-94156257D01*
X34754510Y-94156257D02*
X34816415Y-94218161D01*
X34816415Y-94218161D02*
X34940225Y-94280066D01*
X34940225Y-94280066D02*
X35187844Y-94280066D01*
X35187844Y-94280066D02*
X35311653Y-94218161D01*
X35311653Y-94218161D02*
X35373558Y-94156257D01*
X35373558Y-94156257D02*
X35435463Y-94032447D01*
X35930701Y-93599114D02*
X35992605Y-93537209D01*
X35992605Y-93537209D02*
X36116415Y-93475304D01*
X36116415Y-93475304D02*
X36425939Y-93475304D01*
X36425939Y-93475304D02*
X36549748Y-93537209D01*
X36549748Y-93537209D02*
X36611653Y-93599114D01*
X36611653Y-93599114D02*
X36673558Y-93722923D01*
X36673558Y-93722923D02*
X36673558Y-93846733D01*
X36673558Y-93846733D02*
X36611653Y-94032447D01*
X36611653Y-94032447D02*
X35868796Y-94775304D01*
X35868796Y-94775304D02*
X36673558Y-94775304D01*
X37787843Y-93475304D02*
X37540224Y-93475304D01*
X37540224Y-93475304D02*
X37416415Y-93537209D01*
X37416415Y-93537209D02*
X37354510Y-93599114D01*
X37354510Y-93599114D02*
X37230700Y-93784828D01*
X37230700Y-93784828D02*
X37168796Y-94032447D01*
X37168796Y-94032447D02*
X37168796Y-94527685D01*
X37168796Y-94527685D02*
X37230700Y-94651495D01*
X37230700Y-94651495D02*
X37292605Y-94713400D01*
X37292605Y-94713400D02*
X37416415Y-94775304D01*
X37416415Y-94775304D02*
X37664034Y-94775304D01*
X37664034Y-94775304D02*
X37787843Y-94713400D01*
X37787843Y-94713400D02*
X37849748Y-94651495D01*
X37849748Y-94651495D02*
X37911653Y-94527685D01*
X37911653Y-94527685D02*
X37911653Y-94218161D01*
X37911653Y-94218161D02*
X37849748Y-94094352D01*
X37849748Y-94094352D02*
X37787843Y-94032447D01*
X37787843Y-94032447D02*
X37664034Y-93970542D01*
X37664034Y-93970542D02*
X37416415Y-93970542D01*
X37416415Y-93970542D02*
X37292605Y-94032447D01*
X37292605Y-94032447D02*
X37230700Y-94094352D01*
X37230700Y-94094352D02*
X37168796Y-94218161D01*
X39087843Y-93475304D02*
X38468795Y-93475304D01*
X38468795Y-93475304D02*
X38406891Y-94094352D01*
X38406891Y-94094352D02*
X38468795Y-94032447D01*
X38468795Y-94032447D02*
X38592605Y-93970542D01*
X38592605Y-93970542D02*
X38902129Y-93970542D01*
X38902129Y-93970542D02*
X39025938Y-94032447D01*
X39025938Y-94032447D02*
X39087843Y-94094352D01*
X39087843Y-94094352D02*
X39149748Y-94218161D01*
X39149748Y-94218161D02*
X39149748Y-94527685D01*
X39149748Y-94527685D02*
X39087843Y-94651495D01*
X39087843Y-94651495D02*
X39025938Y-94713400D01*
X39025938Y-94713400D02*
X38902129Y-94775304D01*
X38902129Y-94775304D02*
X38592605Y-94775304D01*
X38592605Y-94775304D02*
X38468795Y-94713400D01*
X38468795Y-94713400D02*
X38406891Y-94651495D01*
X52028147Y-30140225D02*
X51966242Y-30325939D01*
X51966242Y-30325939D02*
X51904338Y-30387844D01*
X51904338Y-30387844D02*
X51780528Y-30449748D01*
X51780528Y-30449748D02*
X51594814Y-30449748D01*
X51594814Y-30449748D02*
X51471004Y-30387844D01*
X51471004Y-30387844D02*
X51409100Y-30325939D01*
X51409100Y-30325939D02*
X51347195Y-30202129D01*
X51347195Y-30202129D02*
X51347195Y-29706891D01*
X51347195Y-29706891D02*
X52647195Y-29706891D01*
X52647195Y-29706891D02*
X52647195Y-30140225D01*
X52647195Y-30140225D02*
X52585290Y-30264034D01*
X52585290Y-30264034D02*
X52523385Y-30325939D01*
X52523385Y-30325939D02*
X52399576Y-30387844D01*
X52399576Y-30387844D02*
X52275766Y-30387844D01*
X52275766Y-30387844D02*
X52151957Y-30325939D01*
X52151957Y-30325939D02*
X52090052Y-30264034D01*
X52090052Y-30264034D02*
X52028147Y-30140225D01*
X52028147Y-30140225D02*
X52028147Y-29706891D01*
X52647195Y-31006891D02*
X51594814Y-31006891D01*
X51594814Y-31006891D02*
X51471004Y-31068796D01*
X51471004Y-31068796D02*
X51409100Y-31130701D01*
X51409100Y-31130701D02*
X51347195Y-31254510D01*
X51347195Y-31254510D02*
X51347195Y-31502129D01*
X51347195Y-31502129D02*
X51409100Y-31625939D01*
X51409100Y-31625939D02*
X51471004Y-31687844D01*
X51471004Y-31687844D02*
X51594814Y-31749748D01*
X51594814Y-31749748D02*
X52647195Y-31749748D01*
X52028147Y-32802130D02*
X52028147Y-32368796D01*
X51347195Y-32368796D02*
X52647195Y-32368796D01*
X52647195Y-32368796D02*
X52647195Y-32987844D01*
X52028147Y-33916416D02*
X52028147Y-33483082D01*
X51347195Y-33483082D02*
X52647195Y-33483082D01*
X52647195Y-33483082D02*
X52647195Y-34102130D01*
X52028147Y-34597368D02*
X52028147Y-35030702D01*
X51347195Y-35216416D02*
X51347195Y-34597368D01*
X51347195Y-34597368D02*
X52647195Y-34597368D01*
X52647195Y-34597368D02*
X52647195Y-35216416D01*
X51347195Y-36516415D02*
X51966242Y-36083082D01*
X51347195Y-35773558D02*
X52647195Y-35773558D01*
X52647195Y-35773558D02*
X52647195Y-36268796D01*
X52647195Y-36268796D02*
X52585290Y-36392606D01*
X52585290Y-36392606D02*
X52523385Y-36454511D01*
X52523385Y-36454511D02*
X52399576Y-36516415D01*
X52399576Y-36516415D02*
X52213861Y-36516415D01*
X52213861Y-36516415D02*
X52090052Y-36454511D01*
X52090052Y-36454511D02*
X52028147Y-36392606D01*
X52028147Y-36392606D02*
X51966242Y-36268796D01*
X51966242Y-36268796D02*
X51966242Y-35773558D01*
X49206891Y-21125304D02*
X49206891Y-19825304D01*
X49206891Y-19825304D02*
X49516415Y-19825304D01*
X49516415Y-19825304D02*
X49702129Y-19887209D01*
X49702129Y-19887209D02*
X49825939Y-20011019D01*
X49825939Y-20011019D02*
X49887844Y-20134828D01*
X49887844Y-20134828D02*
X49949748Y-20382447D01*
X49949748Y-20382447D02*
X49949748Y-20568161D01*
X49949748Y-20568161D02*
X49887844Y-20815780D01*
X49887844Y-20815780D02*
X49825939Y-20939590D01*
X49825939Y-20939590D02*
X49702129Y-21063400D01*
X49702129Y-21063400D02*
X49516415Y-21125304D01*
X49516415Y-21125304D02*
X49206891Y-21125304D01*
X50444987Y-21063400D02*
X50630701Y-21125304D01*
X50630701Y-21125304D02*
X50940225Y-21125304D01*
X50940225Y-21125304D02*
X51064034Y-21063400D01*
X51064034Y-21063400D02*
X51125939Y-21001495D01*
X51125939Y-21001495D02*
X51187844Y-20877685D01*
X51187844Y-20877685D02*
X51187844Y-20753876D01*
X51187844Y-20753876D02*
X51125939Y-20630066D01*
X51125939Y-20630066D02*
X51064034Y-20568161D01*
X51064034Y-20568161D02*
X50940225Y-20506257D01*
X50940225Y-20506257D02*
X50692606Y-20444352D01*
X50692606Y-20444352D02*
X50568796Y-20382447D01*
X50568796Y-20382447D02*
X50506891Y-20320542D01*
X50506891Y-20320542D02*
X50444987Y-20196733D01*
X50444987Y-20196733D02*
X50444987Y-20072923D01*
X50444987Y-20072923D02*
X50506891Y-19949114D01*
X50506891Y-19949114D02*
X50568796Y-19887209D01*
X50568796Y-19887209D02*
X50692606Y-19825304D01*
X50692606Y-19825304D02*
X51002129Y-19825304D01*
X51002129Y-19825304D02*
X51187844Y-19887209D01*
X51744986Y-21125304D02*
X51744986Y-19825304D01*
X51744986Y-20444352D02*
X52487843Y-20444352D01*
X52487843Y-21125304D02*
X52487843Y-19825304D01*
X53354510Y-19825304D02*
X53602129Y-19825304D01*
X53602129Y-19825304D02*
X53725939Y-19887209D01*
X53725939Y-19887209D02*
X53849748Y-20011019D01*
X53849748Y-20011019D02*
X53911653Y-20258638D01*
X53911653Y-20258638D02*
X53911653Y-20691971D01*
X53911653Y-20691971D02*
X53849748Y-20939590D01*
X53849748Y-20939590D02*
X53725939Y-21063400D01*
X53725939Y-21063400D02*
X53602129Y-21125304D01*
X53602129Y-21125304D02*
X53354510Y-21125304D01*
X53354510Y-21125304D02*
X53230701Y-21063400D01*
X53230701Y-21063400D02*
X53106891Y-20939590D01*
X53106891Y-20939590D02*
X53044987Y-20691971D01*
X53044987Y-20691971D02*
X53044987Y-20258638D01*
X53044987Y-20258638D02*
X53106891Y-20011019D01*
X53106891Y-20011019D02*
X53230701Y-19887209D01*
X53230701Y-19887209D02*
X53354510Y-19825304D01*
X54283082Y-19825304D02*
X55025939Y-19825304D01*
X54654511Y-21125304D02*
X54654511Y-19825304D01*
X28129391Y-39644352D02*
X28562725Y-39644352D01*
X28748439Y-40325304D02*
X28129391Y-40325304D01*
X28129391Y-40325304D02*
X28129391Y-39025304D01*
X28129391Y-39025304D02*
X28748439Y-39025304D01*
X29243677Y-40263400D02*
X29429391Y-40325304D01*
X29429391Y-40325304D02*
X29738915Y-40325304D01*
X29738915Y-40325304D02*
X29862724Y-40263400D01*
X29862724Y-40263400D02*
X29924629Y-40201495D01*
X29924629Y-40201495D02*
X29986534Y-40077685D01*
X29986534Y-40077685D02*
X29986534Y-39953876D01*
X29986534Y-39953876D02*
X29924629Y-39830066D01*
X29924629Y-39830066D02*
X29862724Y-39768161D01*
X29862724Y-39768161D02*
X29738915Y-39706257D01*
X29738915Y-39706257D02*
X29491296Y-39644352D01*
X29491296Y-39644352D02*
X29367486Y-39582447D01*
X29367486Y-39582447D02*
X29305581Y-39520542D01*
X29305581Y-39520542D02*
X29243677Y-39396733D01*
X29243677Y-39396733D02*
X29243677Y-39272923D01*
X29243677Y-39272923D02*
X29305581Y-39149114D01*
X29305581Y-39149114D02*
X29367486Y-39087209D01*
X29367486Y-39087209D02*
X29491296Y-39025304D01*
X29491296Y-39025304D02*
X29800819Y-39025304D01*
X29800819Y-39025304D02*
X29986534Y-39087209D01*
X30543676Y-40325304D02*
X30543676Y-39025304D01*
X30543676Y-39025304D02*
X31038914Y-39025304D01*
X31038914Y-39025304D02*
X31162724Y-39087209D01*
X31162724Y-39087209D02*
X31224629Y-39149114D01*
X31224629Y-39149114D02*
X31286533Y-39272923D01*
X31286533Y-39272923D02*
X31286533Y-39458638D01*
X31286533Y-39458638D02*
X31224629Y-39582447D01*
X31224629Y-39582447D02*
X31162724Y-39644352D01*
X31162724Y-39644352D02*
X31038914Y-39706257D01*
X31038914Y-39706257D02*
X30543676Y-39706257D01*
X31719867Y-39025304D02*
X32524629Y-39025304D01*
X32524629Y-39025304D02*
X32091295Y-39520542D01*
X32091295Y-39520542D02*
X32277010Y-39520542D01*
X32277010Y-39520542D02*
X32400819Y-39582447D01*
X32400819Y-39582447D02*
X32462724Y-39644352D01*
X32462724Y-39644352D02*
X32524629Y-39768161D01*
X32524629Y-39768161D02*
X32524629Y-40077685D01*
X32524629Y-40077685D02*
X32462724Y-40201495D01*
X32462724Y-40201495D02*
X32400819Y-40263400D01*
X32400819Y-40263400D02*
X32277010Y-40325304D01*
X32277010Y-40325304D02*
X31905581Y-40325304D01*
X31905581Y-40325304D02*
X31781772Y-40263400D01*
X31781772Y-40263400D02*
X31719867Y-40201495D01*
X33019867Y-39149114D02*
X33081771Y-39087209D01*
X33081771Y-39087209D02*
X33205581Y-39025304D01*
X33205581Y-39025304D02*
X33515105Y-39025304D01*
X33515105Y-39025304D02*
X33638914Y-39087209D01*
X33638914Y-39087209D02*
X33700819Y-39149114D01*
X33700819Y-39149114D02*
X33762724Y-39272923D01*
X33762724Y-39272923D02*
X33762724Y-39396733D01*
X33762724Y-39396733D02*
X33700819Y-39582447D01*
X33700819Y-39582447D02*
X32957962Y-40325304D01*
X32957962Y-40325304D02*
X33762724Y-40325304D01*
D11*
X41466666Y-26154819D02*
X41466666Y-26869104D01*
X41466666Y-26869104D02*
X41419047Y-27011961D01*
X41419047Y-27011961D02*
X41323809Y-27107200D01*
X41323809Y-27107200D02*
X41180952Y-27154819D01*
X41180952Y-27154819D02*
X41085714Y-27154819D01*
X42466666Y-27154819D02*
X41895238Y-27154819D01*
X42180952Y-27154819D02*
X42180952Y-26154819D01*
X42180952Y-26154819D02*
X42085714Y-26297676D01*
X42085714Y-26297676D02*
X41990476Y-26392914D01*
X41990476Y-26392914D02*
X41895238Y-26440533D01*
X29552319Y-35586904D02*
X30361842Y-35586904D01*
X30361842Y-35586904D02*
X30457080Y-35539285D01*
X30457080Y-35539285D02*
X30504700Y-35491666D01*
X30504700Y-35491666D02*
X30552319Y-35396428D01*
X30552319Y-35396428D02*
X30552319Y-35205952D01*
X30552319Y-35205952D02*
X30504700Y-35110714D01*
X30504700Y-35110714D02*
X30457080Y-35063095D01*
X30457080Y-35063095D02*
X30361842Y-35015476D01*
X30361842Y-35015476D02*
X29552319Y-35015476D01*
X29647557Y-34586904D02*
X29599938Y-34539285D01*
X29599938Y-34539285D02*
X29552319Y-34444047D01*
X29552319Y-34444047D02*
X29552319Y-34205952D01*
X29552319Y-34205952D02*
X29599938Y-34110714D01*
X29599938Y-34110714D02*
X29647557Y-34063095D01*
X29647557Y-34063095D02*
X29742795Y-34015476D01*
X29742795Y-34015476D02*
X29838033Y-34015476D01*
X29838033Y-34015476D02*
X29980890Y-34063095D01*
X29980890Y-34063095D02*
X30552319Y-34634523D01*
X30552319Y-34634523D02*
X30552319Y-34015476D01*
X60805833Y-53592319D02*
X60472500Y-53116128D01*
X60234405Y-53592319D02*
X60234405Y-52592319D01*
X60234405Y-52592319D02*
X60615357Y-52592319D01*
X60615357Y-52592319D02*
X60710595Y-52639938D01*
X60710595Y-52639938D02*
X60758214Y-52687557D01*
X60758214Y-52687557D02*
X60805833Y-52782795D01*
X60805833Y-52782795D02*
X60805833Y-52925652D01*
X60805833Y-52925652D02*
X60758214Y-53020890D01*
X60758214Y-53020890D02*
X60710595Y-53068509D01*
X60710595Y-53068509D02*
X60615357Y-53116128D01*
X60615357Y-53116128D02*
X60234405Y-53116128D01*
X61662976Y-52925652D02*
X61662976Y-53592319D01*
X61424881Y-52544700D02*
X61186786Y-53258985D01*
X61186786Y-53258985D02*
X61805833Y-53258985D01*
X60805833Y-47004819D02*
X60472500Y-46528628D01*
X60234405Y-47004819D02*
X60234405Y-46004819D01*
X60234405Y-46004819D02*
X60615357Y-46004819D01*
X60615357Y-46004819D02*
X60710595Y-46052438D01*
X60710595Y-46052438D02*
X60758214Y-46100057D01*
X60758214Y-46100057D02*
X60805833Y-46195295D01*
X60805833Y-46195295D02*
X60805833Y-46338152D01*
X60805833Y-46338152D02*
X60758214Y-46433390D01*
X60758214Y-46433390D02*
X60710595Y-46481009D01*
X60710595Y-46481009D02*
X60615357Y-46528628D01*
X60615357Y-46528628D02*
X60234405Y-46528628D01*
X61139167Y-46004819D02*
X61758214Y-46004819D01*
X61758214Y-46004819D02*
X61424881Y-46385771D01*
X61424881Y-46385771D02*
X61567738Y-46385771D01*
X61567738Y-46385771D02*
X61662976Y-46433390D01*
X61662976Y-46433390D02*
X61710595Y-46481009D01*
X61710595Y-46481009D02*
X61758214Y-46576247D01*
X61758214Y-46576247D02*
X61758214Y-46814342D01*
X61758214Y-46814342D02*
X61710595Y-46909580D01*
X61710595Y-46909580D02*
X61662976Y-46957200D01*
X61662976Y-46957200D02*
X61567738Y-47004819D01*
X61567738Y-47004819D02*
X61282024Y-47004819D01*
X61282024Y-47004819D02*
X61186786Y-46957200D01*
X61186786Y-46957200D02*
X61139167Y-46909580D01*
X41710595Y-81004819D02*
X41710595Y-81814342D01*
X41710595Y-81814342D02*
X41758214Y-81909580D01*
X41758214Y-81909580D02*
X41805833Y-81957200D01*
X41805833Y-81957200D02*
X41901071Y-82004819D01*
X41901071Y-82004819D02*
X42091547Y-82004819D01*
X42091547Y-82004819D02*
X42186785Y-81957200D01*
X42186785Y-81957200D02*
X42234404Y-81909580D01*
X42234404Y-81909580D02*
X42282023Y-81814342D01*
X42282023Y-81814342D02*
X42282023Y-81004819D01*
X43282023Y-82004819D02*
X42710595Y-82004819D01*
X42996309Y-82004819D02*
X42996309Y-81004819D01*
X42996309Y-81004819D02*
X42901071Y-81147676D01*
X42901071Y-81147676D02*
X42805833Y-81242914D01*
X42805833Y-81242914D02*
X42710595Y-81290533D01*
X59734405Y-65004819D02*
X59734405Y-64004819D01*
X59734405Y-64004819D02*
X59972500Y-64004819D01*
X59972500Y-64004819D02*
X60115357Y-64052438D01*
X60115357Y-64052438D02*
X60210595Y-64147676D01*
X60210595Y-64147676D02*
X60258214Y-64242914D01*
X60258214Y-64242914D02*
X60305833Y-64433390D01*
X60305833Y-64433390D02*
X60305833Y-64576247D01*
X60305833Y-64576247D02*
X60258214Y-64766723D01*
X60258214Y-64766723D02*
X60210595Y-64861961D01*
X60210595Y-64861961D02*
X60115357Y-64957200D01*
X60115357Y-64957200D02*
X59972500Y-65004819D01*
X59972500Y-65004819D02*
X59734405Y-65004819D01*
X60686786Y-64100057D02*
X60734405Y-64052438D01*
X60734405Y-64052438D02*
X60829643Y-64004819D01*
X60829643Y-64004819D02*
X61067738Y-64004819D01*
X61067738Y-64004819D02*
X61162976Y-64052438D01*
X61162976Y-64052438D02*
X61210595Y-64100057D01*
X61210595Y-64100057D02*
X61258214Y-64195295D01*
X61258214Y-64195295D02*
X61258214Y-64290533D01*
X61258214Y-64290533D02*
X61210595Y-64433390D01*
X61210595Y-64433390D02*
X60639167Y-65004819D01*
X60639167Y-65004819D02*
X61258214Y-65004819D01*
X59258214Y-79052438D02*
X59162976Y-79004819D01*
X59162976Y-79004819D02*
X59020119Y-79004819D01*
X59020119Y-79004819D02*
X58877262Y-79052438D01*
X58877262Y-79052438D02*
X58782024Y-79147676D01*
X58782024Y-79147676D02*
X58734405Y-79242914D01*
X58734405Y-79242914D02*
X58686786Y-79433390D01*
X58686786Y-79433390D02*
X58686786Y-79576247D01*
X58686786Y-79576247D02*
X58734405Y-79766723D01*
X58734405Y-79766723D02*
X58782024Y-79861961D01*
X58782024Y-79861961D02*
X58877262Y-79957200D01*
X58877262Y-79957200D02*
X59020119Y-80004819D01*
X59020119Y-80004819D02*
X59115357Y-80004819D01*
X59115357Y-80004819D02*
X59258214Y-79957200D01*
X59258214Y-79957200D02*
X59305833Y-79909580D01*
X59305833Y-79909580D02*
X59305833Y-79576247D01*
X59305833Y-79576247D02*
X59115357Y-79576247D01*
X59924881Y-79528628D02*
X59924881Y-80004819D01*
X59591548Y-79004819D02*
X59924881Y-79528628D01*
X59924881Y-79528628D02*
X60258214Y-79004819D01*
X60591548Y-79623866D02*
X61353453Y-79623866D01*
X61782024Y-79100057D02*
X61829643Y-79052438D01*
X61829643Y-79052438D02*
X61924881Y-79004819D01*
X61924881Y-79004819D02*
X62162976Y-79004819D01*
X62162976Y-79004819D02*
X62258214Y-79052438D01*
X62258214Y-79052438D02*
X62305833Y-79100057D01*
X62305833Y-79100057D02*
X62353452Y-79195295D01*
X62353452Y-79195295D02*
X62353452Y-79290533D01*
X62353452Y-79290533D02*
X62305833Y-79433390D01*
X62305833Y-79433390D02*
X61734405Y-80004819D01*
X61734405Y-80004819D02*
X62353452Y-80004819D01*
X62686786Y-79004819D02*
X63353452Y-79004819D01*
X63353452Y-79004819D02*
X62924881Y-80004819D01*
X64258214Y-80004819D02*
X63686786Y-80004819D01*
X63972500Y-80004819D02*
X63972500Y-79004819D01*
X63972500Y-79004819D02*
X63877262Y-79147676D01*
X63877262Y-79147676D02*
X63782024Y-79242914D01*
X63782024Y-79242914D02*
X63686786Y-79290533D01*
X60305833Y-56004819D02*
X59972500Y-55528628D01*
X59734405Y-56004819D02*
X59734405Y-55004819D01*
X59734405Y-55004819D02*
X60115357Y-55004819D01*
X60115357Y-55004819D02*
X60210595Y-55052438D01*
X60210595Y-55052438D02*
X60258214Y-55100057D01*
X60258214Y-55100057D02*
X60305833Y-55195295D01*
X60305833Y-55195295D02*
X60305833Y-55338152D01*
X60305833Y-55338152D02*
X60258214Y-55433390D01*
X60258214Y-55433390D02*
X60210595Y-55481009D01*
X60210595Y-55481009D02*
X60115357Y-55528628D01*
X60115357Y-55528628D02*
X59734405Y-55528628D01*
X60686786Y-55100057D02*
X60734405Y-55052438D01*
X60734405Y-55052438D02*
X60829643Y-55004819D01*
X60829643Y-55004819D02*
X61067738Y-55004819D01*
X61067738Y-55004819D02*
X61162976Y-55052438D01*
X61162976Y-55052438D02*
X61210595Y-55100057D01*
X61210595Y-55100057D02*
X61258214Y-55195295D01*
X61258214Y-55195295D02*
X61258214Y-55290533D01*
X61258214Y-55290533D02*
X61210595Y-55433390D01*
X61210595Y-55433390D02*
X60639167Y-56004819D01*
X60639167Y-56004819D02*
X61258214Y-56004819D01*
X21238095Y-100804819D02*
X21238095Y-99804819D01*
X21238095Y-100281009D02*
X21809523Y-100281009D01*
X21809523Y-100804819D02*
X21809523Y-99804819D01*
X22809523Y-100804819D02*
X22238095Y-100804819D01*
X22523809Y-100804819D02*
X22523809Y-99804819D01*
X22523809Y-99804819D02*
X22428571Y-99947676D01*
X22428571Y-99947676D02*
X22333333Y-100042914D01*
X22333333Y-100042914D02*
X22238095Y-100090533D01*
X62738095Y-100804819D02*
X62738095Y-99804819D01*
X62738095Y-100281009D02*
X63309523Y-100281009D01*
X63309523Y-100804819D02*
X63309523Y-99804819D01*
X63738095Y-99900057D02*
X63785714Y-99852438D01*
X63785714Y-99852438D02*
X63880952Y-99804819D01*
X63880952Y-99804819D02*
X64119047Y-99804819D01*
X64119047Y-99804819D02*
X64214285Y-99852438D01*
X64214285Y-99852438D02*
X64261904Y-99900057D01*
X64261904Y-99900057D02*
X64309523Y-99995295D01*
X64309523Y-99995295D02*
X64309523Y-100090533D01*
X64309523Y-100090533D02*
X64261904Y-100233390D01*
X64261904Y-100233390D02*
X63690476Y-100804819D01*
X63690476Y-100804819D02*
X64309523Y-100804819D01*
X20686905Y-64454819D02*
X20686905Y-63454819D01*
X20686905Y-63454819D02*
X20925000Y-63454819D01*
X20925000Y-63454819D02*
X21067857Y-63502438D01*
X21067857Y-63502438D02*
X21163095Y-63597676D01*
X21163095Y-63597676D02*
X21210714Y-63692914D01*
X21210714Y-63692914D02*
X21258333Y-63883390D01*
X21258333Y-63883390D02*
X21258333Y-64026247D01*
X21258333Y-64026247D02*
X21210714Y-64216723D01*
X21210714Y-64216723D02*
X21163095Y-64311961D01*
X21163095Y-64311961D02*
X21067857Y-64407200D01*
X21067857Y-64407200D02*
X20925000Y-64454819D01*
X20925000Y-64454819D02*
X20686905Y-64454819D01*
X22210714Y-64454819D02*
X21639286Y-64454819D01*
X21925000Y-64454819D02*
X21925000Y-63454819D01*
X21925000Y-63454819D02*
X21829762Y-63597676D01*
X21829762Y-63597676D02*
X21734524Y-63692914D01*
X21734524Y-63692914D02*
X21639286Y-63740533D01*
X21238095Y-18804819D02*
X21238095Y-17804819D01*
X21238095Y-18281009D02*
X21809523Y-18281009D01*
X21809523Y-18804819D02*
X21809523Y-17804819D01*
X22190476Y-17804819D02*
X22809523Y-17804819D01*
X22809523Y-17804819D02*
X22476190Y-18185771D01*
X22476190Y-18185771D02*
X22619047Y-18185771D01*
X22619047Y-18185771D02*
X22714285Y-18233390D01*
X22714285Y-18233390D02*
X22761904Y-18281009D01*
X22761904Y-18281009D02*
X22809523Y-18376247D01*
X22809523Y-18376247D02*
X22809523Y-18614342D01*
X22809523Y-18614342D02*
X22761904Y-18709580D01*
X22761904Y-18709580D02*
X22714285Y-18757200D01*
X22714285Y-18757200D02*
X22619047Y-18804819D01*
X22619047Y-18804819D02*
X22333333Y-18804819D01*
X22333333Y-18804819D02*
X22238095Y-18757200D01*
X22238095Y-18757200D02*
X22190476Y-18709580D01*
X19158333Y-56554819D02*
X18825000Y-56078628D01*
X18586905Y-56554819D02*
X18586905Y-55554819D01*
X18586905Y-55554819D02*
X18967857Y-55554819D01*
X18967857Y-55554819D02*
X19063095Y-55602438D01*
X19063095Y-55602438D02*
X19110714Y-55650057D01*
X19110714Y-55650057D02*
X19158333Y-55745295D01*
X19158333Y-55745295D02*
X19158333Y-55888152D01*
X19158333Y-55888152D02*
X19110714Y-55983390D01*
X19110714Y-55983390D02*
X19063095Y-56031009D01*
X19063095Y-56031009D02*
X18967857Y-56078628D01*
X18967857Y-56078628D02*
X18586905Y-56078628D01*
X20110714Y-56554819D02*
X19539286Y-56554819D01*
X19825000Y-56554819D02*
X19825000Y-55554819D01*
X19825000Y-55554819D02*
X19729762Y-55697676D01*
X19729762Y-55697676D02*
X19634524Y-55792914D01*
X19634524Y-55792914D02*
X19539286Y-55840533D01*
X62738095Y-18804819D02*
X62738095Y-17804819D01*
X62738095Y-18281009D02*
X63309523Y-18281009D01*
X63309523Y-18804819D02*
X63309523Y-17804819D01*
X64214285Y-18138152D02*
X64214285Y-18804819D01*
X63976190Y-17757200D02*
X63738095Y-18471485D01*
X63738095Y-18471485D02*
X64357142Y-18471485D01*
D12*
%TO.C,J1*%
X35290000Y-20090000D02*
X35290000Y-20640000D01*
X35290000Y-22860000D02*
X35290000Y-24610000D01*
X35290000Y-24610000D02*
X36740000Y-24610000D01*
X46860000Y-24610000D02*
X46860000Y-25500000D01*
X48310000Y-20090000D02*
X35290000Y-20090000D01*
X48310000Y-20640000D02*
X48310000Y-20090000D01*
X48310000Y-22860000D02*
X48310000Y-24610000D01*
X48310000Y-24610000D02*
X46860000Y-24610000D01*
%TO.C,MPU9265*%
X55320000Y-95520000D02*
X55320000Y-96900000D01*
X53940000Y-95520000D02*
X55320000Y-95520000D01*
X52670000Y-98280000D02*
X29700000Y-98280000D01*
X52670000Y-95520000D02*
X52670000Y-98280000D01*
X52670000Y-95520000D02*
X29700000Y-95520000D01*
X29700000Y-95520000D02*
X29700000Y-98280000D01*
D13*
%TO.C,U2*%
X33372500Y-38500000D02*
G75*
G02*
X33172500Y-38500000I-100000J0D01*
G01*
X33172500Y-38500000D02*
G75*
G02*
X33372500Y-38500000I100000J0D01*
G01*
D14*
X50525000Y-36375000D02*
X50525000Y-30025000D01*
X50525000Y-30025000D02*
X49372500Y-30025000D01*
X49372500Y-36375000D02*
X50525000Y-36375000D01*
X32372500Y-36375000D02*
X31220000Y-36375000D01*
X31220000Y-36375000D02*
X31220000Y-30025000D01*
X31220000Y-30025000D02*
X32372500Y-30025000D01*
D12*
%TO.C,R4*%
X60450000Y-50804724D02*
X60450000Y-50295276D01*
X61495000Y-50804724D02*
X61495000Y-50295276D01*
%TO.C,R3*%
X58450000Y-47304724D02*
X58450000Y-46795276D01*
X59495000Y-47304724D02*
X59495000Y-46795276D01*
D14*
%TO.C,U1*%
X28192500Y-41075000D02*
X39261500Y-41075000D01*
X28192500Y-41075000D02*
X56702500Y-41075000D01*
X28192500Y-92025000D02*
X28192500Y-41075000D01*
X28192500Y-92025000D02*
X28192500Y-41075000D01*
X28192500Y-92025000D02*
X33562500Y-92025000D01*
X33562500Y-92025000D02*
X51252500Y-92025000D01*
X39261500Y-41075000D02*
X45972500Y-41075000D01*
X45972500Y-41075000D02*
X56702500Y-41075000D01*
X51252500Y-92025000D02*
X56702500Y-92025000D01*
X56702500Y-41075000D02*
X56702500Y-92025000D01*
X56702500Y-41075000D02*
X56702500Y-92025000D01*
X56702500Y-92025000D02*
X28192500Y-92025000D01*
D13*
X27722500Y-51035000D02*
G75*
G02*
X27522500Y-51035000I-100000J0D01*
G01*
X27522500Y-51035000D02*
G75*
G02*
X27722500Y-51035000I100000J0D01*
G01*
D12*
%TO.C,D2*%
X58712500Y-60315000D02*
X58712500Y-61785000D01*
X58712500Y-61785000D02*
X61172500Y-61785000D01*
X61172500Y-60315000D02*
X58712500Y-60315000D01*
%TO.C,GY-271*%
X60192500Y-80670000D02*
X61572500Y-80670000D01*
X60192500Y-82050000D02*
X60192500Y-80670000D01*
X60192500Y-83320000D02*
X60192500Y-93590000D01*
X60192500Y-83320000D02*
X62952500Y-83320000D01*
X60192500Y-93590000D02*
X62952500Y-93590000D01*
X62952500Y-83320000D02*
X62952500Y-93590000D01*
%TO.C,R2*%
X60105276Y-58127500D02*
X60614724Y-58127500D01*
X60105276Y-59172500D02*
X60614724Y-59172500D01*
%TO.C,D1*%
X20590000Y-58875000D02*
X20590000Y-61335000D01*
X20590000Y-61335000D02*
X22060000Y-61335000D01*
X22060000Y-61335000D02*
X22060000Y-58875000D01*
%TO.C,R1*%
X22467224Y-55577500D02*
X21957776Y-55577500D01*
X22467224Y-56622500D02*
X21957776Y-56622500D01*
%TD*%
M02*
