%TF.GenerationSoftware,KiCad,Pcbnew,9.0.5*%
%TF.CreationDate,2025-12-04T03:06:59+01:00*%
%TF.ProjectId,DronePCB,44726f6e-6550-4434-922e-6b696361645f,rev?*%
%TF.SameCoordinates,Original*%
%TF.FileFunction,Soldermask,Bot*%
%TF.FilePolarity,Negative*%
%FSLAX46Y46*%
G04 Gerber Fmt 4.6, Leading zero omitted, Abs format (unit mm)*
G04 Created by KiCad (PCBNEW 9.0.5) date 2025-12-04 03:06:59*
%MOMM*%
%LPD*%
G01*
G04 APERTURE LIST*
G04 Aperture macros list*
%AMRoundRect*
0 Rectangle with rounded corners*
0 $1 Rounding radius*
0 $2 $3 $4 $5 $6 $7 $8 $9 X,Y pos of 4 corners*
0 Add a 4 corners polygon primitive as box body*
4,1,4,$2,$3,$4,$5,$6,$7,$8,$9,$2,$3,0*
0 Add four circle primitives for the rounded corners*
1,1,$1+$1,$2,$3*
1,1,$1+$1,$4,$5*
1,1,$1+$1,$6,$7*
1,1,$1+$1,$8,$9*
0 Add four rect primitives between the rounded corners*
20,1,$1+$1,$2,$3,$4,$5,0*
20,1,$1+$1,$4,$5,$6,$7,0*
20,1,$1+$1,$6,$7,$8,$9,0*
20,1,$1+$1,$8,$9,$2,$3,0*%
G04 Aperture macros list end*
%ADD10C,6.400000*%
%ADD11R,1.700000X1.700000*%
%ADD12C,1.700000*%
%ADD13C,3.000000*%
%ADD14RoundRect,0.102000X-1.000000X-1.000000X1.000000X-1.000000X1.000000X1.000000X-1.000000X1.000000X0*%
%ADD15C,2.204000*%
G04 APERTURE END LIST*
D10*
%TO.C,H1*%
X22000000Y-104500000D03*
%TD*%
%TO.C,H2*%
X63500000Y-104500000D03*
%TD*%
%TO.C,H3*%
X22000000Y-22500000D03*
%TD*%
D11*
%TO.C,SIGNAUX*%
X34560000Y-20600000D03*
D12*
X37100000Y-20600000D03*
X39640000Y-20600000D03*
X42180000Y-20600000D03*
X44720000Y-20600000D03*
X47260000Y-20600000D03*
X49800000Y-20600000D03*
%TD*%
D13*
%TO.C,U1*%
X30220000Y-28025000D03*
X30220000Y-74975000D03*
X54730000Y-28025000D03*
X54730000Y-74975000D03*
D14*
X29800000Y-35985000D03*
D15*
X29800000Y-38525000D03*
X29800000Y-41065000D03*
X29800000Y-43605000D03*
X29800000Y-46145000D03*
X29800000Y-48685000D03*
X29800000Y-51225000D03*
X29800000Y-53765000D03*
X29800000Y-56305000D03*
X29800000Y-58845000D03*
X29800000Y-61385000D03*
X29800000Y-63925000D03*
X29800000Y-66465000D03*
X29800000Y-69005000D03*
X29800000Y-71545000D03*
X55200000Y-71545000D03*
X55200000Y-69005000D03*
X55200000Y-66465000D03*
X55200000Y-63925000D03*
X55200000Y-61385000D03*
X55200000Y-58845000D03*
X55200000Y-56305000D03*
X55200000Y-53765000D03*
X55200000Y-51225000D03*
X55200000Y-48685000D03*
X55200000Y-46145000D03*
X55200000Y-43605000D03*
X55200000Y-41065000D03*
X55200000Y-38525000D03*
X55200000Y-35985000D03*
%TD*%
D11*
%TO.C,GY-271*%
X61600000Y-67000000D03*
D12*
X61600000Y-69540000D03*
X61600000Y-72080000D03*
X61600000Y-74620000D03*
X61600000Y-77160000D03*
%TD*%
D10*
%TO.C,H4*%
X63500000Y-22500000D03*
%TD*%
D11*
%TO.C,MPU9265*%
X54080000Y-85500000D03*
D12*
X51540000Y-85500000D03*
X49000000Y-85500000D03*
X46460000Y-85500000D03*
X43920000Y-85500000D03*
X41380000Y-85500000D03*
X38840000Y-85500000D03*
X36300000Y-85500000D03*
X33760000Y-85500000D03*
X31220000Y-85500000D03*
%TD*%
D11*
%TO.C,NRF24L01*%
X38960000Y-106500000D03*
D12*
X38960000Y-103960000D03*
X41500000Y-106500000D03*
X41500000Y-103960000D03*
X44040000Y-106500000D03*
X44040000Y-103960000D03*
X46580000Y-106500000D03*
X46580000Y-103960000D03*
%TD*%
M02*
