%TF.GenerationSoftware,KiCad,Pcbnew,9.0.5*%
%TF.CreationDate,2026-02-25T00:45:25+01:00*%
%TF.ProjectId,DronePCB,44726f6e-6550-4434-922e-6b696361645f,rev?*%
%TF.SameCoordinates,Original*%
%TF.FileFunction,Copper,L1,Top*%
%TF.FilePolarity,Positive*%
%FSLAX46Y46*%
G04 Gerber Fmt 4.6, Leading zero omitted, Abs format (unit mm)*
G04 Created by KiCad (PCBNEW 9.0.5) date 2026-02-25 00:45:25*
%MOMM*%
%LPD*%
G01*
G04 APERTURE LIST*
G04 Aperture macros list*
%AMRoundRect*
0 Rectangle with rounded corners*
0 $1 Rounding radius*
0 $2 $3 $4 $5 $6 $7 $8 $9 X,Y pos of 4 corners*
0 Add a 4 corners polygon primitive as box body*
4,1,4,$2,$3,$4,$5,$6,$7,$8,$9,$2,$3,0*
0 Add four circle primitives for the rounded corners*
1,1,$1+$1,$2,$3*
1,1,$1+$1,$4,$5*
1,1,$1+$1,$6,$7*
1,1,$1+$1,$8,$9*
0 Add four rect primitives between the rounded corners*
20,1,$1+$1,$2,$3,$4,$5,0*
20,1,$1+$1,$4,$5,$6,$7,0*
20,1,$1+$1,$6,$7,$8,$9,0*
20,1,$1+$1,$8,$9,$2,$3,0*%
G04 Aperture macros list end*
%TA.AperFunction,SMDPad,CuDef*%
%ADD10RoundRect,0.225000X0.225000X0.625000X-0.225000X0.625000X-0.225000X-0.625000X0.225000X-0.625000X0*%
%TD*%
%TA.AperFunction,SMDPad,CuDef*%
%ADD11RoundRect,0.150000X0.150000X0.475000X-0.150000X0.475000X-0.150000X-0.475000X0.150000X-0.475000X0*%
%TD*%
%TA.AperFunction,ComponentPad*%
%ADD12C,1.700000*%
%TD*%
%TA.AperFunction,ComponentPad*%
%ADD13R,1.700000X1.700000*%
%TD*%
%TA.AperFunction,ComponentPad*%
%ADD14C,1.140000*%
%TD*%
%TA.AperFunction,ComponentPad*%
%ADD15R,1.140000X1.140000*%
%TD*%
%TA.AperFunction,SMDPad,CuDef*%
%ADD16RoundRect,0.237500X0.237500X-0.250000X0.237500X0.250000X-0.237500X0.250000X-0.237500X-0.250000X0*%
%TD*%
%TA.AperFunction,ComponentPad*%
%ADD17R,2.000000X2.000000*%
%TD*%
%TA.AperFunction,ComponentPad*%
%ADD18C,2.000000*%
%TD*%
%TA.AperFunction,SMDPad,CuDef*%
%ADD19RoundRect,0.237500X-0.287500X-0.237500X0.287500X-0.237500X0.287500X0.237500X-0.287500X0.237500X0*%
%TD*%
%TA.AperFunction,SMDPad,CuDef*%
%ADD20RoundRect,0.237500X-0.250000X-0.237500X0.250000X-0.237500X0.250000X0.237500X-0.250000X0.237500X0*%
%TD*%
%TA.AperFunction,ComponentPad*%
%ADD21C,6.400000*%
%TD*%
%TA.AperFunction,SMDPad,CuDef*%
%ADD22RoundRect,0.237500X0.237500X-0.287500X0.237500X0.287500X-0.237500X0.287500X-0.237500X-0.287500X0*%
%TD*%
%TA.AperFunction,SMDPad,CuDef*%
%ADD23RoundRect,0.237500X0.250000X0.237500X-0.250000X0.237500X-0.250000X-0.237500X0.250000X-0.237500X0*%
%TD*%
%TA.AperFunction,ViaPad*%
%ADD24C,0.600000*%
%TD*%
%TA.AperFunction,Conductor*%
%ADD25C,0.200000*%
%TD*%
%TA.AperFunction,Conductor*%
%ADD26C,0.300000*%
%TD*%
G04 APERTURE END LIST*
D10*
%TO.P,J1,MP*%
%TO.N,N/C*%
X35850000Y-21750000D03*
X47750000Y-21750000D03*
D11*
%TO.P,J1,10,Pin_10*%
%TO.N,MoteurY4*%
X37300000Y-24875000D03*
%TO.P,J1,9,Pin_9*%
%TO.N,MoteurY3*%
X38300000Y-24875000D03*
%TO.P,J1,8,Pin_8*%
%TO.N,MoteurY2*%
X39300000Y-24875000D03*
%TO.P,J1,7,Pin_7*%
%TO.N,MoteurY1*%
X40300000Y-24875000D03*
%TO.P,J1,6,Pin_6*%
%TO.N,BEC_5V*%
X41300000Y-24875000D03*
%TO.P,J1,5,Pin_5*%
%TO.N,GND*%
X42300000Y-24875000D03*
%TO.P,J1,4,Pin_4*%
%TO.N,unconnected-(J1-Pin_4-Pad4)*%
X43300000Y-24875000D03*
%TO.P,J1,3,Pin_3*%
%TO.N,BAT*%
X44300000Y-24875000D03*
%TO.P,J1,2,Pin_2*%
%TO.N,GND*%
X45300000Y-24875000D03*
%TO.P,J1,1,Pin_1*%
%TO.N,unconnected-(J1-Pin_1-Pad1)*%
X46300000Y-24875000D03*
%TD*%
D12*
%TO.P,MPU9265,10,Pin_10*%
%TO.N,unconnected-(MPU9265-Pin_10-Pad10)*%
X31080000Y-96900000D03*
%TO.P,MPU9265,9,Pin_9*%
%TO.N,unconnected-(MPU9265-Pin_9-Pad9)*%
X33620000Y-96900000D03*
%TO.P,MPU9265,8,Pin_8*%
%TO.N,unconnected-(MPU9265-Pin_8-Pad8)*%
X36160000Y-96900000D03*
%TO.P,MPU9265,7,Pin_7*%
%TO.N,unconnected-(MPU9265-Pin_7-Pad7)*%
X38700000Y-96900000D03*
%TO.P,MPU9265,6,Pin_6*%
%TO.N,unconnected-(MPU9265-Pin_6-Pad6)*%
X41240000Y-96900000D03*
%TO.P,MPU9265,5,Pin_5*%
%TO.N,unconnected-(MPU9265-Pin_5-Pad5)*%
X43780000Y-96900000D03*
%TO.P,MPU9265,4,Pin_4*%
%TO.N,SDA_0*%
X46320000Y-96900000D03*
%TO.P,MPU9265,3,Pin_3*%
%TO.N,SCL_0*%
X48860000Y-96900000D03*
%TO.P,MPU9265,2,Pin_2*%
%TO.N,GND*%
X51400000Y-96900000D03*
D13*
%TO.P,MPU9265,1,Pin_1*%
%TO.N,3V3*%
X53940000Y-96900000D03*
%TD*%
D14*
%TO.P,U2,14,VCC*%
%TO.N,BEC_5V*%
X33252500Y-29230000D03*
%TO.P,U2,13,4~{OE}*%
%TO.N,GND*%
X35792500Y-29230000D03*
%TO.P,U2,12,4A*%
%TO.N,MoteurA4*%
X38332500Y-29230000D03*
%TO.P,U2,11,4Y*%
%TO.N,MoteurY4*%
X40872500Y-29230000D03*
%TO.P,U2,10,3~{OE}*%
%TO.N,GND*%
X43412500Y-29230000D03*
%TO.P,U2,9,3A*%
%TO.N,MoteurA3*%
X45952500Y-29230000D03*
%TO.P,U2,8,3Y*%
%TO.N,MoteurY3*%
X48492500Y-29230000D03*
%TO.P,U2,7,GND*%
%TO.N,GND*%
X48492500Y-37170000D03*
%TO.P,U2,6,2Y*%
%TO.N,MoteurY2*%
X45952500Y-37170000D03*
%TO.P,U2,5,2A*%
%TO.N,MoteurA2*%
X43412500Y-37170000D03*
%TO.P,U2,4,2~{OE}*%
%TO.N,GND*%
X40872500Y-37170000D03*
%TO.P,U2,3,1Y*%
%TO.N,MoteurY1*%
X38332500Y-37170000D03*
%TO.P,U2,2,1A*%
%TO.N,MoteurA1*%
X35792500Y-37170000D03*
D15*
%TO.P,U2,1,1~{OE}*%
%TO.N,GND*%
X33252500Y-37170000D03*
%TD*%
D16*
%TO.P,R4,1*%
%TO.N,GND*%
X60972500Y-51462500D03*
%TO.P,R4,2*%
%TO.N,BatteryCheck*%
X60972500Y-49637500D03*
%TD*%
%TO.P,R3,1*%
%TO.N,BatteryCheck*%
X58972500Y-47962500D03*
%TO.P,R3,2*%
%TO.N,BAT*%
X58972500Y-46137500D03*
%TD*%
D17*
%TO.P,U1,1,3V3*%
%TO.N,3V3*%
X29772500Y-51035000D03*
D18*
%TO.P,U1,2,GND*%
%TO.N,GND*%
X29772500Y-53575000D03*
%TO.P,U1,3,D15*%
%TO.N,GPLED*%
X29772500Y-56115000D03*
%TO.P,U1,4,D2*%
%TO.N,unconnected-(U1-D2-Pad4)*%
X29772500Y-58655000D03*
%TO.P,U1,5,D4*%
%TO.N,unconnected-(U1-D4-Pad5)*%
X29772500Y-61195000D03*
%TO.P,U1,6,RX2*%
%TO.N,unconnected-(U1-RX2-Pad6)*%
X29772500Y-63735000D03*
%TO.P,U1,7,TX2*%
%TO.N,unconnected-(U1-TX2-Pad7)*%
X29772500Y-66275000D03*
%TO.P,U1,8,D5*%
%TO.N,unconnected-(U1-D5-Pad8)*%
X29772500Y-68815000D03*
%TO.P,U1,9,D18*%
%TO.N,unconnected-(U1-D18-Pad9)*%
X29772500Y-71355000D03*
%TO.P,U1,10,D19*%
%TO.N,unconnected-(U1-D19-Pad10)*%
X29772500Y-73895000D03*
%TO.P,U1,11,D21*%
%TO.N,SDA_0*%
X29772500Y-76435000D03*
%TO.P,U1,12,RX0*%
%TO.N,unconnected-(U1-RX0-Pad12)*%
X29772500Y-78975000D03*
%TO.P,U1,13,TX0*%
%TO.N,unconnected-(U1-TX0-Pad13)*%
X29772500Y-81515000D03*
%TO.P,U1,14,D22*%
%TO.N,SCL_0*%
X29772500Y-84055000D03*
%TO.P,U1,15,D23*%
%TO.N,unconnected-(U1-D23-Pad15)*%
X29772500Y-86595000D03*
%TO.P,U1,16,EN*%
%TO.N,unconnected-(U1-EN-Pad16)*%
X55172500Y-86595000D03*
%TO.P,U1,17,VP*%
%TO.N,unconnected-(U1-VP-Pad17)*%
X55172500Y-84055000D03*
%TO.P,U1,18,VN*%
%TO.N,unconnected-(U1-VN-Pad18)*%
X55172500Y-81515000D03*
%TO.P,U1,19,D34*%
%TO.N,BatteryCheck*%
X55172500Y-78975000D03*
%TO.P,U1,20,D35*%
%TO.N,unconnected-(U1-D35-Pad20)*%
X55172500Y-76435000D03*
%TO.P,U1,21,D32*%
%TO.N,unconnected-(U1-D32-Pad21)*%
X55172500Y-73895000D03*
%TO.P,U1,22,D33*%
%TO.N,MoteurA4*%
X55172500Y-71355000D03*
%TO.P,U1,23,D25*%
%TO.N,SCL_1*%
X55172500Y-68815000D03*
%TO.P,U1,24,D26*%
%TO.N,MoteurA3*%
X55172500Y-66275000D03*
%TO.P,U1,25,D27*%
%TO.N,MoteurA2*%
X55172500Y-63735000D03*
%TO.P,U1,26,D14*%
%TO.N,SDA_1*%
X55172500Y-61195000D03*
%TO.P,U1,27,D12*%
%TO.N,ReadyToFlyLED*%
X55172500Y-58655000D03*
%TO.P,U1,28,D13*%
%TO.N,MoteurA1*%
X55172500Y-56115000D03*
%TO.P,U1,29,GND*%
%TO.N,GND*%
X55172500Y-53575000D03*
%TO.P,U1,30,VIN*%
%TO.N,BEC_5V*%
X55172500Y-51035000D03*
%TD*%
D19*
%TO.P,D2,1,K*%
%TO.N,GND*%
X59497500Y-61050000D03*
%TO.P,D2,2,A*%
%TO.N,Net-(D2-A)*%
X61247500Y-61050000D03*
%TD*%
D13*
%TO.P,GY-271,1,Pin_1*%
%TO.N,3V3*%
X61572500Y-82050000D03*
D12*
%TO.P,GY-271,2,Pin_2*%
%TO.N,GND*%
X61572500Y-84590000D03*
%TO.P,GY-271,3,Pin_3*%
%TO.N,SCL_1*%
X61572500Y-87130000D03*
%TO.P,GY-271,4,Pin_4*%
%TO.N,SDA_1*%
X61572500Y-89670000D03*
%TO.P,GY-271,5,Pin_5*%
%TO.N,unconnected-(GY-271-Pin_5-Pad5)*%
X61572500Y-92210000D03*
%TD*%
D20*
%TO.P,R2,1*%
%TO.N,ReadyToFlyLED*%
X59447500Y-58650000D03*
%TO.P,R2,2*%
%TO.N,Net-(D2-A)*%
X61272500Y-58650000D03*
%TD*%
D21*
%TO.P,H1,1*%
%TO.N,N/C*%
X22000000Y-104500000D03*
%TD*%
%TO.P,H2,1*%
%TO.N,N/C*%
X63500000Y-104500000D03*
%TD*%
D22*
%TO.P,D1,1,K*%
%TO.N,GND*%
X21325000Y-60550000D03*
%TO.P,D1,2,A*%
%TO.N,Net-(D1-A)*%
X21325000Y-58800000D03*
%TD*%
D21*
%TO.P,H3,1*%
%TO.N,N/C*%
X22000000Y-22500000D03*
%TD*%
D23*
%TO.P,R1,1*%
%TO.N,GPLED*%
X23125000Y-56100000D03*
%TO.P,R1,2*%
%TO.N,Net-(D1-A)*%
X21300000Y-56100000D03*
%TD*%
D21*
%TO.P,H4,1*%
%TO.N,N/C*%
X63500000Y-22500000D03*
%TD*%
D24*
%TO.N,BEC_5V*%
X35522500Y-33600000D03*
X46272500Y-50000000D03*
%TO.N,MoteurY1*%
X35272500Y-26850000D03*
%TO.N,GND*%
X36722500Y-30850000D03*
X60472500Y-53550000D03*
X25872500Y-82350000D03*
X46972500Y-78550000D03*
X25572500Y-76150000D03*
X28950000Y-107050000D03*
X37472500Y-68050000D03*
X37072500Y-33600000D03*
X59472500Y-98250000D03*
X59972500Y-70050000D03*
X37972500Y-78550000D03*
X24397500Y-63250000D03*
X48972500Y-61050000D03*
X61100000Y-95500000D03*
X37972500Y-50050000D03*
X34972500Y-105050000D03*
%TO.N,MoteurY3*%
X37872500Y-26200000D03*
%TO.N,GND*%
X65000000Y-86800000D03*
X65000000Y-95000000D03*
X20000000Y-95000000D03*
X65000000Y-46800000D03*
X65000000Y-96800000D03*
X20000000Y-86800000D03*
X20000000Y-46800000D03*
X65500000Y-56300000D03*
X65000000Y-76800000D03*
X20000000Y-96800000D03*
X20000000Y-76800000D03*
X65000000Y-66800000D03*
X20000000Y-66800000D03*
%TD*%
D25*
%TO.N,BAT*%
X44300000Y-26550000D02*
X44300000Y-24875000D01*
X48347500Y-26875000D02*
X44625000Y-26875000D01*
X44625000Y-26875000D02*
X44300000Y-26550000D01*
X58972500Y-37500000D02*
X48347500Y-26875000D01*
X58972500Y-46137500D02*
X58972500Y-37500000D01*
%TO.N,MoteurY3*%
X38300000Y-25572500D02*
X38300000Y-24875000D01*
X37872500Y-26000000D02*
X38300000Y-25572500D01*
X37872500Y-26200000D02*
X37872500Y-26000000D01*
%TO.N,MoteurY2*%
X38423999Y-23374000D02*
X39300000Y-24250001D01*
X39300000Y-24250001D02*
X39300000Y-24875000D01*
X35798500Y-23374000D02*
X38423999Y-23374000D01*
%TO.N,MoteurY4*%
X35497500Y-24875000D02*
X37300000Y-24875000D01*
X31722500Y-28650000D02*
X35497500Y-24875000D01*
D26*
%TO.N,BEC_5V*%
X39349999Y-27450000D02*
X41300000Y-25499999D01*
X35593154Y-27450000D02*
X39349999Y-27450000D01*
X33813154Y-29230000D02*
X35593154Y-27450000D01*
X33252500Y-29230000D02*
X33813154Y-29230000D01*
X41300000Y-25499999D02*
X41300000Y-24875000D01*
D25*
%TO.N,MoteurY1*%
X40300000Y-25499999D02*
X40300000Y-24875000D01*
X35272500Y-26850000D02*
X38949999Y-26850000D01*
X38949999Y-26850000D02*
X40300000Y-25499999D01*
%TO.N,SCL_0*%
X32272500Y-86555000D02*
X29772500Y-84055000D01*
X33372500Y-93450000D02*
X32272500Y-92350000D01*
X32272500Y-92350000D02*
X32272500Y-86555000D01*
X45410000Y-93450000D02*
X33372500Y-93450000D01*
X48860000Y-96900000D02*
X45410000Y-93450000D01*
%TO.N,3V3*%
X53940000Y-96900000D02*
X62122500Y-96900000D01*
X62122500Y-96900000D02*
X63572500Y-95450000D01*
X51353500Y-72616000D02*
X51353500Y-94313500D01*
X51353500Y-94313500D02*
X53940000Y-96900000D01*
%TO.N,SDA_0*%
X43370000Y-93950000D02*
X46320000Y-96900000D01*
X29572500Y-93950000D02*
X43370000Y-93950000D01*
%TO.N,GPLED*%
X29757500Y-56100000D02*
X29772500Y-56115000D01*
X23125000Y-56100000D02*
X29757500Y-56100000D01*
%TO.N,BatteryCheck*%
X60972500Y-49637500D02*
X60647500Y-49637500D01*
X55172500Y-78975000D02*
X62073500Y-72074000D01*
%TO.N,MoteurY2*%
X35172500Y-32350000D02*
X40322500Y-32350000D01*
X31122500Y-28050000D02*
X31122500Y-30250000D01*
%TO.N,ReadyToFlyLED*%
X59442500Y-58655000D02*
X59447500Y-58650000D01*
%TO.N,MoteurY2*%
X33872500Y-31050000D02*
X35172500Y-32350000D01*
%TO.N,MoteurA1*%
X55172500Y-56115000D02*
X36227500Y-37170000D01*
%TO.N,MoteurY2*%
X31922500Y-31050000D02*
X33872500Y-31050000D01*
%TO.N,MoteurA1*%
X36227500Y-37170000D02*
X35792500Y-37170000D01*
%TO.N,BatteryCheck*%
X62972500Y-50225000D02*
X62385000Y-49637500D01*
%TO.N,MoteurY2*%
X40322500Y-32350000D02*
X45142500Y-37170000D01*
%TO.N,ReadyToFlyLED*%
X55172500Y-58655000D02*
X59442500Y-58655000D01*
%TO.N,MoteurY2*%
X45142500Y-37170000D02*
X45952500Y-37170000D01*
X31122500Y-30250000D02*
X31922500Y-31050000D01*
X35798500Y-23374000D02*
X31122500Y-28050000D01*
%TO.N,SDA_1*%
X56992500Y-94250000D02*
X61572500Y-89670000D01*
D26*
%TO.N,BEC_5V*%
X31222500Y-35500000D02*
X30172500Y-36550000D01*
X42472500Y-50000000D02*
X46272500Y-50000000D01*
D25*
%TO.N,BatteryCheck*%
X62385000Y-49637500D02*
X60972500Y-49637500D01*
D26*
%TO.N,BEC_5V*%
X30172500Y-37700000D02*
X32872500Y-40400000D01*
D25*
%TO.N,BatteryCheck*%
X60647500Y-49637500D02*
X58972500Y-47962500D01*
%TO.N,3V3*%
X63572500Y-84050000D02*
X63572500Y-95450000D01*
%TO.N,MoteurY4*%
X31722500Y-29600000D02*
X32771500Y-30649000D01*
%TO.N,3V3*%
X29772500Y-51035000D02*
X51353500Y-72616000D01*
%TO.N,MoteurY4*%
X34038600Y-30649000D02*
X35189600Y-31800000D01*
X32771500Y-30649000D02*
X34038600Y-30649000D01*
%TO.N,SCL_1*%
X53472500Y-93550000D02*
X55152500Y-93550000D01*
D26*
%TO.N,BEC_5V*%
X35522500Y-34600000D02*
X34622500Y-35500000D01*
D25*
%TO.N,SCL_1*%
X52851500Y-92929000D02*
X53472500Y-93550000D01*
D26*
%TO.N,BEC_5V*%
X30172500Y-36550000D02*
X30172500Y-37700000D01*
D25*
%TO.N,SCL_1*%
X55172500Y-68815000D02*
X52851500Y-71136000D01*
X52851500Y-71136000D02*
X52851500Y-92929000D01*
%TO.N,MoteurY4*%
X35189600Y-31800000D02*
X38302500Y-31800000D01*
D26*
%TO.N,BEC_5V*%
X32872500Y-40400000D02*
X42472500Y-50000000D01*
D25*
%TO.N,3V3*%
X61572500Y-82050000D02*
X63572500Y-84050000D01*
%TO.N,SCL_1*%
X55152500Y-93550000D02*
X61572500Y-87130000D01*
D26*
%TO.N,BEC_5V*%
X35522500Y-33600000D02*
X35522500Y-34600000D01*
D25*
%TO.N,SDA_1*%
X55172500Y-61195000D02*
X52072500Y-64295000D01*
D26*
%TO.N,BEC_5V*%
X34622500Y-35500000D02*
X31222500Y-35500000D01*
D25*
%TO.N,MoteurY4*%
X31722500Y-28650000D02*
X31722500Y-29600000D01*
%TO.N,SDA_1*%
X53172500Y-94250000D02*
X56992500Y-94250000D01*
X52072500Y-93150000D02*
X53172500Y-94250000D01*
%TO.N,MoteurY4*%
X38302500Y-31800000D02*
X40872500Y-29230000D01*
%TO.N,SDA_1*%
X52072500Y-64295000D02*
X52072500Y-93150000D01*
%TO.N,BatteryCheck*%
X62972500Y-70050000D02*
X62073500Y-70949000D01*
X62972500Y-50225000D02*
X62972500Y-70050000D01*
X62073500Y-70949000D02*
X62073500Y-72074000D01*
%TO.N,GND*%
X25872500Y-82350000D02*
X25872500Y-82150000D01*
X25872500Y-82150000D02*
X25672500Y-81950000D01*
%TO.N,SDA_0*%
X29772500Y-76435000D02*
X27672500Y-78535000D01*
%TO.N,Net-(D2-A)*%
X61272500Y-61025000D02*
X61247500Y-61050000D01*
%TO.N,SDA_0*%
X27672500Y-92050000D02*
X29572500Y-93950000D01*
%TO.N,Net-(D2-A)*%
X61272500Y-58650000D02*
X61272500Y-61025000D01*
%TO.N,GND*%
X25672500Y-76250000D02*
X25572500Y-76150000D01*
%TO.N,SDA_0*%
X27672500Y-78535000D02*
X27672500Y-92050000D01*
%TO.N,Net-(D1-A)*%
X21300000Y-58775000D02*
X21325000Y-58800000D01*
X21300000Y-56100000D02*
X21300000Y-58775000D01*
%TD*%
%TA.AperFunction,Conductor*%
%TO.N,GND*%
G36*
X31477703Y-53589884D02*
G01*
X31484181Y-53595916D01*
X50716681Y-72828416D01*
X50750166Y-72889739D01*
X50753000Y-72916097D01*
X50753000Y-85411000D01*
X50733315Y-85478039D01*
X50680511Y-85523794D01*
X50629000Y-85535000D01*
X33562500Y-85535000D01*
X33562500Y-92025000D01*
X50629000Y-92025000D01*
X50696039Y-92044685D01*
X50741794Y-92097489D01*
X50753000Y-92149000D01*
X50753000Y-94226830D01*
X50752999Y-94226848D01*
X50752999Y-94392554D01*
X50752998Y-94392554D01*
X50752999Y-94392557D01*
X50793923Y-94545285D01*
X50817903Y-94586819D01*
X50822858Y-94595400D01*
X50822859Y-94595404D01*
X50822860Y-94595404D01*
X50872979Y-94682214D01*
X50872981Y-94682217D01*
X50991849Y-94801085D01*
X50991855Y-94801090D01*
X51529084Y-95338319D01*
X51562569Y-95399642D01*
X51557585Y-95469334D01*
X51515713Y-95525267D01*
X51450249Y-95549684D01*
X51441403Y-95550000D01*
X51293754Y-95550000D01*
X51083872Y-95583242D01*
X51083869Y-95583242D01*
X50881782Y-95648904D01*
X50692439Y-95745380D01*
X50638282Y-95784727D01*
X50638282Y-95784728D01*
X51270591Y-96417037D01*
X51207007Y-96434075D01*
X51092993Y-96499901D01*
X50999901Y-96592993D01*
X50934075Y-96707007D01*
X50917037Y-96770591D01*
X50284728Y-96138282D01*
X50284727Y-96138282D01*
X50245380Y-96192440D01*
X50245376Y-96192446D01*
X50240760Y-96201505D01*
X50192781Y-96252297D01*
X50124959Y-96269087D01*
X50058826Y-96246543D01*
X50019794Y-96201493D01*
X50015051Y-96192184D01*
X50015049Y-96192181D01*
X50015048Y-96192179D01*
X49890109Y-96020213D01*
X49739786Y-95869890D01*
X49567820Y-95744951D01*
X49378414Y-95648444D01*
X49378413Y-95648443D01*
X49378412Y-95648443D01*
X49176243Y-95582754D01*
X49176241Y-95582753D01*
X49176240Y-95582753D01*
X49014957Y-95557208D01*
X48966287Y-95549500D01*
X48753713Y-95549500D01*
X48725006Y-95554046D01*
X48543757Y-95582753D01*
X48501473Y-95596492D01*
X48431632Y-95598486D01*
X48375476Y-95566241D01*
X45897590Y-93088355D01*
X45897588Y-93088352D01*
X45778717Y-92969481D01*
X45778716Y-92969480D01*
X45674960Y-92909577D01*
X45674959Y-92909576D01*
X45641783Y-92890422D01*
X45585881Y-92875443D01*
X45489057Y-92849499D01*
X45330943Y-92849499D01*
X45323347Y-92849499D01*
X45323331Y-92849500D01*
X33672597Y-92849500D01*
X33605558Y-92829815D01*
X33584916Y-92813181D01*
X32909319Y-92137584D01*
X32875834Y-92076261D01*
X32873000Y-92049903D01*
X32873000Y-86644059D01*
X32873001Y-86644046D01*
X32873001Y-86475945D01*
X32873001Y-86475943D01*
X32832077Y-86323215D01*
X32789926Y-86250208D01*
X32753020Y-86186284D01*
X32641216Y-86074480D01*
X32636885Y-86070149D01*
X32636874Y-86070139D01*
X31225298Y-84658563D01*
X31191813Y-84597240D01*
X31195047Y-84532566D01*
X31236053Y-84406368D01*
X31270338Y-84189901D01*
X31273000Y-84173097D01*
X31273000Y-83936902D01*
X31236053Y-83703631D01*
X31192464Y-83569480D01*
X31163068Y-83479008D01*
X31163066Y-83479005D01*
X31163066Y-83479003D01*
X31106502Y-83367991D01*
X31055843Y-83268567D01*
X30917017Y-83077490D01*
X30750010Y-82910483D01*
X30715372Y-82885317D01*
X30672707Y-82829989D01*
X30666728Y-82760375D01*
X30699333Y-82698580D01*
X30715373Y-82684682D01*
X30750010Y-82659517D01*
X30917017Y-82492510D01*
X31055843Y-82301433D01*
X31163068Y-82090992D01*
X31236053Y-81866368D01*
X31273000Y-81633097D01*
X31273000Y-81396902D01*
X31236053Y-81163631D01*
X31169131Y-80957669D01*
X31163068Y-80939008D01*
X31163066Y-80939005D01*
X31163066Y-80939003D01*
X31071858Y-80759999D01*
X31055843Y-80728567D01*
X30917017Y-80537490D01*
X30750010Y-80370483D01*
X30715372Y-80345317D01*
X30672707Y-80289989D01*
X30666728Y-80220375D01*
X30699333Y-80158580D01*
X30715373Y-80144682D01*
X30750010Y-80119517D01*
X30917017Y-79952510D01*
X31055843Y-79761433D01*
X31163068Y-79550992D01*
X31236053Y-79326368D01*
X31273000Y-79093097D01*
X31273000Y-78856902D01*
X31236053Y-78623631D01*
X31172356Y-78427593D01*
X31163068Y-78399008D01*
X31163066Y-78399005D01*
X31163066Y-78399003D01*
X31088722Y-78253096D01*
X31055843Y-78188567D01*
X30917017Y-77997490D01*
X30750010Y-77830483D01*
X30715372Y-77805317D01*
X30672707Y-77749989D01*
X30666728Y-77680375D01*
X30699333Y-77618580D01*
X30715373Y-77604682D01*
X30750010Y-77579517D01*
X30917017Y-77412510D01*
X31055843Y-77221433D01*
X31163068Y-77010992D01*
X31236053Y-76786368D01*
X31273000Y-76553097D01*
X31273000Y-76316902D01*
X31236053Y-76083631D01*
X31163066Y-75859003D01*
X31055842Y-75648566D01*
X30917017Y-75457490D01*
X30750010Y-75290483D01*
X30715372Y-75265317D01*
X30672707Y-75209989D01*
X30666728Y-75140375D01*
X30699333Y-75078580D01*
X30715373Y-75064682D01*
X30750010Y-75039517D01*
X30917017Y-74872510D01*
X31055843Y-74681433D01*
X31163068Y-74470992D01*
X31236053Y-74246368D01*
X31273000Y-74013097D01*
X31273000Y-73776902D01*
X31236053Y-73543631D01*
X31163066Y-73319003D01*
X31055842Y-73108566D01*
X30917017Y-72917490D01*
X30750010Y-72750483D01*
X30715372Y-72725317D01*
X30672707Y-72669989D01*
X30666728Y-72600375D01*
X30699333Y-72538580D01*
X30715373Y-72524682D01*
X30750010Y-72499517D01*
X30917017Y-72332510D01*
X31055843Y-72141433D01*
X31163068Y-71930992D01*
X31236053Y-71706368D01*
X31240290Y-71679616D01*
X31273000Y-71473097D01*
X31273000Y-71236902D01*
X31236053Y-71003631D01*
X31163066Y-70779003D01*
X31076739Y-70609578D01*
X31055843Y-70568567D01*
X30917017Y-70377490D01*
X30750010Y-70210483D01*
X30715372Y-70185317D01*
X30672707Y-70129989D01*
X30666728Y-70060375D01*
X30699333Y-69998580D01*
X30715373Y-69984682D01*
X30750010Y-69959517D01*
X30917017Y-69792510D01*
X31055843Y-69601433D01*
X31163068Y-69390992D01*
X31236053Y-69166368D01*
X31273000Y-68933097D01*
X31273000Y-68696902D01*
X31236053Y-68463631D01*
X31163066Y-68239003D01*
X31055842Y-68028566D01*
X30917017Y-67837490D01*
X30750010Y-67670483D01*
X30715372Y-67645317D01*
X30672707Y-67589989D01*
X30666728Y-67520375D01*
X30699333Y-67458580D01*
X30715373Y-67444682D01*
X30750010Y-67419517D01*
X30917017Y-67252510D01*
X31055843Y-67061433D01*
X31163068Y-66850992D01*
X31236053Y-66626368D01*
X31273000Y-66393097D01*
X31273000Y-66156902D01*
X31236053Y-65923631D01*
X31163066Y-65699003D01*
X31055842Y-65488566D01*
X30917017Y-65297490D01*
X30750010Y-65130483D01*
X30715372Y-65105317D01*
X30672707Y-65049989D01*
X30666728Y-64980375D01*
X30699333Y-64918580D01*
X30715373Y-64904682D01*
X30750010Y-64879517D01*
X30917017Y-64712510D01*
X31055843Y-64521433D01*
X31163068Y-64310992D01*
X31236053Y-64086368D01*
X31247658Y-64013095D01*
X31273000Y-63853097D01*
X31273000Y-63616902D01*
X31236053Y-63383631D01*
X31163066Y-63159003D01*
X31055842Y-62948566D01*
X30917017Y-62757490D01*
X30750010Y-62590483D01*
X30715372Y-62565317D01*
X30672707Y-62509989D01*
X30666728Y-62440375D01*
X30699333Y-62378580D01*
X30715373Y-62364682D01*
X30750010Y-62339517D01*
X30917017Y-62172510D01*
X31055843Y-61981433D01*
X31163068Y-61770992D01*
X31236053Y-61546368D01*
X31256076Y-61419947D01*
X31273000Y-61313097D01*
X31273000Y-61076902D01*
X31236053Y-60843631D01*
X31163066Y-60619003D01*
X31106502Y-60507991D01*
X31055843Y-60408567D01*
X30917017Y-60217490D01*
X30750010Y-60050483D01*
X30715372Y-60025317D01*
X30672707Y-59969989D01*
X30666728Y-59900375D01*
X30699333Y-59838580D01*
X30715373Y-59824682D01*
X30750010Y-59799517D01*
X30917017Y-59632510D01*
X31055843Y-59441433D01*
X31163068Y-59230992D01*
X31236053Y-59006368D01*
X31247091Y-58936677D01*
X31273000Y-58773097D01*
X31273000Y-58536902D01*
X31236053Y-58303631D01*
X31163066Y-58079003D01*
X31082587Y-57921055D01*
X31055843Y-57868567D01*
X30917017Y-57677490D01*
X30750010Y-57510483D01*
X30715372Y-57485317D01*
X30672707Y-57429989D01*
X30666728Y-57360375D01*
X30699333Y-57298580D01*
X30715373Y-57284682D01*
X30750010Y-57259517D01*
X30917017Y-57092510D01*
X31055843Y-56901433D01*
X31163068Y-56690992D01*
X31236053Y-56466368D01*
X31248676Y-56386669D01*
X31273000Y-56233097D01*
X31273000Y-55996902D01*
X31236053Y-55763631D01*
X31174034Y-55572758D01*
X31163068Y-55539008D01*
X31163066Y-55539005D01*
X31163066Y-55539003D01*
X31093081Y-55401650D01*
X31055843Y-55328567D01*
X30917017Y-55137490D01*
X30750010Y-54970483D01*
X30690782Y-54927451D01*
X30648117Y-54872122D01*
X30640050Y-54817404D01*
X30641604Y-54797657D01*
X29910074Y-54066128D01*
X29969353Y-54050245D01*
X30085647Y-53983102D01*
X30180602Y-53888147D01*
X30247745Y-53771853D01*
X30263628Y-53712575D01*
X30995158Y-54444105D01*
X30995158Y-54444104D01*
X31055414Y-54361169D01*
X31055418Y-54361163D01*
X31162602Y-54150802D01*
X31235565Y-53926247D01*
X31272500Y-53693052D01*
X31272500Y-53683597D01*
X31292185Y-53616558D01*
X31344989Y-53570803D01*
X31414147Y-53560859D01*
X31477703Y-53589884D01*
G37*
%TD.AperFunction*%
%TA.AperFunction,Conductor*%
G36*
X60127898Y-92051953D02*
G01*
X60141334Y-92052914D01*
X60159060Y-92066184D01*
X60179203Y-92075383D01*
X60186485Y-92086714D01*
X60197267Y-92094786D01*
X60205004Y-92115531D01*
X60216977Y-92134161D01*
X60220128Y-92156079D01*
X60221684Y-92160250D01*
X60222000Y-92169096D01*
X60222000Y-92316287D01*
X60255254Y-92526243D01*
X60317790Y-92718709D01*
X60320944Y-92728414D01*
X60417451Y-92917820D01*
X60542390Y-93089786D01*
X60692713Y-93240109D01*
X60864679Y-93365048D01*
X60864681Y-93365049D01*
X60864684Y-93365051D01*
X61054088Y-93461557D01*
X61256257Y-93527246D01*
X61466213Y-93560500D01*
X61466214Y-93560500D01*
X61678786Y-93560500D01*
X61678787Y-93560500D01*
X61888743Y-93527246D01*
X62090912Y-93461557D01*
X62280316Y-93365051D01*
X62335763Y-93324767D01*
X62452286Y-93240109D01*
X62452288Y-93240106D01*
X62452292Y-93240104D01*
X62602604Y-93089792D01*
X62602606Y-93089788D01*
X62602609Y-93089786D01*
X62727550Y-92917817D01*
X62729913Y-92913181D01*
X62737515Y-92898261D01*
X62785489Y-92847464D01*
X62853310Y-92830669D01*
X62919445Y-92853206D01*
X62962897Y-92907921D01*
X62972000Y-92954555D01*
X62972000Y-95149902D01*
X62952315Y-95216941D01*
X62935681Y-95237583D01*
X61910084Y-96263181D01*
X61848761Y-96296666D01*
X61822403Y-96299500D01*
X55414499Y-96299500D01*
X55347460Y-96279815D01*
X55301705Y-96227011D01*
X55290499Y-96175500D01*
X55290499Y-96002129D01*
X55290498Y-96002123D01*
X55284091Y-95942516D01*
X55233797Y-95807671D01*
X55233793Y-95807664D01*
X55147547Y-95692455D01*
X55147544Y-95692452D01*
X55032335Y-95606206D01*
X55032328Y-95606202D01*
X54897482Y-95555908D01*
X54897483Y-95555908D01*
X54837883Y-95549501D01*
X54837881Y-95549500D01*
X54837873Y-95549500D01*
X54837865Y-95549500D01*
X53490097Y-95549500D01*
X53423058Y-95529815D01*
X53402416Y-95513181D01*
X52937500Y-95048265D01*
X52904015Y-94986942D01*
X52908999Y-94917250D01*
X52950871Y-94861317D01*
X53016335Y-94836900D01*
X53032543Y-94836803D01*
X53045111Y-94837550D01*
X53093443Y-94850501D01*
X53251557Y-94850501D01*
X53251561Y-94850500D01*
X56905831Y-94850500D01*
X56905847Y-94850501D01*
X56913443Y-94850501D01*
X57071554Y-94850501D01*
X57071557Y-94850501D01*
X57224285Y-94809577D01*
X57274404Y-94780639D01*
X57361216Y-94730520D01*
X57473020Y-94618716D01*
X57473020Y-94618714D01*
X57483228Y-94608507D01*
X57483230Y-94608504D01*
X60010319Y-92081415D01*
X60029755Y-92070802D01*
X60046489Y-92056302D01*
X60059820Y-92054385D01*
X60071642Y-92047930D01*
X60093728Y-92049509D01*
X60115647Y-92046358D01*
X60127898Y-92051953D01*
G37*
%TD.AperFunction*%
%TA.AperFunction,Conductor*%
G36*
X62687770Y-85351717D02*
G01*
X62687770Y-85351716D01*
X62727124Y-85297552D01*
X62737515Y-85277159D01*
X62785489Y-85226362D01*
X62853310Y-85209567D01*
X62919445Y-85232104D01*
X62962897Y-85286819D01*
X62972000Y-85333453D01*
X62972000Y-86385444D01*
X62952315Y-86452483D01*
X62899511Y-86498238D01*
X62830353Y-86508182D01*
X62766797Y-86479157D01*
X62737516Y-86441740D01*
X62727550Y-86422182D01*
X62602609Y-86250213D01*
X62452286Y-86099890D01*
X62280317Y-85974949D01*
X62271004Y-85970204D01*
X62220207Y-85922230D01*
X62203412Y-85854409D01*
X62225949Y-85788274D01*
X62271007Y-85749232D01*
X62280055Y-85744622D01*
X62334216Y-85705270D01*
X62334217Y-85705270D01*
X61701908Y-85072962D01*
X61765493Y-85055925D01*
X61879507Y-84990099D01*
X61972599Y-84897007D01*
X62038425Y-84782993D01*
X62055462Y-84719408D01*
X62687770Y-85351717D01*
G37*
%TD.AperFunction*%
%TA.AperFunction,Conductor*%
G36*
X58497973Y-59258374D02*
G01*
X58508100Y-59257110D01*
X58530932Y-59268052D01*
X58555222Y-59275185D01*
X58563580Y-59283700D01*
X58571107Y-59287307D01*
X58593722Y-59314404D01*
X58604180Y-59331360D01*
X58614660Y-59348350D01*
X58736650Y-59470340D01*
X58883484Y-59560908D01*
X59047247Y-59615174D01*
X59148323Y-59625500D01*
X59746676Y-59625499D01*
X59746684Y-59625498D01*
X59746687Y-59625498D01*
X59802030Y-59619844D01*
X59847753Y-59615174D01*
X60011516Y-59560908D01*
X60158350Y-59470340D01*
X60272319Y-59356371D01*
X60276438Y-59354121D01*
X60278984Y-59350178D01*
X60306816Y-59337533D01*
X60333642Y-59322886D01*
X60338322Y-59323220D01*
X60342597Y-59321279D01*
X60372846Y-59325689D01*
X60403334Y-59327870D01*
X60408379Y-59330870D01*
X60411735Y-59331360D01*
X60426630Y-59341724D01*
X60441389Y-59350501D01*
X60444634Y-59353324D01*
X60561650Y-59470340D01*
X60621736Y-59507401D01*
X60629389Y-59514059D01*
X60642967Y-59535280D01*
X60659821Y-59554017D01*
X60662500Y-59565807D01*
X60667046Y-59572912D01*
X60667020Y-59585698D01*
X60672000Y-59607610D01*
X60672000Y-60053838D01*
X60652315Y-60120877D01*
X60613097Y-60159376D01*
X60499153Y-60229657D01*
X60499149Y-60229660D01*
X60459826Y-60268983D01*
X60398503Y-60302468D01*
X60328811Y-60297482D01*
X60284465Y-60268982D01*
X60245538Y-60230055D01*
X60245534Y-60230052D01*
X60098811Y-60139551D01*
X60098800Y-60139546D01*
X59935152Y-60085319D01*
X59834154Y-60075000D01*
X59747500Y-60075000D01*
X59747500Y-62024999D01*
X59834140Y-62024999D01*
X59834154Y-62024998D01*
X59935152Y-62014680D01*
X60098800Y-61960453D01*
X60098811Y-61960448D01*
X60245534Y-61869947D01*
X60245537Y-61869945D01*
X60284464Y-61831018D01*
X60345787Y-61797532D01*
X60415478Y-61802516D01*
X60459827Y-61831017D01*
X60499150Y-61870340D01*
X60645984Y-61960908D01*
X60809747Y-62015174D01*
X60910823Y-62025500D01*
X61584176Y-62025499D01*
X61584184Y-62025498D01*
X61584187Y-62025498D01*
X61639530Y-62019844D01*
X61685253Y-62015174D01*
X61849016Y-61960908D01*
X61995850Y-61870340D01*
X62117840Y-61748350D01*
X62142462Y-61708430D01*
X62194409Y-61661708D01*
X62263372Y-61650485D01*
X62327454Y-61678329D01*
X62366310Y-61736397D01*
X62372000Y-61773529D01*
X62372000Y-69749902D01*
X62352315Y-69816941D01*
X62335681Y-69837583D01*
X61592981Y-70580282D01*
X61592977Y-70580287D01*
X61576069Y-70609575D01*
X61576068Y-70609577D01*
X61513923Y-70717215D01*
X61472999Y-70869943D01*
X61472999Y-70869945D01*
X61472999Y-71038046D01*
X61473000Y-71038059D01*
X61473000Y-71773901D01*
X61453315Y-71840940D01*
X61436681Y-71861582D01*
X56884681Y-76413582D01*
X56823358Y-76447067D01*
X56753666Y-76442083D01*
X56697733Y-76400211D01*
X56673316Y-76334747D01*
X56673000Y-76325901D01*
X56673000Y-76316902D01*
X56636053Y-76083631D01*
X56563066Y-75859003D01*
X56455842Y-75648566D01*
X56317017Y-75457490D01*
X56150010Y-75290483D01*
X56115372Y-75265317D01*
X56072707Y-75209989D01*
X56066728Y-75140375D01*
X56099333Y-75078580D01*
X56115373Y-75064682D01*
X56150010Y-75039517D01*
X56317017Y-74872510D01*
X56455843Y-74681433D01*
X56563068Y-74470992D01*
X56636053Y-74246368D01*
X56673000Y-74013097D01*
X56673000Y-73776902D01*
X56636053Y-73543631D01*
X56563066Y-73319003D01*
X56455842Y-73108566D01*
X56317017Y-72917490D01*
X56150010Y-72750483D01*
X56115372Y-72725317D01*
X56072707Y-72669989D01*
X56066728Y-72600375D01*
X56099333Y-72538580D01*
X56115373Y-72524682D01*
X56150010Y-72499517D01*
X56317017Y-72332510D01*
X56455843Y-72141433D01*
X56563068Y-71930992D01*
X56636053Y-71706368D01*
X56640290Y-71679616D01*
X56673000Y-71473097D01*
X56673000Y-71236902D01*
X56636053Y-71003631D01*
X56563066Y-70779003D01*
X56476739Y-70609578D01*
X56455843Y-70568567D01*
X56317017Y-70377490D01*
X56150010Y-70210483D01*
X56115372Y-70185317D01*
X56072707Y-70129989D01*
X56066728Y-70060375D01*
X56099333Y-69998580D01*
X56115373Y-69984682D01*
X56150010Y-69959517D01*
X56317017Y-69792510D01*
X56455843Y-69601433D01*
X56563068Y-69390992D01*
X56636053Y-69166368D01*
X56673000Y-68933097D01*
X56673000Y-68696902D01*
X56636053Y-68463631D01*
X56563066Y-68239003D01*
X56455842Y-68028566D01*
X56317017Y-67837490D01*
X56150010Y-67670483D01*
X56115372Y-67645317D01*
X56072707Y-67589989D01*
X56066728Y-67520375D01*
X56099333Y-67458580D01*
X56115373Y-67444682D01*
X56150010Y-67419517D01*
X56317017Y-67252510D01*
X56455843Y-67061433D01*
X56563068Y-66850992D01*
X56636053Y-66626368D01*
X56673000Y-66393097D01*
X56673000Y-66156902D01*
X56636053Y-65923631D01*
X56563066Y-65699003D01*
X56455842Y-65488566D01*
X56317017Y-65297490D01*
X56150010Y-65130483D01*
X56115372Y-65105317D01*
X56072707Y-65049989D01*
X56066728Y-64980375D01*
X56099333Y-64918580D01*
X56115373Y-64904682D01*
X56150010Y-64879517D01*
X56317017Y-64712510D01*
X56455843Y-64521433D01*
X56563068Y-64310992D01*
X56636053Y-64086368D01*
X56647658Y-64013095D01*
X56673000Y-63853097D01*
X56673000Y-63616902D01*
X56636053Y-63383631D01*
X56563066Y-63159003D01*
X56455842Y-62948566D01*
X56317017Y-62757490D01*
X56150010Y-62590483D01*
X56115372Y-62565317D01*
X56072707Y-62509989D01*
X56066728Y-62440375D01*
X56099333Y-62378580D01*
X56115373Y-62364682D01*
X56150010Y-62339517D01*
X56317017Y-62172510D01*
X56455843Y-61981433D01*
X56563068Y-61770992D01*
X56636053Y-61546368D01*
X56656076Y-61419947D01*
X56669269Y-61336654D01*
X58472501Y-61336654D01*
X58482819Y-61437652D01*
X58537046Y-61601300D01*
X58537051Y-61601311D01*
X58627552Y-61748034D01*
X58627555Y-61748038D01*
X58749461Y-61869944D01*
X58749465Y-61869947D01*
X58896188Y-61960448D01*
X58896199Y-61960453D01*
X59059847Y-62014680D01*
X59160851Y-62024999D01*
X59247500Y-62024998D01*
X59247500Y-61300000D01*
X58472501Y-61300000D01*
X58472501Y-61336654D01*
X56669269Y-61336654D01*
X56673000Y-61313097D01*
X56673000Y-61076902D01*
X56642865Y-60886641D01*
X56636053Y-60843632D01*
X56636052Y-60843628D01*
X56636052Y-60843627D01*
X56621394Y-60798514D01*
X56609967Y-60763345D01*
X58472500Y-60763345D01*
X58472500Y-60800000D01*
X59247500Y-60800000D01*
X59247500Y-60075000D01*
X59247499Y-60074999D01*
X59160860Y-60075000D01*
X59160843Y-60075001D01*
X59059847Y-60085319D01*
X58896199Y-60139546D01*
X58896188Y-60139551D01*
X58749465Y-60230052D01*
X58749461Y-60230055D01*
X58627555Y-60351961D01*
X58627552Y-60351965D01*
X58537051Y-60498688D01*
X58537046Y-60498699D01*
X58482819Y-60662347D01*
X58472500Y-60763345D01*
X56609967Y-60763345D01*
X56563066Y-60619003D01*
X56506502Y-60507991D01*
X56455843Y-60408567D01*
X56317017Y-60217490D01*
X56150010Y-60050483D01*
X56115372Y-60025317D01*
X56072707Y-59969989D01*
X56066728Y-59900375D01*
X56099333Y-59838580D01*
X56115373Y-59824682D01*
X56150010Y-59799517D01*
X56317017Y-59632510D01*
X56455843Y-59441433D01*
X56516083Y-59323204D01*
X56564058Y-59272409D01*
X56626568Y-59255500D01*
X58488183Y-59255500D01*
X58497973Y-59258374D01*
G37*
%TD.AperFunction*%
%TA.AperFunction,Conductor*%
G36*
X37754332Y-28120185D02*
G01*
X37800087Y-28172989D01*
X37810031Y-28242147D01*
X37781006Y-28305703D01*
X37756184Y-28327602D01*
X37650096Y-28398487D01*
X37650092Y-28398490D01*
X37500990Y-28547592D01*
X37500987Y-28547596D01*
X37383838Y-28722921D01*
X37383833Y-28722930D01*
X37303138Y-28917746D01*
X37303136Y-28917754D01*
X37262000Y-29124560D01*
X37262000Y-29335439D01*
X37303136Y-29542245D01*
X37303138Y-29542253D01*
X37383833Y-29737069D01*
X37383838Y-29737078D01*
X37500987Y-29912403D01*
X37500990Y-29912407D01*
X37650092Y-30061509D01*
X37650096Y-30061512D01*
X37825421Y-30178661D01*
X37825430Y-30178666D01*
X37839539Y-30184510D01*
X38020247Y-30259362D01*
X38160980Y-30287355D01*
X38227060Y-30300499D01*
X38227064Y-30300500D01*
X38227065Y-30300500D01*
X38437936Y-30300500D01*
X38437937Y-30300499D01*
X38644753Y-30259362D01*
X38664851Y-30251036D01*
X38734319Y-30243567D01*
X38796799Y-30274841D01*
X38832453Y-30334929D01*
X38829960Y-30404754D01*
X38799986Y-30453278D01*
X38090084Y-31163181D01*
X38028761Y-31196666D01*
X38002403Y-31199500D01*
X35489697Y-31199500D01*
X35422658Y-31179815D01*
X35402016Y-31163181D01*
X34526190Y-30287355D01*
X34519121Y-30280286D01*
X34519120Y-30280284D01*
X34407316Y-30168480D01*
X34320504Y-30118360D01*
X34320504Y-30118359D01*
X34320500Y-30118358D01*
X34270385Y-30089423D01*
X34179138Y-30064973D01*
X34154449Y-30049923D01*
X34128370Y-30037447D01*
X34124982Y-30031962D01*
X34119477Y-30028607D01*
X34106845Y-30002602D01*
X34091650Y-29978004D01*
X34091765Y-29971557D01*
X34088949Y-29965760D01*
X34092380Y-29937057D01*
X34092897Y-29908145D01*
X34096817Y-29899950D01*
X34097244Y-29896385D01*
X34108126Y-29876314D01*
X34168127Y-29786514D01*
X34202338Y-29752304D01*
X34227823Y-29735277D01*
X34542735Y-29420364D01*
X34604057Y-29386880D01*
X34673748Y-29391864D01*
X34729682Y-29433735D01*
X34752032Y-29483854D01*
X34763618Y-29542101D01*
X34763620Y-29542107D01*
X34844278Y-29736833D01*
X34879459Y-29789485D01*
X35422500Y-29246445D01*
X35422500Y-29278711D01*
X35447715Y-29372815D01*
X35496426Y-29457186D01*
X35565314Y-29526074D01*
X35649685Y-29574785D01*
X35743789Y-29600000D01*
X35776054Y-29600000D01*
X35233013Y-30143039D01*
X35285664Y-30178220D01*
X35285667Y-30178222D01*
X35480392Y-30258879D01*
X35480398Y-30258881D01*
X35687111Y-30300000D01*
X35897888Y-30300000D01*
X36104601Y-30258881D01*
X36104607Y-30258879D01*
X36299330Y-30178223D01*
X36351985Y-30143039D01*
X35808947Y-29600000D01*
X35841211Y-29600000D01*
X35935315Y-29574785D01*
X36019686Y-29526074D01*
X36088574Y-29457186D01*
X36137285Y-29372815D01*
X36162500Y-29278711D01*
X36162500Y-29246446D01*
X36705539Y-29789485D01*
X36740723Y-29736830D01*
X36821379Y-29542107D01*
X36821381Y-29542101D01*
X36862500Y-29335388D01*
X36862500Y-29124611D01*
X36821381Y-28917898D01*
X36821379Y-28917892D01*
X36740722Y-28723167D01*
X36740720Y-28723164D01*
X36705539Y-28670513D01*
X36162500Y-29213552D01*
X36162500Y-29181289D01*
X36137285Y-29087185D01*
X36088574Y-29002814D01*
X36019686Y-28933926D01*
X35935315Y-28885215D01*
X35841211Y-28860000D01*
X35808945Y-28860000D01*
X36351985Y-28316959D01*
X36351045Y-28307416D01*
X36323110Y-28273990D01*
X36314403Y-28204665D01*
X36344557Y-28141637D01*
X36404000Y-28104918D01*
X36436806Y-28100500D01*
X37687293Y-28100500D01*
X37754332Y-28120185D01*
G37*
%TD.AperFunction*%
%TA.AperFunction,Conductor*%
G36*
X68842539Y-17520185D02*
G01*
X68888294Y-17572989D01*
X68899500Y-17624500D01*
X68899500Y-109675500D01*
X68879815Y-109742539D01*
X68827011Y-109788294D01*
X68775500Y-109799500D01*
X16924500Y-109799500D01*
X16857461Y-109779815D01*
X16811706Y-109727011D01*
X16800500Y-109675500D01*
X16800500Y-104318209D01*
X18299500Y-104318209D01*
X18299500Y-104681790D01*
X18335137Y-105043630D01*
X18406064Y-105400212D01*
X18406067Y-105400223D01*
X18511614Y-105748165D01*
X18650754Y-106084078D01*
X18650756Y-106084083D01*
X18822140Y-106404720D01*
X18822151Y-106404738D01*
X19024140Y-106707035D01*
X19024150Y-106707049D01*
X19254807Y-106988106D01*
X19511893Y-107245192D01*
X19511898Y-107245196D01*
X19511899Y-107245197D01*
X19792956Y-107475854D01*
X20095268Y-107677853D01*
X20095277Y-107677858D01*
X20095279Y-107677859D01*
X20415916Y-107849243D01*
X20415918Y-107849243D01*
X20415924Y-107849247D01*
X20751836Y-107988386D01*
X21099767Y-108093930D01*
X21099773Y-108093931D01*
X21099776Y-108093932D01*
X21099787Y-108093935D01*
X21456369Y-108164862D01*
X21818206Y-108200500D01*
X21818209Y-108200500D01*
X22181791Y-108200500D01*
X22181794Y-108200500D01*
X22543631Y-108164862D01*
X22613045Y-108151054D01*
X22900212Y-108093935D01*
X22900223Y-108093932D01*
X22900223Y-108093931D01*
X22900233Y-108093930D01*
X23248164Y-107988386D01*
X23584076Y-107849247D01*
X23904732Y-107677853D01*
X24207044Y-107475854D01*
X24488101Y-107245197D01*
X24745197Y-106988101D01*
X24975854Y-106707044D01*
X25177853Y-106404732D01*
X25349247Y-106084076D01*
X25488386Y-105748164D01*
X25593930Y-105400233D01*
X25593932Y-105400223D01*
X25593935Y-105400212D01*
X25664862Y-105043630D01*
X25700500Y-104681790D01*
X25700500Y-104318209D01*
X59799500Y-104318209D01*
X59799500Y-104681790D01*
X59835137Y-105043630D01*
X59906064Y-105400212D01*
X59906067Y-105400223D01*
X60011614Y-105748165D01*
X60150754Y-106084078D01*
X60150756Y-106084083D01*
X60322140Y-106404720D01*
X60322151Y-106404738D01*
X60524140Y-106707035D01*
X60524150Y-106707049D01*
X60754807Y-106988106D01*
X61011893Y-107245192D01*
X61011898Y-107245196D01*
X61011899Y-107245197D01*
X61292956Y-107475854D01*
X61595268Y-107677853D01*
X61595277Y-107677858D01*
X61595279Y-107677859D01*
X61915916Y-107849243D01*
X61915918Y-107849243D01*
X61915924Y-107849247D01*
X62251836Y-107988386D01*
X62599767Y-108093930D01*
X62599773Y-108093931D01*
X62599776Y-108093932D01*
X62599787Y-108093935D01*
X62956369Y-108164862D01*
X63318206Y-108200500D01*
X63318209Y-108200500D01*
X63681791Y-108200500D01*
X63681794Y-108200500D01*
X64043631Y-108164862D01*
X64113045Y-108151054D01*
X64400212Y-108093935D01*
X64400223Y-108093932D01*
X64400223Y-108093931D01*
X64400233Y-108093930D01*
X64748164Y-107988386D01*
X65084076Y-107849247D01*
X65404732Y-107677853D01*
X65707044Y-107475854D01*
X65988101Y-107245197D01*
X66245197Y-106988101D01*
X66475854Y-106707044D01*
X66677853Y-106404732D01*
X66849247Y-106084076D01*
X66988386Y-105748164D01*
X67093930Y-105400233D01*
X67093932Y-105400223D01*
X67093935Y-105400212D01*
X67164862Y-105043630D01*
X67200500Y-104681790D01*
X67200500Y-104318209D01*
X67164862Y-103956369D01*
X67093935Y-103599787D01*
X67093932Y-103599776D01*
X67093931Y-103599773D01*
X67093930Y-103599767D01*
X66988386Y-103251836D01*
X66849247Y-102915924D01*
X66677853Y-102595268D01*
X66475854Y-102292956D01*
X66245197Y-102011899D01*
X66245196Y-102011898D01*
X66245192Y-102011893D01*
X65988106Y-101754807D01*
X65707049Y-101524150D01*
X65707048Y-101524149D01*
X65707044Y-101524146D01*
X65404732Y-101322147D01*
X65404727Y-101322144D01*
X65404720Y-101322140D01*
X65084083Y-101150756D01*
X65084078Y-101150754D01*
X64748165Y-101011614D01*
X64400223Y-100906067D01*
X64400212Y-100906064D01*
X64043630Y-100835137D01*
X63771111Y-100808296D01*
X63681794Y-100799500D01*
X63318206Y-100799500D01*
X63235679Y-100807628D01*
X62956369Y-100835137D01*
X62599787Y-100906064D01*
X62599776Y-100906067D01*
X62251834Y-101011614D01*
X61915921Y-101150754D01*
X61915916Y-101150756D01*
X61595279Y-101322140D01*
X61595261Y-101322151D01*
X61292964Y-101524140D01*
X61292950Y-101524150D01*
X61011893Y-101754807D01*
X60754807Y-102011893D01*
X60524150Y-102292950D01*
X60524140Y-102292964D01*
X60322151Y-102595261D01*
X60322140Y-102595279D01*
X60150756Y-102915916D01*
X60150754Y-102915921D01*
X60011614Y-103251834D01*
X59906067Y-103599776D01*
X59906064Y-103599787D01*
X59835137Y-103956369D01*
X59799500Y-104318209D01*
X25700500Y-104318209D01*
X25664862Y-103956369D01*
X25593935Y-103599787D01*
X25593932Y-103599776D01*
X25593931Y-103599773D01*
X25593930Y-103599767D01*
X25488386Y-103251836D01*
X25349247Y-102915924D01*
X25177853Y-102595268D01*
X24975854Y-102292956D01*
X24745197Y-102011899D01*
X24745196Y-102011898D01*
X24745192Y-102011893D01*
X24488106Y-101754807D01*
X24207049Y-101524150D01*
X24207048Y-101524149D01*
X24207044Y-101524146D01*
X23904732Y-101322147D01*
X23904727Y-101322144D01*
X23904720Y-101322140D01*
X23584083Y-101150756D01*
X23584078Y-101150754D01*
X23248165Y-101011614D01*
X22900223Y-100906067D01*
X22900212Y-100906064D01*
X22543630Y-100835137D01*
X22271111Y-100808296D01*
X22181794Y-100799500D01*
X21818206Y-100799500D01*
X21735679Y-100807628D01*
X21456369Y-100835137D01*
X21099787Y-100906064D01*
X21099776Y-100906067D01*
X20751834Y-101011614D01*
X20415921Y-101150754D01*
X20415916Y-101150756D01*
X20095279Y-101322140D01*
X20095261Y-101322151D01*
X19792964Y-101524140D01*
X19792950Y-101524150D01*
X19511893Y-101754807D01*
X19254807Y-102011893D01*
X19024150Y-102292950D01*
X19024140Y-102292964D01*
X18822151Y-102595261D01*
X18822140Y-102595279D01*
X18650756Y-102915916D01*
X18650754Y-102915921D01*
X18511614Y-103251834D01*
X18406067Y-103599776D01*
X18406064Y-103599787D01*
X18335137Y-103956369D01*
X18299500Y-104318209D01*
X16800500Y-104318209D01*
X16800500Y-60886654D01*
X20350001Y-60886654D01*
X20360319Y-60987652D01*
X20414546Y-61151300D01*
X20414551Y-61151311D01*
X20505052Y-61298034D01*
X20505055Y-61298038D01*
X20626961Y-61419944D01*
X20626965Y-61419947D01*
X20773688Y-61510448D01*
X20773699Y-61510453D01*
X20937347Y-61564680D01*
X21038352Y-61574999D01*
X21075000Y-61574999D01*
X21575000Y-61574999D01*
X21611640Y-61574999D01*
X21611654Y-61574998D01*
X21712652Y-61564680D01*
X21876300Y-61510453D01*
X21876311Y-61510448D01*
X22023034Y-61419947D01*
X22023038Y-61419944D01*
X22144944Y-61298038D01*
X22144947Y-61298034D01*
X22235448Y-61151311D01*
X22235453Y-61151300D01*
X22289680Y-60987652D01*
X22299999Y-60886654D01*
X22300000Y-60886641D01*
X22300000Y-60800000D01*
X21575000Y-60800000D01*
X21575000Y-61574999D01*
X21075000Y-61574999D01*
X21075000Y-60800000D01*
X20350001Y-60800000D01*
X20350001Y-60886654D01*
X16800500Y-60886654D01*
X16800500Y-55813315D01*
X20312000Y-55813315D01*
X20312000Y-56386669D01*
X20312001Y-56386687D01*
X20322325Y-56487752D01*
X20376592Y-56651515D01*
X20376593Y-56651518D01*
X20400941Y-56690992D01*
X20467160Y-56798350D01*
X20589150Y-56920340D01*
X20640597Y-56952072D01*
X20687321Y-57004017D01*
X20699500Y-57057610D01*
X20699500Y-57815518D01*
X20679815Y-57882557D01*
X20640600Y-57921055D01*
X20626650Y-57929660D01*
X20626649Y-57929660D01*
X20504661Y-58051648D01*
X20414093Y-58198481D01*
X20414092Y-58198484D01*
X20359826Y-58362247D01*
X20359826Y-58362248D01*
X20359825Y-58362248D01*
X20349500Y-58463315D01*
X20349500Y-59136669D01*
X20349501Y-59136687D01*
X20359825Y-59237752D01*
X20385226Y-59314404D01*
X20414092Y-59401516D01*
X20498525Y-59538404D01*
X20504661Y-59548351D01*
X20543982Y-59587672D01*
X20577467Y-59648995D01*
X20572483Y-59718687D01*
X20543983Y-59763033D01*
X20505055Y-59801961D01*
X20505052Y-59801965D01*
X20414551Y-59948688D01*
X20414546Y-59948699D01*
X20360319Y-60112347D01*
X20350000Y-60213345D01*
X20350000Y-60300000D01*
X22299999Y-60300000D01*
X22299999Y-60213360D01*
X22299998Y-60213345D01*
X22289680Y-60112347D01*
X22235453Y-59948699D01*
X22235448Y-59948688D01*
X22144947Y-59801965D01*
X22144944Y-59801961D01*
X22106017Y-59763034D01*
X22072532Y-59701711D01*
X22077516Y-59632019D01*
X22106016Y-59587673D01*
X22145340Y-59548350D01*
X22235908Y-59401516D01*
X22290174Y-59237753D01*
X22300500Y-59136677D01*
X22300499Y-58463324D01*
X22290174Y-58362247D01*
X22235908Y-58198484D01*
X22145340Y-58051650D01*
X22023350Y-57929660D01*
X22023349Y-57929659D01*
X21959402Y-57890216D01*
X21912678Y-57838268D01*
X21900500Y-57784678D01*
X21900500Y-57057610D01*
X21920185Y-56990571D01*
X21943111Y-56964059D01*
X21950763Y-56957401D01*
X22010850Y-56920340D01*
X22127865Y-56803324D01*
X22131111Y-56800501D01*
X22159110Y-56787646D01*
X22186142Y-56772886D01*
X22190571Y-56773202D01*
X22194609Y-56771349D01*
X22225107Y-56775672D01*
X22255834Y-56777870D01*
X22260143Y-56780639D01*
X22263787Y-56781156D01*
X22272071Y-56788305D01*
X22300181Y-56806371D01*
X22414150Y-56920340D01*
X22560984Y-57010908D01*
X22724747Y-57065174D01*
X22825823Y-57075500D01*
X23424176Y-57075499D01*
X23424184Y-57075498D01*
X23424187Y-57075498D01*
X23479530Y-57069844D01*
X23525253Y-57065174D01*
X23689016Y-57010908D01*
X23835850Y-56920340D01*
X23957840Y-56798350D01*
X23981862Y-56759404D01*
X24033810Y-56712679D01*
X24087401Y-56700500D01*
X28310789Y-56700500D01*
X28377828Y-56720185D01*
X28421274Y-56768205D01*
X28436633Y-56798349D01*
X28489157Y-56901433D01*
X28627983Y-57092510D01*
X28794990Y-57259517D01*
X28829627Y-57284683D01*
X28872292Y-57340013D01*
X28878271Y-57409626D01*
X28845665Y-57471421D01*
X28829630Y-57485315D01*
X28811865Y-57498222D01*
X28794988Y-57510484D01*
X28627985Y-57677487D01*
X28627985Y-57677488D01*
X28627983Y-57677490D01*
X28583226Y-57739093D01*
X28489157Y-57868566D01*
X28381933Y-58079003D01*
X28308946Y-58303631D01*
X28272000Y-58536902D01*
X28272000Y-58773097D01*
X28308946Y-59006368D01*
X28381933Y-59230996D01*
X28468817Y-59401513D01*
X28489157Y-59441433D01*
X28627983Y-59632510D01*
X28794990Y-59799517D01*
X28829627Y-59824683D01*
X28872292Y-59880013D01*
X28878271Y-59949626D01*
X28845665Y-60011421D01*
X28829630Y-60025315D01*
X28811865Y-60038222D01*
X28794988Y-60050484D01*
X28627985Y-60217487D01*
X28627985Y-60217488D01*
X28627983Y-60217490D01*
X28618854Y-60230055D01*
X28489157Y-60408566D01*
X28381933Y-60619003D01*
X28308946Y-60843631D01*
X28272000Y-61076902D01*
X28272000Y-61313097D01*
X28308946Y-61546368D01*
X28381933Y-61770996D01*
X28432351Y-61869945D01*
X28489157Y-61981433D01*
X28627983Y-62172510D01*
X28794990Y-62339517D01*
X28829627Y-62364683D01*
X28872292Y-62420013D01*
X28878271Y-62489626D01*
X28845665Y-62551421D01*
X28829630Y-62565315D01*
X28811865Y-62578222D01*
X28794988Y-62590484D01*
X28627985Y-62757487D01*
X28627985Y-62757488D01*
X28627983Y-62757490D01*
X28568362Y-62839550D01*
X28489157Y-62948566D01*
X28381933Y-63159003D01*
X28308946Y-63383631D01*
X28272000Y-63616902D01*
X28272000Y-63853097D01*
X28308946Y-64086368D01*
X28381933Y-64310996D01*
X28419161Y-64384059D01*
X28489157Y-64521433D01*
X28627983Y-64712510D01*
X28794990Y-64879517D01*
X28829627Y-64904683D01*
X28872292Y-64960013D01*
X28878271Y-65029626D01*
X28845665Y-65091421D01*
X28829630Y-65105315D01*
X28811865Y-65118222D01*
X28794988Y-65130484D01*
X28627985Y-65297487D01*
X28627985Y-65297488D01*
X28627983Y-65297490D01*
X28568362Y-65379550D01*
X28489157Y-65488566D01*
X28381933Y-65699003D01*
X28308946Y-65923631D01*
X28272000Y-66156902D01*
X28272000Y-66393097D01*
X28308946Y-66626368D01*
X28381933Y-66850996D01*
X28489157Y-67061433D01*
X28627983Y-67252510D01*
X28794990Y-67419517D01*
X28829627Y-67444683D01*
X28872292Y-67500013D01*
X28878271Y-67569626D01*
X28845665Y-67631421D01*
X28829630Y-67645315D01*
X28811865Y-67658222D01*
X28794988Y-67670484D01*
X28627985Y-67837487D01*
X28627985Y-67837488D01*
X28627983Y-67837490D01*
X28568362Y-67919550D01*
X28489157Y-68028566D01*
X28381933Y-68239003D01*
X28308946Y-68463631D01*
X28272000Y-68696902D01*
X28272000Y-68933097D01*
X28308946Y-69166368D01*
X28381933Y-69390996D01*
X28489157Y-69601433D01*
X28627983Y-69792510D01*
X28794990Y-69959517D01*
X28829627Y-69984683D01*
X28872292Y-70040013D01*
X28878271Y-70109626D01*
X28845665Y-70171421D01*
X28829630Y-70185315D01*
X28811865Y-70198222D01*
X28794988Y-70210484D01*
X28627985Y-70377487D01*
X28627985Y-70377488D01*
X28627983Y-70377490D01*
X28598030Y-70418717D01*
X28489157Y-70568566D01*
X28381933Y-70779003D01*
X28308946Y-71003631D01*
X28272000Y-71236902D01*
X28272000Y-71473097D01*
X28308946Y-71706368D01*
X28381933Y-71930996D01*
X28489157Y-72141433D01*
X28627983Y-72332510D01*
X28794990Y-72499517D01*
X28829627Y-72524683D01*
X28872292Y-72580013D01*
X28878271Y-72649626D01*
X28845665Y-72711421D01*
X28829630Y-72725315D01*
X28811865Y-72738222D01*
X28794988Y-72750484D01*
X28627985Y-72917487D01*
X28627985Y-72917488D01*
X28627983Y-72917490D01*
X28568362Y-72999550D01*
X28489157Y-73108566D01*
X28381933Y-73319003D01*
X28308946Y-73543631D01*
X28272000Y-73776902D01*
X28272000Y-74013097D01*
X28308946Y-74246368D01*
X28381933Y-74470996D01*
X28489157Y-74681433D01*
X28627983Y-74872510D01*
X28794990Y-75039517D01*
X28829627Y-75064683D01*
X28872292Y-75120013D01*
X28878271Y-75189626D01*
X28845665Y-75251421D01*
X28829630Y-75265315D01*
X28811865Y-75278222D01*
X28794988Y-75290484D01*
X28627985Y-75457487D01*
X28627985Y-75457488D01*
X28627983Y-75457490D01*
X28568362Y-75539550D01*
X28489157Y-75648566D01*
X28381933Y-75859003D01*
X28308946Y-76083631D01*
X28272000Y-76316902D01*
X28272000Y-76553097D01*
X28308947Y-76786369D01*
X28308947Y-76786372D01*
X28349950Y-76912564D01*
X28351945Y-76982405D01*
X28319700Y-77038563D01*
X27303786Y-78054478D01*
X27191981Y-78166282D01*
X27191979Y-78166285D01*
X27141861Y-78253094D01*
X27141859Y-78253096D01*
X27112925Y-78303209D01*
X27112924Y-78303210D01*
X27112923Y-78303215D01*
X27071999Y-78455943D01*
X27071999Y-78455945D01*
X27071999Y-78624046D01*
X27072000Y-78624059D01*
X27072000Y-91963330D01*
X27071999Y-91963348D01*
X27071999Y-92129054D01*
X27071998Y-92129054D01*
X27110017Y-92270943D01*
X27112923Y-92281785D01*
X27128370Y-92308540D01*
X27128371Y-92308542D01*
X27128372Y-92308542D01*
X27191979Y-92418714D01*
X27191981Y-92418717D01*
X27310849Y-92537585D01*
X27310854Y-92537589D01*
X29203784Y-94430520D01*
X29203786Y-94430521D01*
X29203790Y-94430524D01*
X29340709Y-94509573D01*
X29340716Y-94509577D01*
X29493443Y-94550501D01*
X29493445Y-94550501D01*
X29659154Y-94550501D01*
X29659170Y-94550500D01*
X43069903Y-94550500D01*
X43136942Y-94570185D01*
X43157584Y-94586819D01*
X43908584Y-95337819D01*
X43942069Y-95399142D01*
X43937085Y-95468834D01*
X43895213Y-95524767D01*
X43829749Y-95549184D01*
X43820903Y-95549500D01*
X43673713Y-95549500D01*
X43625042Y-95557208D01*
X43463760Y-95582753D01*
X43261585Y-95648444D01*
X43072179Y-95744951D01*
X42900213Y-95869890D01*
X42749890Y-96020213D01*
X42624949Y-96192182D01*
X42620484Y-96200946D01*
X42572509Y-96251742D01*
X42504688Y-96268536D01*
X42438553Y-96245998D01*
X42399516Y-96200946D01*
X42395050Y-96192182D01*
X42270109Y-96020213D01*
X42119786Y-95869890D01*
X41947820Y-95744951D01*
X41758414Y-95648444D01*
X41758413Y-95648443D01*
X41758412Y-95648443D01*
X41556243Y-95582754D01*
X41556241Y-95582753D01*
X41556240Y-95582753D01*
X41394957Y-95557208D01*
X41346287Y-95549500D01*
X41133713Y-95549500D01*
X41085042Y-95557208D01*
X40923760Y-95582753D01*
X40721585Y-95648444D01*
X40532179Y-95744951D01*
X40360213Y-95869890D01*
X40209890Y-96020213D01*
X40084949Y-96192182D01*
X40080484Y-96200946D01*
X40032509Y-96251742D01*
X39964688Y-96268536D01*
X39898553Y-96245998D01*
X39859516Y-96200946D01*
X39855050Y-96192182D01*
X39730109Y-96020213D01*
X39579786Y-95869890D01*
X39407820Y-95744951D01*
X39218414Y-95648444D01*
X39218413Y-95648443D01*
X39218412Y-95648443D01*
X39016243Y-95582754D01*
X39016241Y-95582753D01*
X39016240Y-95582753D01*
X38854957Y-95557208D01*
X38806287Y-95549500D01*
X38593713Y-95549500D01*
X38545042Y-95557208D01*
X38383760Y-95582753D01*
X38181585Y-95648444D01*
X37992179Y-95744951D01*
X37820213Y-95869890D01*
X37669890Y-96020213D01*
X37544949Y-96192182D01*
X37540484Y-96200946D01*
X37492509Y-96251742D01*
X37424688Y-96268536D01*
X37358553Y-96245998D01*
X37319516Y-96200946D01*
X37315050Y-96192182D01*
X37190109Y-96020213D01*
X37039786Y-95869890D01*
X36867820Y-95744951D01*
X36678414Y-95648444D01*
X36678413Y-95648443D01*
X36678412Y-95648443D01*
X36476243Y-95582754D01*
X36476241Y-95582753D01*
X36476240Y-95582753D01*
X36314957Y-95557208D01*
X36266287Y-95549500D01*
X36053713Y-95549500D01*
X36005042Y-95557208D01*
X35843760Y-95582753D01*
X35641585Y-95648444D01*
X35452179Y-95744951D01*
X35280213Y-95869890D01*
X35129890Y-96020213D01*
X35004949Y-96192182D01*
X35000484Y-96200946D01*
X34952509Y-96251742D01*
X34884688Y-96268536D01*
X34818553Y-96245998D01*
X34779516Y-96200946D01*
X34775050Y-96192182D01*
X34650109Y-96020213D01*
X34499786Y-95869890D01*
X34327820Y-95744951D01*
X34138414Y-95648444D01*
X34138413Y-95648443D01*
X34138412Y-95648443D01*
X33936243Y-95582754D01*
X33936241Y-95582753D01*
X33936240Y-95582753D01*
X33774957Y-95557208D01*
X33726287Y-95549500D01*
X33513713Y-95549500D01*
X33465042Y-95557208D01*
X33303760Y-95582753D01*
X33101585Y-95648444D01*
X32912179Y-95744951D01*
X32740213Y-95869890D01*
X32589890Y-96020213D01*
X32464949Y-96192182D01*
X32460484Y-96200946D01*
X32412509Y-96251742D01*
X32344688Y-96268536D01*
X32278553Y-96245998D01*
X32239516Y-96200946D01*
X32235050Y-96192182D01*
X32110109Y-96020213D01*
X31959786Y-95869890D01*
X31787820Y-95744951D01*
X31598414Y-95648444D01*
X31598413Y-95648443D01*
X31598412Y-95648443D01*
X31396243Y-95582754D01*
X31396241Y-95582753D01*
X31396240Y-95582753D01*
X31234957Y-95557208D01*
X31186287Y-95549500D01*
X30973713Y-95549500D01*
X30925042Y-95557208D01*
X30763760Y-95582753D01*
X30561585Y-95648444D01*
X30372179Y-95744951D01*
X30200213Y-95869890D01*
X30049890Y-96020213D01*
X29924951Y-96192179D01*
X29828444Y-96381585D01*
X29762753Y-96583760D01*
X29729500Y-96793713D01*
X29729500Y-97006287D01*
X29762754Y-97216243D01*
X29776486Y-97258507D01*
X29828444Y-97418414D01*
X29924951Y-97607820D01*
X30049890Y-97779786D01*
X30200213Y-97930109D01*
X30372179Y-98055048D01*
X30372181Y-98055049D01*
X30372184Y-98055051D01*
X30561588Y-98151557D01*
X30763757Y-98217246D01*
X30973713Y-98250500D01*
X30973714Y-98250500D01*
X31186286Y-98250500D01*
X31186287Y-98250500D01*
X31396243Y-98217246D01*
X31598412Y-98151557D01*
X31787816Y-98055051D01*
X31874138Y-97992335D01*
X31959786Y-97930109D01*
X31959788Y-97930106D01*
X31959792Y-97930104D01*
X32110104Y-97779792D01*
X32110106Y-97779788D01*
X32110109Y-97779786D01*
X32235048Y-97607820D01*
X32235047Y-97607820D01*
X32235051Y-97607816D01*
X32239514Y-97599054D01*
X32287488Y-97548259D01*
X32355308Y-97531463D01*
X32421444Y-97553999D01*
X32460486Y-97599056D01*
X32464951Y-97607820D01*
X32589890Y-97779786D01*
X32740213Y-97930109D01*
X32912179Y-98055048D01*
X32912181Y-98055049D01*
X32912184Y-98055051D01*
X33101588Y-98151557D01*
X33303757Y-98217246D01*
X33513713Y-98250500D01*
X33513714Y-98250500D01*
X33726286Y-98250500D01*
X33726287Y-98250500D01*
X33936243Y-98217246D01*
X34138412Y-98151557D01*
X34327816Y-98055051D01*
X34414138Y-97992335D01*
X34499786Y-97930109D01*
X34499788Y-97930106D01*
X34499792Y-97930104D01*
X34650104Y-97779792D01*
X34650106Y-97779788D01*
X34650109Y-97779786D01*
X34775048Y-97607820D01*
X34775047Y-97607820D01*
X34775051Y-97607816D01*
X34779514Y-97599054D01*
X34827488Y-97548259D01*
X34895308Y-97531463D01*
X34961444Y-97553999D01*
X35000486Y-97599056D01*
X35004951Y-97607820D01*
X35129890Y-97779786D01*
X35280213Y-97930109D01*
X35452179Y-98055048D01*
X35452181Y-98055049D01*
X35452184Y-98055051D01*
X35641588Y-98151557D01*
X35843757Y-98217246D01*
X36053713Y-98250500D01*
X36053714Y-98250500D01*
X36266286Y-98250500D01*
X36266287Y-98250500D01*
X36476243Y-98217246D01*
X36678412Y-98151557D01*
X36867816Y-98055051D01*
X36954138Y-97992335D01*
X37039786Y-97930109D01*
X37039788Y-97930106D01*
X37039792Y-97930104D01*
X37190104Y-97779792D01*
X37190106Y-97779788D01*
X37190109Y-97779786D01*
X37315048Y-97607820D01*
X37315047Y-97607820D01*
X37315051Y-97607816D01*
X37319514Y-97599054D01*
X37367488Y-97548259D01*
X37435308Y-97531463D01*
X37501444Y-97553999D01*
X37540486Y-97599056D01*
X37544951Y-97607820D01*
X37669890Y-97779786D01*
X37820213Y-97930109D01*
X37992179Y-98055048D01*
X37992181Y-98055049D01*
X37992184Y-98055051D01*
X38181588Y-98151557D01*
X38383757Y-98217246D01*
X38593713Y-98250500D01*
X38593714Y-98250500D01*
X38806286Y-98250500D01*
X38806287Y-98250500D01*
X39016243Y-98217246D01*
X39218412Y-98151557D01*
X39407816Y-98055051D01*
X39494138Y-97992335D01*
X39579786Y-97930109D01*
X39579788Y-97930106D01*
X39579792Y-97930104D01*
X39730104Y-97779792D01*
X39730106Y-97779788D01*
X39730109Y-97779786D01*
X39855048Y-97607820D01*
X39855047Y-97607820D01*
X39855051Y-97607816D01*
X39859514Y-97599054D01*
X39907488Y-97548259D01*
X39975308Y-97531463D01*
X40041444Y-97553999D01*
X40080486Y-97599056D01*
X40084951Y-97607820D01*
X40209890Y-97779786D01*
X40360213Y-97930109D01*
X40532179Y-98055048D01*
X40532181Y-98055049D01*
X40532184Y-98055051D01*
X40721588Y-98151557D01*
X40923757Y-98217246D01*
X41133713Y-98250500D01*
X41133714Y-98250500D01*
X41346286Y-98250500D01*
X41346287Y-98250500D01*
X41556243Y-98217246D01*
X41758412Y-98151557D01*
X41947816Y-98055051D01*
X42034138Y-97992335D01*
X42119786Y-97930109D01*
X42119788Y-97930106D01*
X42119792Y-97930104D01*
X42270104Y-97779792D01*
X42270106Y-97779788D01*
X42270109Y-97779786D01*
X42395048Y-97607820D01*
X42395047Y-97607820D01*
X42395051Y-97607816D01*
X42399514Y-97599054D01*
X42447488Y-97548259D01*
X42515308Y-97531463D01*
X42581444Y-97553999D01*
X42620486Y-97599056D01*
X42624951Y-97607820D01*
X42749890Y-97779786D01*
X42900213Y-97930109D01*
X43072179Y-98055048D01*
X43072181Y-98055049D01*
X43072184Y-98055051D01*
X43261588Y-98151557D01*
X43463757Y-98217246D01*
X43673713Y-98250500D01*
X43673714Y-98250500D01*
X43886286Y-98250500D01*
X43886287Y-98250500D01*
X44096243Y-98217246D01*
X44298412Y-98151557D01*
X44487816Y-98055051D01*
X44574138Y-97992335D01*
X44659786Y-97930109D01*
X44659788Y-97930106D01*
X44659792Y-97930104D01*
X44810104Y-97779792D01*
X44810106Y-97779788D01*
X44810109Y-97779786D01*
X44935048Y-97607820D01*
X44935047Y-97607820D01*
X44935051Y-97607816D01*
X44939514Y-97599054D01*
X44987488Y-97548259D01*
X45055308Y-97531463D01*
X45121444Y-97553999D01*
X45160486Y-97599056D01*
X45164951Y-97607820D01*
X45289890Y-97779786D01*
X45440213Y-97930109D01*
X45612179Y-98055048D01*
X45612181Y-98055049D01*
X45612184Y-98055051D01*
X45801588Y-98151557D01*
X46003757Y-98217246D01*
X46213713Y-98250500D01*
X46213714Y-98250500D01*
X46426286Y-98250500D01*
X46426287Y-98250500D01*
X46636243Y-98217246D01*
X46838412Y-98151557D01*
X47027816Y-98055051D01*
X47114138Y-97992335D01*
X47199786Y-97930109D01*
X47199788Y-97930106D01*
X47199792Y-97930104D01*
X47350104Y-97779792D01*
X47350106Y-97779788D01*
X47350109Y-97779786D01*
X47475048Y-97607820D01*
X47475047Y-97607820D01*
X47475051Y-97607816D01*
X47479514Y-97599054D01*
X47527488Y-97548259D01*
X47595308Y-97531463D01*
X47661444Y-97553999D01*
X47700486Y-97599056D01*
X47704951Y-97607820D01*
X47829890Y-97779786D01*
X47980213Y-97930109D01*
X48152179Y-98055048D01*
X48152181Y-98055049D01*
X48152184Y-98055051D01*
X48341588Y-98151557D01*
X48543757Y-98217246D01*
X48753713Y-98250500D01*
X48753714Y-98250500D01*
X48966286Y-98250500D01*
X48966287Y-98250500D01*
X49176243Y-98217246D01*
X49378412Y-98151557D01*
X49567816Y-98055051D01*
X49654138Y-97992335D01*
X49739786Y-97930109D01*
X49739788Y-97930106D01*
X49739792Y-97930104D01*
X49890104Y-97779792D01*
X49890106Y-97779788D01*
X49890109Y-97779786D01*
X49957515Y-97687007D01*
X50015051Y-97607816D01*
X50019793Y-97598508D01*
X50067763Y-97547711D01*
X50135583Y-97530911D01*
X50201719Y-97553445D01*
X50240763Y-97598500D01*
X50245373Y-97607547D01*
X50284728Y-97661716D01*
X50917037Y-97029408D01*
X50934075Y-97092993D01*
X50999901Y-97207007D01*
X51092993Y-97300099D01*
X51207007Y-97365925D01*
X51270590Y-97382962D01*
X50638282Y-98015269D01*
X50638282Y-98015270D01*
X50692449Y-98054624D01*
X50881782Y-98151095D01*
X51083870Y-98216757D01*
X51293754Y-98250000D01*
X51506246Y-98250000D01*
X51716127Y-98216757D01*
X51716130Y-98216757D01*
X51918217Y-98151095D01*
X52107554Y-98054622D01*
X52161716Y-98015270D01*
X52161717Y-98015270D01*
X51529408Y-97382962D01*
X51592993Y-97365925D01*
X51707007Y-97300099D01*
X51800099Y-97207007D01*
X51865925Y-97092993D01*
X51882962Y-97029408D01*
X52553181Y-97699628D01*
X52586666Y-97760951D01*
X52589500Y-97787300D01*
X52589500Y-97797865D01*
X52589501Y-97797876D01*
X52595908Y-97857483D01*
X52646202Y-97992328D01*
X52646206Y-97992335D01*
X52732452Y-98107544D01*
X52732455Y-98107547D01*
X52847664Y-98193793D01*
X52847671Y-98193797D01*
X52982517Y-98244091D01*
X52982516Y-98244091D01*
X52989444Y-98244835D01*
X53042127Y-98250500D01*
X54837872Y-98250499D01*
X54897483Y-98244091D01*
X55032331Y-98193796D01*
X55147546Y-98107546D01*
X55233796Y-97992331D01*
X55284091Y-97857483D01*
X55290500Y-97797873D01*
X55290500Y-97624500D01*
X55310185Y-97557461D01*
X55362989Y-97511706D01*
X55414500Y-97500500D01*
X62035831Y-97500500D01*
X62035847Y-97500501D01*
X62043443Y-97500501D01*
X62201554Y-97500501D01*
X62201557Y-97500501D01*
X62354285Y-97459577D01*
X62404404Y-97430639D01*
X62491216Y-97380520D01*
X62603020Y-97268716D01*
X62603020Y-97268714D01*
X62613228Y-97258507D01*
X62613229Y-97258504D01*
X64053020Y-95818716D01*
X64132077Y-95681784D01*
X64173001Y-95529057D01*
X64173001Y-95370942D01*
X64173001Y-95363347D01*
X64173000Y-95363329D01*
X64173000Y-83970944D01*
X64172999Y-83970940D01*
X64163880Y-83936908D01*
X64132077Y-83818215D01*
X64098609Y-83760248D01*
X64053020Y-83681284D01*
X63941216Y-83569480D01*
X63941215Y-83569479D01*
X63936885Y-83565149D01*
X63936874Y-83565139D01*
X62959318Y-82587583D01*
X62925833Y-82526260D01*
X62922999Y-82499902D01*
X62922999Y-81152129D01*
X62922998Y-81152123D01*
X62922997Y-81152116D01*
X62916591Y-81092517D01*
X62866296Y-80957669D01*
X62866295Y-80957668D01*
X62866293Y-80957664D01*
X62780047Y-80842455D01*
X62780044Y-80842452D01*
X62664835Y-80756206D01*
X62664828Y-80756202D01*
X62529982Y-80705908D01*
X62529983Y-80705908D01*
X62470383Y-80699501D01*
X62470381Y-80699500D01*
X62470373Y-80699500D01*
X62470364Y-80699500D01*
X60674629Y-80699500D01*
X60674623Y-80699501D01*
X60615016Y-80705908D01*
X60480171Y-80756202D01*
X60480164Y-80756206D01*
X60364955Y-80842452D01*
X60364952Y-80842455D01*
X60278706Y-80957664D01*
X60278702Y-80957671D01*
X60228408Y-81092517D01*
X60222001Y-81152116D01*
X60222001Y-81152123D01*
X60222000Y-81152135D01*
X60222000Y-82947870D01*
X60222001Y-82947876D01*
X60228408Y-83007483D01*
X60278702Y-83142328D01*
X60278706Y-83142335D01*
X60364952Y-83257544D01*
X60364955Y-83257547D01*
X60480164Y-83343793D01*
X60480171Y-83343797D01*
X60525118Y-83360561D01*
X60615017Y-83394091D01*
X60674627Y-83400500D01*
X60685185Y-83400499D01*
X60752223Y-83420179D01*
X60772872Y-83436818D01*
X61443091Y-84107037D01*
X61379507Y-84124075D01*
X61265493Y-84189901D01*
X61172401Y-84282993D01*
X61106575Y-84397007D01*
X61089537Y-84460591D01*
X60457228Y-83828282D01*
X60457227Y-83828282D01*
X60417880Y-83882439D01*
X60321404Y-84071782D01*
X60255742Y-84273869D01*
X60255742Y-84273872D01*
X60222500Y-84483753D01*
X60222500Y-84696246D01*
X60255742Y-84906127D01*
X60255742Y-84906130D01*
X60321404Y-85108217D01*
X60417875Y-85297550D01*
X60457228Y-85351716D01*
X61089537Y-84719408D01*
X61106575Y-84782993D01*
X61172401Y-84897007D01*
X61265493Y-84990099D01*
X61379507Y-85055925D01*
X61443090Y-85072962D01*
X60810782Y-85705269D01*
X60810782Y-85705270D01*
X60864952Y-85744626D01*
X60864951Y-85744626D01*
X60873995Y-85749234D01*
X60924792Y-85797208D01*
X60941587Y-85865029D01*
X60919050Y-85931164D01*
X60873999Y-85970202D01*
X60864682Y-85974949D01*
X60692713Y-86099890D01*
X60692709Y-86099894D01*
X60542397Y-86250207D01*
X60542390Y-86250213D01*
X60417451Y-86422179D01*
X60320944Y-86611585D01*
X60255253Y-86813760D01*
X60222000Y-87023713D01*
X60222000Y-87236286D01*
X60255254Y-87446244D01*
X60255254Y-87446247D01*
X60268991Y-87488523D01*
X60270986Y-87558364D01*
X60238741Y-87614522D01*
X54940084Y-92913181D01*
X54878761Y-92946666D01*
X54852403Y-92949500D01*
X53772598Y-92949500D01*
X53705559Y-92929815D01*
X53684917Y-92913181D01*
X53488319Y-92716583D01*
X53454834Y-92655260D01*
X53452000Y-92628902D01*
X53452000Y-91523361D01*
X53471685Y-91456322D01*
X53524489Y-91410567D01*
X53593647Y-91400623D01*
X53651487Y-91424986D01*
X53727882Y-91483607D01*
X53727885Y-91483608D01*
X53727888Y-91483611D01*
X53926612Y-91598344D01*
X53926617Y-91598346D01*
X53926623Y-91598349D01*
X54017980Y-91636190D01*
X54138613Y-91686158D01*
X54360262Y-91745548D01*
X54587766Y-91775500D01*
X54587773Y-91775500D01*
X54817227Y-91775500D01*
X54817234Y-91775500D01*
X55044738Y-91745548D01*
X55266387Y-91686158D01*
X55478388Y-91598344D01*
X55677112Y-91483611D01*
X55859161Y-91343919D01*
X55859165Y-91343914D01*
X55859170Y-91343911D01*
X56021411Y-91181670D01*
X56021414Y-91181665D01*
X56021419Y-91181661D01*
X56161111Y-90999612D01*
X56275844Y-90800888D01*
X56363658Y-90588887D01*
X56423048Y-90367238D01*
X56453000Y-90139734D01*
X56453000Y-89910266D01*
X56423048Y-89682762D01*
X56363658Y-89461113D01*
X56275844Y-89249112D01*
X56161111Y-89050388D01*
X56161108Y-89050385D01*
X56161107Y-89050382D01*
X56021418Y-88868338D01*
X56021411Y-88868330D01*
X55859170Y-88706089D01*
X55859161Y-88706081D01*
X55677117Y-88566392D01*
X55478390Y-88451657D01*
X55478376Y-88451650D01*
X55266387Y-88363842D01*
X55174697Y-88339274D01*
X55115038Y-88302910D01*
X55084509Y-88240063D01*
X55092804Y-88170688D01*
X55137289Y-88116810D01*
X55203841Y-88095535D01*
X55206792Y-88095500D01*
X55290597Y-88095500D01*
X55523868Y-88058553D01*
X55603838Y-88032569D01*
X55748492Y-87985568D01*
X55958933Y-87878343D01*
X56150010Y-87739517D01*
X56317017Y-87572510D01*
X56455843Y-87381433D01*
X56563068Y-87170992D01*
X56636053Y-86946368D01*
X56673000Y-86713097D01*
X56673000Y-86476902D01*
X56636053Y-86243631D01*
X56589350Y-86099896D01*
X56563068Y-86019008D01*
X56563066Y-86019005D01*
X56563066Y-86019003D01*
X56506502Y-85907991D01*
X56455843Y-85808567D01*
X56317017Y-85617490D01*
X56150010Y-85450483D01*
X56115372Y-85425317D01*
X56072707Y-85369989D01*
X56066728Y-85300375D01*
X56099333Y-85238580D01*
X56115373Y-85224682D01*
X56150010Y-85199517D01*
X56317017Y-85032510D01*
X56455843Y-84841433D01*
X56563068Y-84630992D01*
X56636053Y-84406368D01*
X56670338Y-84189901D01*
X56673000Y-84173097D01*
X56673000Y-83936902D01*
X56636053Y-83703631D01*
X56592464Y-83569480D01*
X56563068Y-83479008D01*
X56563066Y-83479005D01*
X56563066Y-83479003D01*
X56506502Y-83367991D01*
X56455843Y-83268567D01*
X56317017Y-83077490D01*
X56150010Y-82910483D01*
X56115372Y-82885317D01*
X56072707Y-82829989D01*
X56066728Y-82760375D01*
X56099333Y-82698580D01*
X56115373Y-82684682D01*
X56150010Y-82659517D01*
X56317017Y-82492510D01*
X56455843Y-82301433D01*
X56563068Y-82090992D01*
X56636053Y-81866368D01*
X56673000Y-81633097D01*
X56673000Y-81396902D01*
X56636053Y-81163631D01*
X56569131Y-80957669D01*
X56563068Y-80939008D01*
X56563066Y-80939005D01*
X56563066Y-80939003D01*
X56471858Y-80759999D01*
X56455843Y-80728567D01*
X56317017Y-80537490D01*
X56150010Y-80370483D01*
X56115372Y-80345317D01*
X56072707Y-80289989D01*
X56066728Y-80220375D01*
X56099333Y-80158580D01*
X56115373Y-80144682D01*
X56150010Y-80119517D01*
X56317017Y-79952510D01*
X56455843Y-79761433D01*
X56563068Y-79550992D01*
X56636053Y-79326368D01*
X56673000Y-79093097D01*
X56673000Y-78856902D01*
X56648368Y-78701390D01*
X56636053Y-78623632D01*
X56595047Y-78497433D01*
X56593053Y-78427593D01*
X56625296Y-78371437D01*
X62554020Y-72442716D01*
X62633077Y-72305785D01*
X62674001Y-72153057D01*
X62674001Y-71994942D01*
X62674001Y-71987347D01*
X62674000Y-71987329D01*
X62674000Y-71249096D01*
X62693685Y-71182057D01*
X62710315Y-71161419D01*
X63331006Y-70540727D01*
X63331011Y-70540724D01*
X63341214Y-70530520D01*
X63341216Y-70530520D01*
X63453020Y-70418716D01*
X63476823Y-70377488D01*
X63512602Y-70315517D01*
X63512605Y-70315508D01*
X63512611Y-70315500D01*
X63532077Y-70281785D01*
X63573001Y-70129057D01*
X63573001Y-69970943D01*
X63573001Y-69963348D01*
X63573000Y-69963330D01*
X63573000Y-50145942D01*
X63571274Y-50139501D01*
X63571273Y-50139498D01*
X63551062Y-50064070D01*
X63549299Y-50057490D01*
X63532077Y-49993216D01*
X63528555Y-49987116D01*
X63453024Y-49856290D01*
X63453021Y-49856286D01*
X63453020Y-49856284D01*
X63341216Y-49744480D01*
X63341215Y-49744479D01*
X63336885Y-49740149D01*
X63336874Y-49740139D01*
X62872590Y-49275855D01*
X62872588Y-49275852D01*
X62753717Y-49156981D01*
X62753716Y-49156980D01*
X62666904Y-49106860D01*
X62666904Y-49106859D01*
X62666900Y-49106858D01*
X62616785Y-49077923D01*
X62464057Y-49036999D01*
X62305943Y-49036999D01*
X62298347Y-49036999D01*
X62298331Y-49037000D01*
X61930111Y-49037000D01*
X61863072Y-49017315D01*
X61824572Y-48978096D01*
X61792840Y-48926650D01*
X61670851Y-48804661D01*
X61670850Y-48804660D01*
X61524016Y-48714092D01*
X61360253Y-48659826D01*
X61360251Y-48659825D01*
X61259178Y-48649500D01*
X60685830Y-48649500D01*
X60685812Y-48649501D01*
X60583767Y-48659926D01*
X60515074Y-48647156D01*
X60483485Y-48624249D01*
X59984318Y-48125082D01*
X59950833Y-48063759D01*
X59947999Y-48037401D01*
X59947999Y-47663330D01*
X59947998Y-47663313D01*
X59937674Y-47562247D01*
X59883408Y-47398484D01*
X59792840Y-47251650D01*
X59678871Y-47137681D01*
X59645386Y-47076358D01*
X59650370Y-47006666D01*
X59678871Y-46962319D01*
X59792840Y-46848350D01*
X59883408Y-46701516D01*
X59937674Y-46537753D01*
X59948000Y-46436677D01*
X59947999Y-45838324D01*
X59937674Y-45737247D01*
X59883408Y-45573484D01*
X59792840Y-45426650D01*
X59670850Y-45304660D01*
X59670849Y-45304659D01*
X59631902Y-45280636D01*
X59585178Y-45228687D01*
X59573000Y-45175098D01*
X59573000Y-37420945D01*
X59573000Y-37420943D01*
X59536663Y-37285331D01*
X59532077Y-37268215D01*
X59478548Y-37175501D01*
X59453020Y-37131284D01*
X59341216Y-37019480D01*
X59341215Y-37019479D01*
X59336885Y-37015149D01*
X59336874Y-37015139D01*
X48835090Y-26513355D01*
X48835088Y-26513352D01*
X48716217Y-26394481D01*
X48716216Y-26394480D01*
X48629404Y-26344360D01*
X48629404Y-26344359D01*
X48629400Y-26344358D01*
X48579285Y-26315423D01*
X48426557Y-26274499D01*
X48268443Y-26274499D01*
X48260847Y-26274499D01*
X48260831Y-26274500D01*
X45024500Y-26274500D01*
X44957461Y-26254815D01*
X44911706Y-26202011D01*
X44900500Y-26150500D01*
X44900500Y-26118948D01*
X44920185Y-26051909D01*
X44972989Y-26006154D01*
X45042147Y-25996210D01*
X45046794Y-25996969D01*
X45047512Y-25997100D01*
X45049998Y-25997295D01*
X45050000Y-25997295D01*
X45050000Y-25634050D01*
X45054924Y-25599455D01*
X45097597Y-25452573D01*
X45097598Y-25452567D01*
X45100499Y-25415701D01*
X45100500Y-25415694D01*
X45100500Y-24334306D01*
X45100499Y-24334298D01*
X45499500Y-24334298D01*
X45499500Y-25415701D01*
X45502401Y-25452567D01*
X45502402Y-25452573D01*
X45545076Y-25599455D01*
X45550000Y-25634050D01*
X45550000Y-25997295D01*
X45550001Y-25997295D01*
X45552486Y-25997100D01*
X45710199Y-25951281D01*
X45736386Y-25935794D01*
X45804110Y-25918610D01*
X45862628Y-25935791D01*
X45889602Y-25951744D01*
X45889604Y-25951744D01*
X45889605Y-25951745D01*
X46047426Y-25997597D01*
X46047429Y-25997597D01*
X46047431Y-25997598D01*
X46084306Y-26000500D01*
X46084314Y-26000500D01*
X46515686Y-26000500D01*
X46515694Y-26000500D01*
X46552569Y-25997598D01*
X46552571Y-25997597D01*
X46552573Y-25997597D01*
X46615316Y-25979368D01*
X46710398Y-25951744D01*
X46851865Y-25868081D01*
X46968081Y-25751865D01*
X47051744Y-25610398D01*
X47085943Y-25492684D01*
X47097597Y-25452573D01*
X47097598Y-25452567D01*
X47100499Y-25415701D01*
X47100500Y-25415694D01*
X47100500Y-24334306D01*
X47097598Y-24297431D01*
X47090554Y-24273187D01*
X47051745Y-24139606D01*
X47051744Y-24139603D01*
X47051744Y-24139602D01*
X46968081Y-23998135D01*
X46968079Y-23998133D01*
X46968076Y-23998129D01*
X46851870Y-23881923D01*
X46851862Y-23881917D01*
X46756061Y-23825261D01*
X46710398Y-23798256D01*
X46710397Y-23798255D01*
X46710396Y-23798255D01*
X46710393Y-23798254D01*
X46552573Y-23752402D01*
X46552567Y-23752401D01*
X46515701Y-23749500D01*
X46515694Y-23749500D01*
X46084306Y-23749500D01*
X46084298Y-23749500D01*
X46047432Y-23752401D01*
X46047426Y-23752402D01*
X45889605Y-23798254D01*
X45889595Y-23798258D01*
X45862627Y-23814207D01*
X45794902Y-23831388D01*
X45736388Y-23814207D01*
X45710196Y-23798717D01*
X45710193Y-23798716D01*
X45552494Y-23752900D01*
X45552497Y-23752900D01*
X45550000Y-23752703D01*
X45550000Y-24115950D01*
X45545076Y-24150545D01*
X45502402Y-24297426D01*
X45502401Y-24297432D01*
X45499500Y-24334298D01*
X45100499Y-24334298D01*
X45097598Y-24297431D01*
X45090936Y-24274500D01*
X45054924Y-24150545D01*
X45050000Y-24115950D01*
X45050000Y-23752703D01*
X45047504Y-23752900D01*
X44889806Y-23798716D01*
X44889798Y-23798719D01*
X44863608Y-23814208D01*
X44795884Y-23831388D01*
X44737371Y-23814207D01*
X44710398Y-23798256D01*
X44710393Y-23798254D01*
X44552573Y-23752402D01*
X44552567Y-23752401D01*
X44515701Y-23749500D01*
X44515694Y-23749500D01*
X44084306Y-23749500D01*
X44084298Y-23749500D01*
X44047432Y-23752401D01*
X44047426Y-23752402D01*
X43889606Y-23798253D01*
X43863119Y-23813918D01*
X43795394Y-23831098D01*
X43736881Y-23813918D01*
X43710393Y-23798253D01*
X43552573Y-23752402D01*
X43552567Y-23752401D01*
X43515701Y-23749500D01*
X43515694Y-23749500D01*
X43084306Y-23749500D01*
X43084298Y-23749500D01*
X43047432Y-23752401D01*
X43047426Y-23752402D01*
X42889605Y-23798254D01*
X42889595Y-23798258D01*
X42862627Y-23814207D01*
X42794902Y-23831388D01*
X42736388Y-23814207D01*
X42710196Y-23798717D01*
X42710193Y-23798716D01*
X42552494Y-23752900D01*
X42552497Y-23752900D01*
X42550000Y-23752703D01*
X42550000Y-24115950D01*
X42545076Y-24150545D01*
X42502402Y-24297426D01*
X42502401Y-24297432D01*
X42499500Y-24334298D01*
X42499500Y-25415701D01*
X42502401Y-25452567D01*
X42502402Y-25452573D01*
X42545076Y-25599455D01*
X42550000Y-25634050D01*
X42550000Y-25997295D01*
X42550001Y-25997295D01*
X42552486Y-25997100D01*
X42710199Y-25951281D01*
X42736386Y-25935794D01*
X42804110Y-25918610D01*
X42862628Y-25935791D01*
X42889602Y-25951744D01*
X42889604Y-25951744D01*
X42889605Y-25951745D01*
X43047426Y-25997597D01*
X43047429Y-25997597D01*
X43047431Y-25997598D01*
X43084306Y-26000500D01*
X43084314Y-26000500D01*
X43515686Y-26000500D01*
X43515694Y-26000500D01*
X43552569Y-25997598D01*
X43552570Y-25997597D01*
X43553215Y-25997480D01*
X43553580Y-25997518D01*
X43558886Y-25997101D01*
X43558963Y-25998085D01*
X43622701Y-26004796D01*
X43677201Y-26048517D01*
X43699411Y-26114763D01*
X43699500Y-26119461D01*
X43699500Y-26463330D01*
X43699499Y-26463348D01*
X43699499Y-26629054D01*
X43699498Y-26629054D01*
X43740423Y-26781785D01*
X43763518Y-26821785D01*
X43763519Y-26821789D01*
X43763520Y-26821789D01*
X43819479Y-26918714D01*
X43819481Y-26918717D01*
X43938349Y-27037585D01*
X43938355Y-27037590D01*
X44140139Y-27239374D01*
X44140149Y-27239385D01*
X44144479Y-27243715D01*
X44144480Y-27243716D01*
X44256284Y-27355520D01*
X44256286Y-27355521D01*
X44256290Y-27355524D01*
X44361720Y-27416393D01*
X44393216Y-27434577D01*
X44505019Y-27464534D01*
X44545942Y-27475500D01*
X44545943Y-27475500D01*
X48047403Y-27475500D01*
X48114442Y-27495185D01*
X48135084Y-27511819D01*
X48571084Y-27947819D01*
X48604569Y-28009142D01*
X48599585Y-28078834D01*
X48557713Y-28134767D01*
X48492249Y-28159184D01*
X48483403Y-28159500D01*
X48387060Y-28159500D01*
X48180254Y-28200636D01*
X48180246Y-28200638D01*
X47985430Y-28281333D01*
X47985421Y-28281338D01*
X47810096Y-28398487D01*
X47810092Y-28398490D01*
X47660990Y-28547592D01*
X47660987Y-28547596D01*
X47543838Y-28722921D01*
X47543833Y-28722930D01*
X47463138Y-28917746D01*
X47463136Y-28917754D01*
X47422000Y-29124560D01*
X47422000Y-29335439D01*
X47463136Y-29542245D01*
X47463138Y-29542253D01*
X47543833Y-29737069D01*
X47543838Y-29737078D01*
X47660987Y-29912403D01*
X47660990Y-29912407D01*
X47810092Y-30061509D01*
X47810096Y-30061512D01*
X47985421Y-30178661D01*
X47985430Y-30178666D01*
X47999539Y-30184510D01*
X48180247Y-30259362D01*
X48320980Y-30287355D01*
X48387060Y-30300499D01*
X48387064Y-30300500D01*
X48387065Y-30300500D01*
X48597936Y-30300500D01*
X48597937Y-30300499D01*
X48804753Y-30259362D01*
X48999572Y-30178665D01*
X49174904Y-30061512D01*
X49324012Y-29912404D01*
X49441165Y-29737072D01*
X49521862Y-29542253D01*
X49563000Y-29335435D01*
X49563000Y-29239097D01*
X49582685Y-29172058D01*
X49635489Y-29126303D01*
X49704647Y-29116359D01*
X49768203Y-29145384D01*
X49774681Y-29151416D01*
X58335681Y-37712416D01*
X58369166Y-37773739D01*
X58372000Y-37800097D01*
X58372000Y-45175098D01*
X58352315Y-45242137D01*
X58313098Y-45280636D01*
X58274150Y-45304659D01*
X58152161Y-45426648D01*
X58061593Y-45573481D01*
X58061592Y-45573484D01*
X58007326Y-45737247D01*
X58007326Y-45737248D01*
X58007325Y-45737248D01*
X57997000Y-45838315D01*
X57997000Y-46436669D01*
X57997001Y-46436687D01*
X58007325Y-46537752D01*
X58061592Y-46701515D01*
X58061593Y-46701518D01*
X58152161Y-46848351D01*
X58266129Y-46962319D01*
X58299614Y-47023642D01*
X58294630Y-47093334D01*
X58266129Y-47137681D01*
X58152161Y-47251648D01*
X58061593Y-47398481D01*
X58061592Y-47398484D01*
X58007326Y-47562247D01*
X58007326Y-47562248D01*
X58007325Y-47562248D01*
X57997000Y-47663315D01*
X57997000Y-48261669D01*
X57997001Y-48261687D01*
X58007325Y-48362752D01*
X58043609Y-48472249D01*
X58061592Y-48526516D01*
X58152160Y-48673350D01*
X58274150Y-48795340D01*
X58420984Y-48885908D01*
X58584747Y-48940174D01*
X58685823Y-48950500D01*
X59059901Y-48950499D01*
X59126940Y-48970183D01*
X59147582Y-48986818D01*
X59960681Y-49799917D01*
X59994166Y-49861240D01*
X59997000Y-49887596D01*
X59997000Y-49936667D01*
X59997001Y-49936687D01*
X60007325Y-50037752D01*
X60061592Y-50201515D01*
X60061593Y-50201518D01*
X60152161Y-50348351D01*
X60266482Y-50462672D01*
X60299967Y-50523995D01*
X60294983Y-50593687D01*
X60266483Y-50638034D01*
X60152552Y-50751965D01*
X60062051Y-50898688D01*
X60062046Y-50898699D01*
X60007819Y-51062347D01*
X59997500Y-51163345D01*
X59997500Y-51212500D01*
X61947499Y-51212500D01*
X61947499Y-51163360D01*
X61947498Y-51163345D01*
X61937180Y-51062347D01*
X61882953Y-50898699D01*
X61882948Y-50898688D01*
X61792447Y-50751965D01*
X61792444Y-50751961D01*
X61678517Y-50638034D01*
X61676263Y-50633907D01*
X61672312Y-50631356D01*
X61659675Y-50603528D01*
X61645032Y-50576711D01*
X61645367Y-50572020D01*
X61643423Y-50567738D01*
X61647835Y-50537503D01*
X61650016Y-50507019D01*
X61653023Y-50501962D01*
X61653514Y-50498601D01*
X61663899Y-50483677D01*
X61672658Y-50468951D01*
X61675468Y-50465721D01*
X61792840Y-50348350D01*
X61829904Y-50288258D01*
X61836571Y-50280598D01*
X61857791Y-50267024D01*
X61876520Y-50250179D01*
X61888318Y-50247497D01*
X61895430Y-50242949D01*
X61908214Y-50242976D01*
X61930111Y-50238000D01*
X62084903Y-50238000D01*
X62151942Y-50257685D01*
X62172584Y-50274319D01*
X62335681Y-50437416D01*
X62369166Y-50498739D01*
X62372000Y-50525097D01*
X62372000Y-57946736D01*
X62352315Y-58013775D01*
X62299511Y-58059530D01*
X62230353Y-58069474D01*
X62166797Y-58040449D01*
X62142462Y-58011833D01*
X62105342Y-57951653D01*
X62105339Y-57951649D01*
X61983351Y-57829661D01*
X61983350Y-57829660D01*
X61836516Y-57739092D01*
X61672753Y-57684826D01*
X61672751Y-57684825D01*
X61571678Y-57674500D01*
X60973330Y-57674500D01*
X60973312Y-57674501D01*
X60872247Y-57684825D01*
X60708484Y-57739092D01*
X60708481Y-57739093D01*
X60561648Y-57829661D01*
X60447681Y-57943629D01*
X60386358Y-57977114D01*
X60316666Y-57972130D01*
X60272319Y-57943629D01*
X60158351Y-57829661D01*
X60158350Y-57829660D01*
X60011516Y-57739092D01*
X59847753Y-57684826D01*
X59847751Y-57684825D01*
X59746678Y-57674500D01*
X59148330Y-57674500D01*
X59148312Y-57674501D01*
X59047247Y-57684825D01*
X58883484Y-57739092D01*
X58883481Y-57739093D01*
X58736648Y-57829661D01*
X58614659Y-57951650D01*
X58587554Y-57995596D01*
X58535606Y-58042321D01*
X58482015Y-58054500D01*
X56626568Y-58054500D01*
X56559529Y-58034815D01*
X56516083Y-57986795D01*
X56455843Y-57868567D01*
X56317017Y-57677490D01*
X56150010Y-57510483D01*
X56115372Y-57485317D01*
X56072707Y-57429989D01*
X56066728Y-57360375D01*
X56099333Y-57298580D01*
X56115373Y-57284682D01*
X56150010Y-57259517D01*
X56317017Y-57092510D01*
X56455843Y-56901433D01*
X56563068Y-56690992D01*
X56636053Y-56466368D01*
X56648676Y-56386669D01*
X56673000Y-56233097D01*
X56673000Y-55996902D01*
X56636053Y-55763631D01*
X56574034Y-55572758D01*
X56563068Y-55539008D01*
X56563066Y-55539005D01*
X56563066Y-55539003D01*
X56493081Y-55401650D01*
X56455843Y-55328567D01*
X56317017Y-55137490D01*
X56150010Y-54970483D01*
X56090782Y-54927451D01*
X56048117Y-54872122D01*
X56040050Y-54817404D01*
X56041604Y-54797657D01*
X55310074Y-54066128D01*
X55369353Y-54050245D01*
X55485647Y-53983102D01*
X55580602Y-53888147D01*
X55647745Y-53771853D01*
X55663628Y-53712575D01*
X56395158Y-54444105D01*
X56395158Y-54444104D01*
X56455414Y-54361169D01*
X56455418Y-54361163D01*
X56562602Y-54150802D01*
X56635565Y-53926247D01*
X56672500Y-53693052D01*
X56672500Y-53456947D01*
X56635565Y-53223752D01*
X56562602Y-52999197D01*
X56455414Y-52788828D01*
X56395158Y-52705894D01*
X56395158Y-52705893D01*
X55663628Y-53437424D01*
X55647745Y-53378147D01*
X55580602Y-53261853D01*
X55485647Y-53166898D01*
X55369353Y-53099755D01*
X55310074Y-53083871D01*
X56041605Y-52352340D01*
X56040051Y-52332594D01*
X56054415Y-52264216D01*
X56090784Y-52222547D01*
X56150010Y-52179517D01*
X56317017Y-52012510D01*
X56455843Y-51821433D01*
X56486302Y-51761654D01*
X59997501Y-51761654D01*
X60007819Y-51862652D01*
X60062046Y-52026300D01*
X60062051Y-52026311D01*
X60152552Y-52173034D01*
X60152555Y-52173038D01*
X60274461Y-52294944D01*
X60274465Y-52294947D01*
X60421188Y-52385448D01*
X60421199Y-52385453D01*
X60584847Y-52439680D01*
X60685852Y-52449999D01*
X60722500Y-52449999D01*
X61222500Y-52449999D01*
X61259140Y-52449999D01*
X61259154Y-52449998D01*
X61360152Y-52439680D01*
X61523800Y-52385453D01*
X61523811Y-52385448D01*
X61670534Y-52294947D01*
X61670538Y-52294944D01*
X61792444Y-52173038D01*
X61792447Y-52173034D01*
X61882948Y-52026311D01*
X61882953Y-52026300D01*
X61937180Y-51862652D01*
X61947499Y-51761654D01*
X61947500Y-51761641D01*
X61947500Y-51712500D01*
X61222500Y-51712500D01*
X61222500Y-52449999D01*
X60722500Y-52449999D01*
X60722500Y-51712500D01*
X59997501Y-51712500D01*
X59997501Y-51761654D01*
X56486302Y-51761654D01*
X56563068Y-51610992D01*
X56636053Y-51386368D01*
X56671374Y-51163360D01*
X56673000Y-51153097D01*
X56673000Y-50916902D01*
X56636053Y-50683631D01*
X56584542Y-50525097D01*
X56563068Y-50459008D01*
X56563066Y-50459005D01*
X56563066Y-50459003D01*
X56506502Y-50347991D01*
X56455843Y-50248567D01*
X56317017Y-50057490D01*
X56150010Y-49890483D01*
X55958933Y-49751657D01*
X55944847Y-49744480D01*
X55748496Y-49644433D01*
X55523868Y-49571446D01*
X55290597Y-49534500D01*
X55290592Y-49534500D01*
X55054408Y-49534500D01*
X55054403Y-49534500D01*
X54821131Y-49571446D01*
X54596503Y-49644433D01*
X54386066Y-49751657D01*
X54329619Y-49792669D01*
X54194990Y-49890483D01*
X54194988Y-49890485D01*
X54194987Y-49890485D01*
X54027985Y-50057487D01*
X54027985Y-50057488D01*
X54027983Y-50057490D01*
X54012467Y-50078846D01*
X53889157Y-50248566D01*
X53781933Y-50459003D01*
X53708946Y-50683631D01*
X53672000Y-50916902D01*
X53672000Y-51153097D01*
X53708946Y-51386368D01*
X53781933Y-51610996D01*
X53838790Y-51722583D01*
X53889157Y-51821433D01*
X54027983Y-52012510D01*
X54194990Y-52179517D01*
X54254216Y-52222547D01*
X54296881Y-52277875D01*
X54304948Y-52332593D01*
X54303393Y-52352340D01*
X55034925Y-53083871D01*
X54975647Y-53099755D01*
X54859353Y-53166898D01*
X54764398Y-53261853D01*
X54697255Y-53378147D01*
X54681371Y-53437425D01*
X53949840Y-52705894D01*
X53889584Y-52788830D01*
X53782397Y-52999197D01*
X53709434Y-53223752D01*
X53672500Y-53456947D01*
X53672500Y-53466403D01*
X53652815Y-53533442D01*
X53600011Y-53579197D01*
X53530853Y-53589141D01*
X53467297Y-53560116D01*
X53460819Y-53554084D01*
X42866993Y-42960258D01*
X52952000Y-42960258D01*
X52952000Y-43189741D01*
X52976946Y-43379215D01*
X52981952Y-43417238D01*
X52981953Y-43417240D01*
X53041342Y-43638887D01*
X53129150Y-43850876D01*
X53129157Y-43850890D01*
X53243892Y-44049617D01*
X53383581Y-44231661D01*
X53383589Y-44231670D01*
X53545830Y-44393911D01*
X53545838Y-44393918D01*
X53727882Y-44533607D01*
X53727885Y-44533608D01*
X53727888Y-44533611D01*
X53926612Y-44648344D01*
X53926617Y-44648346D01*
X53926623Y-44648349D01*
X54017980Y-44686190D01*
X54138613Y-44736158D01*
X54360262Y-44795548D01*
X54587766Y-44825500D01*
X54587773Y-44825500D01*
X54817227Y-44825500D01*
X54817234Y-44825500D01*
X55044738Y-44795548D01*
X55266387Y-44736158D01*
X55478388Y-44648344D01*
X55677112Y-44533611D01*
X55859161Y-44393919D01*
X55859165Y-44393914D01*
X55859170Y-44393911D01*
X56021411Y-44231670D01*
X56021414Y-44231665D01*
X56021419Y-44231661D01*
X56161111Y-44049612D01*
X56275844Y-43850888D01*
X56363658Y-43638887D01*
X56423048Y-43417238D01*
X56453000Y-43189734D01*
X56453000Y-42960266D01*
X56423048Y-42732762D01*
X56363658Y-42511113D01*
X56275844Y-42299112D01*
X56161111Y-42100388D01*
X56161108Y-42100385D01*
X56161107Y-42100382D01*
X56021418Y-41918338D01*
X56021411Y-41918330D01*
X55859170Y-41756089D01*
X55859161Y-41756081D01*
X55677117Y-41616392D01*
X55478390Y-41501657D01*
X55478376Y-41501650D01*
X55266387Y-41413842D01*
X55044738Y-41354452D01*
X55006715Y-41349446D01*
X54817241Y-41324500D01*
X54817234Y-41324500D01*
X54587766Y-41324500D01*
X54587758Y-41324500D01*
X54371215Y-41353009D01*
X54360262Y-41354452D01*
X54266576Y-41379554D01*
X54138612Y-41413842D01*
X53926623Y-41501650D01*
X53926609Y-41501657D01*
X53727882Y-41616392D01*
X53545838Y-41756081D01*
X53383581Y-41918338D01*
X53243892Y-42100382D01*
X53129157Y-42299109D01*
X53129150Y-42299123D01*
X53041342Y-42511112D01*
X52981953Y-42732759D01*
X52981951Y-42732770D01*
X52952000Y-42960258D01*
X42866993Y-42960258D01*
X38358685Y-38451950D01*
X38325200Y-38390627D01*
X38330184Y-38320935D01*
X38372056Y-38265002D01*
X38431969Y-38241739D01*
X38431960Y-38241689D01*
X38432244Y-38241632D01*
X38434221Y-38240865D01*
X38437925Y-38240500D01*
X38437935Y-38240500D01*
X38644753Y-38199362D01*
X38839572Y-38118665D01*
X39014904Y-38001512D01*
X39034330Y-37982086D01*
X39067269Y-37949148D01*
X39164009Y-37852407D01*
X39164012Y-37852404D01*
X39281165Y-37677072D01*
X39361862Y-37482253D01*
X39403000Y-37275435D01*
X39403000Y-37275388D01*
X39802499Y-37275388D01*
X39843618Y-37482101D01*
X39843620Y-37482107D01*
X39924278Y-37676833D01*
X39959459Y-37729485D01*
X40502500Y-37186445D01*
X40502500Y-37218711D01*
X40527715Y-37312815D01*
X40576426Y-37397186D01*
X40645314Y-37466074D01*
X40729685Y-37514785D01*
X40823789Y-37540000D01*
X40856054Y-37540000D01*
X40313013Y-38083039D01*
X40365664Y-38118220D01*
X40365667Y-38118222D01*
X40560392Y-38198879D01*
X40560398Y-38198881D01*
X40767111Y-38240000D01*
X40977888Y-38240000D01*
X41184601Y-38198881D01*
X41184607Y-38198879D01*
X41379330Y-38118223D01*
X41431985Y-38083039D01*
X40888947Y-37540000D01*
X40921211Y-37540000D01*
X41015315Y-37514785D01*
X41099686Y-37466074D01*
X41168574Y-37397186D01*
X41217285Y-37312815D01*
X41242500Y-37218711D01*
X41242500Y-37186446D01*
X41785539Y-37729485D01*
X41820723Y-37676830D01*
X41901379Y-37482107D01*
X41901381Y-37482101D01*
X41942500Y-37275388D01*
X41942500Y-37064611D01*
X41901381Y-36857898D01*
X41901379Y-36857892D01*
X41820722Y-36663167D01*
X41820720Y-36663164D01*
X41785539Y-36610513D01*
X41242500Y-37153552D01*
X41242500Y-37121289D01*
X41217285Y-37027185D01*
X41168574Y-36942814D01*
X41099686Y-36873926D01*
X41015315Y-36825215D01*
X40921211Y-36800000D01*
X40888947Y-36800000D01*
X41431985Y-36256959D01*
X41431985Y-36256958D01*
X41379333Y-36221778D01*
X41184607Y-36141120D01*
X41184601Y-36141118D01*
X40977888Y-36100000D01*
X40767112Y-36100000D01*
X40560398Y-36141118D01*
X40560392Y-36141120D01*
X40365668Y-36221777D01*
X40365656Y-36221784D01*
X40313013Y-36256958D01*
X40313012Y-36256959D01*
X40856054Y-36800000D01*
X40823789Y-36800000D01*
X40729685Y-36825215D01*
X40645314Y-36873926D01*
X40576426Y-36942814D01*
X40527715Y-37027185D01*
X40502500Y-37121289D01*
X40502500Y-37153553D01*
X39959459Y-36610512D01*
X39959458Y-36610513D01*
X39924284Y-36663156D01*
X39924277Y-36663168D01*
X39843620Y-36857892D01*
X39843618Y-36857898D01*
X39802500Y-37064611D01*
X39802500Y-37275388D01*
X39802499Y-37275388D01*
X39403000Y-37275388D01*
X39403000Y-37064565D01*
X39361862Y-36857747D01*
X39299446Y-36707063D01*
X39281166Y-36662930D01*
X39281161Y-36662921D01*
X39164012Y-36487596D01*
X39164009Y-36487592D01*
X39014907Y-36338490D01*
X39014903Y-36338487D01*
X38839578Y-36221338D01*
X38839569Y-36221333D01*
X38644753Y-36140638D01*
X38644745Y-36140636D01*
X38437939Y-36099500D01*
X38437935Y-36099500D01*
X38227065Y-36099500D01*
X38227060Y-36099500D01*
X38020254Y-36140636D01*
X38020246Y-36140638D01*
X37825430Y-36221333D01*
X37825421Y-36221338D01*
X37650096Y-36338487D01*
X37650092Y-36338490D01*
X37500990Y-36487592D01*
X37500987Y-36487596D01*
X37383838Y-36662921D01*
X37383833Y-36662930D01*
X37303138Y-36857746D01*
X37303136Y-36857754D01*
X37261998Y-37064567D01*
X37261632Y-37068292D01*
X37260895Y-37070116D01*
X37260811Y-37070540D01*
X37260730Y-37070524D01*
X37235469Y-37133078D01*
X37178433Y-37173435D01*
X37108633Y-37176549D01*
X37050549Y-37143814D01*
X36862707Y-36955972D01*
X36829222Y-36894649D01*
X36828787Y-36892562D01*
X36821862Y-36857747D01*
X36756069Y-36698911D01*
X36741166Y-36662930D01*
X36741161Y-36662921D01*
X36624012Y-36487596D01*
X36624009Y-36487592D01*
X36474907Y-36338490D01*
X36474903Y-36338487D01*
X36299578Y-36221338D01*
X36299569Y-36221333D01*
X36104753Y-36140638D01*
X36104745Y-36140636D01*
X35897939Y-36099500D01*
X35897935Y-36099500D01*
X35687065Y-36099500D01*
X35687060Y-36099500D01*
X35480254Y-36140636D01*
X35480246Y-36140638D01*
X35285430Y-36221333D01*
X35285421Y-36221338D01*
X35110096Y-36338487D01*
X35110092Y-36338490D01*
X34960990Y-36487592D01*
X34960987Y-36487596D01*
X34843838Y-36662921D01*
X34843833Y-36662930D01*
X34763138Y-36857746D01*
X34763136Y-36857754D01*
X34722000Y-37064560D01*
X34722000Y-37275439D01*
X34763136Y-37482245D01*
X34763138Y-37482253D01*
X34843833Y-37677069D01*
X34843838Y-37677078D01*
X34960987Y-37852403D01*
X34960990Y-37852407D01*
X35110092Y-38001509D01*
X35110096Y-38001512D01*
X35285421Y-38118661D01*
X35285427Y-38118664D01*
X35285428Y-38118665D01*
X35480247Y-38199362D01*
X35652356Y-38233596D01*
X35687060Y-38240499D01*
X35687064Y-38240500D01*
X35687065Y-38240500D01*
X35897936Y-38240500D01*
X35897937Y-38240499D01*
X36104753Y-38199362D01*
X36242373Y-38142357D01*
X36311838Y-38134889D01*
X36374317Y-38166163D01*
X36377503Y-38169238D01*
X53719700Y-55511435D01*
X53753185Y-55572758D01*
X53749950Y-55637433D01*
X53708947Y-55763628D01*
X53672000Y-55996902D01*
X53672000Y-56233097D01*
X53708946Y-56466368D01*
X53781933Y-56690996D01*
X53889157Y-56901433D01*
X54027983Y-57092510D01*
X54194990Y-57259517D01*
X54229627Y-57284683D01*
X54272292Y-57340013D01*
X54278271Y-57409626D01*
X54245665Y-57471421D01*
X54229630Y-57485315D01*
X54211865Y-57498222D01*
X54194988Y-57510484D01*
X54027985Y-57677487D01*
X54027985Y-57677488D01*
X54027983Y-57677490D01*
X53983226Y-57739093D01*
X53889157Y-57868566D01*
X53781933Y-58079003D01*
X53708946Y-58303631D01*
X53672000Y-58536902D01*
X53672000Y-58773097D01*
X53708946Y-59006368D01*
X53781933Y-59230996D01*
X53868817Y-59401513D01*
X53889157Y-59441433D01*
X54027983Y-59632510D01*
X54194990Y-59799517D01*
X54229627Y-59824683D01*
X54272292Y-59880013D01*
X54278271Y-59949626D01*
X54245665Y-60011421D01*
X54229630Y-60025315D01*
X54211865Y-60038222D01*
X54194988Y-60050484D01*
X54027985Y-60217487D01*
X54027985Y-60217488D01*
X54027983Y-60217490D01*
X54018854Y-60230055D01*
X53889157Y-60408566D01*
X53781933Y-60619003D01*
X53708946Y-60843631D01*
X53672000Y-61076902D01*
X53672000Y-61313097D01*
X53708947Y-61546369D01*
X53708947Y-61546372D01*
X53749950Y-61672564D01*
X53751945Y-61742405D01*
X53719700Y-61798563D01*
X51703786Y-63814478D01*
X51591981Y-63926282D01*
X51591979Y-63926285D01*
X51541861Y-64013094D01*
X51541859Y-64013096D01*
X51512925Y-64063209D01*
X51512924Y-64063210D01*
X51512923Y-64063215D01*
X51471999Y-64215943D01*
X51471999Y-64215945D01*
X51471999Y-64384046D01*
X51472000Y-64384059D01*
X51472000Y-71585903D01*
X51452315Y-71652942D01*
X51399511Y-71698697D01*
X51330353Y-71708641D01*
X51266797Y-71679616D01*
X51260319Y-71673584D01*
X31309318Y-51722583D01*
X31275833Y-51661260D01*
X31272999Y-51634902D01*
X31272999Y-49987129D01*
X31272998Y-49987123D01*
X31272997Y-49987116D01*
X31266591Y-49927517D01*
X31264219Y-49921158D01*
X31216297Y-49792671D01*
X31216293Y-49792664D01*
X31130047Y-49677455D01*
X31130044Y-49677452D01*
X31014835Y-49591206D01*
X31014828Y-49591202D01*
X30879982Y-49540908D01*
X30879983Y-49540908D01*
X30820383Y-49534501D01*
X30820381Y-49534500D01*
X30820373Y-49534500D01*
X30820364Y-49534500D01*
X28724629Y-49534500D01*
X28724623Y-49534501D01*
X28665016Y-49540908D01*
X28530171Y-49591202D01*
X28530164Y-49591206D01*
X28414955Y-49677452D01*
X28414952Y-49677455D01*
X28328706Y-49792664D01*
X28328702Y-49792671D01*
X28278408Y-49927517D01*
X28272001Y-49987116D01*
X28272001Y-49987123D01*
X28272000Y-49987135D01*
X28272000Y-52082870D01*
X28272001Y-52082876D01*
X28278408Y-52142483D01*
X28328702Y-52277328D01*
X28328706Y-52277335D01*
X28414952Y-52392544D01*
X28414955Y-52392547D01*
X28530164Y-52478793D01*
X28537954Y-52483047D01*
X28536225Y-52486211D01*
X28578415Y-52517734D01*
X28602893Y-52583175D01*
X28588104Y-52651462D01*
X28579536Y-52665021D01*
X28489584Y-52788829D01*
X28382397Y-52999197D01*
X28309434Y-53223752D01*
X28272500Y-53456947D01*
X28272500Y-53693052D01*
X28309434Y-53926247D01*
X28382397Y-54150802D01*
X28489587Y-54361174D01*
X28549838Y-54444104D01*
X28549840Y-54444105D01*
X29281371Y-53712574D01*
X29297255Y-53771853D01*
X29364398Y-53888147D01*
X29459353Y-53983102D01*
X29575647Y-54050245D01*
X29634925Y-54066128D01*
X28903393Y-54797658D01*
X28904948Y-54817405D01*
X28890584Y-54885783D01*
X28854217Y-54927451D01*
X28794990Y-54970482D01*
X28627985Y-55137487D01*
X28627985Y-55137488D01*
X28627983Y-55137490D01*
X28590493Y-55189091D01*
X28489157Y-55328566D01*
X28436560Y-55431795D01*
X28388586Y-55482591D01*
X28326075Y-55499500D01*
X24087401Y-55499500D01*
X24020362Y-55479815D01*
X23981862Y-55440596D01*
X23957840Y-55401650D01*
X23835851Y-55279661D01*
X23835850Y-55279660D01*
X23689016Y-55189092D01*
X23525253Y-55134826D01*
X23525251Y-55134825D01*
X23424178Y-55124500D01*
X22825830Y-55124500D01*
X22825812Y-55124501D01*
X22724747Y-55134825D01*
X22560984Y-55189092D01*
X22560981Y-55189093D01*
X22414148Y-55279661D01*
X22300181Y-55393629D01*
X22238858Y-55427114D01*
X22169166Y-55422130D01*
X22124819Y-55393629D01*
X22010851Y-55279661D01*
X22010850Y-55279660D01*
X21864016Y-55189092D01*
X21700253Y-55134826D01*
X21700251Y-55134825D01*
X21599178Y-55124500D01*
X21000830Y-55124500D01*
X21000812Y-55124501D01*
X20899747Y-55134825D01*
X20735984Y-55189092D01*
X20735981Y-55189093D01*
X20589148Y-55279661D01*
X20467161Y-55401648D01*
X20376593Y-55548481D01*
X20376591Y-55548486D01*
X20368548Y-55572758D01*
X20322326Y-55712247D01*
X20322326Y-55712248D01*
X20322325Y-55712248D01*
X20312000Y-55813315D01*
X16800500Y-55813315D01*
X16800500Y-42960258D01*
X28442000Y-42960258D01*
X28442000Y-43189741D01*
X28466946Y-43379215D01*
X28471952Y-43417238D01*
X28471953Y-43417240D01*
X28531342Y-43638887D01*
X28619150Y-43850876D01*
X28619157Y-43850890D01*
X28733892Y-44049617D01*
X28873581Y-44231661D01*
X28873589Y-44231670D01*
X29035830Y-44393911D01*
X29035838Y-44393918D01*
X29217882Y-44533607D01*
X29217885Y-44533608D01*
X29217888Y-44533611D01*
X29416612Y-44648344D01*
X29416617Y-44648346D01*
X29416623Y-44648349D01*
X29507980Y-44686190D01*
X29628613Y-44736158D01*
X29850262Y-44795548D01*
X30077766Y-44825500D01*
X30077773Y-44825500D01*
X30307227Y-44825500D01*
X30307234Y-44825500D01*
X30534738Y-44795548D01*
X30756387Y-44736158D01*
X30968388Y-44648344D01*
X31167112Y-44533611D01*
X31349161Y-44393919D01*
X31349165Y-44393914D01*
X31349170Y-44393911D01*
X31511411Y-44231670D01*
X31511414Y-44231665D01*
X31511419Y-44231661D01*
X31651111Y-44049612D01*
X31765844Y-43850888D01*
X31853658Y-43638887D01*
X31913048Y-43417238D01*
X31943000Y-43189734D01*
X31943000Y-42960266D01*
X31913048Y-42732762D01*
X31853658Y-42511113D01*
X31765844Y-42299112D01*
X31651111Y-42100388D01*
X31651108Y-42100385D01*
X31651107Y-42100382D01*
X31511418Y-41918338D01*
X31511411Y-41918330D01*
X31349170Y-41756089D01*
X31349161Y-41756081D01*
X31167117Y-41616392D01*
X30968390Y-41501657D01*
X30968376Y-41501650D01*
X30756387Y-41413842D01*
X30534738Y-41354452D01*
X30496715Y-41349446D01*
X30307241Y-41324500D01*
X30307234Y-41324500D01*
X30077766Y-41324500D01*
X30077758Y-41324500D01*
X29861215Y-41353009D01*
X29850262Y-41354452D01*
X29756576Y-41379554D01*
X29628612Y-41413842D01*
X29416623Y-41501650D01*
X29416609Y-41501657D01*
X29217882Y-41616392D01*
X29035838Y-41756081D01*
X28873581Y-41918338D01*
X28733892Y-42100382D01*
X28619157Y-42299109D01*
X28619150Y-42299123D01*
X28531342Y-42511112D01*
X28471953Y-42732759D01*
X28471951Y-42732770D01*
X28442000Y-42960258D01*
X16800500Y-42960258D01*
X16800500Y-37764071D01*
X29521999Y-37764071D01*
X29539571Y-37852403D01*
X29542816Y-37868716D01*
X29546999Y-37889743D01*
X29596034Y-38008125D01*
X29667226Y-38114673D01*
X29667227Y-38114674D01*
X31447277Y-39894723D01*
X32367223Y-40814669D01*
X41967224Y-50414669D01*
X42015227Y-50462672D01*
X42057832Y-50505277D01*
X42164366Y-50576461D01*
X42164375Y-50576466D01*
X42191192Y-50587574D01*
X42282756Y-50625501D01*
X42282760Y-50625501D01*
X42282761Y-50625502D01*
X42408428Y-50650500D01*
X42408431Y-50650500D01*
X45767565Y-50650500D01*
X45834604Y-50670185D01*
X45836409Y-50671366D01*
X45893321Y-50709394D01*
X45893323Y-50709395D01*
X45893327Y-50709397D01*
X45996097Y-50751965D01*
X46039003Y-50769737D01*
X46193653Y-50800499D01*
X46193656Y-50800500D01*
X46193658Y-50800500D01*
X46351344Y-50800500D01*
X46351345Y-50800499D01*
X46505997Y-50769737D01*
X46651679Y-50709394D01*
X46782789Y-50621789D01*
X46894289Y-50510289D01*
X46981894Y-50379179D01*
X47042237Y-50233497D01*
X47073000Y-50078842D01*
X47073000Y-49921158D01*
X47073000Y-49921155D01*
X47072999Y-49921153D01*
X47056108Y-49836236D01*
X47042237Y-49766503D01*
X47031317Y-49740139D01*
X46981897Y-49620827D01*
X46981890Y-49620814D01*
X46894289Y-49489711D01*
X46894286Y-49489707D01*
X46782792Y-49378213D01*
X46782788Y-49378210D01*
X46651685Y-49290609D01*
X46651672Y-49290602D01*
X46506001Y-49230264D01*
X46505989Y-49230261D01*
X46351345Y-49199500D01*
X46351342Y-49199500D01*
X46193658Y-49199500D01*
X46193655Y-49199500D01*
X46039010Y-49230261D01*
X46038998Y-49230264D01*
X45893327Y-49290602D01*
X45893320Y-49290606D01*
X45864428Y-49309911D01*
X45836455Y-49328602D01*
X45769779Y-49349480D01*
X45767565Y-49349500D01*
X42793307Y-49349500D01*
X42726268Y-49329815D01*
X42705626Y-49313181D01*
X33287169Y-39894723D01*
X30859319Y-37466873D01*
X30844615Y-37439945D01*
X30828023Y-37414127D01*
X30827131Y-37407926D01*
X30825834Y-37405550D01*
X30823000Y-37379192D01*
X30823000Y-36870808D01*
X30842685Y-36803769D01*
X30859319Y-36783127D01*
X31455627Y-36186819D01*
X31516950Y-36153334D01*
X31543308Y-36150500D01*
X32146692Y-36150500D01*
X32213731Y-36170185D01*
X32259486Y-36222989D01*
X32269430Y-36292147D01*
X32245960Y-36348810D01*
X32239146Y-36357911D01*
X32239145Y-36357913D01*
X32188903Y-36492620D01*
X32188901Y-36492627D01*
X32182500Y-36552155D01*
X32182500Y-36920000D01*
X32979240Y-36920000D01*
X32956426Y-36942814D01*
X32907715Y-37027185D01*
X32882500Y-37121289D01*
X32882500Y-37218711D01*
X32907715Y-37312815D01*
X32956426Y-37397186D01*
X32979240Y-37420000D01*
X32182500Y-37420000D01*
X32182500Y-37787844D01*
X32188901Y-37847372D01*
X32188903Y-37847379D01*
X32239145Y-37982086D01*
X32239149Y-37982093D01*
X32325309Y-38097187D01*
X32325312Y-38097190D01*
X32440406Y-38183350D01*
X32440413Y-38183354D01*
X32575120Y-38233596D01*
X32575127Y-38233598D01*
X32634655Y-38239999D01*
X32634672Y-38240000D01*
X33002500Y-38240000D01*
X33002500Y-37443260D01*
X33025314Y-37466074D01*
X33109685Y-37514785D01*
X33203789Y-37540000D01*
X33301211Y-37540000D01*
X33395315Y-37514785D01*
X33479686Y-37466074D01*
X33502500Y-37443260D01*
X33502500Y-38240000D01*
X33870328Y-38240000D01*
X33870344Y-38239999D01*
X33929872Y-38233598D01*
X33929879Y-38233596D01*
X34064586Y-38183354D01*
X34064593Y-38183350D01*
X34179687Y-38097190D01*
X34179690Y-38097187D01*
X34265850Y-37982093D01*
X34265854Y-37982086D01*
X34316096Y-37847379D01*
X34316098Y-37847372D01*
X34322499Y-37787844D01*
X34322500Y-37787827D01*
X34322500Y-37420000D01*
X33525760Y-37420000D01*
X33548574Y-37397186D01*
X33597285Y-37312815D01*
X33622500Y-37218711D01*
X33622500Y-37121289D01*
X33597285Y-37027185D01*
X33548574Y-36942814D01*
X33525760Y-36920000D01*
X34322500Y-36920000D01*
X34322500Y-36552172D01*
X34322499Y-36552155D01*
X34316098Y-36492627D01*
X34316096Y-36492620D01*
X34265854Y-36357913D01*
X34265853Y-36357911D01*
X34259040Y-36348810D01*
X34234624Y-36283345D01*
X34249476Y-36215072D01*
X34298882Y-36165667D01*
X34358308Y-36150500D01*
X34686571Y-36150500D01*
X34771115Y-36133682D01*
X34812244Y-36125501D01*
X34930627Y-36076465D01*
X34978131Y-36044724D01*
X34978131Y-36044723D01*
X34978133Y-36044723D01*
X35010939Y-36022803D01*
X35037169Y-36005277D01*
X36027776Y-35014669D01*
X36098965Y-34908127D01*
X36148001Y-34789744D01*
X36173000Y-34664069D01*
X36173000Y-34104935D01*
X36192685Y-34037896D01*
X36193866Y-34036090D01*
X36231894Y-33979179D01*
X36292237Y-33833497D01*
X36323000Y-33678842D01*
X36323000Y-33521158D01*
X36323000Y-33521155D01*
X36322999Y-33521153D01*
X36292238Y-33366510D01*
X36292237Y-33366503D01*
X36292235Y-33366498D01*
X36231897Y-33220827D01*
X36231895Y-33220823D01*
X36231894Y-33220821D01*
X36180157Y-33143391D01*
X36159279Y-33076714D01*
X36177763Y-33009334D01*
X36229742Y-32962643D01*
X36283259Y-32950500D01*
X40022403Y-32950500D01*
X40089442Y-32970185D01*
X40110084Y-32986819D01*
X43084745Y-35961480D01*
X43118230Y-36022803D01*
X43113246Y-36092495D01*
X43071374Y-36148428D01*
X43044517Y-36163722D01*
X42905431Y-36221333D01*
X42905421Y-36221338D01*
X42730096Y-36338487D01*
X42730092Y-36338490D01*
X42580990Y-36487592D01*
X42580987Y-36487596D01*
X42463838Y-36662921D01*
X42463833Y-36662930D01*
X42383138Y-36857746D01*
X42383136Y-36857754D01*
X42342000Y-37064560D01*
X42342000Y-37275439D01*
X42383136Y-37482245D01*
X42383138Y-37482253D01*
X42463833Y-37677069D01*
X42463838Y-37677078D01*
X42580987Y-37852403D01*
X42580990Y-37852407D01*
X42730092Y-38001509D01*
X42730096Y-38001512D01*
X42905421Y-38118661D01*
X42905427Y-38118664D01*
X42905428Y-38118665D01*
X43100247Y-38199362D01*
X43272356Y-38233596D01*
X43307060Y-38240499D01*
X43307064Y-38240500D01*
X43307065Y-38240500D01*
X43517936Y-38240500D01*
X43517937Y-38240499D01*
X43724753Y-38199362D01*
X43919572Y-38118665D01*
X44094904Y-38001512D01*
X44244012Y-37852404D01*
X44361165Y-37677072D01*
X44418778Y-37537980D01*
X44439365Y-37512433D01*
X44459028Y-37486168D01*
X44461176Y-37485366D01*
X44462617Y-37483579D01*
X44493760Y-37473213D01*
X44524492Y-37461751D01*
X44526733Y-37462238D01*
X44528911Y-37461514D01*
X44560704Y-37469628D01*
X44592765Y-37476603D01*
X44595214Y-37478436D01*
X44596611Y-37478793D01*
X44621019Y-37497754D01*
X44657639Y-37534374D01*
X44657649Y-37534385D01*
X44661979Y-37538715D01*
X44661980Y-37538716D01*
X44773784Y-37650520D01*
X44773786Y-37650521D01*
X44773790Y-37650524D01*
X44819784Y-37677078D01*
X44910716Y-37729577D01*
X45021795Y-37759340D01*
X45081456Y-37795705D01*
X45092802Y-37810221D01*
X45120988Y-37852404D01*
X45120989Y-37852405D01*
X45120992Y-37852409D01*
X45270092Y-38001509D01*
X45270096Y-38001512D01*
X45445421Y-38118661D01*
X45445427Y-38118664D01*
X45445428Y-38118665D01*
X45640247Y-38199362D01*
X45812356Y-38233596D01*
X45847060Y-38240499D01*
X45847064Y-38240500D01*
X45847065Y-38240500D01*
X46057936Y-38240500D01*
X46057937Y-38240499D01*
X46264753Y-38199362D01*
X46459572Y-38118665D01*
X46634904Y-38001512D01*
X46654330Y-37982086D01*
X46687269Y-37949148D01*
X46784009Y-37852407D01*
X46784012Y-37852404D01*
X46901165Y-37677072D01*
X46981862Y-37482253D01*
X47023000Y-37275435D01*
X47023000Y-37275388D01*
X47422499Y-37275388D01*
X47463618Y-37482101D01*
X47463620Y-37482107D01*
X47544278Y-37676833D01*
X47579459Y-37729485D01*
X48122500Y-37186445D01*
X48122500Y-37218711D01*
X48147715Y-37312815D01*
X48196426Y-37397186D01*
X48265314Y-37466074D01*
X48349685Y-37514785D01*
X48443789Y-37540000D01*
X48476054Y-37540000D01*
X47933013Y-38083039D01*
X47985664Y-38118220D01*
X47985667Y-38118222D01*
X48180392Y-38198879D01*
X48180398Y-38198881D01*
X48387111Y-38240000D01*
X48597888Y-38240000D01*
X48804601Y-38198881D01*
X48804607Y-38198879D01*
X48999330Y-38118223D01*
X49051985Y-38083039D01*
X48508947Y-37540000D01*
X48541211Y-37540000D01*
X48635315Y-37514785D01*
X48719686Y-37466074D01*
X48788574Y-37397186D01*
X48837285Y-37312815D01*
X48862500Y-37218711D01*
X48862500Y-37186446D01*
X49405539Y-37729485D01*
X49440723Y-37676830D01*
X49521379Y-37482107D01*
X49521381Y-37482101D01*
X49562500Y-37275388D01*
X49562500Y-37064611D01*
X49521381Y-36857898D01*
X49521379Y-36857892D01*
X49440722Y-36663167D01*
X49440720Y-36663164D01*
X49405539Y-36610513D01*
X48862500Y-37153552D01*
X48862500Y-37121289D01*
X48837285Y-37027185D01*
X48788574Y-36942814D01*
X48719686Y-36873926D01*
X48635315Y-36825215D01*
X48541211Y-36800000D01*
X48508947Y-36800000D01*
X49051985Y-36256959D01*
X49051985Y-36256958D01*
X48999333Y-36221778D01*
X48804607Y-36141120D01*
X48804601Y-36141118D01*
X48597888Y-36100000D01*
X48387112Y-36100000D01*
X48180398Y-36141118D01*
X48180392Y-36141120D01*
X47985668Y-36221777D01*
X47985656Y-36221784D01*
X47933013Y-36256958D01*
X47933012Y-36256959D01*
X48476054Y-36800000D01*
X48443789Y-36800000D01*
X48349685Y-36825215D01*
X48265314Y-36873926D01*
X48196426Y-36942814D01*
X48147715Y-37027185D01*
X48122500Y-37121289D01*
X48122500Y-37153553D01*
X47579459Y-36610512D01*
X47579458Y-36610513D01*
X47544284Y-36663156D01*
X47544277Y-36663168D01*
X47463620Y-36857892D01*
X47463618Y-36857898D01*
X47422500Y-37064611D01*
X47422500Y-37275388D01*
X47422499Y-37275388D01*
X47023000Y-37275388D01*
X47023000Y-37064565D01*
X46981862Y-36857747D01*
X46919446Y-36707063D01*
X46901166Y-36662930D01*
X46901161Y-36662921D01*
X46784012Y-36487596D01*
X46784009Y-36487592D01*
X46634907Y-36338490D01*
X46634903Y-36338487D01*
X46459578Y-36221338D01*
X46459569Y-36221333D01*
X46264753Y-36140638D01*
X46264745Y-36140636D01*
X46057939Y-36099500D01*
X46057935Y-36099500D01*
X45847065Y-36099500D01*
X45847060Y-36099500D01*
X45640254Y-36140636D01*
X45640246Y-36140638D01*
X45445430Y-36221333D01*
X45445416Y-36221341D01*
X45288844Y-36325959D01*
X45222167Y-36346837D01*
X45154787Y-36328352D01*
X45132273Y-36310538D01*
X40810090Y-31988355D01*
X40810088Y-31988352D01*
X40691217Y-31869481D01*
X40691216Y-31869480D01*
X40604404Y-31819360D01*
X40604404Y-31819359D01*
X40604400Y-31819358D01*
X40554285Y-31790423D01*
X40401557Y-31749499D01*
X40243443Y-31749499D01*
X40235847Y-31749499D01*
X40235831Y-31749500D01*
X39501597Y-31749500D01*
X39434558Y-31729815D01*
X39388803Y-31677011D01*
X39378859Y-31607853D01*
X39407884Y-31544297D01*
X39413916Y-31537819D01*
X39562206Y-31389527D01*
X40623586Y-30328147D01*
X40684907Y-30294664D01*
X40735457Y-30294213D01*
X40767062Y-30300500D01*
X40767065Y-30300500D01*
X40977936Y-30300500D01*
X40977937Y-30300499D01*
X41184753Y-30259362D01*
X41379572Y-30178665D01*
X41554904Y-30061512D01*
X41578969Y-30037447D01*
X41607269Y-30009148D01*
X41704009Y-29912407D01*
X41704012Y-29912404D01*
X41821165Y-29737072D01*
X41901862Y-29542253D01*
X41943000Y-29335435D01*
X41943000Y-29335388D01*
X42342499Y-29335388D01*
X42383618Y-29542101D01*
X42383620Y-29542107D01*
X42464278Y-29736833D01*
X42499459Y-29789485D01*
X43042500Y-29246445D01*
X43042500Y-29278711D01*
X43067715Y-29372815D01*
X43116426Y-29457186D01*
X43185314Y-29526074D01*
X43269685Y-29574785D01*
X43363789Y-29600000D01*
X43396054Y-29600000D01*
X42853013Y-30143039D01*
X42905664Y-30178220D01*
X42905667Y-30178222D01*
X43100392Y-30258879D01*
X43100398Y-30258881D01*
X43307111Y-30300000D01*
X43517888Y-30300000D01*
X43724601Y-30258881D01*
X43724607Y-30258879D01*
X43919330Y-30178223D01*
X43971985Y-30143039D01*
X43428947Y-29600000D01*
X43461211Y-29600000D01*
X43555315Y-29574785D01*
X43639686Y-29526074D01*
X43708574Y-29457186D01*
X43757285Y-29372815D01*
X43782500Y-29278711D01*
X43782500Y-29246446D01*
X44325539Y-29789485D01*
X44360723Y-29736830D01*
X44441379Y-29542107D01*
X44441381Y-29542101D01*
X44482500Y-29335388D01*
X44482500Y-29124611D01*
X44482490Y-29124560D01*
X44882000Y-29124560D01*
X44882000Y-29335439D01*
X44923136Y-29542245D01*
X44923138Y-29542253D01*
X45003833Y-29737069D01*
X45003838Y-29737078D01*
X45120987Y-29912403D01*
X45120990Y-29912407D01*
X45270092Y-30061509D01*
X45270096Y-30061512D01*
X45445421Y-30178661D01*
X45445430Y-30178666D01*
X45459539Y-30184510D01*
X45640247Y-30259362D01*
X45780980Y-30287355D01*
X45847060Y-30300499D01*
X45847064Y-30300500D01*
X45847065Y-30300500D01*
X46057936Y-30300500D01*
X46057937Y-30300499D01*
X46264753Y-30259362D01*
X46459572Y-30178665D01*
X46634904Y-30061512D01*
X46784012Y-29912404D01*
X46901165Y-29737072D01*
X46981862Y-29542253D01*
X47023000Y-29335435D01*
X47023000Y-29124565D01*
X46981862Y-28917747D01*
X46919446Y-28767063D01*
X46901166Y-28722930D01*
X46901161Y-28722921D01*
X46784012Y-28547596D01*
X46784009Y-28547592D01*
X46634907Y-28398490D01*
X46634903Y-28398487D01*
X46459578Y-28281338D01*
X46459569Y-28281333D01*
X46264753Y-28200638D01*
X46264745Y-28200636D01*
X46057939Y-28159500D01*
X46057935Y-28159500D01*
X45847065Y-28159500D01*
X45847060Y-28159500D01*
X45640254Y-28200636D01*
X45640246Y-28200638D01*
X45445430Y-28281333D01*
X45445421Y-28281338D01*
X45270096Y-28398487D01*
X45270092Y-28398490D01*
X45120990Y-28547592D01*
X45120987Y-28547596D01*
X45003838Y-28722921D01*
X45003833Y-28722930D01*
X44923138Y-28917746D01*
X44923136Y-28917754D01*
X44882000Y-29124560D01*
X44482490Y-29124560D01*
X44441381Y-28917898D01*
X44441379Y-28917892D01*
X44360722Y-28723167D01*
X44360720Y-28723164D01*
X44325539Y-28670513D01*
X43782500Y-29213552D01*
X43782500Y-29181289D01*
X43757285Y-29087185D01*
X43708574Y-29002814D01*
X43639686Y-28933926D01*
X43555315Y-28885215D01*
X43461211Y-28860000D01*
X43428947Y-28860000D01*
X43971985Y-28316959D01*
X43971985Y-28316958D01*
X43919333Y-28281778D01*
X43724607Y-28201120D01*
X43724601Y-28201118D01*
X43517888Y-28160000D01*
X43307112Y-28160000D01*
X43100398Y-28201118D01*
X43100392Y-28201120D01*
X42905668Y-28281777D01*
X42905656Y-28281784D01*
X42853013Y-28316958D01*
X42853012Y-28316959D01*
X43396054Y-28860000D01*
X43363789Y-28860000D01*
X43269685Y-28885215D01*
X43185314Y-28933926D01*
X43116426Y-29002814D01*
X43067715Y-29087185D01*
X43042500Y-29181289D01*
X43042500Y-29213553D01*
X42499459Y-28670512D01*
X42499458Y-28670513D01*
X42464284Y-28723156D01*
X42464277Y-28723168D01*
X42383620Y-28917892D01*
X42383618Y-28917898D01*
X42342500Y-29124611D01*
X42342500Y-29335388D01*
X42342499Y-29335388D01*
X41943000Y-29335388D01*
X41943000Y-29124565D01*
X41901862Y-28917747D01*
X41839446Y-28767063D01*
X41821166Y-28722930D01*
X41821161Y-28722921D01*
X41704012Y-28547596D01*
X41704009Y-28547592D01*
X41554907Y-28398490D01*
X41554903Y-28398487D01*
X41379578Y-28281338D01*
X41379569Y-28281333D01*
X41184753Y-28200638D01*
X41184745Y-28200636D01*
X40977939Y-28159500D01*
X40977935Y-28159500D01*
X40767065Y-28159500D01*
X40767060Y-28159500D01*
X40560254Y-28200636D01*
X40560246Y-28200638D01*
X40365430Y-28281333D01*
X40365421Y-28281338D01*
X40190096Y-28398487D01*
X40190092Y-28398490D01*
X40040990Y-28547592D01*
X40040987Y-28547596D01*
X39923838Y-28722921D01*
X39923833Y-28722930D01*
X39843138Y-28917746D01*
X39843136Y-28917754D01*
X39802000Y-29124560D01*
X39802000Y-29124564D01*
X39802000Y-29124565D01*
X39802000Y-29335435D01*
X39802001Y-29335439D01*
X39808287Y-29367042D01*
X39802058Y-29436633D01*
X39774350Y-29478913D01*
X39555778Y-29697485D01*
X39494455Y-29730970D01*
X39424763Y-29725986D01*
X39368830Y-29684114D01*
X39344413Y-29618650D01*
X39353536Y-29562353D01*
X39361862Y-29542253D01*
X39403000Y-29335435D01*
X39403000Y-29124565D01*
X39361862Y-28917747D01*
X39299446Y-28767063D01*
X39281166Y-28722930D01*
X39281161Y-28722921D01*
X39164012Y-28547596D01*
X39164009Y-28547592D01*
X39014907Y-28398490D01*
X39014903Y-28398487D01*
X38908816Y-28327602D01*
X38864011Y-28273990D01*
X38855304Y-28204665D01*
X38885458Y-28141638D01*
X38944901Y-28104918D01*
X38977707Y-28100500D01*
X39414070Y-28100500D01*
X39522987Y-28078834D01*
X39539743Y-28075501D01*
X39658126Y-28026465D01*
X39764668Y-27955277D01*
X41745669Y-25974276D01*
X41806992Y-25940791D01*
X41876684Y-25945775D01*
X41882472Y-25948584D01*
X41882646Y-25948185D01*
X41889799Y-25951280D01*
X42047514Y-25997100D01*
X42047511Y-25997100D01*
X42049998Y-25997295D01*
X42050000Y-25997295D01*
X42050000Y-25634050D01*
X42054924Y-25599455D01*
X42097597Y-25452573D01*
X42097598Y-25452567D01*
X42100499Y-25415701D01*
X42100500Y-25415694D01*
X42100500Y-24334306D01*
X42097598Y-24297431D01*
X42090936Y-24274500D01*
X42054924Y-24150545D01*
X42050000Y-24115950D01*
X42050000Y-23752703D01*
X42047504Y-23752900D01*
X41889806Y-23798716D01*
X41889798Y-23798719D01*
X41863608Y-23814208D01*
X41795884Y-23831388D01*
X41737371Y-23814207D01*
X41710398Y-23798256D01*
X41710393Y-23798254D01*
X41552573Y-23752402D01*
X41552567Y-23752401D01*
X41515701Y-23749500D01*
X41515694Y-23749500D01*
X41084306Y-23749500D01*
X41084298Y-23749500D01*
X41047432Y-23752401D01*
X41047426Y-23752402D01*
X40889606Y-23798253D01*
X40863119Y-23813918D01*
X40795394Y-23831098D01*
X40736881Y-23813918D01*
X40710393Y-23798253D01*
X40552573Y-23752402D01*
X40552567Y-23752401D01*
X40515701Y-23749500D01*
X40515694Y-23749500D01*
X40084306Y-23749500D01*
X40084298Y-23749500D01*
X40047432Y-23752401D01*
X40047426Y-23752402D01*
X39889606Y-23798253D01*
X39863119Y-23813918D01*
X39851645Y-23816828D01*
X39842096Y-23823820D01*
X39818401Y-23825261D01*
X39795394Y-23831098D01*
X39782409Y-23827451D01*
X39772355Y-23828063D01*
X39743218Y-23816445D01*
X39739419Y-23815378D01*
X39738121Y-23814651D01*
X39710398Y-23798256D01*
X39707159Y-23797315D01*
X39698019Y-23792197D01*
X39691887Y-23785933D01*
X39670915Y-23771680D01*
X39668716Y-23769481D01*
X39668713Y-23769479D01*
X39664385Y-23765150D01*
X39664374Y-23765140D01*
X38911589Y-23012355D01*
X38911587Y-23012352D01*
X38792716Y-22893481D01*
X38792715Y-22893480D01*
X38705903Y-22843360D01*
X38705903Y-22843359D01*
X38705899Y-22843358D01*
X38655784Y-22814423D01*
X38503056Y-22773499D01*
X38344942Y-22773499D01*
X38337346Y-22773499D01*
X38337330Y-22773500D01*
X36878965Y-22773500D01*
X36811926Y-22753815D01*
X36766171Y-22701011D01*
X36756227Y-22631853D01*
X36761259Y-22610496D01*
X36790348Y-22522710D01*
X36790349Y-22522708D01*
X36800500Y-22423345D01*
X36800499Y-21076656D01*
X36800498Y-21076647D01*
X46799500Y-21076647D01*
X46799500Y-22423337D01*
X46799501Y-22423355D01*
X46809650Y-22522707D01*
X46809651Y-22522710D01*
X46862996Y-22683694D01*
X46863001Y-22683705D01*
X46952029Y-22828040D01*
X46952032Y-22828044D01*
X47071955Y-22947967D01*
X47071959Y-22947970D01*
X47216294Y-23036998D01*
X47216297Y-23036999D01*
X47216303Y-23037003D01*
X47377292Y-23090349D01*
X47476655Y-23100500D01*
X48023344Y-23100499D01*
X48023352Y-23100498D01*
X48023355Y-23100498D01*
X48077760Y-23094940D01*
X48122708Y-23090349D01*
X48283697Y-23037003D01*
X48428044Y-22947968D01*
X48547968Y-22828044D01*
X48637003Y-22683697D01*
X48690349Y-22522708D01*
X48700500Y-22423345D01*
X48700500Y-22318206D01*
X59799500Y-22318206D01*
X59799500Y-22681794D01*
X59808532Y-22773499D01*
X59835137Y-23043630D01*
X59906064Y-23400212D01*
X59906067Y-23400223D01*
X60011614Y-23748165D01*
X60150754Y-24084078D01*
X60150756Y-24084083D01*
X60322140Y-24404720D01*
X60322151Y-24404738D01*
X60524140Y-24707035D01*
X60524150Y-24707049D01*
X60754807Y-24988106D01*
X61011893Y-25245192D01*
X61011898Y-25245196D01*
X61011899Y-25245197D01*
X61292956Y-25475854D01*
X61595268Y-25677853D01*
X61595277Y-25677858D01*
X61595279Y-25677859D01*
X61915916Y-25849243D01*
X61915918Y-25849243D01*
X61915924Y-25849247D01*
X62251836Y-25988386D01*
X62599767Y-26093930D01*
X62599773Y-26093931D01*
X62599776Y-26093932D01*
X62599787Y-26093935D01*
X62949114Y-26163419D01*
X62956369Y-26164862D01*
X63318206Y-26200500D01*
X63318209Y-26200500D01*
X63681791Y-26200500D01*
X63681794Y-26200500D01*
X64043631Y-26164862D01*
X64115834Y-26150500D01*
X64400212Y-26093935D01*
X64400223Y-26093932D01*
X64400223Y-26093931D01*
X64400233Y-26093930D01*
X64748164Y-25988386D01*
X65084076Y-25849247D01*
X65404732Y-25677853D01*
X65707044Y-25475854D01*
X65988101Y-25245197D01*
X66245197Y-24988101D01*
X66475854Y-24707044D01*
X66677853Y-24404732D01*
X66849247Y-24084076D01*
X66988386Y-23748164D01*
X67093930Y-23400233D01*
X67093932Y-23400223D01*
X67093935Y-23400212D01*
X67164862Y-23043630D01*
X67174284Y-22947967D01*
X67200500Y-22681794D01*
X67200500Y-22318206D01*
X67164862Y-21956369D01*
X67093935Y-21599787D01*
X67093932Y-21599776D01*
X67093931Y-21599773D01*
X67093930Y-21599767D01*
X66988386Y-21251836D01*
X66849247Y-20915924D01*
X66677853Y-20595268D01*
X66475854Y-20292956D01*
X66245197Y-20011899D01*
X66245196Y-20011898D01*
X66245192Y-20011893D01*
X65988106Y-19754807D01*
X65707049Y-19524150D01*
X65707048Y-19524149D01*
X65707044Y-19524146D01*
X65404732Y-19322147D01*
X65404727Y-19322144D01*
X65404720Y-19322140D01*
X65084083Y-19150756D01*
X65084078Y-19150754D01*
X64748165Y-19011614D01*
X64400223Y-18906067D01*
X64400212Y-18906064D01*
X64043630Y-18835137D01*
X63771111Y-18808296D01*
X63681794Y-18799500D01*
X63318206Y-18799500D01*
X63235679Y-18807628D01*
X62956369Y-18835137D01*
X62599787Y-18906064D01*
X62599776Y-18906067D01*
X62251834Y-19011614D01*
X61915921Y-19150754D01*
X61915916Y-19150756D01*
X61595279Y-19322140D01*
X61595261Y-19322151D01*
X61292964Y-19524140D01*
X61292950Y-19524150D01*
X61011893Y-19754807D01*
X60754807Y-20011893D01*
X60524150Y-20292950D01*
X60524140Y-20292964D01*
X60322151Y-20595261D01*
X60322140Y-20595279D01*
X60150756Y-20915916D01*
X60150754Y-20915921D01*
X60011614Y-21251834D01*
X59906067Y-21599776D01*
X59906064Y-21599787D01*
X59835137Y-21956369D01*
X59807628Y-22235679D01*
X59799500Y-22318206D01*
X48700500Y-22318206D01*
X48700499Y-21076656D01*
X48690349Y-20977292D01*
X48637003Y-20816303D01*
X48636999Y-20816297D01*
X48636998Y-20816294D01*
X48547970Y-20671959D01*
X48547967Y-20671955D01*
X48428044Y-20552032D01*
X48428040Y-20552029D01*
X48283705Y-20463001D01*
X48283699Y-20462998D01*
X48283697Y-20462997D01*
X48283694Y-20462996D01*
X48122709Y-20409651D01*
X48023346Y-20399500D01*
X47476662Y-20399500D01*
X47476644Y-20399501D01*
X47377292Y-20409650D01*
X47377289Y-20409651D01*
X47216305Y-20462996D01*
X47216294Y-20463001D01*
X47071959Y-20552029D01*
X47071955Y-20552032D01*
X46952032Y-20671955D01*
X46952029Y-20671959D01*
X46863001Y-20816294D01*
X46862996Y-20816305D01*
X46809651Y-20977290D01*
X46799500Y-21076647D01*
X36800498Y-21076647D01*
X36790349Y-20977292D01*
X36737003Y-20816303D01*
X36736999Y-20816297D01*
X36736998Y-20816294D01*
X36647970Y-20671959D01*
X36647967Y-20671955D01*
X36528044Y-20552032D01*
X36528040Y-20552029D01*
X36383705Y-20463001D01*
X36383699Y-20462998D01*
X36383697Y-20462997D01*
X36383694Y-20462996D01*
X36222709Y-20409651D01*
X36123346Y-20399500D01*
X35576662Y-20399500D01*
X35576644Y-20399501D01*
X35477292Y-20409650D01*
X35477289Y-20409651D01*
X35316305Y-20462996D01*
X35316294Y-20463001D01*
X35171959Y-20552029D01*
X35171955Y-20552032D01*
X35052032Y-20671955D01*
X35052029Y-20671959D01*
X34963001Y-20816294D01*
X34962996Y-20816305D01*
X34909651Y-20977290D01*
X34899500Y-21076647D01*
X34899500Y-22423337D01*
X34899501Y-22423355D01*
X34909650Y-22522707D01*
X34909651Y-22522710D01*
X34962996Y-22683694D01*
X34963001Y-22683705D01*
X35052029Y-22828040D01*
X35052032Y-22828044D01*
X35171957Y-22947969D01*
X35176217Y-22951338D01*
X35216591Y-23008361D01*
X35219726Y-23078161D01*
X35186982Y-23136281D01*
X30753786Y-27569478D01*
X30641981Y-27681282D01*
X30641980Y-27681284D01*
X30597615Y-27758127D01*
X30562923Y-27818215D01*
X30521999Y-27970943D01*
X30521999Y-27970945D01*
X30521999Y-28139046D01*
X30522000Y-28139059D01*
X30522000Y-30163330D01*
X30521999Y-30163348D01*
X30521999Y-30329054D01*
X30521998Y-30329054D01*
X30562923Y-30481785D01*
X30591858Y-30531900D01*
X30591859Y-30531904D01*
X30591860Y-30531904D01*
X30641979Y-30618714D01*
X30641981Y-30618717D01*
X30760849Y-30737585D01*
X30760855Y-30737590D01*
X31437639Y-31414374D01*
X31437649Y-31414385D01*
X31441979Y-31418715D01*
X31441980Y-31418716D01*
X31553784Y-31530520D01*
X31619076Y-31568216D01*
X31690715Y-31609577D01*
X31843443Y-31650501D01*
X31843446Y-31650501D01*
X32009153Y-31650501D01*
X32009169Y-31650500D01*
X33572403Y-31650500D01*
X33639442Y-31670185D01*
X33660083Y-31686818D01*
X34803784Y-32830520D01*
X34803786Y-32830521D01*
X34803790Y-32830524D01*
X34889603Y-32880068D01*
X34937819Y-32930634D01*
X34951043Y-32999241D01*
X34925075Y-33064106D01*
X34915285Y-33075136D01*
X34900713Y-33089707D01*
X34900710Y-33089711D01*
X34813109Y-33220814D01*
X34813102Y-33220827D01*
X34752764Y-33366498D01*
X34752761Y-33366510D01*
X34722000Y-33521153D01*
X34722000Y-33678846D01*
X34752761Y-33833489D01*
X34752764Y-33833501D01*
X34813102Y-33979172D01*
X34813106Y-33979179D01*
X34851102Y-34036044D01*
X34856753Y-34054091D01*
X34866977Y-34070000D01*
X34871428Y-34100959D01*
X34871980Y-34102721D01*
X34872000Y-34104935D01*
X34872000Y-34279192D01*
X34852315Y-34346231D01*
X34835681Y-34366873D01*
X34389373Y-34813181D01*
X34328050Y-34846666D01*
X34301692Y-34849500D01*
X31158429Y-34849500D01*
X31032761Y-34874497D01*
X31032755Y-34874499D01*
X30914370Y-34923535D01*
X30807831Y-34994722D01*
X30807824Y-34994728D01*
X29667225Y-36135328D01*
X29667223Y-36135331D01*
X29657088Y-36150500D01*
X29657086Y-36150501D01*
X29657086Y-36150502D01*
X29596035Y-36241870D01*
X29546999Y-36360255D01*
X29546997Y-36360261D01*
X29522000Y-36485928D01*
X29522000Y-36485931D01*
X29522000Y-37764069D01*
X29522000Y-37764071D01*
X29521999Y-37764071D01*
X16800500Y-37764071D01*
X16800500Y-22318206D01*
X18299500Y-22318206D01*
X18299500Y-22681794D01*
X18308532Y-22773499D01*
X18335137Y-23043630D01*
X18406064Y-23400212D01*
X18406067Y-23400223D01*
X18511614Y-23748165D01*
X18650754Y-24084078D01*
X18650756Y-24084083D01*
X18822140Y-24404720D01*
X18822151Y-24404738D01*
X19024140Y-24707035D01*
X19024150Y-24707049D01*
X19254807Y-24988106D01*
X19511893Y-25245192D01*
X19511898Y-25245196D01*
X19511899Y-25245197D01*
X19792956Y-25475854D01*
X20095268Y-25677853D01*
X20095277Y-25677858D01*
X20095279Y-25677859D01*
X20415916Y-25849243D01*
X20415918Y-25849243D01*
X20415924Y-25849247D01*
X20751836Y-25988386D01*
X21099767Y-26093930D01*
X21099773Y-26093931D01*
X21099776Y-26093932D01*
X21099787Y-26093935D01*
X21449114Y-26163419D01*
X21456369Y-26164862D01*
X21818206Y-26200500D01*
X21818209Y-26200500D01*
X22181791Y-26200500D01*
X22181794Y-26200500D01*
X22543631Y-26164862D01*
X22615834Y-26150500D01*
X22900212Y-26093935D01*
X22900223Y-26093932D01*
X22900223Y-26093931D01*
X22900233Y-26093930D01*
X23248164Y-25988386D01*
X23584076Y-25849247D01*
X23904732Y-25677853D01*
X24207044Y-25475854D01*
X24488101Y-25245197D01*
X24745197Y-24988101D01*
X24975854Y-24707044D01*
X25177853Y-24404732D01*
X25349247Y-24084076D01*
X25488386Y-23748164D01*
X25593930Y-23400233D01*
X25593932Y-23400223D01*
X25593935Y-23400212D01*
X25664862Y-23043630D01*
X25674284Y-22947967D01*
X25700500Y-22681794D01*
X25700500Y-22318206D01*
X25664862Y-21956369D01*
X25593935Y-21599787D01*
X25593932Y-21599776D01*
X25593931Y-21599773D01*
X25593930Y-21599767D01*
X25488386Y-21251836D01*
X25349247Y-20915924D01*
X25177853Y-20595268D01*
X24975854Y-20292956D01*
X24745197Y-20011899D01*
X24745196Y-20011898D01*
X24745192Y-20011893D01*
X24488106Y-19754807D01*
X24207049Y-19524150D01*
X24207048Y-19524149D01*
X24207044Y-19524146D01*
X23904732Y-19322147D01*
X23904727Y-19322144D01*
X23904720Y-19322140D01*
X23584083Y-19150756D01*
X23584078Y-19150754D01*
X23248165Y-19011614D01*
X22900223Y-18906067D01*
X22900212Y-18906064D01*
X22543630Y-18835137D01*
X22271111Y-18808296D01*
X22181794Y-18799500D01*
X21818206Y-18799500D01*
X21735679Y-18807628D01*
X21456369Y-18835137D01*
X21099787Y-18906064D01*
X21099776Y-18906067D01*
X20751834Y-19011614D01*
X20415921Y-19150754D01*
X20415916Y-19150756D01*
X20095279Y-19322140D01*
X20095261Y-19322151D01*
X19792964Y-19524140D01*
X19792950Y-19524150D01*
X19511893Y-19754807D01*
X19254807Y-20011893D01*
X19024150Y-20292950D01*
X19024140Y-20292964D01*
X18822151Y-20595261D01*
X18822140Y-20595279D01*
X18650756Y-20915916D01*
X18650754Y-20915921D01*
X18511614Y-21251834D01*
X18406067Y-21599776D01*
X18406064Y-21599787D01*
X18335137Y-21956369D01*
X18307628Y-22235679D01*
X18299500Y-22318206D01*
X16800500Y-22318206D01*
X16800500Y-17624500D01*
X16820185Y-17557461D01*
X16872989Y-17511706D01*
X16924500Y-17500500D01*
X68775500Y-17500500D01*
X68842539Y-17520185D01*
G37*
%TD.AperFunction*%
%TD*%
M02*
