%TF.GenerationSoftware,KiCad,Pcbnew,9.0.5*%
%TF.CreationDate,2025-11-16T15:30:45+01:00*%
%TF.ProjectId,DronePCB,44726f6e-6550-4434-922e-6b696361645f,rev?*%
%TF.SameCoordinates,Original*%
%TF.FileFunction,Legend,Top*%
%TF.FilePolarity,Positive*%
%FSLAX46Y46*%
G04 Gerber Fmt 4.6, Leading zero omitted, Abs format (unit mm)*
G04 Created by KiCad (PCBNEW 9.0.5) date 2025-11-16 15:30:45*
%MOMM*%
%LPD*%
G01*
G04 APERTURE LIST*
%ADD10C,0.150000*%
%ADD11C,0.120000*%
%ADD12C,0.127000*%
%ADD13C,0.200000*%
G04 APERTURE END LIST*
D10*
X21238095Y-100804819D02*
X21238095Y-99804819D01*
X21238095Y-100281009D02*
X21809523Y-100281009D01*
X21809523Y-100804819D02*
X21809523Y-99804819D01*
X22809523Y-100804819D02*
X22238095Y-100804819D01*
X22523809Y-100804819D02*
X22523809Y-99804819D01*
X22523809Y-99804819D02*
X22428571Y-99947676D01*
X22428571Y-99947676D02*
X22333333Y-100042914D01*
X22333333Y-100042914D02*
X22238095Y-100090533D01*
X60833333Y-38542319D02*
X60500000Y-38066128D01*
X60261905Y-38542319D02*
X60261905Y-37542319D01*
X60261905Y-37542319D02*
X60642857Y-37542319D01*
X60642857Y-37542319D02*
X60738095Y-37589938D01*
X60738095Y-37589938D02*
X60785714Y-37637557D01*
X60785714Y-37637557D02*
X60833333Y-37732795D01*
X60833333Y-37732795D02*
X60833333Y-37875652D01*
X60833333Y-37875652D02*
X60785714Y-37970890D01*
X60785714Y-37970890D02*
X60738095Y-38018509D01*
X60738095Y-38018509D02*
X60642857Y-38066128D01*
X60642857Y-38066128D02*
X60261905Y-38066128D01*
X61690476Y-37875652D02*
X61690476Y-38542319D01*
X61452381Y-37494700D02*
X61214286Y-38208985D01*
X61214286Y-38208985D02*
X61833333Y-38208985D01*
X62738095Y-100804819D02*
X62738095Y-99804819D01*
X62738095Y-100281009D02*
X63309523Y-100281009D01*
X63309523Y-100804819D02*
X63309523Y-99804819D01*
X63738095Y-99900057D02*
X63785714Y-99852438D01*
X63785714Y-99852438D02*
X63880952Y-99804819D01*
X63880952Y-99804819D02*
X64119047Y-99804819D01*
X64119047Y-99804819D02*
X64214285Y-99852438D01*
X64214285Y-99852438D02*
X64261904Y-99900057D01*
X64261904Y-99900057D02*
X64309523Y-99995295D01*
X64309523Y-99995295D02*
X64309523Y-100090533D01*
X64309523Y-100090533D02*
X64261904Y-100233390D01*
X64261904Y-100233390D02*
X63690476Y-100804819D01*
X63690476Y-100804819D02*
X64309523Y-100804819D01*
X21261905Y-49454819D02*
X21261905Y-48454819D01*
X21261905Y-48454819D02*
X21500000Y-48454819D01*
X21500000Y-48454819D02*
X21642857Y-48502438D01*
X21642857Y-48502438D02*
X21738095Y-48597676D01*
X21738095Y-48597676D02*
X21785714Y-48692914D01*
X21785714Y-48692914D02*
X21833333Y-48883390D01*
X21833333Y-48883390D02*
X21833333Y-49026247D01*
X21833333Y-49026247D02*
X21785714Y-49216723D01*
X21785714Y-49216723D02*
X21738095Y-49311961D01*
X21738095Y-49311961D02*
X21642857Y-49407200D01*
X21642857Y-49407200D02*
X21500000Y-49454819D01*
X21500000Y-49454819D02*
X21261905Y-49454819D01*
X22785714Y-49454819D02*
X22214286Y-49454819D01*
X22500000Y-49454819D02*
X22500000Y-48454819D01*
X22500000Y-48454819D02*
X22404762Y-48597676D01*
X22404762Y-48597676D02*
X22309524Y-48692914D01*
X22309524Y-48692914D02*
X22214286Y-48740533D01*
X21238095Y-18804819D02*
X21238095Y-17804819D01*
X21238095Y-18281009D02*
X21809523Y-18281009D01*
X21809523Y-18804819D02*
X21809523Y-17804819D01*
X22190476Y-17804819D02*
X22809523Y-17804819D01*
X22809523Y-17804819D02*
X22476190Y-18185771D01*
X22476190Y-18185771D02*
X22619047Y-18185771D01*
X22619047Y-18185771D02*
X22714285Y-18233390D01*
X22714285Y-18233390D02*
X22761904Y-18281009D01*
X22761904Y-18281009D02*
X22809523Y-18376247D01*
X22809523Y-18376247D02*
X22809523Y-18614342D01*
X22809523Y-18614342D02*
X22761904Y-18709580D01*
X22761904Y-18709580D02*
X22714285Y-18757200D01*
X22714285Y-18757200D02*
X22619047Y-18804819D01*
X22619047Y-18804819D02*
X22333333Y-18804819D01*
X22333333Y-18804819D02*
X22238095Y-18757200D01*
X22238095Y-18757200D02*
X22190476Y-18709580D01*
X60833333Y-31954819D02*
X60500000Y-31478628D01*
X60261905Y-31954819D02*
X60261905Y-30954819D01*
X60261905Y-30954819D02*
X60642857Y-30954819D01*
X60642857Y-30954819D02*
X60738095Y-31002438D01*
X60738095Y-31002438D02*
X60785714Y-31050057D01*
X60785714Y-31050057D02*
X60833333Y-31145295D01*
X60833333Y-31145295D02*
X60833333Y-31288152D01*
X60833333Y-31288152D02*
X60785714Y-31383390D01*
X60785714Y-31383390D02*
X60738095Y-31431009D01*
X60738095Y-31431009D02*
X60642857Y-31478628D01*
X60642857Y-31478628D02*
X60261905Y-31478628D01*
X61166667Y-30954819D02*
X61785714Y-30954819D01*
X61785714Y-30954819D02*
X61452381Y-31335771D01*
X61452381Y-31335771D02*
X61595238Y-31335771D01*
X61595238Y-31335771D02*
X61690476Y-31383390D01*
X61690476Y-31383390D02*
X61738095Y-31431009D01*
X61738095Y-31431009D02*
X61785714Y-31526247D01*
X61785714Y-31526247D02*
X61785714Y-31764342D01*
X61785714Y-31764342D02*
X61738095Y-31859580D01*
X61738095Y-31859580D02*
X61690476Y-31907200D01*
X61690476Y-31907200D02*
X61595238Y-31954819D01*
X61595238Y-31954819D02*
X61309524Y-31954819D01*
X61309524Y-31954819D02*
X61214286Y-31907200D01*
X61214286Y-31907200D02*
X61166667Y-31859580D01*
X26523810Y-19907200D02*
X26666667Y-19954819D01*
X26666667Y-19954819D02*
X26904762Y-19954819D01*
X26904762Y-19954819D02*
X27000000Y-19907200D01*
X27000000Y-19907200D02*
X27047619Y-19859580D01*
X27047619Y-19859580D02*
X27095238Y-19764342D01*
X27095238Y-19764342D02*
X27095238Y-19669104D01*
X27095238Y-19669104D02*
X27047619Y-19573866D01*
X27047619Y-19573866D02*
X27000000Y-19526247D01*
X27000000Y-19526247D02*
X26904762Y-19478628D01*
X26904762Y-19478628D02*
X26714286Y-19431009D01*
X26714286Y-19431009D02*
X26619048Y-19383390D01*
X26619048Y-19383390D02*
X26571429Y-19335771D01*
X26571429Y-19335771D02*
X26523810Y-19240533D01*
X26523810Y-19240533D02*
X26523810Y-19145295D01*
X26523810Y-19145295D02*
X26571429Y-19050057D01*
X26571429Y-19050057D02*
X26619048Y-19002438D01*
X26619048Y-19002438D02*
X26714286Y-18954819D01*
X26714286Y-18954819D02*
X26952381Y-18954819D01*
X26952381Y-18954819D02*
X27095238Y-19002438D01*
X27523810Y-19954819D02*
X27523810Y-18954819D01*
X28523809Y-19002438D02*
X28428571Y-18954819D01*
X28428571Y-18954819D02*
X28285714Y-18954819D01*
X28285714Y-18954819D02*
X28142857Y-19002438D01*
X28142857Y-19002438D02*
X28047619Y-19097676D01*
X28047619Y-19097676D02*
X28000000Y-19192914D01*
X28000000Y-19192914D02*
X27952381Y-19383390D01*
X27952381Y-19383390D02*
X27952381Y-19526247D01*
X27952381Y-19526247D02*
X28000000Y-19716723D01*
X28000000Y-19716723D02*
X28047619Y-19811961D01*
X28047619Y-19811961D02*
X28142857Y-19907200D01*
X28142857Y-19907200D02*
X28285714Y-19954819D01*
X28285714Y-19954819D02*
X28380952Y-19954819D01*
X28380952Y-19954819D02*
X28523809Y-19907200D01*
X28523809Y-19907200D02*
X28571428Y-19859580D01*
X28571428Y-19859580D02*
X28571428Y-19526247D01*
X28571428Y-19526247D02*
X28380952Y-19526247D01*
X29000000Y-19954819D02*
X29000000Y-18954819D01*
X29000000Y-18954819D02*
X29571428Y-19954819D01*
X29571428Y-19954819D02*
X29571428Y-18954819D01*
X30000000Y-19669104D02*
X30476190Y-19669104D01*
X29904762Y-19954819D02*
X30238095Y-18954819D01*
X30238095Y-18954819D02*
X30571428Y-19954819D01*
X30904762Y-18954819D02*
X30904762Y-19764342D01*
X30904762Y-19764342D02*
X30952381Y-19859580D01*
X30952381Y-19859580D02*
X31000000Y-19907200D01*
X31000000Y-19907200D02*
X31095238Y-19954819D01*
X31095238Y-19954819D02*
X31285714Y-19954819D01*
X31285714Y-19954819D02*
X31380952Y-19907200D01*
X31380952Y-19907200D02*
X31428571Y-19859580D01*
X31428571Y-19859580D02*
X31476190Y-19764342D01*
X31476190Y-19764342D02*
X31476190Y-18954819D01*
X31857143Y-18954819D02*
X32523809Y-19954819D01*
X32523809Y-18954819D02*
X31857143Y-19954819D01*
X19733333Y-41554819D02*
X19400000Y-41078628D01*
X19161905Y-41554819D02*
X19161905Y-40554819D01*
X19161905Y-40554819D02*
X19542857Y-40554819D01*
X19542857Y-40554819D02*
X19638095Y-40602438D01*
X19638095Y-40602438D02*
X19685714Y-40650057D01*
X19685714Y-40650057D02*
X19733333Y-40745295D01*
X19733333Y-40745295D02*
X19733333Y-40888152D01*
X19733333Y-40888152D02*
X19685714Y-40983390D01*
X19685714Y-40983390D02*
X19638095Y-41031009D01*
X19638095Y-41031009D02*
X19542857Y-41078628D01*
X19542857Y-41078628D02*
X19161905Y-41078628D01*
X20685714Y-41554819D02*
X20114286Y-41554819D01*
X20400000Y-41554819D02*
X20400000Y-40554819D01*
X20400000Y-40554819D02*
X20304762Y-40697676D01*
X20304762Y-40697676D02*
X20209524Y-40792914D01*
X20209524Y-40792914D02*
X20114286Y-40840533D01*
X41738095Y-65954819D02*
X41738095Y-66764342D01*
X41738095Y-66764342D02*
X41785714Y-66859580D01*
X41785714Y-66859580D02*
X41833333Y-66907200D01*
X41833333Y-66907200D02*
X41928571Y-66954819D01*
X41928571Y-66954819D02*
X42119047Y-66954819D01*
X42119047Y-66954819D02*
X42214285Y-66907200D01*
X42214285Y-66907200D02*
X42261904Y-66859580D01*
X42261904Y-66859580D02*
X42309523Y-66764342D01*
X42309523Y-66764342D02*
X42309523Y-65954819D01*
X43309523Y-66954819D02*
X42738095Y-66954819D01*
X43023809Y-66954819D02*
X43023809Y-65954819D01*
X43023809Y-65954819D02*
X42928571Y-66097676D01*
X42928571Y-66097676D02*
X42833333Y-66192914D01*
X42833333Y-66192914D02*
X42738095Y-66240533D01*
X59761905Y-49954819D02*
X59761905Y-48954819D01*
X59761905Y-48954819D02*
X60000000Y-48954819D01*
X60000000Y-48954819D02*
X60142857Y-49002438D01*
X60142857Y-49002438D02*
X60238095Y-49097676D01*
X60238095Y-49097676D02*
X60285714Y-49192914D01*
X60285714Y-49192914D02*
X60333333Y-49383390D01*
X60333333Y-49383390D02*
X60333333Y-49526247D01*
X60333333Y-49526247D02*
X60285714Y-49716723D01*
X60285714Y-49716723D02*
X60238095Y-49811961D01*
X60238095Y-49811961D02*
X60142857Y-49907200D01*
X60142857Y-49907200D02*
X60000000Y-49954819D01*
X60000000Y-49954819D02*
X59761905Y-49954819D01*
X60714286Y-49050057D02*
X60761905Y-49002438D01*
X60761905Y-49002438D02*
X60857143Y-48954819D01*
X60857143Y-48954819D02*
X61095238Y-48954819D01*
X61095238Y-48954819D02*
X61190476Y-49002438D01*
X61190476Y-49002438D02*
X61238095Y-49050057D01*
X61238095Y-49050057D02*
X61285714Y-49145295D01*
X61285714Y-49145295D02*
X61285714Y-49240533D01*
X61285714Y-49240533D02*
X61238095Y-49383390D01*
X61238095Y-49383390D02*
X60666667Y-49954819D01*
X60666667Y-49954819D02*
X61285714Y-49954819D01*
X59285714Y-64002438D02*
X59190476Y-63954819D01*
X59190476Y-63954819D02*
X59047619Y-63954819D01*
X59047619Y-63954819D02*
X58904762Y-64002438D01*
X58904762Y-64002438D02*
X58809524Y-64097676D01*
X58809524Y-64097676D02*
X58761905Y-64192914D01*
X58761905Y-64192914D02*
X58714286Y-64383390D01*
X58714286Y-64383390D02*
X58714286Y-64526247D01*
X58714286Y-64526247D02*
X58761905Y-64716723D01*
X58761905Y-64716723D02*
X58809524Y-64811961D01*
X58809524Y-64811961D02*
X58904762Y-64907200D01*
X58904762Y-64907200D02*
X59047619Y-64954819D01*
X59047619Y-64954819D02*
X59142857Y-64954819D01*
X59142857Y-64954819D02*
X59285714Y-64907200D01*
X59285714Y-64907200D02*
X59333333Y-64859580D01*
X59333333Y-64859580D02*
X59333333Y-64526247D01*
X59333333Y-64526247D02*
X59142857Y-64526247D01*
X59952381Y-64478628D02*
X59952381Y-64954819D01*
X59619048Y-63954819D02*
X59952381Y-64478628D01*
X59952381Y-64478628D02*
X60285714Y-63954819D01*
X60619048Y-64573866D02*
X61380953Y-64573866D01*
X61809524Y-64050057D02*
X61857143Y-64002438D01*
X61857143Y-64002438D02*
X61952381Y-63954819D01*
X61952381Y-63954819D02*
X62190476Y-63954819D01*
X62190476Y-63954819D02*
X62285714Y-64002438D01*
X62285714Y-64002438D02*
X62333333Y-64050057D01*
X62333333Y-64050057D02*
X62380952Y-64145295D01*
X62380952Y-64145295D02*
X62380952Y-64240533D01*
X62380952Y-64240533D02*
X62333333Y-64383390D01*
X62333333Y-64383390D02*
X61761905Y-64954819D01*
X61761905Y-64954819D02*
X62380952Y-64954819D01*
X62714286Y-63954819D02*
X63380952Y-63954819D01*
X63380952Y-63954819D02*
X62952381Y-64954819D01*
X64285714Y-64954819D02*
X63714286Y-64954819D01*
X64000000Y-64954819D02*
X64000000Y-63954819D01*
X64000000Y-63954819D02*
X63904762Y-64097676D01*
X63904762Y-64097676D02*
X63809524Y-64192914D01*
X63809524Y-64192914D02*
X63714286Y-64240533D01*
X60333333Y-40954819D02*
X60000000Y-40478628D01*
X59761905Y-40954819D02*
X59761905Y-39954819D01*
X59761905Y-39954819D02*
X60142857Y-39954819D01*
X60142857Y-39954819D02*
X60238095Y-40002438D01*
X60238095Y-40002438D02*
X60285714Y-40050057D01*
X60285714Y-40050057D02*
X60333333Y-40145295D01*
X60333333Y-40145295D02*
X60333333Y-40288152D01*
X60333333Y-40288152D02*
X60285714Y-40383390D01*
X60285714Y-40383390D02*
X60238095Y-40431009D01*
X60238095Y-40431009D02*
X60142857Y-40478628D01*
X60142857Y-40478628D02*
X59761905Y-40478628D01*
X60714286Y-40050057D02*
X60761905Y-40002438D01*
X60761905Y-40002438D02*
X60857143Y-39954819D01*
X60857143Y-39954819D02*
X61095238Y-39954819D01*
X61095238Y-39954819D02*
X61190476Y-40002438D01*
X61190476Y-40002438D02*
X61238095Y-40050057D01*
X61238095Y-40050057D02*
X61285714Y-40145295D01*
X61285714Y-40145295D02*
X61285714Y-40240533D01*
X61285714Y-40240533D02*
X61238095Y-40383390D01*
X61238095Y-40383390D02*
X60666667Y-40954819D01*
X60666667Y-40954819D02*
X61285714Y-40954819D01*
X62738095Y-18804819D02*
X62738095Y-17804819D01*
X62738095Y-18281009D02*
X63309523Y-18281009D01*
X63309523Y-18804819D02*
X63309523Y-17804819D01*
X64214285Y-18138152D02*
X64214285Y-18804819D01*
X63976190Y-17757200D02*
X63738095Y-18471485D01*
X63738095Y-18471485D02*
X64357142Y-18471485D01*
X32738095Y-83454819D02*
X32738095Y-82454819D01*
X32738095Y-82454819D02*
X33071428Y-83169104D01*
X33071428Y-83169104D02*
X33404761Y-82454819D01*
X33404761Y-82454819D02*
X33404761Y-83454819D01*
X33880952Y-83454819D02*
X33880952Y-82454819D01*
X33880952Y-82454819D02*
X34261904Y-82454819D01*
X34261904Y-82454819D02*
X34357142Y-82502438D01*
X34357142Y-82502438D02*
X34404761Y-82550057D01*
X34404761Y-82550057D02*
X34452380Y-82645295D01*
X34452380Y-82645295D02*
X34452380Y-82788152D01*
X34452380Y-82788152D02*
X34404761Y-82883390D01*
X34404761Y-82883390D02*
X34357142Y-82931009D01*
X34357142Y-82931009D02*
X34261904Y-82978628D01*
X34261904Y-82978628D02*
X33880952Y-82978628D01*
X34880952Y-82454819D02*
X34880952Y-83264342D01*
X34880952Y-83264342D02*
X34928571Y-83359580D01*
X34928571Y-83359580D02*
X34976190Y-83407200D01*
X34976190Y-83407200D02*
X35071428Y-83454819D01*
X35071428Y-83454819D02*
X35261904Y-83454819D01*
X35261904Y-83454819D02*
X35357142Y-83407200D01*
X35357142Y-83407200D02*
X35404761Y-83359580D01*
X35404761Y-83359580D02*
X35452380Y-83264342D01*
X35452380Y-83264342D02*
X35452380Y-82454819D01*
X35976190Y-83454819D02*
X36166666Y-83454819D01*
X36166666Y-83454819D02*
X36261904Y-83407200D01*
X36261904Y-83407200D02*
X36309523Y-83359580D01*
X36309523Y-83359580D02*
X36404761Y-83216723D01*
X36404761Y-83216723D02*
X36452380Y-83026247D01*
X36452380Y-83026247D02*
X36452380Y-82645295D01*
X36452380Y-82645295D02*
X36404761Y-82550057D01*
X36404761Y-82550057D02*
X36357142Y-82502438D01*
X36357142Y-82502438D02*
X36261904Y-82454819D01*
X36261904Y-82454819D02*
X36071428Y-82454819D01*
X36071428Y-82454819D02*
X35976190Y-82502438D01*
X35976190Y-82502438D02*
X35928571Y-82550057D01*
X35928571Y-82550057D02*
X35880952Y-82645295D01*
X35880952Y-82645295D02*
X35880952Y-82883390D01*
X35880952Y-82883390D02*
X35928571Y-82978628D01*
X35928571Y-82978628D02*
X35976190Y-83026247D01*
X35976190Y-83026247D02*
X36071428Y-83073866D01*
X36071428Y-83073866D02*
X36261904Y-83073866D01*
X36261904Y-83073866D02*
X36357142Y-83026247D01*
X36357142Y-83026247D02*
X36404761Y-82978628D01*
X36404761Y-82978628D02*
X36452380Y-82883390D01*
X36833333Y-82550057D02*
X36880952Y-82502438D01*
X36880952Y-82502438D02*
X36976190Y-82454819D01*
X36976190Y-82454819D02*
X37214285Y-82454819D01*
X37214285Y-82454819D02*
X37309523Y-82502438D01*
X37309523Y-82502438D02*
X37357142Y-82550057D01*
X37357142Y-82550057D02*
X37404761Y-82645295D01*
X37404761Y-82645295D02*
X37404761Y-82740533D01*
X37404761Y-82740533D02*
X37357142Y-82883390D01*
X37357142Y-82883390D02*
X36785714Y-83454819D01*
X36785714Y-83454819D02*
X37404761Y-83454819D01*
X38261904Y-82454819D02*
X38071428Y-82454819D01*
X38071428Y-82454819D02*
X37976190Y-82502438D01*
X37976190Y-82502438D02*
X37928571Y-82550057D01*
X37928571Y-82550057D02*
X37833333Y-82692914D01*
X37833333Y-82692914D02*
X37785714Y-82883390D01*
X37785714Y-82883390D02*
X37785714Y-83264342D01*
X37785714Y-83264342D02*
X37833333Y-83359580D01*
X37833333Y-83359580D02*
X37880952Y-83407200D01*
X37880952Y-83407200D02*
X37976190Y-83454819D01*
X37976190Y-83454819D02*
X38166666Y-83454819D01*
X38166666Y-83454819D02*
X38261904Y-83407200D01*
X38261904Y-83407200D02*
X38309523Y-83359580D01*
X38309523Y-83359580D02*
X38357142Y-83264342D01*
X38357142Y-83264342D02*
X38357142Y-83026247D01*
X38357142Y-83026247D02*
X38309523Y-82931009D01*
X38309523Y-82931009D02*
X38261904Y-82883390D01*
X38261904Y-82883390D02*
X38166666Y-82835771D01*
X38166666Y-82835771D02*
X37976190Y-82835771D01*
X37976190Y-82835771D02*
X37880952Y-82883390D01*
X37880952Y-82883390D02*
X37833333Y-82931009D01*
X37833333Y-82931009D02*
X37785714Y-83026247D01*
X39261904Y-82454819D02*
X38785714Y-82454819D01*
X38785714Y-82454819D02*
X38738095Y-82931009D01*
X38738095Y-82931009D02*
X38785714Y-82883390D01*
X38785714Y-82883390D02*
X38880952Y-82835771D01*
X38880952Y-82835771D02*
X39119047Y-82835771D01*
X39119047Y-82835771D02*
X39214285Y-82883390D01*
X39214285Y-82883390D02*
X39261904Y-82931009D01*
X39261904Y-82931009D02*
X39309523Y-83026247D01*
X39309523Y-83026247D02*
X39309523Y-83264342D01*
X39309523Y-83264342D02*
X39261904Y-83359580D01*
X39261904Y-83359580D02*
X39214285Y-83407200D01*
X39214285Y-83407200D02*
X39119047Y-83454819D01*
X39119047Y-83454819D02*
X38880952Y-83454819D01*
X38880952Y-83454819D02*
X38785714Y-83407200D01*
X38785714Y-83407200D02*
X38738095Y-83359580D01*
X44476190Y-107954819D02*
X44476190Y-106954819D01*
X44476190Y-106954819D02*
X45047618Y-107954819D01*
X45047618Y-107954819D02*
X45047618Y-106954819D01*
X46095237Y-107954819D02*
X45761904Y-107478628D01*
X45523809Y-107954819D02*
X45523809Y-106954819D01*
X45523809Y-106954819D02*
X45904761Y-106954819D01*
X45904761Y-106954819D02*
X45999999Y-107002438D01*
X45999999Y-107002438D02*
X46047618Y-107050057D01*
X46047618Y-107050057D02*
X46095237Y-107145295D01*
X46095237Y-107145295D02*
X46095237Y-107288152D01*
X46095237Y-107288152D02*
X46047618Y-107383390D01*
X46047618Y-107383390D02*
X45999999Y-107431009D01*
X45999999Y-107431009D02*
X45904761Y-107478628D01*
X45904761Y-107478628D02*
X45523809Y-107478628D01*
X46857142Y-107431009D02*
X46523809Y-107431009D01*
X46523809Y-107954819D02*
X46523809Y-106954819D01*
X46523809Y-106954819D02*
X46999999Y-106954819D01*
X47333333Y-107050057D02*
X47380952Y-107002438D01*
X47380952Y-107002438D02*
X47476190Y-106954819D01*
X47476190Y-106954819D02*
X47714285Y-106954819D01*
X47714285Y-106954819D02*
X47809523Y-107002438D01*
X47809523Y-107002438D02*
X47857142Y-107050057D01*
X47857142Y-107050057D02*
X47904761Y-107145295D01*
X47904761Y-107145295D02*
X47904761Y-107240533D01*
X47904761Y-107240533D02*
X47857142Y-107383390D01*
X47857142Y-107383390D02*
X47285714Y-107954819D01*
X47285714Y-107954819D02*
X47904761Y-107954819D01*
X48761904Y-107288152D02*
X48761904Y-107954819D01*
X48523809Y-106907200D02*
X48285714Y-107621485D01*
X48285714Y-107621485D02*
X48904761Y-107621485D01*
X49761904Y-107954819D02*
X49285714Y-107954819D01*
X49285714Y-107954819D02*
X49285714Y-106954819D01*
X50285714Y-106954819D02*
X50380952Y-106954819D01*
X50380952Y-106954819D02*
X50476190Y-107002438D01*
X50476190Y-107002438D02*
X50523809Y-107050057D01*
X50523809Y-107050057D02*
X50571428Y-107145295D01*
X50571428Y-107145295D02*
X50619047Y-107335771D01*
X50619047Y-107335771D02*
X50619047Y-107573866D01*
X50619047Y-107573866D02*
X50571428Y-107764342D01*
X50571428Y-107764342D02*
X50523809Y-107859580D01*
X50523809Y-107859580D02*
X50476190Y-107907200D01*
X50476190Y-107907200D02*
X50380952Y-107954819D01*
X50380952Y-107954819D02*
X50285714Y-107954819D01*
X50285714Y-107954819D02*
X50190476Y-107907200D01*
X50190476Y-107907200D02*
X50142857Y-107859580D01*
X50142857Y-107859580D02*
X50095238Y-107764342D01*
X50095238Y-107764342D02*
X50047619Y-107573866D01*
X50047619Y-107573866D02*
X50047619Y-107335771D01*
X50047619Y-107335771D02*
X50095238Y-107145295D01*
X50095238Y-107145295D02*
X50142857Y-107050057D01*
X50142857Y-107050057D02*
X50190476Y-107002438D01*
X50190476Y-107002438D02*
X50285714Y-106954819D01*
X51571428Y-107954819D02*
X51000000Y-107954819D01*
X51285714Y-107954819D02*
X51285714Y-106954819D01*
X51285714Y-106954819D02*
X51190476Y-107097676D01*
X51190476Y-107097676D02*
X51095238Y-107192914D01*
X51095238Y-107192914D02*
X51000000Y-107240533D01*
D11*
%TO.C,R4*%
X60477500Y-35754724D02*
X60477500Y-35245276D01*
X61522500Y-35754724D02*
X61522500Y-35245276D01*
%TO.C,D1*%
X21165000Y-43875000D02*
X21165000Y-46335000D01*
X21165000Y-46335000D02*
X22635000Y-46335000D01*
X22635000Y-46335000D02*
X22635000Y-43875000D01*
%TO.C,R3*%
X58477500Y-32254724D02*
X58477500Y-31745276D01*
X59522500Y-32254724D02*
X59522500Y-31745276D01*
%TO.C,SIGNAUX*%
X33180000Y-21980000D02*
X33180000Y-20600000D01*
X34560000Y-21980000D02*
X33180000Y-21980000D01*
X35830000Y-19220000D02*
X51180000Y-19220000D01*
X35830000Y-21980000D02*
X35830000Y-19220000D01*
X35830000Y-21980000D02*
X51180000Y-21980000D01*
X51180000Y-21980000D02*
X51180000Y-19220000D01*
%TO.C,R1*%
X23042224Y-40577500D02*
X22532776Y-40577500D01*
X23042224Y-41622500D02*
X22532776Y-41622500D01*
D12*
%TO.C,U1*%
X28220000Y-26025000D02*
X39289000Y-26025000D01*
X28220000Y-26025000D02*
X56730000Y-26025000D01*
X28220000Y-76975000D02*
X28220000Y-26025000D01*
X28220000Y-76975000D02*
X28220000Y-26025000D01*
X28220000Y-76975000D02*
X33590000Y-76975000D01*
X33590000Y-76975000D02*
X51280000Y-76975000D01*
X39289000Y-26025000D02*
X46000000Y-26025000D01*
X46000000Y-26025000D02*
X56730000Y-26025000D01*
X51280000Y-76975000D02*
X56730000Y-76975000D01*
X56730000Y-26025000D02*
X56730000Y-76975000D01*
X56730000Y-26025000D02*
X56730000Y-76975000D01*
X56730000Y-76975000D02*
X28220000Y-76975000D01*
D13*
X27750000Y-35985000D02*
G75*
G02*
X27550000Y-35985000I-100000J0D01*
G01*
X27550000Y-35985000D02*
G75*
G02*
X27750000Y-35985000I100000J0D01*
G01*
D11*
%TO.C,D2*%
X58740000Y-45265000D02*
X58740000Y-46735000D01*
X58740000Y-46735000D02*
X61200000Y-46735000D01*
X61200000Y-45265000D02*
X58740000Y-45265000D01*
%TO.C,GY-271*%
X60220000Y-65620000D02*
X61600000Y-65620000D01*
X60220000Y-67000000D02*
X60220000Y-65620000D01*
X60220000Y-68270000D02*
X60220000Y-78540000D01*
X60220000Y-68270000D02*
X62980000Y-68270000D01*
X60220000Y-78540000D02*
X62980000Y-78540000D01*
X62980000Y-68270000D02*
X62980000Y-78540000D01*
%TO.C,R2*%
X60132776Y-43077500D02*
X60642224Y-43077500D01*
X60132776Y-44122500D02*
X60642224Y-44122500D01*
%TO.C,MPU9265*%
X29840000Y-84120000D02*
X29840000Y-86880000D01*
X52810000Y-84120000D02*
X29840000Y-84120000D01*
X52810000Y-84120000D02*
X52810000Y-86880000D01*
X52810000Y-86880000D02*
X29840000Y-86880000D01*
X54080000Y-84120000D02*
X55460000Y-84120000D01*
X55460000Y-84120000D02*
X55460000Y-85500000D01*
%TO.C,NRF24L01*%
X38290000Y-101890000D02*
X46510000Y-101890000D01*
X38290000Y-104000000D02*
X38290000Y-101890000D01*
X38290000Y-106110000D02*
X38290000Y-105000000D01*
X39400000Y-106110000D02*
X38290000Y-106110000D01*
X40400000Y-104000000D02*
X38290000Y-104000000D01*
X40400000Y-106110000D02*
X40400000Y-104000000D01*
X40400000Y-106110000D02*
X46510000Y-106110000D01*
X46510000Y-106110000D02*
X46510000Y-101890000D01*
%TD*%
M02*
