%TF.GenerationSoftware,KiCad,Pcbnew,9.0.5*%
%TF.CreationDate,2025-12-04T02:48:25+01:00*%
%TF.ProjectId,Manette drone Robotech,4d616e65-7474-4652-9064-726f6e652052,rev?*%
%TF.SameCoordinates,Original*%
%TF.FileFunction,Soldermask,Bot*%
%TF.FilePolarity,Negative*%
%FSLAX46Y46*%
G04 Gerber Fmt 4.6, Leading zero omitted, Abs format (unit mm)*
G04 Created by KiCad (PCBNEW 9.0.5) date 2025-12-04 02:48:25*
%MOMM*%
%LPD*%
G01*
G04 APERTURE LIST*
%ADD10C,6.400000*%
%ADD11R,1.600000X1.600000*%
%ADD12O,1.600000X1.600000*%
%ADD13R,1.700000X1.700000*%
%ADD14C,1.700000*%
G04 APERTURE END LIST*
D10*
%TO.C,H3*%
X170100000Y-58500000D03*
%TD*%
D11*
%TO.C,A1*%
X92100000Y-54500000D03*
D12*
X92100000Y-57040000D03*
X92100000Y-59580000D03*
X92100000Y-62120000D03*
X92100000Y-64660000D03*
X92100000Y-67200000D03*
X92100000Y-69740000D03*
X92100000Y-72280000D03*
X92100000Y-74820000D03*
X92100000Y-77360000D03*
X92100000Y-79900000D03*
X92100000Y-82440000D03*
X92100000Y-84980000D03*
X92100000Y-87520000D03*
X92100000Y-90060000D03*
X107340000Y-90060000D03*
X107340000Y-87520000D03*
X107340000Y-84980000D03*
X107340000Y-82440000D03*
X107340000Y-79900000D03*
X107340000Y-77360000D03*
X107340000Y-74820000D03*
X107340000Y-72280000D03*
X107340000Y-69740000D03*
X107340000Y-67200000D03*
X107340000Y-64660000D03*
X107340000Y-62120000D03*
X107340000Y-59580000D03*
X107340000Y-57040000D03*
X107340000Y-54500000D03*
%TD*%
D13*
%TO.C,GP_POT1*%
X153100000Y-24000000D03*
D14*
X150560000Y-24000000D03*
X148020000Y-24000000D03*
%TD*%
D10*
%TO.C,H7*%
X66200000Y-58400000D03*
%TD*%
%TO.C,H5*%
X31200000Y-58400000D03*
%TD*%
D13*
%TO.C,SW1*%
X32520000Y-24500000D03*
D14*
X35060000Y-24500000D03*
X37600000Y-24500000D03*
%TD*%
D10*
%TO.C,H4*%
X31200000Y-100400000D03*
%TD*%
D13*
%TO.C,SW2*%
X64560000Y-24500000D03*
D14*
X67100000Y-24500000D03*
X69640000Y-24500000D03*
%TD*%
D13*
%TO.C,J2*%
X114340000Y-44400000D03*
D14*
X114340000Y-46940000D03*
%TD*%
D13*
%TO.C,JL2*%
X84600000Y-65920000D03*
D14*
X84600000Y-68460000D03*
X84600000Y-71000000D03*
%TD*%
D13*
%TO.C,JR2*%
X114600000Y-65960000D03*
D14*
X114600000Y-68500000D03*
X114600000Y-71040000D03*
%TD*%
D10*
%TO.C,H8*%
X66200000Y-100400000D03*
%TD*%
%TO.C,H6*%
X170100000Y-100500000D03*
%TD*%
D13*
%TO.C,JR1*%
X114600000Y-77880000D03*
D14*
X114600000Y-80420000D03*
X114600000Y-82960000D03*
%TD*%
D13*
%TO.C,J1*%
X95220000Y-37440000D03*
D14*
X95220000Y-34900000D03*
X97760000Y-37440000D03*
X97760000Y-34900000D03*
X100300000Y-37440000D03*
X100300000Y-34900000D03*
X102840000Y-37440000D03*
X102840000Y-34900000D03*
%TD*%
D10*
%TO.C,H2*%
X135100000Y-100500000D03*
%TD*%
D13*
%TO.C,JL1*%
X84700000Y-77160000D03*
D14*
X84700000Y-79700000D03*
X84700000Y-82240000D03*
%TD*%
D10*
%TO.C,H1*%
X135100000Y-58500000D03*
%TD*%
M02*
