M48
; DRILL file {KiCad 9.0.5} date 2025-12-04T02:49:20+0100
; FORMAT={-:-/ absolute / metric / decimal}
; #@! TF.CreationDate,2025-12-04T02:49:20+01:00
; #@! TF.GenerationSoftware,Kicad,Pcbnew,9.0.5
; #@! TF.FileFunction,Plated,1,2,PTH
FMAT,2
METRIC
; #@! TA.AperFunction,Plated,PTH,ViaDrill
T1C0.300
; #@! TA.AperFunction,Plated,PTH,ComponentDrill
T2C1.000
; #@! TA.AperFunction,Plated,PTH,ComponentDrill
T3C3.200
%
G90
G05
T1
X25.4Y-25.4
X25.4Y-38.1
X25.76Y-57.8
X25.76Y-70.5
X25.76Y-83.2
X25.76Y-95.9
X38.1Y-38.1
X38.46Y-57.8
X38.46Y-70.5
X38.46Y-83.2
X38.46Y-95.9
X50.8Y-38.1
X51.16Y-57.8
X51.16Y-70.5
X51.16Y-83.2
X51.16Y-95.9
X63.86Y-70.5
X63.86Y-83.2
X63.86Y-95.9
X76.2Y-38.1
X76.2Y-63.5
X76.2Y-76.2
X76.2Y-88.9
X76.2Y-101.6
X88.9Y-25.4
X88.9Y-38.1
X88.9Y-101.6
X96.9Y-82.7
X99.4Y-85.1
X100.8Y-85.9
X101.6Y-25.4
X101.6Y-101.6
X102.7Y-83.3
X111.5Y-85.3
X114.0Y-87.7
X114.3Y-25.4
X114.3Y-38.1
X114.3Y-101.6
X127.0Y-25.4
X127.0Y-38.1
X127.0Y-63.5
X127.0Y-76.2
X127.0Y-88.9
X127.0Y-101.6
X134.2Y-33.2
X138.4Y-36.9
X139.7Y-70.5
X139.7Y-83.2
X139.7Y-95.9
X139.7Y-108.6
X152.4Y-38.1
X152.4Y-57.8
X152.4Y-70.5
X152.4Y-83.2
X152.4Y-95.9
X152.4Y-108.6
X165.1Y-25.4
X165.1Y-38.1
X165.1Y-70.5
X165.1Y-83.2
X165.1Y-108.6
X177.8Y-25.4
X177.8Y-38.1
X177.8Y-63.5
X177.8Y-76.2
X177.8Y-101.6
T2
X32.52Y-24.5
X35.06Y-24.5
X37.6Y-24.5
X64.56Y-24.5
X67.1Y-24.5
X69.64Y-24.5
X84.6Y-65.92
X84.6Y-68.46
X84.6Y-71.0
X84.7Y-77.16
X84.7Y-79.7
X84.7Y-82.24
X92.1Y-54.5
X92.1Y-57.04
X92.1Y-59.58
X92.1Y-62.12
X92.1Y-64.66
X92.1Y-67.2
X92.1Y-69.74
X92.1Y-72.28
X92.1Y-74.82
X92.1Y-77.36
X92.1Y-79.9
X92.1Y-82.44
X92.1Y-84.98
X92.1Y-87.52
X92.1Y-90.06
X95.22Y-34.9
X95.22Y-37.44
X97.76Y-34.9
X97.76Y-37.44
X100.3Y-34.9
X100.3Y-37.44
X102.84Y-34.9
X102.84Y-37.44
X107.34Y-54.5
X107.34Y-57.04
X107.34Y-59.58
X107.34Y-62.12
X107.34Y-64.66
X107.34Y-67.2
X107.34Y-69.74
X107.34Y-72.28
X107.34Y-74.82
X107.34Y-77.36
X107.34Y-79.9
X107.34Y-82.44
X107.34Y-84.98
X107.34Y-87.52
X107.34Y-90.06
X114.34Y-44.4
X114.34Y-46.94
X114.6Y-65.96
X114.6Y-68.5
X114.6Y-71.04
X114.6Y-77.88
X114.6Y-80.42
X114.6Y-82.96
X148.02Y-24.0
X150.56Y-24.0
X153.1Y-24.0
T3
X31.2Y-58.4
X31.2Y-100.4
X66.2Y-58.4
X66.2Y-100.4
X135.1Y-58.5
X135.1Y-100.5
X170.1Y-58.5
X170.1Y-100.5
M30
